<svg width="100" height="100" viewBox="0 0 100 100" fill="none" xmlns="http://www.w3.org/2000/svg"><path d="M51.094 29.878L46.5 28.5 46 31l5.077.846a1 1 0 01.83 1.085l-.045.459a1 1 0 01-1.118.893l-5.248-.65.92 1.835a2 2 0 01-.653 2.543l-13.588 9.361a2 2 0 01-1.38.338l-1.034-.128a2 2 0 01-1.331-.756l-1.32-1.693-2.665 6.906a1 1 0 01-1.504.461l-.816-.566a1 1 0 01-.374-1.152l2.749-7.858-2.35-.526-1.838 7.263a1 1 0 01-1.204.727l-.724-.175a1 1 0 01-.755-1.113L18.5 43h-1l-4.24 3.452a1.81 1.81 0 01-2.474-2.628l1.903-2.07 1.077-8.684a3 3 0 011.133-1.997l8.153-6.354a5 5 0 013.237-1.054l9.803.321 8.336-6.496a4 4 0 012.385-.845l5.384-.1a1 1 0 01.96.667l.25.706a1 1 0 01-.494 1.227l-5.992 3.004-.26 2.088 5.278 2.95a1 1 0 01.509.953l-.07.861a1 1 0 01-1.284.877z" fill="#77A4C5"/><path fill-rule="evenodd" clip-rule="evenodd" d="M79.357 34.121c-.894 7.208-7.461 12.326-14.668 11.432-7.207-.894-12.325-7.46-11.432-14.668.894-7.207 7.461-12.325 14.668-11.431 7.207.893 12.325 7.46 11.432 14.667zm-6.947-.86a6.15 6.15 0 11-12.206-1.515A6.15 6.15 0 0172.41 33.26z" fill="#77A4C5"/><path d="M95.398 85H4.248c-.867 0-1.323-1.026-.744-1.67l2.711-3.008a4 4 0 013.747-1.246l8.823 1.742 6.417-3.54a12 12 0 018.058-1.279L47 78.636l17.701-27.61a6 6 0 013.638-2.593l8.161-1.979 2.758-4.569c.785-1.3 2.675-1.286 3.44.026l1.612 2.764a3 3 0 01.293.687L86.5 52l1.94 1.41a5 5 0 011.889 2.758l7.002 26.318A2 2 0 0195.398 85z" fill="#77A4C5"/><path fill-rule="evenodd" clip-rule="evenodd" d="M13.05 77.31c7.207.894 13.774-4.224 14.668-11.431.893-7.208-4.225-13.775-11.432-14.668-7.207-.894-13.774 4.224-14.668 11.431C.725 69.85 5.843 76.416 13.05 77.31zm.861-6.947a6.15 6.15 0 101.513-12.206 6.15 6.15 0 00-1.513 12.206z" fill="#77A4C5"/></svg>