<svg width="256" height="84" viewBox="0 0 256 84" fill="none" xmlns="http://www.w3.org/2000/svg"><path d="M17.5 63.5L1 76.988V81h240l-11.5-4.012L129 70.5l-14.5 6.488L95.5 69l-12-2L64 57l-24 8.728L17.5 63.5z" fill="#34383A"/><path fill-rule="evenodd" clip-rule="evenodd" d="M85.321 41.2a5.88 5.88 0 0 0-.001-3.083 5.955 5.955 0 0 0-.823-1.792l-1.907-7.46c-1.136-4.447-5.688-5.834-9.306-6.215a28.298 28.298 0 0 0-6.939.168c-5.483-3.803-12.926-5.811-17.815-4.714a87.273 87.273 0 0 0-3.253.814l-.065.017c-.468.124-.937.248-1.405.367a91 91 0 0 1-1.917.46l-.043.011c-3.174.736-6.99 1.622-10.326 3.951-2.79-2.052-5.996-3.62-9.716-4.757a7.912 7.912 0 0 0-4.499-2.638 7.955 7.955 0 0 0-5.174.728 7.932 7.932 0 0 0-3.601 3.778 7.878 7.878 0 0 0-.464 5.187 7.871 7.871 0 0 0 1.69 3.211 7.904 7.904 0 0 0 2.953 2.116 7.94 7.94 0 0 0 7.069-.513 18.206 18.206 0 0 1 5.038 2.762 15.78 15.78 0 0 0-.154.685l-7.338 1.875a12.013 12.013 0 0 0-7.34 5.48 11.921 11.921 0 0 0-1.32 9.039l.753 2.949a9.782 9.782 0 0 0 2.81 4.715 20.17 20.17 0 0 0-.414 3.838 5.93 5.93 0 0 0 1.195 3.629 5.957 5.957 0 0 0 3.163 2.152 16.859 16.859 0 0 0 3.598 5.96 16.923 16.923 0 0 0 5.704 4.004 17.036 17.036 0 0 0 19.316-4.222 16.937 16.937 0 0 0 3.516-6.02 16.867 16.867 0 0 0-1.287-13.56l8.366-2.139a16.846 16.846 0 0 0 1.848 7.85 16.883 16.883 0 0 0 5.288 6.097 16.97 16.97 0 0 0 7.524 2.957 17.032 17.032 0 0 0 14.792-5.328 16.934 16.934 0 0 0 3.903-7.074A16.86 16.86 0 0 0 85.32 41.2z" fill="#34383A"/><path fill-rule="evenodd" clip-rule="evenodd" d="M82.186 41.177a3.024 3.024 0 0 0-.381-3.549L79.75 29.59c-.58-2.268-2.862-3.628-6.781-4.04-2.46-.237-4.94-.12-7.368.347-5.363-4.157-12.553-5.82-16.435-4.949-1.073.24-2.127.52-3.145.789l-.06.015c-.477.127-.953.253-1.43.374-.646.165-1.336.326-2.02.485-3.69.856-7.83 1.816-10.98 4.873-3.103-2.738-6.895-4.713-11.505-5.998a4.973 4.973 0 0 0-2.285-1.996 5.004 5.004 0 0 0-6.948 3.954 4.956 4.956 0 0 0 2.75 5.077 5.002 5.002 0 0 0 5.717-.942c3.674 1.133 6.558 2.775 8.908 5.076a14.376 14.376 0 0 0-.88 3.965l-9.241 2.363a9.075 9.075 0 0 0-5.544 4.14 9.006 9.006 0 0 0-.998 6.827l.754 2.95a6.851 6.851 0 0 0 3.297 4.276 17.11 17.11 0 0 0-.812 5.03 3.013 3.013 0 0 0 1.124 2.384 3.034 3.034 0 0 0 2.576.597 13.943 13.943 0 0 0 3.304 6.567 14.004 14.004 0 0 0 5.544 3.763 14.09 14.09 0 0 0 12.935-1.647 14.044 14.044 0 0 0 4.433-5.034 13.97 13.97 0 0 0 1.584-6.505 13.937 13.937 0 0 0-1.627-6.489 13.969 13.969 0 0 0-4.466-4.987 3.03 3.03 0 0 0 .525-1.226l.19-.077.002.008c.2.778.702 1.445 1.396 1.853a3.05 3.05 0 0 0 2.303.327l10.712-2.738a3.037 3.037 0 0 0 1.759-1.233 2.985 2.985 0 0 0 1.687 1.04 13.945 13.945 0 0 0 3.98 13.507 14.021 14.021 0 0 0 6.443 3.447 14.085 14.085 0 0 0 13.513-4.146 14.006 14.006 0 0 0 3.397-6.467 13.944 13.944 0 0 0-4.29-13.412c.16-.17.3-.359.418-.561z" fill="#7CF432"/><path fill-rule="evenodd" clip-rule="evenodd" d="M79.156 40.352a13.647 13.647 0 0 0-5.269-1.714 13.688 13.688 0 0 0-10.383 3.187 13.632 13.632 0 0 0-3.398 4.374.79.79 0 0 1-1.454-.086.783.783 0 0 1 .037-.6 15.228 15.228 0 0 1 1.882-2.929 66.863 66.863 0 0 0-22.608 5.78l.018.007a.785.785 0 1 1-.601 1.453 13.688 13.688 0 0 0-12.687 1.26 13.644 13.644 0 0 0-4.446 4.824 13.573 13.573 0 0 0-1.672 6.332.782.782 0 0 1-.494.723.792.792 0 0 1-1.026-.435.782.782 0 0 1-.057-.301c.026-2.228.55-4.423 1.532-6.426a4.655 4.655 0 0 1-2.595-1.083 4.628 4.628 0 0 1-1.492-2.377l-.754-2.949a6.763 6.763 0 0 1 .75-5.128 6.815 6.815 0 0 1 4.163-3.108l10.916-2.79a12.13 12.13 0 0 1 1.313-6.176c-3.11-3.512-7.116-5.821-12.512-7.208a2.743 2.743 0 0 1-3.11 1.744 2.728 2.728 0 0 1-1.616-.995 2.713 2.713 0 0 1 .18-3.55 2.742 2.742 0 0 1 3.547-.358c.536.374.92.927 1.08 1.558v.002c5.607 1.395 9.969 3.82 13.282 7.395.221-.318.455-.63.709-.927 2.743-3.224 6.749-4.153 10.626-5.054.685-.159 1.393-.323 2.069-.496.483-.123.966-.25 1.449-.379 1.018-.27 2.07-.548 3.121-.784 3.57-.8 10.657 1.133 15.349 5.179a24.002 24.002 0 0 1 7.72-.535c1.985.21 4.436.789 4.84 2.368l2.24 8.767c.046.025.093.048.138.074a.784.784 0 0 1-.199 1.424.79.79 0 0 1-.588-.063zM15.459 22.94a1.164 1.164 0 0 0-.86.957 1.15 1.15 0 0 0 .557 1.157 1.162 1.162 0 0 0 1.715-1.282 1.155 1.155 0 0 0-.533-.708c-.265-.155-.58-.2-.879-.124zm60.577 7.6c-.232-.909-5.36-2.064-11.054-.608h-.004a.804.804 0 0 1-.142.022c-.024.002-.047 0-.072 0a.82.82 0 0 1-.093-.005c-.024-.004-.047-.011-.071-.018-.024-.006-.052-.01-.078-.019a.724.724 0 0 1-.073-.034.722.722 0 0 1-.19-.122l-.003-.002c-4.548-4.112-11.368-5.732-14.257-5.085a82.37 82.37 0 0 0-3.062.77c-.487.129-.974.258-1.462.382-.693.177-1.41.344-2.103.505-3.624.841-7.373 1.71-9.777 4.537-.413.485-.78 1.006-1.1 1.557l-.02.038a10.525 10.525 0 0 0-1.075 7.831.785.785 0 0 1-.57.957.79.79 0 0 1-.959-.566 11.851 11.851 0 0 1-.162-.743l-10.718 2.74a5.233 5.233 0 0 0-3.196 2.387 5.193 5.193 0 0 0-.576 3.937l.754 2.949c.19.738.649 1.379 1.287 1.798.638.419 1.41.586 2.167.468a15.275 15.275 0 0 1 16.338-6.557 68.554 68.554 0 0 1 26.397-6.748 15.285 15.285 0 0 1 15.79-2.877l-1.915-7.495zm-15.264 1.456l-16.525 4.225a.79.79 0 0 1-.958-.566l-1.68-6.567a.784.784 0 0 1 .57-.956c.3-.076.805-.207 1.411-.364 1.73-.448 4.342-1.125 5.223-1.328 2.729-.625 9.677.736 12.395 4.322a.784.784 0 0 1-.436 1.234zM49.163 27.97c-.86.197-3.459.871-5.179 1.317l-.652.17 1.29 5.047 14.467-3.698c-2.71-2.348-7.908-3.298-9.926-2.835zm-2.004 9.11l6.538-1.671a.79.79 0 0 1 .959.565.784.784 0 0 1-.57.956l-6.538 1.672a.793.793 0 0 1-.837-.283.782.782 0 0 1 .165-1.109.79.79 0 0 1 .283-.13zM29.295 51.018a11.8 11.8 0 0 1 6.82.305 11.732 11.732 0 0 1 5.496 4.029 11.681 11.681 0 0 1 2.318 6.397 11.71 11.71 0 0 1-1.639 6.609 11.781 11.781 0 0 1-5.044 4.595 11.81 11.81 0 0 1-6.75 1.034 11.757 11.757 0 0 1-6.183-2.876 11.69 11.69 0 0 1-3.533-5.817 11.722 11.722 0 0 1 1.299-8.888 11.813 11.813 0 0 1 7.216-5.388zm5.418 21.193a10.218 10.218 0 0 0 5.056-3.066 10.16 10.16 0 0 0 2.5-5.346 10.117 10.117 0 0 0-.897-5.824 10.14 10.14 0 0 0-3.992-4.34 10.204 10.204 0 0 0-5.743-1.396 10.228 10.228 0 0 0-5.559 2.02 10.183 10.183 0 0 0-3.503 4.756 10.125 10.125 0 0 0-.266 5.888 10.152 10.152 0 0 0 4.681 6.213 10.23 10.23 0 0 0 7.723 1.096zm-4.245-16.604a7.03 7.03 0 0 1 4.065.182 6.991 6.991 0 0 1 3.274 2.401 6.96 6.96 0 0 1 .405 7.75 7.037 7.037 0 0 1-7.028 3.355 7.006 7.006 0 0 1-3.685-1.714 6.966 6.966 0 0 1-2.105-3.467 6.986 6.986 0 0 1 .775-5.296 7.039 7.039 0 0 1 4.3-3.21zm3.072 12.014a5.45 5.45 0 0 0 2.696-1.635 5.42 5.42 0 0 0 1.334-2.851 5.395 5.395 0 0 0-2.608-5.422 5.444 5.444 0 0 0-6.028.333 5.431 5.431 0 0 0-1.868 2.537 5.4 5.4 0 0 0-.142 3.14 5.415 5.415 0 0 0 2.496 3.315 5.457 5.457 0 0 0 4.12.584zm-1.936-7.571a2.416 2.416 0 0 1 2.523.887 2.392 2.392 0 0 1 .14 2.663 2.413 2.413 0 0 1-4.406-.627 2.393 2.393 0 0 1 .264-1.82 2.41 2.41 0 0 1 1.48-1.103zm12.017-12.004l10.712-2.739a.79.79 0 0 1 .958.566.783.783 0 0 1-.57.956L44.01 49.567a.791.791 0 0 1-.837-.283.783.783 0 0 1 .165-1.108.79.79 0 0 1 .283-.13zm25.824-7.292a11.8 11.8 0 0 1 6.82.305 11.732 11.732 0 0 1 5.495 4.03 11.68 11.68 0 0 1 2.319 6.396 11.71 11.71 0 0 1-1.639 6.609 11.782 11.782 0 0 1-5.044 4.596 11.81 11.81 0 0 1-6.75 1.034 11.757 11.757 0 0 1-6.184-2.876 11.69 11.69 0 0 1-3.532-5.817 11.723 11.723 0 0 1 1.299-8.888 11.813 11.813 0 0 1 7.216-5.389zm5.418 21.194a10.22 10.22 0 0 0 5.055-3.067 10.162 10.162 0 0 0 2.501-5.345 10.117 10.117 0 0 0-4.89-10.165 10.204 10.204 0 0 0-5.742-1.395 10.228 10.228 0 0 0-5.56 2.02 10.183 10.183 0 0 0-3.502 4.755 10.125 10.125 0 0 0-.266 5.888 10.153 10.153 0 0 0 4.68 6.214 10.23 10.23 0 0 0 7.724 1.095zm-4.245-16.604a7.03 7.03 0 0 1 4.064.181 6.99 6.99 0 0 1 3.275 2.401 6.96 6.96 0 0 1 .405 7.75 7.036 7.036 0 0 1-7.028 3.354 7.005 7.005 0 0 1-3.685-1.713 6.965 6.965 0 0 1-2.105-3.466 6.986 6.986 0 0 1 .775-5.296 7.04 7.04 0 0 1 4.3-3.21v-.001zm3.071 12.014a5.45 5.45 0 0 0 2.697-1.636 5.42 5.42 0 0 0 1.334-2.85 5.396 5.396 0 0 0-2.608-5.423 5.455 5.455 0 0 0-6.028.333 5.432 5.432 0 0 0-1.869 2.537 5.4 5.4 0 0 0-.142 3.14 5.416 5.416 0 0 0 2.497 3.316 5.457 5.457 0 0 0 4.12.584v-.001zm-1.935-7.572a2.417 2.417 0 0 1 2.522.887 2.393 2.393 0 0 1 .14 2.664 2.413 2.413 0 0 1-4.405-.627 2.393 2.393 0 0 1 .264-1.82 2.41 2.41 0 0 1 1.479-1.103zm34.81-16.151l2.406 9.215 2.398-9.215h11.566v17.187l5.371-17.187h8.754l5.039 16.017V33.635h39.271v5.586l2.483-5.586h18.606v9.921h1.561v-9.921h19.664v2.69l1.169-2.69h18.101v5.586l2.483-5.586h9.696V63.91H244.43v-5.582l-2.485 5.582H225.7l-2.017-4.406v4.406h-19.664V53.416h-1.561V63.91h-19.613v-5.582l-2.484 5.582h-45.204l-1.314-5.02h-2.317l-1.314 5.02H95V33.635h11.564zm-3.737 20.764l-.455-10.225 4.902 16.861h3.369l4.902-16.861-.455 10.225v6.636h4.969V36.51h-6.468l-4.615 17.737-4.633-17.737h-6.468v24.526h4.952v-6.637zm25.166 6.636l1.314-5.02h6.755l1.314 5.02h5.289L134.95 36.51h-4.531l-7.664 24.526h5.238zm2.392-9.146h4.582l-2.291-8.743-2.291 8.743zm39.366 9.146V36.51h-4.952v20.415h-4.919V36.51h-4.952v20.415h-4.986V36.51h-4.969v24.526h24.778zm15.969-16.238v16.239h4.952V36.51h-4.952l-7.226 16.255V36.51h-4.969v24.526h4.969l7.226-16.239zm13.863 5.744h7.311v10.495h4.935V36.51h-4.935v9.921h-7.311V36.51h-4.952v24.526h4.952V50.54zm23.381.489l4.582 10.005h5.895l-6.67-13.105 5.996-11.42h-6.03l-4.262 9.803h-1.667V36.51h-4.953v24.526h4.953V51.03h2.156zm9.27-7.32l-2.227 4.24 2.227 4.376V43.71zm2.875 17.325h4.969l7.226-16.238v16.239h4.953V36.51h-4.953l-7.226 16.255V36.51h-4.969v24.526z" fill="#34383A"/><path d="M98.282 16.041l1.801 6.898 1.795-6.898h2.516v9.538h-1.933v-2.581l.177-3.976-1.906 6.557h-1.31l-1.906-6.557.176 3.976v2.581h-1.926v-9.538h2.516zm16.628 7.586h-2.627l-.511 1.952h-2.037l2.981-9.538h1.762l3 9.538h-2.057l-.511-1.952zm-2.208-1.605h1.782l-.891-3.4-.891 3.4zm13.995 1.055c0-.389-.1-.682-.301-.878-.197-.201-.557-.409-1.081-.623-.956-.362-1.644-.786-2.064-1.27a2.573 2.573 0 0 1-.628-1.73c0-.803.283-1.447.851-1.932.572-.49 1.297-.734 2.175-.734.585 0 1.107.125 1.566.373.458.245.81.592 1.054 1.042.249.45.374.96.374 1.533h-1.92c0-.445-.096-.784-.288-1.015-.188-.236-.461-.354-.819-.354-.336 0-.598.1-.786.301-.188.197-.281.463-.281.8 0 .261.104.5.314.713.21.21.581.428 1.114.655.93.337 1.604.75 2.024 1.239.423.489.635 1.111.635 1.867 0 .83-.264 1.478-.792 1.945-.529.467-1.247.701-2.156.701a3.71 3.71 0 0 1-1.683-.38 2.867 2.867 0 0 1-1.192-1.087c-.284-.472-.426-1.029-.426-1.67h1.932c0 .55.107.95.321 1.198.214.249.564.373 1.048.373.673 0 1.009-.355 1.009-1.067zm14.198 2.502h-1.919v-4.081h-2.843v4.081h-1.926v-9.538h1.926V19.9h2.843v-3.86h1.919v9.538zm7.857 0h-1.926v-9.538h1.926v9.538zm12.579 0h-1.926l-2.816-6.256v6.256h-1.926v-9.538h1.926l2.823 6.263V16.04h1.919v9.538zm8.525-3.681l-.76.956v2.725h-1.926v-9.538h1.926v4.16l.61-1.029 1.775-3.13h2.358l-2.732 4.192 2.778 5.345h-2.286l-1.743-3.681zm11.047 3.681h-1.926v-9.538h1.926v9.538zm5.97-.943a.98.98 0 0 1 .295-.734c.201-.192.461-.288.78-.288.31 0 .567.096.772.288a.946.946 0 0 1 .308.734.945.945 0 0 1-.314.74 1.108 1.108 0 0 1-.766.275 1.1 1.1 0 0 1-.773-.282.958.958 0 0 1-.302-.733zm8.139.943v-9.538h2.947c.996 0 1.752.223 2.267.668.52.441.779 1.09.779 1.946 0 .485-.107.902-.321 1.251-.214.35-.506.605-.877.767.428.122.757.369.989.74.231.367.347.82.347 1.362 0 .926-.255 1.625-.766 2.097-.507.471-1.243.707-2.208.707h-3.157zm1.925-4.147v2.549h1.232c.345 0 .607-.107.786-.321.179-.214.269-.518.269-.91 0-.857-.31-1.296-.931-1.318h-1.356zm0-1.401h1.003c.755 0 1.133-.391 1.133-1.173 0-.432-.087-.742-.262-.93-.175-.188-.459-.282-.852-.282h-1.022v2.385zm11.912 5.548h-1.926v-9.538h1.926v9.538zm7.909-1.599h3.931v1.599h-6.184v-1.16l3.891-6.773h-3.931v-1.605h6.152v1.133l-3.859 6.807zm9.468.656c0-.297.099-.542.295-.734.201-.192.461-.288.78-.288.31 0 .567.096.773.288a.948.948 0 0 1 .307.734.945.945 0 0 1-.314.74 1.108 1.108 0 0 1-.766.275 1.1 1.1 0 0 1-.773-.282.958.958 0 0 1-.302-.733zm14.342-8.595v6.603c-.009.992-.281 1.752-.819 2.28-.537.524-1.308.786-2.312.786-1.022 0-1.804-.266-2.345-.8-.537-.532-.806-1.303-.806-2.311V16.04h1.939v6.564c0 .541.087.928.262 1.16.175.23.491.347.95.347.459 0 .773-.114.943-.341.171-.231.258-.61.262-1.133V16.04h1.926zm10.163 7.586h-2.627l-.511 1.952h-2.037l2.98-9.538h1.762l3.001 9.538h-2.057l-.511-1.952zm-2.208-1.605h1.782l-.891-3.4-.891 3.4z" fill="#34383A"/></svg>