<svg xmlns="http://www.w3.org/2000/svg" width="254" height="65" viewBox="0 0 254 65"><defs><style>.cls-1{fill:#34383a;fill-rule:evenodd}</style></defs><path class="cls-1" d="M243.3 47.935V42.36l-2.484 5.575h-16.232l-2.016-4.4v4.4h-19.654V37.454h-1.56v10.48h-19.6V42.36l-2.483 5.575h-45.184l-1.313-5.013h-2.316l-1.313 5.013H93.951V17.7h11.558l2.405 9.2 2.4-9.2h11.56v17.164l5.365-17.164h8.749l5.037 16v-16h39.251v5.579l2.481-5.579h18.6v9.908h1.56V17.7h19.654v2.687l1.168-2.687h18.092v5.579l2.481-5.579H254v30.235h-10.7zM119 20.57h-6.465l-4.615 17.714-4.631-17.714h-6.465v24.494h4.95v-6.628l-.455-10.211 4.9 16.839h3.367l4.9-16.839-.454 10.211v6.628H119V20.57zm14.883 0h-4.528l-7.66 24.493h5.235l1.313-5.013h6.752l1.313 5.013h5.286zm34.783 0h-4.949v20.389H158.8V20.57h-4.95v20.389h-4.983V20.57H143.9v24.494h24.765V20.57zm20.911 0h-4.95L177.4 36.8V20.57h-4.966v24.494h4.966l7.222-16.217v16.217h4.95V20.57zm21.146 0h-4.933v9.908h-7.31V20.57h-4.949v24.494h4.949V34.583h7.307v10.48h4.933V20.57zm14.934 11.405l5.993-11.405h-6.03l-4.26 9.791h-1.666V20.57h-4.95v24.494h4.95v-9.993h2.155l4.58 9.992h5.892zm5.46 4.39v-8.604L228.888 32zm20.013-15.8h-4.95L238.954 36.8V20.57h-4.966v24.494h4.966l7.223-16.217v16.217h4.95V20.57zM131.608 27.2l2.289 8.731h-4.579zM249.6 7.7h-2.626l-.511 1.949h-2.036l2.979-9.525h1.761l3 9.525h-2.055zm-1.317-5l-.883 3.4h1.781zm-11.97 7.078a3.2 3.2 0 01-2.344-.8 3.11 3.11 0 01-.806-2.309V.129h1.937v6.555a1.959 1.959 0 00.262 1.158 1.474 1.474 0 001.892.006 1.963 1.963 0 00.262-1.132V.129h1.925v6.595A3.088 3.088 0 01238.625 9a3.174 3.174 0 01-2.31.785zm-10.131-.059a1.1 1.1 0 01-.773-.281.956.956 0 01-.3-.733.982.982 0 01.291-.725 1.19 1.19 0 011.552 0 1.027 1.027 0 01-.007 1.472 1.1 1.1 0 01-.761.274zM213.394 8.5l3.889-6.764h-3.929v-1.6h6.146v1.125l-3.856 6.8h3.929v1.6h-6.181V8.5zM205.816.133h1.925v9.521h-1.925V.129zm-5.777 6.725a2.711 2.711 0 01-.765 2.093 3.129 3.129 0 01-2.207.707h-3.156V.129h2.946a3.378 3.378 0 012.266.671 2.4 2.4 0 01.777 1.94 2.352 2.352 0 01-.32 1.25 1.892 1.892 0 01-.877.765 1.665 1.665 0 01.989.739 2.512 2.512 0 01.347 1.361zm-2.33-4.841a1.12 1.12 0 00-.852-.281h-1.022v2.377h1a1.018 1.018 0 001.132-1.171 1.346 1.346 0 00-.258-.928zm-.518 3.5h-1.356v2.541h1.232a.964.964 0 00.785-.32 1.378 1.378 0 00.269-.909q0-1.283-.93-1.316zM186.85 9.726a1.1 1.1 0 01-.771-.281.956.956 0 01-.3-.733.978.978 0 01.3-.733 1.188 1.188 0 011.551 0 1.026 1.026 0 01-.006 1.472 1.109 1.109 0 01-.774.275zm-8.965-9.6h1.925v9.528h-1.925V.129zm-7.374 9.525l-1.743-3.677-.759.955v2.725h-1.925V.129h1.925v4.155l.61-1.027L170.393.13h2.356l-2.73 4.187 2.781 5.337h-2.284zm-15-6.248v6.251h-1.925V.129h1.925l2.822 6.254V.129h1.918v9.525h-1.925zM145.75.129h1.925v9.525h-1.925V.129zm-7.85 5.45h-2.841v4.075h-1.925V.129h1.925v3.854h2.841V.129h1.918v9.525H137.9V5.579zm-12.53-3.651a.986.986 0 00-.819-.353 1.022 1.022 0 00-.785.3 1.106 1.106 0 00-.282.8 1 1 0 00.315.713 3.662 3.662 0 001.113.654 4.746 4.746 0 012.023 1.236 2.746 2.746 0 01.635 1.864 2.458 2.458 0 01-.792 1.943 3.14 3.14 0 01-2.155.7 3.712 3.712 0 01-1.682-.379 2.863 2.863 0 01-1.191-1.086 3.169 3.169 0 01-.426-1.668h1.931a1.818 1.818 0 00.321 1.2 1.313 1.313 0 001.047.373.918.918 0 001.009-1.066 1.172 1.172 0 00-.3-.877 3.344 3.344 0 00-1.081-.622 5.086 5.086 0 01-2.063-1.269 2.572 2.572 0 01-.627-1.727 2.411 2.411 0 01.85-1.93 3.542 3.542 0 013.739-.36 2.524 2.524 0 011.054 1.04 3.1 3.1 0 01.374 1.531h-1.919a1.552 1.552 0 00-.289-1.017zM113.851 7.7h-2.626l-.511 1.949h-2.036l2.98-9.525h1.761l3 9.525h-2.056zm-1.317-5l-.89 3.4h1.781zm-11.126 4.37l.177-3.971-1.9 6.549H98.37l-1.905-6.542.177 3.971v2.577h-1.925V.129h2.514l1.8 6.889 1.793-6.889h2.515v9.525h-1.932V7.077zM82.837 47.564a16.9 16.9 0 01-2.631 2.3l2.251 1.153 11.994 2 18.99 7.977 14.492-6.479 100.449 6.479L239.876 65H0v-4.006l12.139-9.914.081-.086a5.825 5.825 0 01-2.406-4.809 20.154 20.154 0 01.414-3.837 9.779 9.779 0 01-2.809-4.714l-.754-2.949a11.964 11.964 0 018.66-14.514l7.338-1.871q.07-.344.154-.684a18.21 18.21 0 00-5.038-2.761 7.934 7.934 0 01-10.022-1.6 7.876 7.876 0 012.375-12.18 7.938 7.938 0 019.673 1.91 31.868 31.868 0 019.716 4.755c3.337-2.328 7.152-3.214 10.326-3.95l.044-.011c.647-.15 1.316-.306 1.917-.459.468-.12.936-.244 1.4-.367l.066-.017a87.71 87.71 0 013.252-.814c4.889-1.1 12.332.911 17.815 4.713a28.305 28.305 0 016.939-.168c3.618.381 8.17 1.768 9.306 6.213l1.914 7.458a5.949 5.949 0 01.822 1.791 5.875 5.875 0 010 3.082 16.87 16.87 0 01-.485 22.353zM53.385 35.991l-8.366 2.138a16.835 16.835 0 012.074 6.641c.052.543.071 1.088.07 1.631l7.93-2.883a16.824 16.824 0 01-1.708-7.527z"/><path id="Shape_1_copy" data-name="Shape 1 copy" d="M80.186 25.188a3.019 3.019 0 00-.386-3.548l-2.05-8.04c-.58-2.268-2.862-3.626-6.781-4.039a25.886 25.886 0 00-7.368.347c-5.363-4.152-12.553-5.814-16.435-4.943-1.073.24-2.127.519-3.146.788l-.06.015c-.477.126-.953.252-1.43.374-.646.165-1.336.325-2.021.484-3.69.856-7.83 1.816-10.979 4.872a28.594 28.594 0 00-11.505-6 4.981 4.981 0 10-.766 6.091 21.254 21.254 0 018.908 5.074 14.368 14.368 0 00-.88 3.964l-9.242 2.362a9.038 9.038 0 00-6.54 10.97l.754 2.948a6.858 6.858 0 003.3 4.276 17.1 17.1 0 00-.811 5.028 3.022 3.022 0 002.343 2.977 3.047 3.047 0 001.357 0c.045.222.1.444.152.665a14.016 14.016 0 0015.361 10.429 14.026 14.026 0 0012.283-13.946 13.944 13.944 0 00-6.093-11.473 3.029 3.029 0 00.343-.611 3.065 3.065 0 00.182-.614l.19-.077v.008a3.039 3.039 0 003.7 2.18l10.712-2.737a3.037 3.037 0 001.758-1.233 2.985 2.985 0 001.687 1.039 13.965 13.965 0 0010.423 16.95 14.06 14.06 0 0016.91-10.61 13.936 13.936 0 00-4.29-13.408 3.046 3.046 0 00.42-.562z" fill="#7cf432" fill-rule="evenodd"/><path id="Shape_1_copy_2" data-name="Shape 1 copy 2" class="cls-1" d="M77.156 24.363a13.673 13.673 0 00-19.049 5.845.787.787 0 11-1.417-.686 15.227 15.227 0 011.882-2.928 66.877 66.877 0 00-22.608 5.778l.018.007a.786.786 0 01-.6 1.453 13.644 13.644 0 00-18.8 12.413.789.789 0 11-1.582-.013 15 15 0 011.532-6.424 4.639 4.639 0 01-4.086-3.459l-.757-2.949a6.786 6.786 0 014.911-8.233l10.916-2.79a12.124 12.124 0 011.315-6.177c-3.111-3.508-7.116-5.816-12.512-7.2a2.713 2.713 0 11.081-1.6 26.024 26.024 0 0113.282 7.393c.221-.318.455-.629.708-.927 2.743-3.222 6.749-4.152 10.626-5.052.685-.159 1.394-.323 2.069-.5.483-.124.966-.251 1.449-.379 1.018-.269 2.071-.548 3.121-.783 3.569-.8 10.657 1.132 15.349 5.177a24.008 24.008 0 017.721-.534c1.985.209 4.436.788 4.839 2.367l2.241 8.765.138.074a.787.787 0 01-.788 1.361zM13.459 6.956a1.16 1.16 0 00-.86.957 1.152 1.152 0 00.556 1.157 1.157 1.157 0 10.3-2.114zm60.577 7.6c-.232-.908-5.361-2.063-11.055-.608a.814.814 0 01-.142.022h-.072a.82.82 0 01-.093 0 .71.71 0 01-.072-.017.784.784 0 01-.078-.019.724.724 0 01-.073-.034.712.712 0 01-.082-.043.792.792 0 01-.108-.079C57.708 9.658 50.888 8.038 48 8.685c-1.021.229-2.059.5-3.062.769-.488.129-.975.258-1.462.382-.693.177-1.41.343-2.1.5-3.624.841-7.373 1.711-9.777 4.536a10.532 10.532 0 00-1.1 1.557l-.02.038A10.52 10.52 0 0029.4 24.3a.789.789 0 01-1.529.391 11.85 11.85 0 01-.162-.743l-10.718 2.74a5.212 5.212 0 00-3.772 6.322l.754 2.948a3.075 3.075 0 003.454 2.266 15.271 15.271 0 0116.338-6.556 68.57 68.57 0 0126.4-6.746 15.287 15.287 0 0115.791-2.876l-1.916-7.493zM58.772 16.01l-16.525 4.223a.787.787 0 01-.958-.565L39.61 13.1a.786.786 0 01.569-.956l1.411-.364c1.729-.448 4.341-1.125 5.223-1.327 2.729-.625 9.677.736 12.4 4.32a.784.784 0 01-.1 1.052.791.791 0 01-.338.182zm-11.609-4.025c-.86.2-3.459.871-5.179 1.317l-.652.169 1.29 5.047 14.467-3.7c-2.71-2.347-7.909-3.3-9.926-2.835zm-2 9.107l6.537-1.671a.785.785 0 11.389 1.521l-6.539 1.671a.789.789 0 01-.6-.078.785.785 0 01.215-1.443zM27.3 35.026a11.77 11.77 0 0112.315 4.333 11.72 11.72 0 01-4.365 17.6 11.79 11.79 0 01-12.933-1.842 11.665 11.665 0 01-2.234-14.7 11.813 11.813 0 017.217-5.391zm5.418 21.188a10.19 10.19 0 007.556-8.41 10.153 10.153 0 00-10.637-11.557 10.209 10.209 0 00-9.062 6.774 10.1 10.1 0 004.415 12.1 10.234 10.234 0 007.723 1.095zm-4.244-16.6a7.013 7.013 0 017.333 2.586 6.984 6.984 0 01-2.6 10.485 7.026 7.026 0 01-7.707-1.1 6.951 6.951 0 01-1.331-8.76 7.039 7.039 0 014.3-3.21zm3.066 12.011a5.435 5.435 0 004.03-4.485 5.416 5.416 0 00-5.67-6.165 5.445 5.445 0 00-4.833 3.613 5.39 5.39 0 002.355 6.453 5.458 5.458 0 004.12.584zm-1.94-7.569a2.41 2.41 0 012.523.887 2.4 2.4 0 01-.893 3.6 2.415 2.415 0 01-2.649-.377 2.4 2.4 0 01.17-3.709 2.42 2.42 0 01.849-.4zm12.017-12l10.712-2.738a.785.785 0 11.389 1.521L42.01 33.576a.788.788 0 01-.837-.283.785.785 0 01.165-1.108.791.791 0 01.282-.13zm25.824-7.289a11.77 11.77 0 0112.32 4.333 11.72 11.72 0 01-4.365 17.6 11.79 11.79 0 01-12.933-1.841 11.664 11.664 0 01-2.234-14.7 11.812 11.812 0 017.216-5.387zm5.418 21.188a10.19 10.19 0 007.556-8.41 10.153 10.153 0 00-10.628-11.558 10.209 10.209 0 00-9.062 6.773 10.1 10.1 0 004.414 12.1 10.233 10.233 0 007.723 1.095zm-4.244-16.6a7.013 7.013 0 017.338 2.582 6.984 6.984 0 01-2.6 10.485 7.025 7.025 0 01-7.707-1.1 6.949 6.949 0 01-1.33-8.759 7.04 7.04 0 014.3-3.21zm3.071 12.011a5.435 5.435 0 004.03-4.486 5.415 5.415 0 00-5.671-6.164 5.445 5.445 0 00-4.834 3.613 5.391 5.391 0 002.355 6.454 5.458 5.458 0 004.12.584zm-1.936-7.57a2.41 2.41 0 012.523.886 2.4 2.4 0 01-.893 3.6 2.414 2.414 0 01-2.649-.377A2.4 2.4 0 0168.9 34.2a2.419 2.419 0 01.849-.4z"/></svg>