<svg width="100" height="64" viewBox="0 0 100 64" fill="none" xmlns="http://www.w3.org/2000/svg"><g clip-path="url(#clip0)"><path d="M15.5 47.5L0 62.988V64h100v-1l-6.5-10-5.5 2-6.5-4L62 41l-24 8.728L15.5 47.5z" fill="#34383A"/><path fill-rule="evenodd" clip-rule="evenodd" d="M83.321 25.2a5.878 5.878 0 0 0-.001-3.083 5.952 5.952 0 0 0-.823-1.792l-1.907-7.46c-1.136-4.447-5.688-5.834-9.306-6.215a28.298 28.298 0 0 0-6.939.168C58.862 3.015 51.419 1.007 46.53 2.104a87.596 87.596 0 0 0-3.253.814l-.065.017a88.571 88.571 0 0 1-3.322.827l-.043.011c-3.174.737-6.99 1.622-10.326 3.951-2.79-2.052-5.996-3.62-9.716-4.757A7.912 7.912 0 0 0 15.306.33a7.955 7.955 0 0 0-5.174.728 7.932 7.932 0 0 0-3.601 3.778 7.879 7.879 0 0 0-.464 5.187 7.871 7.871 0 0 0 1.69 3.211 7.903 7.903 0 0 0 2.953 2.116 7.94 7.94 0 0 0 7.069-.513 18.207 18.207 0 0 1 5.038 2.762 15.78 15.78 0 0 0-.154.685l-7.338 1.875a12.013 12.013 0 0 0-7.34 5.48 11.921 11.921 0 0 0-1.32 9.039l.753 2.949a9.782 9.782 0 0 0 2.81 4.715 20.165 20.165 0 0 0-.414 3.838 5.93 5.93 0 0 0 1.195 3.628 5.958 5.958 0 0 0 3.163 2.154 16.859 16.859 0 0 0 3.598 5.958 16.924 16.924 0 0 0 5.704 4.006 17.035 17.035 0 0 0 19.316-4.222 16.939 16.939 0 0 0 3.517-6.021 16.842 16.842 0 0 0-1.287-13.56l8.365-2.139a16.844 16.844 0 0 0 1.848 7.85 16.883 16.883 0 0 0 5.288 6.097 16.97 16.97 0 0 0 7.524 2.957 17.032 17.032 0 0 0 14.792-5.328 16.933 16.933 0 0 0 3.903-7.074A16.86 16.86 0 0 0 83.32 25.2z" fill="#34383A"/><path fill-rule="evenodd" clip-rule="evenodd" d="M80.186 25.177a3.024 3.024 0 0 0-.381-3.549L77.75 13.59c-.58-2.268-2.862-3.628-6.781-4.04-2.46-.237-4.94-.12-7.368.347-5.363-4.157-12.553-5.82-16.435-4.949-1.073.24-2.127.52-3.145.789l-.06.015c-.477.127-.953.253-1.43.374-.646.165-1.336.326-2.02.485-3.69.856-7.83 1.816-10.98 4.873-3.103-2.738-6.895-4.713-11.505-5.997A4.973 4.973 0 0 0 15.74 3.49a5.004 5.004 0 0 0-6.948 3.954 4.956 4.956 0 0 0 2.75 5.077 5.002 5.002 0 0 0 5.717-.942c3.674 1.132 6.558 2.775 8.908 5.076a14.376 14.376 0 0 0-.88 3.965l-9.241 2.363a9.075 9.075 0 0 0-5.544 4.14 9.005 9.005 0 0 0-.998 6.827l.754 2.95a6.851 6.851 0 0 0 3.297 4.276 17.11 17.11 0 0 0-.812 5.03 3.013 3.013 0 0 0 1.124 2.384 3.034 3.034 0 0 0 2.576.597 13.943 13.943 0 0 0 3.304 6.567 14.004 14.004 0 0 0 5.544 3.764 14.09 14.09 0 0 0 12.935-1.647 14.044 14.044 0 0 0 4.433-5.034 13.97 13.97 0 0 0 1.584-6.506 13.937 13.937 0 0 0-1.627-6.489 13.969 13.969 0 0 0-4.466-4.987 3.03 3.03 0 0 0 .525-1.226l.19-.077.002.008c.2.778.702 1.445 1.396 1.853a3.05 3.05 0 0 0 2.303.327l10.712-2.738a3.037 3.037 0 0 0 1.759-1.233 2.985 2.985 0 0 0 1.687 1.04 13.945 13.945 0 0 0 3.98 13.507 14.021 14.021 0 0 0 6.443 3.447 14.085 14.085 0 0 0 13.513-4.146 14.006 14.006 0 0 0 3.397-6.467 13.944 13.944 0 0 0-4.29-13.412c.16-.17.3-.359.418-.561z" fill="#7CF432"/><path fill-rule="evenodd" clip-rule="evenodd" d="M77.156 24.352a13.648 13.648 0 0 0-5.269-1.714 13.688 13.688 0 0 0-10.383 3.187 13.632 13.632 0 0 0-3.398 4.374.79.79 0 0 1-1.454-.086.783.783 0 0 1 .037-.6 15.232 15.232 0 0 1 1.882-2.929 66.863 66.863 0 0 0-22.608 5.78l.018.007a.785.785 0 1 1-.601 1.453 13.688 13.688 0 0 0-12.687 1.26 13.644 13.644 0 0 0-4.446 4.824 13.572 13.572 0 0 0-1.672 6.332.786.786 0 0 1-.797.78.79.79 0 0 1-.78-.793A15.01 15.01 0 0 1 16.53 39.8a4.655 4.655 0 0 1-2.595-1.083 4.628 4.628 0 0 1-1.492-2.377l-.754-2.949a6.763 6.763 0 0 1 .75-5.128 6.815 6.815 0 0 1 4.163-3.108l10.916-2.79a12.13 12.13 0 0 1 1.313-6.177c-3.11-3.511-7.116-5.82-12.512-7.207a2.743 2.743 0 0 1-3.11 1.744 2.714 2.714 0 0 1-1.437-4.545 2.742 2.742 0 0 1 3.548-.358c.536.374.92.927 1.08 1.559 5.607 1.396 9.969 3.82 13.282 7.396.221-.318.455-.63.709-.928 2.743-3.223 6.749-4.153 10.626-5.053.685-.159 1.393-.323 2.069-.496.483-.123.966-.25 1.449-.379 1.018-.27 2.07-.548 3.121-.784 3.57-.8 10.657 1.133 15.349 5.179a24.002 24.002 0 0 1 7.72-.534c1.985.209 4.436.788 4.84 2.367l2.24 8.767c.046.025.093.048.138.074a.784.784 0 0 1-.199 1.424.79.79 0 0 1-.588-.063zM13.459 6.94a1.163 1.163 0 0 0-.86.957 1.15 1.15 0 0 0 .557 1.157A1.161 1.161 0 0 0 14.87 7.77a1.156 1.156 0 0 0-.533-.707c-.264-.156-.58-.2-.879-.124zm60.577 7.6c-.232-.909-5.36-2.064-11.054-.608h-.004a.804.804 0 0 1-.142.022c-.024.002-.047 0-.072 0a.82.82 0 0 1-.093-.005c-.024-.004-.047-.011-.071-.018-.024-.006-.052-.01-.078-.019a.724.724 0 0 1-.073-.034.713.713 0 0 1-.19-.122l-.003-.002c-4.548-4.112-11.368-5.732-14.257-5.085a82.33 82.33 0 0 0-3.062.77c-.487.129-.974.258-1.462.382-.693.177-1.41.344-2.103.505-3.624.841-7.373 1.71-9.777 4.537a10.54 10.54 0 0 0-1.1 1.557l-.02.038a10.525 10.525 0 0 0-1.075 7.831.785.785 0 0 1-.57.957.79.79 0 0 1-.959-.566 11.852 11.852 0 0 1-.162-.743l-10.718 2.74a5.233 5.233 0 0 0-3.196 2.387 5.193 5.193 0 0 0-.576 3.937l.754 2.949c.19.738.649 1.379 1.287 1.798.639.419 1.41.586 2.167.468a15.275 15.275 0 0 1 16.338-6.558 68.554 68.554 0 0 1 26.397-6.747 15.284 15.284 0 0 1 15.79-2.877l-1.915-7.495zm-15.264 1.456l-16.525 4.225a.79.79 0 0 1-.958-.566l-1.679-6.567a.784.784 0 0 1 .57-.956c.299-.076.804-.207 1.41-.364 1.73-.448 4.342-1.125 5.223-1.328 2.729-.625 9.677.736 12.395 4.322a.784.784 0 0 1-.436 1.234zM47.163 11.97c-.86.197-3.459.871-5.179 1.317l-.652.17 1.29 5.047 14.467-3.698c-2.71-2.348-7.908-3.298-9.926-2.835zm-2.004 9.11l6.539-1.671a.79.79 0 0 1 .958.565.784.784 0 0 1-.57.956l-6.538 1.672a.793.793 0 0 1-.837-.283.782.782 0 0 1 .165-1.109.79.79 0 0 1 .283-.13zM27.295 35.018a11.8 11.8 0 0 1 6.82.305 11.731 11.731 0 0 1 5.496 4.029 11.681 11.681 0 0 1 2.318 6.397 11.71 11.71 0 0 1-1.639 6.609 11.781 11.781 0 0 1-5.044 4.595 11.81 11.81 0 0 1-6.75 1.034 11.758 11.758 0 0 1-6.183-2.876 11.69 11.69 0 0 1-3.533-5.817 11.722 11.722 0 0 1 1.299-8.888 11.813 11.813 0 0 1 7.216-5.388zm5.418 21.193a10.218 10.218 0 0 0 5.056-3.066 10.16 10.16 0 0 0 2.5-5.346 10.117 10.117 0 0 0-4.889-10.164 10.204 10.204 0 0 0-5.743-1.396 10.228 10.228 0 0 0-5.559 2.02 10.184 10.184 0 0 0-3.503 4.756 10.125 10.125 0 0 0-.266 5.888 10.153 10.153 0 0 0 4.681 6.213 10.23 10.23 0 0 0 7.723 1.096zm-4.245-16.604a7.03 7.03 0 0 1 4.065.182 6.99 6.99 0 0 1 3.274 2.401 6.96 6.96 0 0 1 .405 7.75 7.037 7.037 0 0 1-7.028 3.354 7.006 7.006 0 0 1-3.685-1.713 6.965 6.965 0 0 1-2.104-3.467 6.985 6.985 0 0 1 .774-5.295 7.039 7.039 0 0 1 4.3-3.211zm3.072 12.014a5.45 5.45 0 0 0 2.696-1.635 5.42 5.42 0 0 0 1.334-2.851 5.396 5.396 0 0 0-2.608-5.422 5.444 5.444 0 0 0-6.028.333 5.431 5.431 0 0 0-1.868 2.537 5.4 5.4 0 0 0-.142 3.14 5.415 5.415 0 0 0 2.496 3.315 5.457 5.457 0 0 0 4.12.584zm-1.936-7.571a2.416 2.416 0 0 1 2.523.887 2.392 2.392 0 0 1 .14 2.663 2.414 2.414 0 0 1-3.682.565 2.394 2.394 0 0 1 .17-3.71 2.4 2.4 0 0 1 .85-.405zm12.017-12.004l10.712-2.739a.79.79 0 0 1 .958.566.784.784 0 0 1-.57.956L42.01 33.567a.791.791 0 0 1-.837-.283.783.783 0 0 1 .165-1.108.791.791 0 0 1 .283-.13zm25.824-7.292a11.8 11.8 0 0 1 6.82.305 11.732 11.732 0 0 1 5.495 4.03 11.681 11.681 0 0 1 2.319 6.396 11.71 11.71 0 0 1-1.639 6.609 11.781 11.781 0 0 1-5.044 4.596 11.81 11.81 0 0 1-6.75 1.034 11.757 11.757 0 0 1-6.184-2.876 11.69 11.69 0 0 1-3.532-5.817 11.723 11.723 0 0 1 1.299-8.888 11.813 11.813 0 0 1 7.216-5.389zm5.418 21.194a10.22 10.22 0 0 0 5.055-3.067 10.162 10.162 0 0 0 2.501-5.345 10.117 10.117 0 0 0-4.89-10.165 10.204 10.204 0 0 0-5.742-1.395 10.228 10.228 0 0 0-5.56 2.02 10.183 10.183 0 0 0-3.502 4.755 10.125 10.125 0 0 0-.266 5.888 10.153 10.153 0 0 0 4.68 6.214 10.23 10.23 0 0 0 7.724 1.095zm-4.245-16.604a7.03 7.03 0 0 1 4.064.181 6.99 6.99 0 0 1 3.275 2.401 6.96 6.96 0 0 1 .405 7.75 7.036 7.036 0 0 1-7.028 3.354 7.005 7.005 0 0 1-3.685-1.713 6.966 6.966 0 0 1-2.105-3.466 6.986 6.986 0 0 1 .775-5.296 7.04 7.04 0 0 1 4.3-3.21v-.001zm3.071 12.014a5.45 5.45 0 0 0 2.697-1.636 5.42 5.42 0 0 0 1.334-2.85 5.396 5.396 0 0 0-2.608-5.423 5.455 5.455 0 0 0-6.028.333 5.432 5.432 0 0 0-1.869 2.537 5.401 5.401 0 0 0-.142 3.14 5.416 5.416 0 0 0 2.497 3.316 5.457 5.457 0 0 0 4.12.584v-.001zm-1.935-7.572a2.416 2.416 0 0 1 2.522.887 2.392 2.392 0 0 1 .14 2.664 2.413 2.413 0 0 1-4.405-.627 2.393 2.393 0 0 1 .894-2.518c.254-.19.542-.327.849-.405z" fill="#34383A"/></g><defs><clipPath id="clip0"/></defs></svg>