<svg width="159" height="30" viewBox="0 0 159 30" fill="none" xmlns="http://www.w3.org/2000/svg">
<path fill-rule="evenodd" clip-rule="evenodd" d="M29.68 15.675C30.9671 15.15 31.6486 14.475 31.6486 13.8C31.6486 12.375 28.3171 11.1 23.4714 10.425L23.7743 9.82503C28.8471 10.575 32.4057 12.075 32.4057 13.8C32.4057 14.7 31.4971 15.525 29.9071 16.2C29.8314 15.975 29.7557 15.825 29.68 15.675ZM22.1086 9.67503C23.7743 6.15003 24.38 3.37503 23.6229 2.32503C23.6229 2.25003 23.6229 2.10003 23.6229 2.02503C23.6229 1.72503 23.5471 1.42503 23.3957 1.12503C23.5471 1.20003 23.6986 1.20003 23.85 1.35003C25.2886 2.32503 24.6829 5.92503 22.5629 10.425C22.4871 10.2 22.3357 9.90003 22.1086 9.67503ZM21.5786 3.82503C20.5943 3.82503 19.8371 3.07503 19.8371 2.10003C19.8371 1.12503 20.5943 0.375032 21.5786 0.375032C22.5629 0.375032 23.32 1.12503 23.32 2.10003C23.32 3.00003 22.5629 3.82503 21.5786 3.82503ZM16.8843 5.17503C16.8086 5.10003 16.7329 4.95003 16.7329 4.87503C17.7171 3.97503 18.6257 3.15003 19.5343 2.55003C19.61 2.77503 19.6857 3.00003 19.8371 3.15003C19.0043 3.75003 18.0957 4.57503 17.1871 5.47503C16.96 5.40003 16.96 5.32503 16.8843 5.17503ZM21.0486 16.65C20.8214 16.65 20.5943 16.725 20.2914 16.725C19.9129 15.6 19.5343 14.475 19.08 13.275C16.1271 5.70003 12.19 0.150032 10.2214 0.900032C9.84286 1.05003 9.54 1.50003 9.38857 2.10003C9.16143 2.02503 8.93429 1.95003 8.70714 1.95003C8.93429 0.975032 9.31286 0.375032 9.91857 0.150032C12.2657 -0.749968 16.7329 5.02503 19.8371 13.05C20.2914 14.25 20.67 15.45 21.0486 16.65ZM10.07 3.97503C10.07 4.80003 9.38857 5.55003 8.48 5.55003C7.57143 5.55003 6.96571 4.80003 6.96571 3.97503C6.96571 3.15003 7.64714 2.40003 8.55571 2.40003C9.46429 2.40003 10.07 3.07503 10.07 3.97503ZM5.22429 12.75C4.08857 12.75 3.10429 11.85 3.10429 10.65C3.10429 9.45003 4.01286 8.55003 5.22429 8.55003C6.43571 8.55003 7.34429 9.45003 7.34429 10.65C7.34429 11.85 6.36 12.75 5.22429 12.75ZM7.11714 16.875C7.04143 16.95 6.96571 17.1 6.96571 17.175C6.81429 17.25 6.81429 17.325 6.73857 17.4C2.65 16.65 0 15.3 0 13.8C0 12.9 0.984286 12 2.72571 11.325C2.80143 11.475 2.87714 11.7 2.95286 11.85C1.59 12.45 0.757143 13.05 0.757143 13.8C0.681429 15.075 3.25571 16.2 7.11714 16.875ZM6.05714 18.975C7.72286 18.975 9.01 20.25 9.01 21.9C9.01 23.55 7.72286 24.825 6.05714 24.825C4.39143 24.825 3.10429 23.55 3.10429 21.9C3.10429 20.25 4.46714 18.975 6.05714 18.975ZM5.52714 25.275C5.52714 26.025 5.67857 26.625 6.13286 26.85C7.34429 27.675 10.2214 25.8 13.4014 22.425L13.78 23.1C10.2971 26.7 7.11714 28.575 5.60286 27.6C4.99714 27.15 4.77 26.325 4.84571 25.05C5.07286 25.2 5.3 25.275 5.52714 25.275ZM20.9729 28.425C21.2757 28.35 21.5029 28.05 21.6543 27.75C21.73 27.75 21.8814 27.75 21.9571 27.75C22.1086 27.75 22.26 27.75 22.3357 27.75C22.1086 28.5 21.73 29.025 21.2 29.25C19.4586 29.925 16.5057 26.85 13.8557 21.9C14.1586 21.975 14.4614 22.05 14.7643 22.05C17.1114 26.325 19.5343 28.95 20.9729 28.425ZM19.4586 24.825C19.4586 23.475 20.5186 22.425 21.8814 22.425C23.2443 22.425 24.3043 23.475 24.3043 24.825C24.3043 26.175 23.2443 27.225 21.8814 27.225C20.5943 27.225 19.4586 26.175 19.4586 24.825ZM21.9571 21.9C21.8814 21.9 21.8057 21.9 21.6543 21.9C21.5029 20.925 21.2757 19.875 20.9729 18.75C21.2 18.75 21.4271 18.675 21.6543 18.675C21.9571 19.8 22.1843 20.925 22.3357 21.9C22.1843 21.9 22.0329 21.9 21.9571 21.9ZM19.1557 18.9C19.5343 18.9 19.8371 18.9 20.2157 18.825C20.2914 19.125 20.3671 19.425 20.4429 19.725C19.2314 20.775 17.5657 21.375 15.8243 21.375C13.5529 21.375 11.5086 20.325 10.1457 18.6C10.6757 18.675 11.2814 18.75 11.9629 18.825C13.6286 18.9 17.6414 18.975 19.1557 18.9ZM17.1114 10.425C17.8686 12 19.0043 14.625 19.5343 16.35C19.61 16.5 19.61 16.65 19.6857 16.8C19.4586 16.8 19.3071 16.8 19.08 16.875C18.1714 16.95 13.25 16.95 11.9629 16.875C11.2057 16.875 10.2971 16.725 9.61571 16.65C9.91857 16.125 10.2214 15.525 10.6 14.85C11.4329 13.35 13.7043 10.35 14.31 9.67503C14.6129 9.30003 15.2943 8.62503 15.8243 8.02503C16.2029 8.70003 16.7329 9.60003 17.1114 10.425ZM15.2186 6.67503C15.2943 6.82503 15.4457 6.97503 15.5214 7.20003C14.2343 8.70003 12.8714 10.35 11.5086 12.3C9.91857 14.625 8.63143 16.875 7.57143 18.9C7.34429 18.825 7.11714 18.675 6.89 18.675C7.87429 16.575 9.23714 14.25 10.8271 11.925C12.19 9.90003 13.6286 8.17503 15.0671 6.60003C15.1429 6.60003 15.1429 6.60003 15.2186 6.67503ZM13.0986 7.87503C12.1143 9.00003 9.99429 11.625 9.23714 12.9C9.01 13.2 8.85857 13.5 8.70714 13.8C8.93429 11.025 10.7514 8.70003 13.25 7.72503C13.1743 7.80003 13.1743 7.87503 13.0986 7.87503ZM7.64714 9.97503C7.95 9.90003 8.17714 9.90003 8.48 9.82503L8.78286 10.425C8.40429 10.5 8.02571 10.5 7.72286 10.575C7.72286 10.425 7.64714 10.2 7.64714 9.97503ZM9.23714 5.85003C9.38857 6.90003 9.54 8.02503 9.84286 9.30003C9.61571 9.52503 9.46429 9.75003 9.23714 10.05C8.85857 8.62503 8.63143 7.20003 8.48 6.00003C8.78286 5.92503 9.01 5.92503 9.23714 5.85003ZM21.5786 16.575C21.2 15.075 19.2314 10.2 18.7014 9.07503C18.4743 8.55003 18.2471 8.02503 18.0957 7.65003C20.9729 8.55003 23.0171 11.25 23.0171 14.325C23.0171 15.075 22.8657 15.825 22.6386 16.575C22.4114 16.575 22.0329 16.65 21.6543 16.65C21.6543 16.575 21.5786 16.575 21.5786 16.575ZM24.8343 17.55C22.3357 18 19.3829 18.225 16.1271 18.225C13.4771 18.225 10.9786 18.075 8.70714 17.7C8.78286 17.625 8.78286 17.55 8.85857 17.475C8.93429 17.4 9.01 17.25 9.08571 17.1C11.2057 17.4 13.5529 17.55 16.1271 17.55C19.3071 17.55 22.1843 17.325 24.6829 16.95C24.7586 17.175 24.7586 17.4 24.8343 17.55ZM27.3329 14.475C28.62 14.475 29.6043 15.45 29.6043 16.725C29.6043 18 28.62 18.975 27.3329 18.975C26.0457 18.975 25.0614 18 25.0614 16.725C25.0614 15.45 26.0457 14.475 27.3329 14.475Z" fill="white"/>
<path fill-rule="evenodd" clip-rule="evenodd" d="M156.35 27.225C156.047 27.5251 155.593 27.6751 155.063 27.6751C154.76 27.6751 154.457 27.6001 154.23 27.5251C154.003 27.3751 153.776 27.225 153.624 27.075C153.473 26.85 153.321 26.625 153.246 26.325C153.17 26.025 153.094 25.725 153.094 25.35C153.094 24.975 153.17 24.6751 153.246 24.375C153.321 24.075 153.473 23.85 153.624 23.625C153.776 23.4 154.003 23.25 154.23 23.175C154.457 23.025 154.76 23.0251 155.063 23.0251C155.366 23.0251 155.669 23.1 155.896 23.175C156.123 23.325 156.35 23.475 156.501 23.625C156.653 23.85 156.804 24.075 156.88 24.375C156.956 24.6751 157.031 24.975 157.031 25.35C157.031 26.2501 156.804 26.85 156.35 27.225ZM156.274 24.7501C156.199 24.525 156.123 24.3751 156.047 24.1501C155.971 24.0001 155.82 23.8501 155.669 23.7751C155.517 23.7001 155.366 23.625 155.139 23.625C154.911 23.625 154.76 23.7001 154.609 23.7751C154.457 23.8501 154.306 24.0001 154.23 24.1501C154.154 24.3001 154.079 24.525 154.003 24.7501C153.927 24.975 153.927 25.2001 153.927 25.4251C153.927 25.6501 153.927 25.875 154.003 26.1C154.079 26.325 154.154 26.475 154.23 26.7C154.306 26.925 154.457 27 154.609 27.075C154.76 27.15 154.911 27.225 155.139 27.225C155.517 27.225 155.82 27.075 156.047 26.7C156.274 26.4 156.35 25.9501 156.35 25.4251C156.274 25.2001 156.274 24.975 156.274 24.7501ZM151.656 27.6751C151.504 27.6751 151.429 27.6751 151.353 27.6751V24.225C151.353 24.075 151.353 23.925 151.277 23.85C151.201 23.775 151.126 23.7751 150.974 23.7751H150.899C150.899 23.7001 150.899 23.625 150.899 23.55C150.899 23.475 150.899 23.4 150.899 23.325C151.05 23.325 151.126 23.325 151.201 23.325C151.277 23.325 151.353 23.325 151.353 23.325H151.429C151.58 23.325 151.731 23.4 151.883 23.475C151.959 23.625 152.034 23.775 152.034 23.925V27.7501C151.883 27.6001 151.731 27.6751 151.656 27.6751ZM151.504 22.425C151.353 22.425 151.277 22.425 151.126 22.35C151.05 22.275 150.974 22.2 150.974 21.975C150.974 21.825 150.974 21.75 151.05 21.675C151.126 21.6 151.277 21.6 151.504 21.6C151.656 21.6 151.807 21.6 151.883 21.675C151.959 21.75 151.959 21.825 151.959 22.05C151.959 22.2 151.959 22.35 151.883 22.425C151.807 22.425 151.656 22.425 151.504 22.425ZM149.081 27.075C148.703 27.525 148.249 27.7501 147.719 27.7501C147.189 27.7501 146.81 27.5251 146.507 27.1501C146.28 26.7751 146.129 26.1751 146.129 25.4251C146.129 25.0501 146.204 24.7501 146.28 24.4501C146.356 24.1501 146.507 23.9251 146.659 23.7001C146.81 23.475 146.961 23.325 147.189 23.25C147.416 23.175 147.567 23.1 147.794 23.1C148.173 23.1 148.551 23.25 148.93 23.475V21L149.006 20.925H149.233C149.384 20.925 149.46 20.925 149.536 21C149.611 21.075 149.611 21.15 149.611 21.375V26.325C149.611 26.775 149.687 27.1501 149.839 27.3001C149.763 27.4501 149.687 27.6001 149.536 27.6751C149.309 27.6001 149.157 27.375 149.081 27.075ZM149.006 24.0751C148.627 23.7751 148.249 23.7001 147.946 23.7001C147.643 23.7001 147.416 23.8501 147.189 24.1501C146.961 24.4501 146.886 24.9001 146.886 25.5001C146.886 26.1001 146.961 26.5501 147.189 26.7751C147.34 27.0751 147.567 27.225 147.87 27.225C148.097 27.225 148.249 27.15 148.476 27.075C148.703 26.925 148.854 26.7751 149.006 26.5501V24.0751ZM144.236 27.0001C144.009 27.2251 143.781 27.3751 143.479 27.5251C143.176 27.6751 142.873 27.7501 142.646 27.7501C142.267 27.7501 141.964 27.6001 141.737 27.3751C141.586 27.1501 141.434 26.775 141.434 26.325V24.0751C141.434 23.7751 141.434 23.475 141.359 23.325C141.434 23.2501 141.586 23.175 141.813 23.175C142.04 23.175 142.191 23.325 142.191 23.625V26.1C142.191 26.475 142.267 26.7751 142.343 26.9251C142.419 27.0751 142.646 27.1501 142.873 27.1501C143.1 27.1501 143.403 27.0751 143.63 26.9251C143.857 26.7751 144.084 26.6251 144.311 26.4001V23.175C144.311 23.175 144.387 23.175 144.463 23.175C144.539 23.175 144.614 23.175 144.69 23.175C144.766 23.175 144.841 23.175 144.841 23.175C144.917 23.175 144.917 23.175 144.993 23.175V26.325C144.993 26.775 145.069 27.1501 145.22 27.3001C145.144 27.4501 145.069 27.6001 144.917 27.6751C144.539 27.6001 144.387 27.3751 144.236 27.0001ZM139.314 23.7001V26.7C139.314 26.925 139.466 27.075 139.693 27.075H140.374C140.45 27.15 140.45 27.3001 140.45 27.3751C140.45 27.4501 140.45 27.5251 140.45 27.6C140.147 27.6 139.92 27.6751 139.617 27.6751C139.011 27.6751 138.709 27.4501 138.709 26.9251V23.7001H138.027C138.027 23.6251 138.027 23.55 138.027 23.475C138.027 23.4 138.027 23.325 138.027 23.25H138.709V22.2751C138.709 22.125 138.709 21.975 138.784 21.9C138.86 21.825 138.936 21.825 139.087 21.825H139.314L139.39 21.9V23.25H140.526C140.526 23.325 140.526 23.4 140.526 23.475C140.526 23.55 140.526 23.6251 140.526 23.7001H139.314ZM135.604 24.975L136.134 25.2C136.891 25.5 137.27 25.95 137.27 26.475C137.27 26.85 137.119 27.2251 136.816 27.3751C136.513 27.6001 136.059 27.6751 135.529 27.6751C134.999 27.6751 134.544 27.5251 134.014 27.225C134.014 27.075 134.09 26.8501 134.241 26.7751C134.544 26.9251 134.771 27.075 134.999 27.075C135.226 27.15 135.377 27.1501 135.604 27.1501C135.756 27.1501 135.907 27.15 135.983 27.075C136.059 27 136.21 27.0001 136.286 26.9251C136.361 26.8501 136.437 26.775 136.437 26.7C136.513 26.625 136.513 26.55 136.513 26.475C136.513 26.325 136.437 26.1751 136.361 26.0251C136.286 25.8751 136.059 25.8 135.831 25.725L135.301 25.5001C134.923 25.35 134.62 25.2 134.393 24.975C134.166 24.75 134.09 24.525 134.09 24.225C134.09 24.075 134.166 23.8501 134.241 23.7001C134.317 23.5501 134.393 23.4 134.544 23.325C134.696 23.2501 134.847 23.1 134.999 23.1C135.15 23.025 135.377 23.0251 135.604 23.0251C136.059 23.0251 136.513 23.1 136.967 23.325C136.967 23.5501 136.891 23.7 136.74 23.85C136.513 23.775 136.286 23.7 136.134 23.625C135.907 23.55 135.756 23.55 135.604 23.55C135.301 23.55 135.15 23.6251 134.999 23.7751C134.847 23.9251 134.771 24.075 134.771 24.225C134.771 24.375 134.847 24.525 134.923 24.6C135.226 24.75 135.377 24.825 135.604 24.975ZM130.91 27.3001C130.91 27.7501 130.834 28.0501 130.759 28.3501C130.683 28.6501 130.607 28.8751 130.456 29.1001C130.304 29.2501 130.153 29.4001 129.926 29.4751C129.699 29.5501 129.471 29.6251 129.169 29.6251C128.563 29.6251 128.109 29.55 127.579 29.3251C127.579 29.1 127.654 28.9501 127.806 28.8001C128.184 29.0251 128.639 29.1001 129.017 29.1001C129.244 29.1001 129.471 29.1001 129.623 29.0251C129.774 28.9501 129.926 28.8751 130.001 28.7251C130.077 28.5751 130.153 28.4251 130.229 28.2751C130.229 28.1251 130.304 27.9001 130.304 27.6751V27.1501C129.926 27.5251 129.471 27.7501 128.941 27.7501C128.487 27.7501 128.109 27.5251 127.806 27.1501C127.503 26.7751 127.427 26.1751 127.427 25.4251C127.427 25.0501 127.503 24.7501 127.579 24.4501C127.654 24.1501 127.806 23.9251 127.957 23.7001C128.109 23.475 128.26 23.325 128.487 23.25C128.714 23.175 128.941 23.1 129.169 23.1C129.623 23.1 130.077 23.25 130.456 23.55C130.531 23.325 130.683 23.175 130.91 23.1C131.061 23.175 131.137 23.325 131.213 23.475C131.061 23.625 130.986 23.9251 130.986 24.4501V27.3001H130.91ZM130.304 24.0751C130.153 23.9251 129.926 23.7751 129.774 23.7001C129.623 23.6251 129.396 23.55 129.244 23.55C128.941 23.55 128.639 23.7 128.411 24C128.184 24.3001 128.109 24.75 128.109 25.35C128.109 25.95 128.184 26.3251 128.411 26.6251C128.563 26.9251 128.79 27.075 129.093 27.075C129.32 27.075 129.547 27.0001 129.774 26.9251C130.001 26.7751 130.153 26.6251 130.304 26.475V24.0751ZM125.913 27.6751C125.686 27.6751 125.534 27.5251 125.534 27.225V24.7501C125.534 24.375 125.459 24.15 125.383 24C125.307 23.85 125.156 23.7751 124.853 23.7751C124.626 23.7751 124.323 23.85 124.096 24C123.869 24.15 123.641 24.3001 123.414 24.5251V27.7501C123.339 27.7501 123.187 27.7501 123.111 27.7501C122.96 27.7501 122.884 27.7501 122.809 27.7501V23.25L122.884 23.175H123.111C123.263 23.175 123.339 23.25 123.414 23.25C123.49 23.325 123.49 23.475 123.49 23.625V23.7751C123.717 23.5501 123.944 23.4 124.247 23.325C124.55 23.1751 124.777 23.175 125.08 23.175C125.459 23.175 125.761 23.325 125.989 23.55C126.14 23.775 126.291 24.15 126.291 24.6V26.85C126.291 27.225 126.291 27.45 126.367 27.6C126.216 27.6 126.064 27.6751 125.913 27.6751ZM120.916 27.6751C120.764 27.6751 120.689 27.6751 120.613 27.6751V24.225C120.613 24.075 120.613 23.925 120.537 23.85C120.461 23.775 120.386 23.7751 120.234 23.7751H120.159C120.159 23.7001 120.159 23.625 120.159 23.55C120.159 23.475 120.159 23.4 120.159 23.325C120.31 23.325 120.386 23.325 120.461 23.325C120.537 23.325 120.613 23.325 120.613 23.325H120.689C120.84 23.325 120.991 23.4 121.143 23.475C121.219 23.625 121.294 23.775 121.294 23.925V27.7501C121.143 27.6001 121.067 27.6751 120.916 27.6751ZM120.764 22.425C120.613 22.425 120.537 22.425 120.386 22.35C120.31 22.275 120.234 22.2 120.234 21.975C120.234 21.825 120.234 21.75 120.31 21.675C120.386 21.6 120.537 21.6 120.764 21.6C120.916 21.6 121.067 21.6 121.143 21.675C121.219 21.75 121.219 21.825 121.219 22.05C121.219 22.2 121.219 22.35 121.143 22.425C121.067 22.425 120.916 22.425 120.764 22.425ZM118.644 27.6751C118.417 27.6751 118.266 27.5251 118.266 27.225V24.7501C118.266 24.375 118.19 24.15 118.114 24C118.039 23.85 117.887 23.7751 117.66 23.7751C117.433 23.7751 117.206 23.85 117.054 23.925C116.827 24.075 116.676 24.2251 116.449 24.4501V27.6751C116.373 27.6751 116.221 27.6751 116.146 27.6751C115.994 27.6751 115.919 27.6751 115.843 27.6751V24.7501C115.843 24.375 115.767 24.15 115.691 24C115.616 23.85 115.464 23.7751 115.237 23.7751C115.01 23.7751 114.783 23.85 114.631 24C114.404 24.15 114.253 24.3001 114.026 24.5251V27.6751C113.95 27.6751 113.799 27.6751 113.723 27.6751C113.571 27.6751 113.496 27.6751 113.42 27.6751V23.25L113.496 23.175H113.723C113.874 23.175 113.95 23.25 114.026 23.25C114.101 23.325 114.101 23.475 114.101 23.625V23.7751C114.48 23.3251 114.934 23.1 115.464 23.1C115.994 23.1 116.297 23.3251 116.524 23.7751C117.054 23.3251 117.509 23.1 117.963 23.1C118.341 23.1 118.644 23.25 118.796 23.475C118.947 23.7 119.099 24.0751 119.099 24.4501V26.7C119.099 27.075 119.099 27.3 119.174 27.45C118.947 27.6 118.796 27.6751 118.644 27.6751ZM111.451 27.6751C111.224 27.6751 111.073 27.5251 111.073 27.225V24.7501C111.073 24.375 110.997 24.15 110.921 24C110.846 23.85 110.694 23.7751 110.467 23.7751C110.24 23.7751 110.013 23.85 109.861 23.925C109.634 24.075 109.483 24.2251 109.256 24.4501V27.6751C109.18 27.6751 109.029 27.6751 108.953 27.6751C108.801 27.6751 108.726 27.6751 108.65 27.6751V24.7501C108.65 24.375 108.574 24.15 108.499 24C108.423 23.85 108.271 23.7751 108.044 23.7751C107.817 23.7751 107.59 23.85 107.439 24C107.211 24.15 107.06 24.3001 106.833 24.5251V27.6751C106.757 27.6751 106.606 27.6751 106.53 27.6751C106.379 27.6751 106.303 27.6751 106.227 27.6751V23.25L106.303 23.175H106.53C106.681 23.175 106.757 23.25 106.833 23.25C106.909 23.325 106.909 23.475 106.909 23.625V23.7751C107.287 23.3251 107.741 23.1 108.271 23.1C108.801 23.1 109.104 23.3251 109.331 23.7751C109.861 23.3251 110.316 23.1 110.77 23.1C111.149 23.1 111.451 23.25 111.603 23.475C111.754 23.7 111.906 24.0751 111.906 24.4501V26.7C111.906 27.075 111.906 27.3 111.981 27.45C111.754 27.6 111.603 27.6751 111.451 27.6751ZM103.956 27.075C103.501 27.525 103.047 27.7501 102.593 27.7501C102.366 27.7501 102.139 27.7501 101.987 27.6751C101.836 27.6001 101.684 27.5251 101.533 27.3751C101.457 27.2251 101.306 27.1501 101.306 26.9251C101.23 26.7751 101.23 26.6251 101.23 26.4001C101.23 26.1751 101.306 25.9501 101.381 25.8001C101.457 25.6501 101.609 25.5 101.684 25.35C101.836 25.2 101.987 25.1251 102.214 25.0501C102.441 24.9751 102.593 24.975 102.82 24.975C103.274 24.975 103.653 24.9751 103.956 25.0501V24.6C103.956 24 103.653 23.7001 103.123 23.7001C102.669 23.7001 102.214 23.85 101.609 24.0751C101.457 23.9251 101.381 23.775 101.381 23.55C102.063 23.25 102.593 23.1 103.199 23.1C104.107 23.1 104.637 23.625 104.637 24.6V26.475C104.637 26.7 104.637 26.8501 104.713 27.0001C104.789 27.1501 104.789 27.2251 104.94 27.3751C104.864 27.5251 104.789 27.6751 104.637 27.7501C104.183 27.6001 104.031 27.375 103.956 27.075ZM103.88 25.5001C103.729 25.5001 103.577 25.4251 103.426 25.4251C103.274 25.4251 103.123 25.4251 102.896 25.4251C102.517 25.4251 102.29 25.5001 102.139 25.6501C101.987 25.8001 101.836 26.0251 101.836 26.2501C101.836 26.4751 101.911 26.7 102.063 26.85C102.214 27.0001 102.366 27.075 102.593 27.075C102.82 27.075 103.047 27.0001 103.274 26.9251C103.501 26.7751 103.729 26.6251 103.88 26.4001V25.5001ZM100.246 23.7751C99.7914 23.7751 99.4128 24.075 99.11 24.6V27.6C99.0343 27.6 98.8828 27.6 98.8071 27.6C98.6557 27.6 98.58 27.6 98.5043 27.6V24.4501C98.5043 24.0751 98.4286 23.7 98.2014 23.55C98.2771 23.4 98.3528 23.25 98.5043 23.175C98.8071 23.325 99.0343 23.55 99.1857 24C99.4128 23.475 99.8671 23.175 100.397 23.175C100.549 23.175 100.7 23.175 100.851 23.175C100.851 23.4 100.776 23.6251 100.7 23.7751C100.473 23.7751 100.397 23.7751 100.246 23.7751ZM96.7628 27.3001C96.7628 27.7501 96.7628 28.0501 96.6871 28.3501C96.6114 28.6501 96.5357 28.8751 96.3843 29.1001C96.2328 29.2501 96.0814 29.4001 95.8543 29.4751C95.6271 29.5501 95.4 29.6251 95.0971 29.6251C94.4914 29.6251 94.0371 29.55 93.5071 29.3251C93.5071 29.1 93.5828 28.9501 93.7343 28.8001C94.1128 29.0251 94.5671 29.1001 94.9457 29.1001C95.1728 29.1001 95.4 29.1001 95.5514 29.0251C95.7028 28.9501 95.8543 28.8751 95.93 28.7251C96.0057 28.5751 96.0814 28.4251 96.1571 28.2751C96.1571 28.1251 96.2328 27.9001 96.2328 27.6751V27.1501C95.8543 27.5251 95.4 27.7501 94.87 27.7501C94.4157 27.7501 94.0371 27.5251 93.7343 27.1501C93.4314 26.7751 93.3557 26.1751 93.3557 25.4251C93.3557 25.0501 93.4314 24.7501 93.5071 24.4501C93.5828 24.1501 93.7343 23.9251 93.8857 23.7001C94.0371 23.475 94.1885 23.325 94.4157 23.25C94.6428 23.175 94.87 23.1 95.0971 23.1C95.5514 23.1 96.0057 23.25 96.3843 23.55C96.46 23.325 96.6114 23.175 96.8386 23.1C96.99 23.175 97.0657 23.325 97.1414 23.475C96.99 23.625 96.9143 23.9251 96.9143 24.4501V27.3001H96.7628ZM96.1571 24.0751C96.0057 23.9251 95.7785 23.7751 95.6271 23.7001C95.4757 23.6251 95.2486 23.55 95.0971 23.55C94.7943 23.55 94.4914 23.7 94.2643 24C94.0371 24.3001 93.9614 24.75 93.9614 25.35C93.9614 25.95 94.0371 26.3251 94.2643 26.6251C94.4157 26.9251 94.6428 27.075 94.9457 27.075C95.1728 27.075 95.4 27.0001 95.6271 26.9251C95.8543 26.7751 96.0057 26.6251 96.1571 26.475V24.0751ZM90.4785 27.7501C90.1757 27.7501 89.8728 27.6751 89.6457 27.6C89.4186 27.45 89.1914 27.3001 89.04 27.1501C88.8885 26.9251 88.7371 26.7001 88.6614 26.4001C88.5857 26.1001 88.51 25.8001 88.51 25.4251C88.51 25.0501 88.5857 24.7501 88.6614 24.4501C88.7371 24.1501 88.8885 23.9251 89.04 23.7001C89.1914 23.475 89.4186 23.325 89.6457 23.25C89.8728 23.1 90.1757 23.1 90.4785 23.1C90.7814 23.1 91.0843 23.175 91.3114 23.25C91.5385 23.4 91.7657 23.5501 91.9171 23.7001C92.0686 23.9251 92.22 24.1501 92.2957 24.4501C92.3714 24.7501 92.4471 25.0501 92.4471 25.4251C92.4471 26.2501 92.22 26.85 91.8414 27.225C91.3871 27.6 91.0085 27.7501 90.4785 27.7501ZM91.6143 24.7501C91.5386 24.525 91.4628 24.3751 91.3871 24.1501C91.3114 24.0001 91.16 23.8501 91.0085 23.7751C90.8571 23.7001 90.7057 23.625 90.4785 23.625C90.2514 23.625 90.1 23.7001 89.9485 23.7751C89.7971 23.8501 89.6457 24.0001 89.57 24.1501C89.4943 24.3001 89.4185 24.525 89.3428 24.7501C89.2671 24.975 89.2671 25.2001 89.2671 25.4251C89.2671 25.6501 89.2671 25.875 89.3428 26.1C89.4185 26.325 89.4943 26.475 89.57 26.7C89.6457 26.85 89.7971 27 89.9485 27.075C90.1 27.15 90.2514 27.225 90.4785 27.225C90.8571 27.225 91.16 27.075 91.3871 26.7C91.6143 26.4 91.69 25.9501 91.69 25.4251C91.69 25.2001 91.6143 24.975 91.6143 24.7501ZM87.7528 23.7751C87.2985 23.7751 86.92 24.075 86.6171 24.6V27.6C86.5414 27.6 86.39 27.6 86.3143 27.6C86.1628 27.6 86.0871 27.6 86.0114 27.6V24.4501C86.0114 24.0751 85.9357 23.7 85.7085 23.55C85.7843 23.4 85.86 23.25 86.0114 23.175C86.3143 23.325 86.5414 23.55 86.6928 24C86.92 23.475 87.3743 23.175 87.9043 23.175C88.0557 23.175 88.2071 23.175 88.3585 23.175C88.3585 23.4 88.2828 23.6251 88.2071 23.7751C88.0557 23.7751 87.9043 23.7751 87.7528 23.7751ZM84.1185 27.075C83.9671 27.3 83.8157 27.4501 83.5886 27.5251C83.3614 27.6001 83.21 27.6751 82.9828 27.6751C82.5285 27.6751 82.15 27.5251 81.7714 27.3001V29.1001C81.7714 29.2501 81.7714 29.4001 81.6957 29.4751C81.62 29.5501 81.5443 29.5501 81.3928 29.5501H81.1657L81.09 29.4751V23.25L81.1657 23.175H81.3928C81.5443 23.175 81.62 23.25 81.6957 23.25C81.7714 23.325 81.7714 23.475 81.7714 23.625V23.7001C82.15 23.325 82.6043 23.1 83.0585 23.1C83.5885 23.1 83.9671 23.325 84.1943 23.7001C84.4214 24.0751 84.5728 24.6751 84.5728 25.4251C84.5728 25.8001 84.4971 26.1001 84.4214 26.4001C84.4214 26.6251 84.27 26.85 84.1185 27.075ZM83.8914 24.6C83.8157 24.375 83.74 24.2251 83.6643 24.0751C83.5886 23.9251 83.5128 23.8501 83.3614 23.7751C83.2857 23.7001 83.1343 23.7001 82.9828 23.7001C82.7557 23.7001 82.5285 23.775 82.3014 23.925C82.0743 24.075 81.9228 24.2251 81.7714 24.4501V26.7751C82.15 27.0751 82.4528 27.1501 82.8314 27.1501C83.21 27.1501 83.4371 27 83.6643 26.7C83.8914 26.4 83.9671 25.9501 83.9671 25.4251C83.9671 25.1251 83.9671 24.825 83.8914 24.6ZM76.9257 27.075C76.5471 27.525 76.0928 27.7501 75.5628 27.7501C75.0328 27.7501 74.6543 27.5251 74.3514 27.1501C74.1243 26.7751 73.9728 26.1751 73.9728 25.4251C73.9728 25.0501 74.0485 24.7501 74.1243 24.4501C74.2 24.1501 74.3514 23.9251 74.5028 23.7001C74.6543 23.475 74.8057 23.325 75.0328 23.25C75.26 23.175 75.4114 23.1 75.6385 23.1C76.0171 23.1 76.3957 23.25 76.7743 23.475V21L76.85 20.925H77.0771C77.2285 20.925 77.3043 20.925 77.38 21C77.4557 21.075 77.4557 21.15 77.4557 21.375V26.325C77.4557 26.775 77.5314 27.1501 77.6828 27.3001C77.6071 27.4501 77.5314 27.6001 77.38 27.6751C77.2285 27.6001 77.0014 27.375 76.9257 27.075ZM76.85 24.0751C76.4714 23.7751 76.0928 23.7001 75.79 23.7001C75.4871 23.7001 75.26 23.8501 75.0328 24.1501C74.8057 24.4501 74.73 24.9001 74.73 25.5001C74.73 26.1001 74.8057 26.5501 75.0328 26.7751C75.1843 27.0751 75.4114 27.225 75.7143 27.225C75.9414 27.225 76.0928 27.15 76.32 27.075C76.5471 26.925 76.6986 26.7751 76.85 26.5501V24.0751ZM72.4585 27.6751C72.2314 27.6751 72.08 27.5251 72.08 27.225V24.7501C72.08 24.375 72.0043 24.15 71.9286 24C71.8528 23.85 71.7014 23.7751 71.3985 23.7751C71.1714 23.7751 70.8685 23.85 70.6414 24C70.4143 24.15 70.1871 24.3001 69.96 24.5251V27.7501C69.8843 27.7501 69.7328 27.7501 69.6571 27.7501C69.5057 27.7501 69.43 27.7501 69.3543 27.7501V23.25L69.43 23.175H69.7328C69.8843 23.175 69.96 23.25 70.0357 23.25C70.1114 23.325 70.1114 23.475 70.1114 23.625V23.7751C70.3385 23.5501 70.5657 23.4 70.8685 23.325C71.1714 23.1751 71.3985 23.175 71.7014 23.175C72.08 23.175 72.3828 23.325 72.61 23.55C72.7614 23.775 72.9128 24.15 72.9128 24.6V26.85C72.9128 27.225 72.9128 27.45 72.9886 27.6C72.8371 27.6 72.6857 27.6751 72.4585 27.6751ZM67.2343 27.075C66.78 27.525 66.3257 27.7501 65.8714 27.7501C65.6443 27.7501 65.4171 27.7501 65.2657 27.6751C65.1143 27.6001 64.9628 27.5251 64.8114 27.3751C64.7357 27.2251 64.5843 27.1501 64.5843 26.9251C64.5085 26.7751 64.5085 26.6251 64.5085 26.4001C64.5085 26.1751 64.5843 25.9501 64.66 25.8001C64.7357 25.6501 64.8871 25.5 64.9628 25.35C65.1143 25.2 65.2657 25.1251 65.4928 25.0501C65.72 24.9751 65.8714 24.975 66.0985 24.975C66.5528 24.975 66.9314 24.9751 67.2343 25.0501V24.6C67.2343 24 66.9314 23.7001 66.4014 23.7001C65.9471 23.7001 65.4928 23.85 64.8871 24.0751C64.7357 23.9251 64.66 23.775 64.66 23.55C65.3414 23.25 65.8714 23.1 66.4771 23.1C67.3857 23.1 67.9157 23.625 67.9157 24.6V26.475C67.9157 26.7 67.9157 26.8501 67.9914 27.0001C68.0671 27.1501 68.0671 27.2251 68.2185 27.3751C68.1428 27.5251 68.0671 27.6751 67.9157 27.7501C67.4614 27.6001 67.31 27.375 67.2343 27.075ZM67.1585 25.5001C67.0828 25.5001 66.9314 25.5001 66.7043 25.5001C66.5528 25.5001 66.4014 25.5001 66.1743 25.5001C65.7957 25.5001 65.5686 25.575 65.4171 25.725C65.2657 25.875 65.1143 26.1 65.1143 26.325C65.1143 26.55 65.19 26.7751 65.3414 26.9251C65.4928 27.0751 65.6443 27.1501 65.8714 27.1501C66.0985 27.1501 66.3257 27.0751 66.5528 27.0001C66.78 26.8501 67.0071 26.7 67.1585 26.475V25.5001ZM60.95 27.6751C60.7228 27.6751 60.5714 27.5251 60.5714 27.225V24.7501C60.5714 24.375 60.4957 24.15 60.42 24C60.3443 23.85 60.1928 23.7751 59.89 23.7751C59.6628 23.7751 59.36 23.85 59.1328 24C58.9057 24.15 58.6785 24.3001 58.4514 24.5251V27.7501C58.3757 27.7501 58.2243 27.7501 58.1485 27.7501C57.9971 27.7501 57.9214 27.7501 57.8457 27.7501V23.25L57.9214 23.175H58.1485C58.3 23.175 58.3757 23.25 58.4514 23.25C58.5271 23.325 58.5271 23.475 58.5271 23.625V23.7751C58.7543 23.5501 58.9814 23.4 59.2843 23.325C59.5871 23.1751 59.8143 23.175 60.1171 23.175C60.4957 23.175 60.7985 23.325 61.0257 23.55C61.1771 23.775 61.3285 24.15 61.3285 24.6V26.85C61.3285 27.225 61.3285 27.45 61.4043 27.6C61.3285 27.6 61.1771 27.6751 60.95 27.6751ZM56.2557 27.3001C56.2557 27.7501 56.18 28.0501 56.1043 28.3501C56.0285 28.6501 55.9528 28.8751 55.8014 29.1001C55.65 29.2501 55.4985 29.4001 55.2714 29.4751C55.0443 29.5501 54.8171 29.6251 54.5143 29.6251C53.9085 29.6251 53.4543 29.55 52.9243 29.3251C52.9243 29.1 53 28.9501 53.1514 28.8001C53.53 29.0251 53.9843 29.1001 54.3628 29.1001C54.59 29.1001 54.8171 29.1001 54.9685 29.0251C55.12 28.9501 55.2714 28.8751 55.3471 28.7251C55.4228 28.5751 55.4985 28.4251 55.5743 28.2751C55.5743 28.1251 55.65 27.9001 55.65 27.6751V27.1501C55.2714 27.5251 54.8171 27.7501 54.2871 27.7501C53.8328 27.7501 53.4543 27.5251 53.1514 27.1501C52.8485 26.7751 52.7728 26.1751 52.7728 25.4251C52.7728 25.0501 52.8485 24.7501 52.9243 24.4501C53 24.1501 53.1514 23.9251 53.3028 23.7001C53.4543 23.475 53.6057 23.325 53.8328 23.25C54.06 23.175 54.2871 23.1 54.5143 23.1C54.9685 23.1 55.4228 23.25 55.8014 23.55C55.8771 23.325 56.0285 23.175 56.2557 23.1C56.4071 23.175 56.4828 23.325 56.5585 23.475C56.4071 23.625 56.3314 23.9251 56.3314 24.4501V27.3001H56.2557ZM55.65 24.0751C55.4985 23.9251 55.2714 23.7751 55.12 23.7001C54.9685 23.6251 54.7414 23.55 54.59 23.55C54.2871 23.55 53.9843 23.7 53.7571 24C53.53 24.3001 53.4543 24.75 53.4543 25.35C53.4543 25.95 53.53 26.3251 53.7571 26.6251C53.9085 26.9251 54.1357 27.075 54.4385 27.075C54.6657 27.075 54.8928 27.0001 55.12 26.9251C55.3471 26.7751 55.4985 26.6251 55.65 26.475V24.0751ZM51.1828 27.6751C51.0314 27.6751 50.9557 27.6751 50.88 27.6751V24.225C50.88 24.075 50.88 23.925 50.8043 23.85C50.7285 23.775 50.6528 23.7751 50.5014 23.7751H50.4257C50.4257 23.7001 50.4257 23.625 50.4257 23.55C50.4257 23.475 50.4257 23.4 50.4257 23.325C50.5771 23.325 50.6528 23.325 50.7285 23.325C50.8043 23.325 50.88 23.325 50.88 23.325H50.9557C51.1071 23.325 51.2585 23.4 51.41 23.475C51.4857 23.625 51.5614 23.775 51.5614 23.925V27.7501C51.4857 27.6001 51.3343 27.6751 51.1828 27.6751ZM51.0314 22.425C50.88 22.425 50.8043 22.425 50.6528 22.35C50.5771 22.275 50.5014 22.2 50.5014 21.975C50.5014 21.825 50.5014 21.75 50.5771 21.675C50.6528 21.6 50.8043 21.6 51.0314 21.6C51.1828 21.6 51.3343 21.6 51.41 21.675C51.4857 21.75 51.4857 21.825 51.4857 22.05C51.4857 22.2 51.4857 22.35 51.41 22.425C51.3343 22.425 51.2585 22.425 51.0314 22.425ZM47.9271 24.975L48.4571 25.2C49.2143 25.5 49.5928 25.95 49.5928 26.475C49.5928 26.85 49.4414 27.2251 49.1385 27.3751C48.8357 27.6001 48.3814 27.6751 47.8514 27.6751C47.3214 27.6751 46.8671 27.5251 46.3371 27.225C46.3371 27.075 46.4128 26.8501 46.5643 26.7751C46.8671 26.9251 47.0943 27.075 47.3214 27.075C47.5485 27.15 47.7 27.1501 47.9271 27.1501C48.0785 27.1501 48.23 27.15 48.3057 27.075C48.3814 27 48.5328 27.0001 48.6085 26.9251C48.6843 26.8501 48.76 26.775 48.76 26.7C48.8357 26.625 48.8357 26.55 48.8357 26.475C48.8357 26.325 48.76 26.1751 48.6843 26.0251C48.6085 25.8751 48.3814 25.8 48.1543 25.725L47.6243 25.5001C47.2457 25.35 46.9428 25.2 46.7157 24.975C46.4885 24.75 46.4128 24.525 46.4128 24.225C46.4128 24.075 46.4885 23.8501 46.5643 23.7001C46.64 23.5501 46.7157 23.4 46.8671 23.325C47.0185 23.2501 47.17 23.1 47.3214 23.1C47.4728 23.025 47.7 23.0251 47.9271 23.0251C48.3814 23.0251 48.8357 23.1 49.29 23.325C49.29 23.5501 49.2143 23.7 49.0628 23.85C48.8357 23.775 48.6085 23.7 48.4571 23.625C48.23 23.55 48.0785 23.55 47.9271 23.55C47.6243 23.55 47.4728 23.6251 47.3214 23.7751C47.17 23.9251 47.0943 24.075 47.0943 24.225C47.0943 24.375 47.17 24.525 47.2457 24.6C47.5485 24.75 47.7 24.825 47.9271 24.975ZM45.5043 25.575H42.7028C42.7028 26.625 43.1571 27.075 43.8385 27.075C44.2171 27.075 44.6714 26.925 45.1257 26.7C45.2771 26.85 45.3528 27.0001 45.3528 27.1501C44.8228 27.4501 44.2928 27.6751 43.6871 27.6751C43.3843 27.6751 43.0814 27.6001 42.8543 27.5251C42.6271 27.3751 42.4757 27.225 42.3243 27.075C42.1728 26.85 42.0971 26.625 42.0214 26.325C41.9457 26.025 41.9457 25.7251 41.9457 25.4251C41.9457 25.0501 42.0214 24.7501 42.0971 24.5251C42.1728 24.2251 42.3243 24.0001 42.4757 23.7751C42.6271 23.5501 42.8543 23.4 43.0814 23.325C43.3085 23.1751 43.5357 23.175 43.8385 23.175C44.1414 23.175 44.3685 23.2501 44.5957 23.325C44.8228 23.4 44.9743 23.5501 45.1257 23.7001C45.2771 23.8501 45.3528 24.075 45.4285 24.3C45.5043 24.525 45.58 24.8251 45.58 25.0501C45.58 25.1251 45.58 25.275 45.58 25.35C45.5043 25.425 45.5043 25.5 45.5043 25.575ZM44.8228 24.975C44.8228 24.525 44.7471 24.225 44.5957 24C44.4443 23.775 44.1414 23.625 43.8385 23.625C43.46 23.625 43.2328 23.775 43.0057 24C42.7785 24.3001 42.7028 24.6 42.7028 25.1251H44.8985V24.975H44.8228ZM40.0528 27.075C39.6743 27.525 39.22 27.7501 38.69 27.7501C38.16 27.7501 37.7814 27.5251 37.4785 27.1501C37.2514 26.7751 37.1 26.1751 37.1 25.4251C37.1 25.0501 37.1757 24.7501 37.2514 24.4501C37.3271 24.1501 37.4785 23.9251 37.63 23.7001C37.7814 23.475 37.9328 23.325 38.16 23.25C38.3871 23.175 38.5385 23.1 38.7657 23.1C39.1443 23.1 39.5228 23.25 39.9014 23.475V21L39.9771 20.925H40.2043C40.3557 20.925 40.4314 20.925 40.5071 21C40.5828 21.075 40.5828 21.15 40.5828 21.375V26.325C40.5828 26.775 40.6585 27.1501 40.81 27.3001C40.7343 27.4501 40.6585 27.6001 40.5071 27.6751C40.3557 27.6001 40.1285 27.375 40.0528 27.075ZM39.9771 24.0751C39.5985 23.7751 39.22 23.7001 38.9171 23.7001C38.6143 23.7001 38.3871 23.8501 38.16 24.1501C37.9328 24.4501 37.8571 24.9001 37.8571 25.5001C37.8571 26.1001 37.9328 26.5501 38.16 26.7751C38.3114 27.0751 38.5385 27.225 38.8414 27.225C39.0685 27.225 39.22 27.15 39.4471 27.075C39.6743 26.925 39.8257 26.7751 39.9771 26.5501V24.0751Z" fill="white"/>
<path fill-rule="evenodd" clip-rule="evenodd" d="M154.896 7.18293C154.271 7.46235 151.148 7.90941 150.58 8.02117C150.012 8.18882 148.934 8.30058 148.934 8.30058C148.934 8.30058 148.99 13.4976 149.218 14.1682C149.445 14.8947 149.785 16.6271 151.262 16.5712C152.738 16.5153 154.044 15.7329 154.328 16.0682C154.612 16.4035 154.668 17.0182 154.157 17.3535C153.646 17.6888 152.17 18.08 151.546 18.08C150.921 18.08 149.047 17.5771 148.423 16.2918C147.798 15.0065 147.798 10.9829 147.855 10.2006C147.912 9.41823 147.798 7.85352 147.798 7.85352C147.798 7.85352 146.719 8.02117 146.322 7.57411C145.868 7.12705 145.697 6.28882 146.038 5.95352C146.379 5.61823 146.89 5.89764 147.401 5.95352C147.912 6.0094 148.195 5.95352 148.195 5.95352L148.025 2.2094C148.025 2.2094 147.571 1.5947 147.798 1.09176C148.025 0.588816 148.366 0.477051 148.707 0.477051C149.047 0.477051 149.445 0.756462 149.445 1.42705C149.445 2.04176 149.388 6.12117 149.388 6.12117C149.388 6.12117 152.795 6.12117 153.817 6.12117C154.839 6.12117 155.293 6.06529 155.463 6.40058C155.52 6.67999 155.52 6.90352 154.896 7.18293ZM146.095 15.6771C145.754 16.4035 143.653 18.7506 142.972 19.0859C142.234 19.4212 141.212 19.3094 140.53 18.9182C139.906 18.5829 138.486 16.5712 138.373 15.2859C138.316 14.0006 138.94 10.5359 138.997 10.3123C139.054 10.0888 138.656 8.69176 138.827 7.9094C139.054 7.12705 139.281 6.9594 139.679 7.12705C140.133 7.2947 140.019 7.74176 140.019 7.74176C140.019 7.74176 140.814 4.94764 142.063 3.99764C143.369 2.99176 143.653 3.27117 144.107 3.43882C144.618 3.60646 145.584 4.77999 145.47 6.0094C145.3 7.23882 145.413 7.85352 144.732 8.80352C144.107 9.75352 142.688 11.1506 141.723 11.43C140.814 11.7094 140.019 11.6535 140.019 11.6535C140.019 11.6535 139.281 15.0065 139.735 15.8447C140.19 16.6829 140.928 17.9123 141.893 17.5771C142.801 17.2418 144.902 15.0065 145.356 14.7271C145.981 14.3918 146.435 15.0065 146.095 15.6771ZM143.937 6.90352C144.164 5.84176 144.221 5.33882 143.653 5.3947C143.085 5.45058 142.177 6.79176 141.779 7.2947C141.439 7.79764 140.984 9.41823 140.984 9.41823C140.984 9.41823 143.71 7.96529 143.937 6.90352ZM135.534 17.0182C134.625 17.5771 134.114 18.08 133.376 17.6329C132.638 17.1859 132.24 16.4035 131.956 14.3918C131.673 12.3241 131.218 9.08293 130.934 8.69176C130.651 8.35646 129.515 10.48 128.777 11.8771C128.039 13.2741 126.562 15.5653 125.995 16.6271C125.427 17.6888 125.143 18.1918 124.575 18.1918C124.007 18.1918 123.269 17.4094 123.439 15.5653C123.61 13.7212 123.894 10.0888 123.78 9.25058C123.723 8.41235 123.723 7.07117 123.78 6.56823C123.837 6.06529 123.837 5.84176 124.348 5.84176C124.859 5.84176 125.37 6.62411 125.256 7.68587C125.2 8.74764 125.086 10.9271 125.029 11.8771C124.973 12.8271 125.029 14.8388 125.029 14.8388C125.029 14.8388 127.187 11.43 127.812 10.1447C128.436 8.8594 129.572 6.79176 130.537 6.0094C131.445 5.22705 132.127 5.56235 132.297 6.79176C132.524 8.02117 133.035 13.8329 133.206 14.6153C133.433 15.3976 133.433 16.2359 133.944 16.0123C134.455 15.7888 135.59 14.9506 135.931 14.3359C136.272 13.7212 136.442 12.7712 137.01 12.5476C137.578 12.3241 137.918 13.0506 137.748 13.6653C137.634 14.3918 136.499 16.4594 135.534 17.0182ZM118.5 18.2476C117.761 18.2476 117.194 17.6888 117.364 16.6829C117.534 15.6771 118.556 15.1182 119.067 15.3418C119.578 15.5653 120.146 16.18 119.976 17.13C119.862 18.0241 119.238 18.2476 118.5 18.2476ZM111.913 17.9123C111.175 17.4094 110.153 15.6212 109.983 13.7771C109.812 11.9329 110.039 9.92117 110.039 9.92117C110.039 9.92117 107.711 14.4476 106.86 15.9565C106.008 17.4653 105.156 18.2476 104.589 18.08C104.021 17.9123 103.737 16.7947 103.68 15.23C103.623 13.6653 103.85 8.91529 103.68 8.18882C103.51 7.46235 103.112 6.62411 102.488 7.9094C101.863 9.1947 98.6267 15.23 98.2292 16.2918C97.775 17.3535 97.4911 17.8565 96.9233 17.8565C96.3555 17.8565 96.0716 17.2976 96.0716 15.8447C96.0716 14.4476 96.2987 11.8771 96.4122 10.5918C96.5826 9.30646 96.6394 7.35058 96.4122 6.84764C96.1851 6.3447 95.958 5.78588 96.2419 5.22705C96.5258 4.66823 96.6961 4.61235 97.1504 4.72411C97.6614 4.89176 97.9453 5.56235 97.8885 6.51235C97.8317 7.46235 97.5478 11.0388 97.5478 11.7094C97.5478 12.3241 97.3207 14.5035 97.3207 14.5035C97.3207 14.5035 99.819 9.75352 100.955 7.68587C102.09 5.61823 102.715 4.83587 103.51 5.00352C104.305 5.17117 104.872 6.3447 104.986 7.79764C105.156 9.1947 104.986 15.6771 104.986 15.6771C104.986 15.6771 106.349 13.8329 107.144 12.2123C107.939 10.5918 109.926 6.90352 110.267 6.23293C110.607 5.61823 111.345 5.89764 111.572 6.17705C111.8 6.45646 111.572 6.90352 111.402 7.40646C111.232 7.9094 111.175 11.7653 111.345 13.2182C111.516 14.7271 111.686 16.0682 112.538 16.2918C113.389 16.5153 114.241 15.0065 114.809 14.6153C115.377 14.1682 115.831 14.28 115.831 14.8388C115.831 15.3976 115.093 16.7388 114.411 17.4653C113.673 18.0241 112.595 18.4153 111.913 17.9123ZM87.7817 18.9741C84.8859 18.8623 85.0563 16.6271 84.9995 15.5094C84.9427 14.3918 86.3622 9.75352 86.7029 8.52411C87.0436 7.2947 87.2139 6.67999 87.5546 6.06529C87.8953 5.45058 88.9173 4.94764 89.769 4.83587C90.6207 4.77999 92.097 5.78587 92.8351 7.2947C93.5732 8.8594 93.9139 11.7094 93.3461 13.33C92.7216 15.0065 90.1665 19.0859 87.7817 18.9741ZM91.5292 7.85352C90.9046 6.3447 89.5987 6.45646 89.5987 6.45646C89.5987 6.45646 89.5987 7.2947 89.3148 7.57411C89.0309 7.85352 88.2359 8.69176 87.6114 10.1447C86.9868 11.5418 86.1919 15.23 86.1351 16.18C86.0783 17.13 87.6114 17.6888 88.747 16.9623C89.8826 16.2359 91.8131 14.0006 92.2105 12.4918C92.6648 10.9829 92.1538 9.36235 91.5292 7.85352ZM79.8325 8.02117C79.2647 8.18882 78.1859 8.30058 78.1859 8.30058C78.1859 8.30058 78.2427 13.4976 78.4698 14.1682C78.6969 14.8947 79.0376 16.6271 80.5139 16.5712C81.9902 16.5153 83.2961 15.7329 83.58 16.0682C83.8639 16.4035 83.9207 17.0182 83.4096 17.3535C82.8986 17.6888 81.4224 18.08 80.7978 18.08C80.1732 18.08 78.2995 17.5771 77.6749 16.2918C77.0503 15.0065 77.0503 10.9829 77.1071 10.2006C77.1639 9.41823 77.0503 7.85352 77.0503 7.85352C77.0503 7.85352 75.9715 8.02117 75.574 7.57411C75.1198 7.12705 74.9494 6.28882 75.2901 5.95352C75.6308 5.61823 76.1418 5.89764 76.6528 5.95352C77.1639 6.0094 77.4478 5.95352 77.4478 5.95352L77.2774 2.2094C77.2774 2.2094 76.8232 1.5947 77.0503 1.09176C77.2774 0.588816 77.6181 0.477051 77.9588 0.477051C78.2995 0.477051 78.6969 0.756462 78.6969 1.42705C78.6969 2.04176 78.6401 6.12117 78.6401 6.12117C78.6401 6.12117 82.0469 6.12117 83.069 6.12117C84.091 6.12117 84.5452 6.06529 84.7156 6.40058C84.8859 6.73587 84.8859 6.9594 84.2046 7.23882C83.5232 7.46235 80.4003 7.85352 79.8325 8.02117ZM73.1893 15.9565C73.1893 15.9565 74.041 16.5712 73.9274 17.0741C73.7571 17.5771 73.1893 18.3035 72.5079 18.3594C71.7698 18.4153 71.713 17.9123 71.4291 17.3535C71.1452 16.7947 71.2588 11.5976 71.2588 11.5976C71.2588 11.5976 69.9528 13.6653 69.3282 14.6712C68.7037 15.6771 66.4892 18.08 65.9782 18.3035C65.4672 18.5271 64.5587 17.2976 64.2748 16.9065C63.9909 16.4594 64.5019 12.38 64.7858 10.5359C65.0697 8.69176 65.5808 6.9594 65.9782 5.78588C66.4325 4.55646 66.8867 3.99764 67.7384 3.32705C68.5901 2.60058 69.9528 3.32705 70.7477 3.60646C71.5426 3.88587 72.224 4.55646 72.6782 4.38882C73.1325 4.22117 73.4732 4.38882 73.4732 4.38882C73.4732 4.38882 73.3028 6.9594 73.246 8.35646C73.1893 9.75352 72.3943 15.1182 72.3943 15.7329C72.3943 16.3476 73.1893 15.9565 73.1893 15.9565ZM71.8266 6.40058C71.8266 6.40058 71.0316 5.33882 70.0664 5.0594C69.0443 4.77999 68.4765 4.89176 67.852 5.50646C67.2274 6.06529 66.7731 8.18882 66.4892 9.36235C66.2053 10.48 65.7511 14.3359 65.6943 14.8947C65.6375 15.4535 65.6943 16.4035 66.1486 16.1241C66.6028 15.8447 69.5554 11.8771 70.1232 10.8153C70.691 9.75352 71.4859 8.63588 71.713 7.9094C71.9401 7.07117 71.8266 6.40058 71.8266 6.40058ZM59.6189 19.0859C58.8807 19.4212 57.8587 19.3094 57.1773 18.9182C56.5528 18.5829 55.1333 16.5712 55.0197 15.2859C54.9629 14.0006 55.5875 10.5359 55.6443 10.3123C55.7011 10.0888 55.3036 8.69176 55.4739 7.9094C55.7011 7.12705 55.9282 6.9594 56.3256 7.12705C56.7799 7.2947 56.6663 7.74176 56.6663 7.74176C56.6663 7.74176 57.4612 4.94764 58.7104 3.99764C60.0163 2.99176 60.3002 3.27117 60.7545 3.43882C61.2655 3.60646 62.2308 4.77999 62.1172 6.0094C61.9469 7.23882 62.0604 7.85352 61.3791 8.80352C60.7545 9.75352 59.335 11.1506 58.3697 11.43C57.4612 11.7094 56.6663 11.6535 56.6663 11.6535C56.6663 11.6535 55.9282 15.0065 56.3824 15.8447C56.8367 16.6829 57.5748 17.9123 58.5401 17.5771C59.4485 17.2418 61.5494 15.0065 62.0036 14.7271C62.5147 14.4476 62.9121 15.0065 62.5714 15.7329C62.4011 16.4035 60.357 18.7506 59.6189 19.0859ZM60.6409 6.90352C60.868 5.84176 60.9248 5.33882 60.357 5.3947C59.7892 5.45058 58.8807 6.79176 58.4833 7.2947C58.1426 7.79764 57.6884 9.41823 57.6884 9.41823C57.6884 9.41823 60.4138 7.96529 60.6409 6.90352ZM50.5341 10.6476C52.5214 11.3741 53.9977 11.8771 53.9409 12.8271C53.8841 13.8329 53.0324 14.8947 51.7833 15.6212C50.5909 16.3476 45.651 17.6329 44.6858 17.8006C43.6637 18.0241 43.2663 17.8006 42.9256 18.08C42.5849 18.3594 42.1307 18.3035 41.8468 18.08C41.5629 17.8565 41.1086 17.2976 41.2222 17.0182C41.279 16.7388 41.279 11.1506 41.279 11.1506C41.279 11.1506 40.4273 11.0947 40.2569 10.7035C40.0866 10.3682 40.4273 9.86529 40.7112 9.64176C40.9951 9.41823 41.1654 9.30646 41.1654 9.30646C41.1654 9.30646 40.8247 4.27705 40.6544 3.77411C40.4841 3.27117 40.2002 2.76823 39.8027 2.76823C39.3485 2.76823 38.0993 3.10352 37.6451 2.76823C37.1908 2.43293 37.0205 1.92999 37.134 1.53882C37.3044 1.20352 37.134 0.812345 37.7586 0.812345C38.3832 0.812345 42.9256 1.2594 44.9129 1.65058C46.9002 2.09764 50.7612 3.55058 50.6477 4.55646C50.5909 5.56235 50.4205 6.06529 49.2849 6.73587C48.1493 7.46235 43.1527 9.80941 43.1527 9.80941C43.1527 9.80941 48.5468 9.92117 50.5341 10.6476ZM44.3451 7.46235C45.4239 6.73588 47.979 5.95352 48.5468 5.56235C49.1146 5.11529 48.3197 4.61235 47.0705 4.22117C45.7646 3.77411 42.6417 3.21529 42.6417 3.21529L42.812 8.35646C42.812 8.30058 43.3231 8.18882 44.3451 7.46235ZM42.812 11.2623V16.2918C42.812 16.2918 45.9349 16.1241 46.7866 15.8447C47.6383 15.5653 50.818 14.3359 51.7833 13.8329C52.6917 13.33 52.2943 12.7712 51.6129 12.4918C50.9883 12.2123 51.1019 11.9888 48.6036 11.7653C46.162 11.6535 42.812 11.2623 42.812 11.2623Z" fill="white"/>
</svg>
