<svg width="271" height="67" viewBox="0 0 271 67" fill="none" xmlns="http://www.w3.org/2000/svg">
<path d="M6.16016 49.2363H6.20117L8.61426 43.6035H10.3027H11.417V44.4717L10.3027 44.6631V49.9473L11.417 50.1387V51H7.8418V50.1387L8.95605 49.9473V45.8662L8.91504 45.8525L6.64551 51H5.71582L3.40527 45.7432L3.36426 45.7568V49.9473L4.47852 50.1387V51H0.90332V50.1387L2.01758 49.9473V44.6631L0.90332 44.4717V43.6035H2.01758H3.75391L6.16016 49.2363Z" fill="#8A8F92"/>
<path d="M17.46 51C17.4189 50.7995 17.387 50.6195 17.3643 50.46C17.3415 50.3005 17.3255 50.141 17.3164 49.9814C17.0566 50.3141 16.7308 50.5921 16.3389 50.8154C15.9515 51.0342 15.5368 51.1436 15.0947 51.1436C14.3245 51.1436 13.7389 50.9567 13.3379 50.583C12.9368 50.2048 12.7363 49.6738 12.7363 48.9902C12.7363 48.2884 13.0189 47.7484 13.584 47.3701C14.1536 46.9873 14.9329 46.7959 15.9219 46.7959H17.3096V45.9346C17.3096 45.5016 17.1729 45.1598 16.8994 44.9092C16.626 44.654 16.2454 44.5264 15.7578 44.5264C15.4206 44.5264 15.1221 44.5697 14.8623 44.6562C14.6071 44.7428 14.3997 44.8613 14.2402 45.0117L14.0967 45.791H13.0576V44.3555C13.3949 44.0866 13.8027 43.8724 14.2812 43.7129C14.7598 43.5488 15.2793 43.4668 15.8398 43.4668C16.6784 43.4668 17.3574 43.681 17.877 44.1094C18.3965 44.5378 18.6562 45.1507 18.6562 45.9482V49.5098C18.6562 49.6055 18.6562 49.6989 18.6562 49.79C18.6608 49.8812 18.6676 49.9723 18.6768 50.0635L19.2236 50.1387V51H17.46ZM15.293 50.0156C15.7396 50.0156 16.1475 49.9085 16.5166 49.6943C16.8857 49.4801 17.1501 49.2227 17.3096 48.9219V47.7051H15.874C15.3226 47.7051 14.8851 47.8327 14.5615 48.0879C14.2425 48.3431 14.083 48.653 14.083 49.0176C14.083 49.3411 14.1833 49.5895 14.3838 49.7627C14.5843 49.9313 14.8874 50.0156 15.293 50.0156Z" fill="#8A8F92"/>
<path d="M23.667 50.0908C24.1136 50.0908 24.5055 49.9541 24.8428 49.6807C25.1846 49.4027 25.3555 49.0632 25.3555 48.6621H26.5654L26.5791 48.7031C26.6019 49.3411 26.3171 49.9085 25.7246 50.4053C25.1367 50.8975 24.4508 51.1436 23.667 51.1436C22.5915 51.1436 21.7689 50.7926 21.1992 50.0908C20.6341 49.389 20.3516 48.5072 20.3516 47.4453V47.1582C20.3516 46.1055 20.6364 45.2282 21.2061 44.5264C21.7757 43.82 22.596 43.4668 23.667 43.4668C24.2594 43.4668 24.7904 43.5648 25.2598 43.7607C25.7337 43.9567 26.1257 44.2256 26.4355 44.5674L26.4971 46.208H25.4238L25.1299 45.0459C24.9704 44.891 24.7653 44.7656 24.5146 44.6699C24.264 44.5742 23.9814 44.5264 23.667 44.5264C22.9606 44.5264 22.4548 44.7816 22.1494 45.292C21.8486 45.7979 21.6982 46.4199 21.6982 47.1582V47.4453C21.6982 48.2018 21.8486 48.833 22.1494 49.3389C22.4502 49.8402 22.9561 50.0908 23.667 50.0908Z" fill="#8A8F92"/>
<path d="M27.9463 44.4717V43.6035H30.4072H31.5215V44.4717L30.4072 44.6631V49.9473H33.0049V43.6035H34.3516V49.9473H36.9561V44.6631L35.8418 44.4717V43.6035H38.3027H39.417V44.4717L38.3027 44.6631V49.9473L39.417 50.1387V51H27.9463V50.1387L29.0605 49.9473V44.6631L27.9463 44.4717Z" fill="#8A8F92"/>
<path d="M47.6133 43.6035V45.8047H46.458L46.3555 44.6494H44.7695V49.9473L45.8838 50.1387V51H42.3086V50.1387L43.4229 49.9473V44.6494H41.8643L41.7617 45.8047H40.6133V43.6035H47.6133Z" fill="#8A8F92"/>
<path d="M53.5127 51C53.4717 50.7995 53.4398 50.6195 53.417 50.46C53.3942 50.3005 53.3783 50.141 53.3691 49.9814C53.1094 50.3141 52.7835 50.5921 52.3916 50.8154C52.0042 51.0342 51.5895 51.1436 51.1475 51.1436C50.3773 51.1436 49.7917 50.9567 49.3906 50.583C48.9896 50.2048 48.7891 49.6738 48.7891 48.9902C48.7891 48.2884 49.0716 47.7484 49.6367 47.3701C50.2064 46.9873 50.9857 46.7959 51.9746 46.7959H53.3623V45.9346C53.3623 45.5016 53.2256 45.1598 52.9521 44.9092C52.6787 44.654 52.2982 44.5264 51.8105 44.5264C51.4733 44.5264 51.1748 44.5697 50.915 44.6562C50.6598 44.7428 50.4525 44.8613 50.293 45.0117L50.1494 45.791H49.1104V44.3555C49.4476 44.0866 49.8555 43.8724 50.334 43.7129C50.8125 43.5488 51.332 43.4668 51.8926 43.4668C52.7311 43.4668 53.4102 43.681 53.9297 44.1094C54.4492 44.5378 54.709 45.1507 54.709 45.9482V49.5098C54.709 49.6055 54.709 49.6989 54.709 49.79C54.7135 49.8812 54.7204 49.9723 54.7295 50.0635L55.2764 50.1387V51H53.5127ZM51.3457 50.0156C51.7923 50.0156 52.2002 49.9085 52.5693 49.6943C52.9385 49.4801 53.2028 49.2227 53.3623 48.9219V47.7051H51.9268C51.3753 47.7051 50.9378 47.8327 50.6143 48.0879C50.2952 48.3431 50.1357 48.653 50.1357 49.0176C50.1357 49.3411 50.236 49.5895 50.4365 49.7627C50.637 49.9313 50.9401 50.0156 51.3457 50.0156Z" fill="#8A8F92"/>
<path d="M60.082 44.0273C61.0208 44.0273 61.7637 44.3418 62.3105 44.9707C62.8574 45.5951 63.1309 46.3971 63.1309 47.377V47.5273C63.1309 48.5892 62.8346 49.4574 62.2422 50.1318C61.6497 50.8063 60.8431 51.1436 59.8223 51.1436C58.8014 51.1436 57.9948 50.8063 57.4023 50.1318C56.8099 49.4574 56.5137 48.5892 56.5137 47.5273V46.5703C56.5137 45.112 56.819 43.9499 57.4297 43.084C58.0404 42.2181 58.8607 41.6826 59.8906 41.4775C60.4648 41.3727 60.8796 41.2474 61.1348 41.1016C61.3945 40.9557 61.5244 40.7165 61.5244 40.3838H62.5635L62.5771 40.4248C62.5908 41.2269 62.4017 41.7533 62.0098 42.0039C61.6178 42.2546 60.9958 42.4528 60.1436 42.5986C59.5192 42.7035 58.986 42.945 58.5439 43.3232C58.1064 43.6969 57.8376 44.2461 57.7373 44.9707L57.7646 45.0049C58.0335 44.7178 58.3708 44.4831 58.7764 44.3008C59.1865 44.1185 59.6217 44.0273 60.082 44.0273ZM59.8086 45.0801C59.166 45.0801 58.6807 45.2988 58.3525 45.7363C58.0244 46.1738 57.8604 46.7207 57.8604 47.377V47.5273C57.8604 48.2702 58.0244 48.8831 58.3525 49.3662C58.6807 49.8493 59.1706 50.0908 59.8223 50.0908C60.4648 50.0908 60.9525 49.8493 61.2852 49.3662C61.6178 48.8831 61.7842 48.2702 61.7842 47.5273V47.377C61.7842 46.7207 61.6156 46.1738 61.2783 45.7363C60.9456 45.2988 60.4557 45.0801 59.8086 45.0801Z" fill="#8A8F92"/>
<path d="M21.5615 64.1387L23.0996 63.9473V56.4893L21.5342 56.5166V55.6758L24.4463 55.0469V63.9473L25.9775 64.1387V65H21.5615V64.1387Z" fill="#8A8F92"/>
<path d="M28.8418 65H27.4951V63.6191H28.8418V65ZM28.8418 58.9844H27.4951V57.6035H28.8418V58.9844Z" fill="#8A8F92"/>
<path d="M30.2021 64.1387L31.7402 63.9473V56.4893L30.1748 56.5166V55.6758L33.0869 55.0469V63.9473L34.6182 64.1387V65H30.2021V64.1387Z" fill="#8A8F92"/>
<path d="M41.3857 61.6504H42.7598V62.7031H41.3857V63.9473L42.5 64.1387V65H38.9316V64.1387L40.0459 63.9473V62.7031H35.5752V61.9443L39.9639 55.0469H41.3857V61.6504ZM37.0107 61.6504H40.0459V56.9678L40.0049 56.9541L39.8682 57.3164L37.0107 61.6504Z" fill="#8A8F92"/>
<path d="M107.871 52.9756L108.985 52.7842V44.6631L107.871 44.4717V43.6035H110.141L110.264 44.5059C110.51 44.1686 110.808 43.9111 111.159 43.7334C111.515 43.5557 111.925 43.4668 112.39 43.4668C113.306 43.4668 114.017 43.8314 114.522 44.5605C115.033 45.2852 115.288 46.2445 115.288 47.4385V47.582C115.288 48.6484 115.033 49.5098 114.522 50.166C114.012 50.8177 113.308 51.1436 112.41 51.1436C111.954 51.1436 111.553 51.0684 111.207 50.918C110.865 50.763 110.574 50.5352 110.332 50.2344V52.7842L111.446 52.9756V53.8438H107.871V52.9756ZM113.935 47.4385C113.935 46.5954 113.771 45.9049 113.442 45.3672C113.114 44.8294 112.627 44.5605 111.979 44.5605C111.597 44.5605 111.269 44.6471 110.995 44.8203C110.722 44.9935 110.501 45.2305 110.332 45.5312V49.1338C110.501 49.4391 110.719 49.6761 110.988 49.8447C111.262 50.0088 111.597 50.0908 111.993 50.0908C112.631 50.0908 113.114 49.8584 113.442 49.3936C113.771 48.9287 113.935 48.3249 113.935 47.582V47.4385Z" fill="#8A8F92"/>
<path d="M121.338 51C121.297 50.7995 121.265 50.6195 121.242 50.46C121.219 50.3005 121.203 50.141 121.194 49.9814C120.935 50.3141 120.609 50.5921 120.217 50.8154C119.829 51.0342 119.415 51.1436 118.973 51.1436C118.202 51.1436 117.617 50.9567 117.216 50.583C116.815 50.2048 116.614 49.6738 116.614 48.9902C116.614 48.2884 116.897 47.7484 117.462 47.3701C118.032 46.9873 118.811 46.7959 119.8 46.7959H121.188V45.9346C121.188 45.5016 121.051 45.1598 120.777 44.9092C120.504 44.654 120.123 44.5264 119.636 44.5264C119.299 44.5264 119 44.5697 118.74 44.6562C118.485 44.7428 118.278 44.8613 118.118 45.0117L117.975 45.791H116.936V44.3555C117.273 44.0866 117.681 43.8724 118.159 43.7129C118.638 43.5488 119.157 43.4668 119.718 43.4668C120.556 43.4668 121.235 43.681 121.755 44.1094C122.274 44.5378 122.534 45.1507 122.534 45.9482V49.5098C122.534 49.6055 122.534 49.6989 122.534 49.79C122.539 49.8812 122.546 49.9723 122.555 50.0635L123.102 50.1387V51H121.338ZM119.171 50.0156C119.618 50.0156 120.025 49.9085 120.395 49.6943C120.764 49.4801 121.028 49.2227 121.188 48.9219V47.7051H119.752C119.201 47.7051 118.763 47.8327 118.439 48.0879C118.12 48.3431 117.961 48.653 117.961 49.0176C117.961 49.3411 118.061 49.5895 118.262 49.7627C118.462 49.9313 118.765 50.0156 119.171 50.0156Z" fill="#8A8F92"/>
<path d="M127.217 46.6797C127.691 46.6797 128.028 46.5908 128.229 46.4131C128.434 46.2308 128.536 45.9688 128.536 45.627C128.536 45.3171 128.42 45.055 128.188 44.8408C127.955 44.6266 127.602 44.5195 127.128 44.5195C126.704 44.5195 126.349 44.6312 126.062 44.8545C125.774 45.0778 125.631 45.349 125.631 45.668H124.353L124.339 45.627C124.312 44.9935 124.569 44.4785 125.111 44.082C125.654 43.681 126.326 43.4805 127.128 43.4805C127.994 43.4805 128.671 43.6673 129.158 44.041C129.646 44.4102 129.89 44.9388 129.89 45.627C129.89 45.9596 129.789 46.265 129.589 46.543C129.388 46.821 129.108 47.0397 128.748 47.1992C129.163 47.3451 129.479 47.5638 129.698 47.8555C129.917 48.1426 130.026 48.4958 130.026 48.915C130.026 49.6077 129.76 50.1501 129.227 50.542C128.698 50.9339 127.998 51.1299 127.128 51.1299C126.321 51.1299 125.629 50.9362 125.05 50.5488C124.476 50.1569 124.2 49.5918 124.223 48.8535L124.236 48.8125H125.515C125.515 49.1589 125.665 49.4596 125.966 49.7148C126.267 49.9701 126.654 50.0977 127.128 50.0977C127.616 50.0977 127.994 49.986 128.263 49.7627C128.532 49.5348 128.666 49.2523 128.666 48.915C128.666 48.5186 128.548 48.2292 128.311 48.0469C128.078 47.8646 127.714 47.7734 127.217 47.7734H125.932V46.6797H127.217Z" fill="#8A8F92"/>
<path d="M136.698 49.2363H136.739L139.152 43.6035H140.841H141.955V44.4717L140.841 44.6631V49.9473L141.955 50.1387V51H138.38V50.1387L139.494 49.9473V45.8662L139.453 45.8525L137.184 51H136.254L133.943 45.7432L133.902 45.7568V49.9473L135.017 50.1387V51H131.441V50.1387L132.556 49.9473V44.6631L131.441 44.4717V43.6035H132.556H134.292L136.698 49.2363Z" fill="#8A8F92"/>
<path d="M146.549 51.1436C145.519 51.1436 144.699 50.8018 144.088 50.1182C143.482 49.43 143.179 48.5391 143.179 47.4453V47.1445C143.179 46.0918 143.491 45.2168 144.115 44.5195C144.744 43.8177 145.487 43.4668 146.344 43.4668C147.337 43.4668 148.089 43.7676 148.6 44.3691C149.115 44.9707 149.372 45.7728 149.372 46.7754V47.6162H144.573L144.553 47.6504C144.566 48.3613 144.746 48.9469 145.093 49.4072C145.439 49.863 145.924 50.0908 146.549 50.0908C147.005 50.0908 147.403 50.027 147.745 49.8994C148.091 49.7673 148.39 49.5872 148.641 49.3594L149.167 50.2344C148.903 50.4896 148.552 50.7061 148.114 50.8838C147.681 51.057 147.16 51.1436 146.549 51.1436ZM146.344 44.5264C145.893 44.5264 145.507 44.7178 145.188 45.1006C144.869 45.4788 144.674 45.9551 144.601 46.5293L144.614 46.5635H148.025V46.3857C148.025 45.8571 147.884 45.415 147.602 45.0596C147.319 44.7041 146.9 44.5264 146.344 44.5264Z" fill="#8A8F92"/>
<path d="M150.541 52.9756L151.655 52.7842V44.6631L150.541 44.4717V43.6035H152.811L152.934 44.5059C153.18 44.1686 153.478 43.9111 153.829 43.7334C154.185 43.5557 154.595 43.4668 155.06 43.4668C155.976 43.4668 156.687 43.8314 157.192 44.5605C157.703 45.2852 157.958 46.2445 157.958 47.4385V47.582C157.958 48.6484 157.703 49.5098 157.192 50.166C156.682 50.8177 155.978 51.1436 155.08 51.1436C154.624 51.1436 154.223 51.0684 153.877 50.918C153.535 50.763 153.243 50.5352 153.002 50.2344V52.7842L154.116 52.9756V53.8438H150.541V52.9756ZM156.604 47.4385C156.604 46.5954 156.44 45.9049 156.112 45.3672C155.784 44.8294 155.297 44.5605 154.649 44.5605C154.267 44.5605 153.938 44.6471 153.665 44.8203C153.392 44.9935 153.171 45.2305 153.002 45.5312V49.1338C153.171 49.4391 153.389 49.6761 153.658 49.8447C153.932 50.0088 154.267 50.0908 154.663 50.0908C155.301 50.0908 155.784 49.8584 156.112 49.3936C156.44 48.9287 156.604 48.3249 156.604 47.582V47.4385Z" fill="#8A8F92"/>
<path d="M84.9912 64.1387L86.5293 63.9473V56.4893L84.9639 56.5166V55.6758L87.876 55.0469V63.9473L89.4072 64.1387V65H84.9912V64.1387Z" fill="#8A8F92"/>
<path d="M92.415 59.4014H93.5908C94.1878 59.4014 94.6094 59.2533 94.8555 58.957C95.1061 58.6562 95.2314 58.2393 95.2314 57.7061C95.2314 57.1364 95.0902 56.7035 94.8076 56.4072C94.5251 56.111 94.1081 55.9629 93.5566 55.9629C93.0326 55.9629 92.611 56.1178 92.292 56.4277C91.9775 56.7331 91.8203 57.141 91.8203 57.6514H90.5283L90.5146 57.6104C90.4919 56.8584 90.763 56.2204 91.3281 55.6963C91.8978 55.1676 92.6406 54.9033 93.5566 54.9033C94.4772 54.9033 95.2109 55.1494 95.7578 55.6416C96.3047 56.1292 96.5781 56.8265 96.5781 57.7334C96.5781 58.1436 96.4528 58.5537 96.2021 58.9639C95.9561 59.3695 95.5846 59.6794 95.0879 59.8936C95.6849 60.0895 96.1064 60.3971 96.3525 60.8164C96.6032 61.2357 96.7285 61.7051 96.7285 62.2246C96.7285 63.1315 96.43 63.8447 95.833 64.3643C95.2406 64.8838 94.4818 65.1436 93.5566 65.1436C92.6452 65.1436 91.8932 64.8997 91.3008 64.4121C90.7083 63.9199 90.4235 63.2546 90.4463 62.416L90.4668 62.375H91.752C91.752 62.8991 91.9115 63.3161 92.2305 63.626C92.554 63.9359 92.9961 64.0908 93.5566 64.0908C94.1263 64.0908 94.5729 63.9359 94.8965 63.626C95.2201 63.3161 95.3818 62.8581 95.3818 62.252C95.3818 61.6367 95.2383 61.1833 94.9512 60.8916C94.6641 60.5999 94.2106 60.4541 93.5908 60.4541H92.415V59.4014Z" fill="#8A8F92"/>
<path d="M101.404 64.1387L102.197 63.9814L104.378 61.2607L102.266 58.6289L101.473 58.4717V57.6035H104.371V58.4717L103.701 58.5537L105.082 60.3311L106.47 58.5469L105.807 58.4717V57.6035H108.726V58.4717L107.933 58.6289L105.82 61.2607L107.994 63.9814L108.794 64.1387V65H105.896V64.1387L106.552 64.0635L105.103 62.2041L103.653 64.0635L104.316 64.1387V65H101.404V64.1387Z" fill="#8A8F92"/>
<path d="M113.278 65V64.0771L116.539 60.4541C117.122 59.8024 117.517 59.2852 117.722 58.9023C117.931 58.5195 118.036 58.1276 118.036 57.7266C118.036 57.2298 117.89 56.8128 117.599 56.4756C117.307 56.1338 116.922 55.9629 116.443 55.9629C115.755 55.9629 115.249 56.1383 114.926 56.4893C114.602 56.8402 114.44 57.3369 114.44 57.9795H113.148L113.135 57.9385C113.112 57.0817 113.395 56.3617 113.982 55.7783C114.575 55.195 115.395 54.9033 116.443 54.9033C117.341 54.9033 118.054 55.1654 118.583 55.6895C119.116 56.209 119.383 56.8721 119.383 57.6787C119.383 58.221 119.221 58.7633 118.897 59.3057C118.578 59.848 118.127 60.4336 117.544 61.0625L114.926 63.9131L114.939 63.9473H118.474L118.583 62.8057H119.725V65H113.278Z" fill="#8A8F92"/>
<path d="M124.893 54.9033C125.23 54.9033 125.565 54.9421 125.897 55.0195C126.235 55.097 126.513 55.195 126.731 55.3135L126.472 56.3184C126.257 56.2135 126.023 56.1292 125.768 56.0654C125.512 55.9971 125.221 55.9629 124.893 55.9629C124.195 55.9629 123.639 56.2272 123.225 56.7559C122.814 57.2799 122.596 58.0729 122.568 59.1348L122.596 59.1621C122.851 58.9251 123.163 58.7383 123.532 58.6016C123.901 58.4603 124.3 58.3896 124.729 58.3896C125.617 58.3896 126.326 58.6973 126.854 59.3125C127.383 59.9277 127.647 60.707 127.647 61.6504C127.647 62.6803 127.365 63.5212 126.8 64.1729C126.239 64.82 125.49 65.1436 124.551 65.1436C123.58 65.1436 122.776 64.7904 122.138 64.084C121.5 63.3776 121.181 62.3773 121.181 61.083V59.7432C121.181 58.1663 121.527 56.9655 122.22 56.1406C122.912 55.3158 123.803 54.9033 124.893 54.9033ZM124.435 59.3945C123.974 59.3945 123.582 59.488 123.259 59.6748C122.935 59.8571 122.689 60.1032 122.521 60.4131V61.2129C122.521 62.138 122.712 62.849 123.095 63.3457C123.482 63.8424 123.967 64.0908 124.551 64.0908C125.102 64.0908 125.531 63.8584 125.836 63.3936C126.146 62.9242 126.301 62.3431 126.301 61.6504C126.301 60.9941 126.134 60.4541 125.802 60.0303C125.474 59.6064 125.018 59.3945 124.435 59.3945Z" fill="#8A8F92"/>
<path d="M132.084 64.1387L132.877 63.9814L135.058 61.2607L132.945 58.6289L132.152 58.4717V57.6035H135.051V58.4717L134.381 58.5537L135.762 60.3311L137.149 58.5469L136.486 58.4717V57.6035H139.405V58.4717L138.612 58.6289L136.5 61.2607L138.674 63.9814L139.474 64.1387V65H136.575V64.1387L137.231 64.0635L135.782 62.2041L134.333 64.0635L134.996 64.1387V65H132.084V64.1387Z" fill="#8A8F92"/>
<path d="M143.958 65V64.0771L147.219 60.4541C147.802 59.8024 148.196 59.2852 148.401 58.9023C148.611 58.5195 148.716 58.1276 148.716 57.7266C148.716 57.2298 148.57 56.8128 148.278 56.4756C147.987 56.1338 147.602 55.9629 147.123 55.9629C146.435 55.9629 145.929 56.1383 145.605 56.4893C145.282 56.8402 145.12 57.3369 145.12 57.9795H143.828L143.814 57.9385C143.792 57.0817 144.074 56.3617 144.662 55.7783C145.255 55.195 146.075 54.9033 147.123 54.9033C148.021 54.9033 148.734 55.1654 149.263 55.6895C149.796 56.209 150.062 56.8721 150.062 57.6787C150.062 58.221 149.901 58.7633 149.577 59.3057C149.258 59.848 148.807 60.4336 148.224 61.0625L145.605 63.9131L145.619 63.9473H149.153L149.263 62.8057H150.404V65H143.958Z" fill="#8A8F92"/>
<path d="M158.197 61.2061C158.197 62.4775 157.915 63.4528 157.35 64.1318C156.785 64.8063 156.012 65.1436 155.032 65.1436C154.057 65.1436 153.285 64.804 152.715 64.125C152.145 63.446 151.86 62.473 151.86 61.2061V58.8477C151.86 57.5807 152.143 56.6077 152.708 55.9287C153.273 55.2451 154.043 54.9033 155.019 54.9033C155.998 54.9033 156.773 55.2451 157.343 55.9287C157.912 56.6077 158.197 57.5807 158.197 58.8477V61.2061ZM156.851 58.5605C156.851 57.6992 156.693 57.0521 156.379 56.6191C156.069 56.1816 155.616 55.9629 155.019 55.9629C154.431 55.9629 153.982 56.1816 153.672 56.6191C153.362 57.0521 153.207 57.6992 153.207 58.5605V61.4795C153.207 62.3408 153.364 62.9925 153.679 63.4346C153.993 63.8721 154.444 64.0908 155.032 64.0908C155.629 64.0908 156.08 63.8721 156.386 63.4346C156.696 62.9971 156.851 62.3454 156.851 61.4795V58.5605Z" fill="#8A8F92"/>
<path d="M166.435 64.0908C166.881 64.0908 167.273 63.9541 167.61 63.6807C167.952 63.4027 168.123 63.0632 168.123 62.6621H169.333L169.347 62.7031C169.369 63.3411 169.085 63.9085 168.492 64.4053C167.904 64.8975 167.218 65.1436 166.435 65.1436C165.359 65.1436 164.536 64.7926 163.967 64.0908C163.402 63.389 163.119 62.5072 163.119 61.4453V61.1582C163.119 60.1055 163.404 59.2282 163.974 58.5264C164.543 57.82 165.364 57.4668 166.435 57.4668C167.027 57.4668 167.558 57.5648 168.027 57.7607C168.501 57.9567 168.893 58.2256 169.203 58.5674L169.265 60.208H168.191L167.897 59.0459C167.738 58.891 167.533 58.7656 167.282 58.6699C167.032 58.5742 166.749 58.5264 166.435 58.5264C165.728 58.5264 165.222 58.7816 164.917 59.292C164.616 59.7979 164.466 60.4199 164.466 61.1582V61.4453C164.466 62.2018 164.616 62.833 164.917 63.3389C165.218 63.8402 165.724 64.0908 166.435 64.0908Z" fill="#8A8F92"/>
<path d="M175.971 63.2363H176.012L178.425 57.6035H180.113H181.228V58.4717L180.113 58.6631V63.9473L181.228 64.1387V65H177.652V64.1387L178.767 63.9473V59.8662L178.726 59.8525L176.456 65H175.526L173.216 59.7432L173.175 59.7568V63.9473L174.289 64.1387V65H170.714V64.1387L171.828 63.9473V58.6631L170.714 58.4717V57.6035H171.828H173.564L175.971 63.2363Z" fill="#8A8F92"/>
<path d="M209.326 50.1387L210.864 49.9473V42.4893L209.299 42.5166V41.6758L212.211 41.0469V49.9473L213.742 50.1387V51H209.326V50.1387Z" fill="#8A8F92"/>
<path d="M214.932 51V50.0771L218.192 46.4541C218.776 45.8024 219.17 45.2852 219.375 44.9023C219.585 44.5195 219.689 44.1276 219.689 43.7266C219.689 43.2298 219.544 42.8128 219.252 42.4756C218.96 42.1338 218.575 41.9629 218.097 41.9629C217.409 41.9629 216.903 42.1383 216.579 42.4893C216.256 42.8402 216.094 43.3369 216.094 43.9795H214.802L214.788 43.9385C214.765 43.0817 215.048 42.3617 215.636 41.7783C216.228 41.195 217.049 40.9033 218.097 40.9033C218.994 40.9033 219.708 41.1654 220.236 41.6895C220.77 42.209 221.036 42.8721 221.036 43.6787C221.036 44.221 220.874 44.7633 220.551 45.3057C220.232 45.848 219.781 46.4336 219.197 47.0625L216.579 49.9131L216.593 49.9473H220.127L220.236 48.8057H221.378V51H214.932Z" fill="#8A8F92"/>
<path d="M229.171 47.2061C229.171 48.4775 228.888 49.4528 228.323 50.1318C227.758 50.8063 226.986 51.1436 226.006 51.1436C225.031 51.1436 224.258 50.804 223.688 50.125C223.119 49.446 222.834 48.473 222.834 47.2061V44.8477C222.834 43.5807 223.117 42.6077 223.682 41.9287C224.247 41.2451 225.017 40.9033 225.992 40.9033C226.972 40.9033 227.747 41.2451 228.316 41.9287C228.886 42.6077 229.171 43.5807 229.171 44.8477V47.2061ZM227.824 44.5605C227.824 43.6992 227.667 43.0521 227.353 42.6191C227.043 42.1816 226.589 41.9629 225.992 41.9629C225.404 41.9629 224.955 42.1816 224.646 42.6191C224.336 43.0521 224.181 43.6992 224.181 44.5605V47.4795C224.181 48.3408 224.338 48.9925 224.652 49.4346C224.967 49.8721 225.418 50.0908 226.006 50.0908C226.603 50.0908 227.054 49.8721 227.359 49.4346C227.669 48.9971 227.824 48.3454 227.824 47.4795V44.5605Z" fill="#8A8F92"/>
<path d="M237.155 47.2061C237.155 48.4775 236.873 49.4528 236.308 50.1318C235.743 50.8063 234.97 51.1436 233.99 51.1436C233.015 51.1436 232.243 50.804 231.673 50.125C231.103 49.446 230.818 48.473 230.818 47.2061V44.8477C230.818 43.5807 231.101 42.6077 231.666 41.9287C232.231 41.2451 233.001 40.9033 233.977 40.9033C234.956 40.9033 235.731 41.2451 236.301 41.9287C236.87 42.6077 237.155 43.5807 237.155 44.8477V47.2061ZM235.809 44.5605C235.809 43.6992 235.651 43.0521 235.337 42.6191C235.027 42.1816 234.574 41.9629 233.977 41.9629C233.389 41.9629 232.94 42.1816 232.63 42.6191C232.32 43.0521 232.165 43.6992 232.165 44.5605V47.4795C232.165 48.3408 232.322 48.9925 232.637 49.4346C232.951 49.8721 233.402 50.0908 233.99 50.0908C234.587 50.0908 235.038 49.8721 235.344 49.4346C235.654 48.9971 235.809 48.3454 235.809 47.4795V44.5605Z" fill="#8A8F92"/>
<path d="M238.317 50.1387L239.432 49.9473V44.6631L238.317 44.4717V43.6035H240.642L240.73 44.5674C240.967 44.2165 241.273 43.9453 241.646 43.7539C242.02 43.5625 242.453 43.4668 242.945 43.4668C243.438 43.4668 243.859 43.5807 244.21 43.8086C244.565 44.0365 244.832 44.3783 245.01 44.834C245.242 44.4147 245.55 44.082 245.933 43.8359C246.315 43.5898 246.762 43.4668 247.272 43.4668C248.029 43.4668 248.626 43.7266 249.063 44.2461C249.501 44.7611 249.72 45.5381 249.72 46.5771V49.9473L250.834 50.1387V51H247.252V50.1387L248.366 49.9473V46.5635C248.366 45.8343 248.241 45.3193 247.99 45.0186C247.74 44.7132 247.368 44.5605 246.876 44.5605C246.407 44.5605 246.028 44.7269 245.741 45.0596C245.459 45.3877 245.295 45.8024 245.249 46.3037V49.9473L246.363 50.1387V51H242.788V50.1387L243.902 49.9473V46.5635C243.902 45.8708 243.772 45.3649 243.513 45.0459C243.257 44.7223 242.886 44.5605 242.398 44.5605C241.988 44.5605 241.651 44.6449 241.387 44.8135C241.122 44.9821 240.92 45.2191 240.778 45.5244V49.9473L241.893 50.1387V51H238.317V50.1387Z" fill="#8A8F92"/>
<path d="M251.586 50.1387L252.324 50.0361L255.804 41.0469H256.959L260.377 50.0361L261.108 50.1387V51H258.251V50.1387L259.003 50.0088L258.347 48.1768H254.361L253.685 50.0088L254.437 50.1387V51H251.586V50.1387ZM254.778 47.0488H257.937L256.392 42.7764H256.351L254.778 47.0488Z" fill="#8A8F92"/>
<path d="M261.888 50.1387L263.002 49.9473V41.3955L261.888 41.2041V40.3359H264.349V44.5879C264.604 44.2324 264.916 43.9567 265.285 43.7607C265.654 43.5648 266.064 43.4668 266.516 43.4668C267.309 43.4668 267.924 43.7038 268.361 44.1777C268.799 44.6517 269.018 45.3809 269.018 46.3652V49.9473L270.132 50.1387V51H266.557V50.1387L267.671 49.9473V46.3516C267.671 45.7409 267.539 45.2897 267.274 44.998C267.015 44.7064 266.625 44.5605 266.105 44.5605C265.736 44.5605 265.399 44.6494 265.094 44.8271C264.793 45.0003 264.545 45.2373 264.349 45.5381V49.9473L265.463 50.1387V51H261.888V50.1387Z" fill="#8A8F92"/>
<path d="M227.633 59.4014H228.809C229.406 59.4014 229.827 59.2533 230.073 58.957C230.324 58.6562 230.449 58.2393 230.449 57.7061C230.449 57.1364 230.308 56.7035 230.025 56.4072C229.743 56.111 229.326 55.9629 228.774 55.9629C228.25 55.9629 227.829 56.1178 227.51 56.4277C227.195 56.7331 227.038 57.141 227.038 57.6514H225.746L225.732 57.6104C225.71 56.8584 225.981 56.2204 226.546 55.6963C227.116 55.1676 227.858 54.9033 228.774 54.9033C229.695 54.9033 230.429 55.1494 230.976 55.6416C231.522 56.1292 231.796 56.8265 231.796 57.7334C231.796 58.1436 231.671 58.5537 231.42 58.9639C231.174 59.3695 230.802 59.6794 230.306 59.8936C230.903 60.0895 231.324 60.3971 231.57 60.8164C231.821 61.2357 231.946 61.7051 231.946 62.2246C231.946 63.1315 231.648 63.8447 231.051 64.3643C230.458 64.8838 229.7 65.1436 228.774 65.1436C227.863 65.1436 227.111 64.8997 226.519 64.4121C225.926 63.9199 225.641 63.2546 225.664 62.416L225.685 62.375H226.97C226.97 62.8991 227.129 63.3161 227.448 63.626C227.772 63.9359 228.214 64.0908 228.774 64.0908C229.344 64.0908 229.791 63.9359 230.114 63.626C230.438 63.3161 230.6 62.8581 230.6 62.252C230.6 61.6367 230.456 61.1833 230.169 60.8916C229.882 60.5999 229.428 60.4541 228.809 60.4541H227.633V59.4014Z" fill="#8A8F92"/>
<path d="M235.05 65H233.703V63.6191H235.05V65Z" fill="#8A8F92"/>
<path d="M243.335 56.1064C242.132 57.5374 241.318 58.8066 240.895 59.9141C240.475 61.0169 240.172 62.3545 239.985 63.9268L239.876 65H238.529L238.639 63.9268C238.83 62.359 239.201 60.9577 239.753 59.7227C240.304 58.4876 241.059 57.2822 242.016 56.1064H237.859L237.757 57.248H236.608V55.0469H243.335V56.1064Z" fill="#8A8F92"/>
<path d="M247.266 55.915L246.356 56.0586L248.585 62.5254L248.811 63.3115H248.852L249.077 62.5254L251.299 56.0518L250.403 55.915V55.0469H253.541V55.915L252.741 56.0244L249.405 65H248.25L244.914 56.0244L244.121 55.915V55.0469H247.266V55.915Z" fill="#8A8F92"/>
<path d="M21 1C20.4477 1 20 1.44772 20 2V5.73333C20 6.28562 20.4477 6.73333 21 6.73333C21.5523 6.73333 22 6.28562 22 5.73333V3H24.4667C25.019 3 25.4667 2.55228 25.4667 2C25.4667 1.44772 25.019 1 24.4667 1H21Z" fill="#8A8F92"/>
<path d="M30.5333 1C29.981 1 29.5333 1.44772 29.5333 2C29.5333 2.55228 29.981 3 30.5333 3H37.4667C38.019 3 38.4667 2.55228 38.4667 2C38.4667 1.44772 38.019 1 37.4667 1H30.5333Z" fill="#8A8F92"/>
<path d="M43.5333 1C42.981 1 42.5333 1.44772 42.5333 2C42.5333 2.55228 42.981 3 43.5333 3H46V5.46667C46 6.01895 46.4477 6.46667 47 6.46667C47.5523 6.46667 48 6.01895 48 5.46667V2C48 1.44772 47.5523 1 47 1H43.5333Z" fill="#8A8F92"/>
<path d="M48 11.5333C48 10.981 47.5523 10.5333 47 10.5333C46.4477 10.5333 46 10.981 46 11.5333V18.4667C46 19.019 46.4477 19.4667 47 19.4667C47.5523 19.4667 48 19.019 48 18.4667V11.5333Z" fill="#8A8F92"/>
<path d="M22 12.2667C22 11.7144 21.5523 11.2667 21 11.2667C20.4477 11.2667 20 11.7144 20 12.2667V16C20 16.5523 20.4477 17 21 17C21.5523 17 22 16.5523 22 16V12.2667Z" fill="#8A8F92"/>
<path d="M48 24.5333C48 23.981 47.5523 23.5333 47 23.5333C46.4477 23.5333 46 23.981 46 24.5333V27H43.2667C42.7144 27 42.2667 27.4477 42.2667 28C42.2667 28.5523 42.7144 29 43.2667 29H47C47.5523 29 48 28.5523 48 28V24.5333Z" fill="#8A8F92"/>
<path d="M33 27C32.4477 27 32 27.4477 32 28C32 28.5523 32.4477 29 33 29H36.7333C37.2856 29 37.7333 28.5523 37.7333 28C37.7333 27.4477 37.2856 27 36.7333 27H33Z" fill="#8A8F92"/>
<path d="M43.7071 5.29302C44.0976 5.68354 44.0976 6.3167 43.7071 6.70723L34.4142 16.0001H37C37.5523 16.0001 38 16.4478 38 17.0001C38 17.5524 37.5523 18.0001 37 18.0001H32C31.4477 18.0001 31 17.5524 31 17.0001V12.0001C31 11.4478 31.4477 11.0001 32 11.0001C32.5523 11.0001 33 11.4478 33 12.0001V14.5859L42.2929 5.29302C42.6834 4.90249 43.3166 4.90249 43.7071 5.29302Z" fill="#8A8F92"/>
<path fill-rule="evenodd" clip-rule="evenodd" d="M14 20C14 19.4477 14.4477 19 15 19H29C29.5523 19 30 19.4477 30 20V34C30 34.5523 29.5523 35 29 35H15C14.4477 35 14 34.5523 14 34V20ZM16 21V33H28V21H16Z" fill="#8A8F92"/>
<path fill-rule="evenodd" clip-rule="evenodd" d="M128 3C128.288 3 128.563 3.12448 128.753 3.3415L132.253 7.3415C132.616 7.75713 132.574 8.38889 132.159 8.75258C131.743 9.11626 131.111 9.07414 130.747 8.6585L129 6.66145V19.1707C130.165 19.5826 131 20.6938 131 22C131 22.1436 130.99 22.2848 130.97 22.423L141.569 28.9454L141.019 26.1961C140.911 25.6546 141.262 25.1278 141.804 25.0194C142.345 24.9111 142.872 25.2623 142.981 25.8039L143.981 30.8039C144.089 31.3455 143.738 31.8723 143.196 31.9806L138.196 32.9806C137.655 33.0889 137.128 32.7377 137.019 32.1961C136.911 31.6546 137.262 31.1278 137.804 31.0194L140.309 30.5184L130.041 24.1992C129.505 24.6961 128.788 25 128 25C127.212 25 126.495 24.6961 125.959 24.1992L115.691 30.5184L118.196 31.0194C118.738 31.1278 119.089 31.6546 118.981 32.1961C118.872 32.7377 118.345 33.0889 117.804 32.9806L112.804 31.9806C112.262 31.8723 111.911 31.3455 112.019 30.8039L113.019 25.8039C113.128 25.2623 113.655 24.9111 114.196 25.0194C114.738 25.1278 115.089 25.6546 114.981 26.1961L114.431 28.9454L125.03 22.423C125.01 22.2848 125 22.1436 125 22C125 20.6938 125.835 19.5825 127 19.1707V6.66145L125.253 8.6585C124.889 9.07414 124.257 9.11626 123.842 8.75258C123.426 8.38889 123.384 7.75713 123.747 7.3415L127.247 3.3415C127.437 3.12448 127.712 3 128 3ZM127 22C127 21.4477 127.448 21 128 21C128.552 21 129 21.4477 129 22C129 22.5523 128.552 23 128 23C127.448 23 127 22.5523 127 22Z" fill="#8A8F92"/>
<path d="M223 10C221.895 10 221 10.8954 221 12V24C221 25.1046 221.895 26 223 26H226C227.105 26 228 25.1046 228 24V12C228 10.8954 227.105 10 226 10H223Z" fill="#8A8F92"/>
<path d="M230 12C230 10.8954 230.895 10 232 10H235C236.105 10 237 10.8954 237 12V24C237 25.1046 236.105 26 235 26H232C230.895 26 230 25.1046 230 24V12Z" fill="#8A8F92"/>
<path d="M241 10C239.895 10 239 10.8954 239 12V24C239 25.1046 239.895 26 241 26H244C245.105 26 246 25.1046 246 24V12C246 10.8954 245.105 10 244 10H241Z" fill="#8A8F92"/>
<path d="M248 12C248 10.8954 248.895 10 250 10H253C254.105 10 255 10.8954 255 12V24C255 25.1046 254.105 26 253 26H250C248.895 26 248 25.1046 248 24V12Z" fill="#8A8F92"/>
<path fill-rule="evenodd" clip-rule="evenodd" d="M222 6C219.239 6 217 8.23858 217 11V25C217 27.7614 219.239 30 222 30H254C256.761 30 259 27.7614 259 25V23H262C262.552 23 263 22.5523 263 22V14C263 13.4477 262.552 13 262 13H259V11C259 8.23858 256.761 6 254 6H222ZM219 11C219 9.34315 220.343 8 222 8H254C255.657 8 257 9.34315 257 11V25C257 26.6569 255.657 28 254 28H222C220.343 28 219 26.6569 219 25V11Z" fill="#8A8F92"/>
</svg>
