<svg width="24" height="24" viewBox="0 0 24 24" fill="none" xmlns="http://www.w3.org/2000/svg">
<path d="M3.70711 2.29302C3.31658 1.90249 2.68342 1.90249 2.29289 2.29302C1.90237 2.68354 1.90237 3.3167 2.29289 3.70723L10.5858 12.0001L2.29289 20.293C1.90237 20.6835 1.90237 21.3167 2.29289 21.7072C2.68342 22.0978 3.31658 22.0978 3.70711 21.7072L12 13.4143L20.2929 21.7072C20.6834 22.0978 21.3166 22.0978 21.7071 21.7072C22.0976 21.3167 22.0976 20.6835 21.7071 20.293L13.4142 12.0001L21.7071 3.70723C22.0976 3.3167 22.0976 2.68354 21.7071 2.29302C21.3166 1.90249 20.6834 1.90249 20.2929 2.29302L12 10.5859L3.70711 2.29302Z" fill="#C8D0D9"/>
</svg>
