<svg width="100" height="100" viewBox="0 0 100 100" fill="none" xmlns="http://www.w3.org/2000/svg">
<path d="M21.3509 6.98279C21.4945 5.88759 22.4987 5.11616 23.5939 5.25975L31.526 6.29972C32.6212 6.44331 33.3926 7.44754 33.2491 8.54274L30.6491 28.373C30.5055 29.4682 29.5013 30.2397 28.4061 30.0961L20.474 29.0561C19.3788 28.9125 18.6074 27.9083 18.751 26.8131L21.3509 6.98279Z" fill="#77A4C5"/>
<path fill-rule="evenodd" clip-rule="evenodd" d="M33.5 19.9998L34 15.9998H68L67.5 19.9998H56V33.9998H60C65.5229 33.9998 70 38.4769 70 43.9998V54.9998C70 60.5226 65.5229 64.9998 60 64.9998H56V79.9998H68V83.9998H34V79.9998H46V64.9998H42C36.4772 64.9998 32 60.5226 32 54.9998V43.9998C32 38.4769 36.4772 33.9998 42 33.9998H46V19.9998H33.5ZM60 39.9998H42C39.7909 39.9998 38 41.7906 38 43.9998V54.9998C38 57.2089 39.7909 58.9998 42 58.9998H60C62.2091 58.9998 64 57.2089 64 54.9998V43.9998C64 41.7906 62.2091 39.9998 60 39.9998Z" fill="#77A4C5"/>
<path d="M20 71.9998C20 70.8952 20.8954 69.9998 22 69.9998H30C31.1046 69.9998 32 70.8952 32 71.9998V91.9998C32 93.1043 31.1046 93.9998 30 93.9998H22C20.8954 93.9998 20 93.1043 20 91.9998V71.9998Z" fill="#77A4C5"/>
<path d="M72 69.9998C70.8954 69.9998 70 70.8952 70 71.9998V91.9998C70 93.1043 70.8954 93.9998 72 93.9998H80C81.1046 93.9998 82 93.1043 82 91.9998V71.9998C82 70.8952 81.1046 69.9998 80 69.9998H72Z" fill="#77A4C5"/>
<path d="M73.1029 5.25975C72.0077 5.11616 71.0035 5.88759 70.8599 6.98279L68.26 26.8131C68.1164 27.9083 68.8878 28.9125 69.983 29.0561L77.9151 30.0961C79.0103 30.2397 80.0146 29.4682 80.1582 28.373L82.7581 8.54274C82.9017 7.44754 82.1302 6.44331 81.035 6.29972L73.1029 5.25975Z" fill="#77A4C5"/>
</svg>
