<svg width="100" height="100" viewBox="0 0 100 100" fill="none" xmlns="http://www.w3.org/2000/svg">
<path d="M51.0941 29.8782L46.5 28.4998L46 30.9998L51.0767 31.8459C51.5962 31.9325 51.9595 32.4072 51.9074 32.9312L51.8618 33.3899C51.8062 33.9489 51.3011 34.3525 50.7436 34.2833L45.4965 33.6326L46.4163 35.4676C46.8634 36.3597 46.5846 37.4447 45.763 38.0108L32.1752 47.372C31.7718 47.6499 31.2805 47.7701 30.7944 47.7098L29.7612 47.5817C29.2348 47.5164 28.7559 47.2447 28.4298 46.8263L27.1101 45.1329L24.4445 52.0389C24.2112 52.6433 23.4736 52.8697 22.9414 52.5003L22.1248 51.9335C21.7556 51.6772 21.6027 51.2061 21.7512 50.7818L24.5 42.9237L22.1491 42.3976L20.312 49.661C20.1776 50.1922 19.6407 50.5164 19.1079 50.3878L18.3839 50.2131C17.8828 50.0922 17.5557 49.61 17.6286 49.0996L18.5 42.9998H17.5L13.2597 46.4517C12.5333 47.0431 11.4756 46.9823 10.8217 46.3116C10.1509 45.6234 10.135 44.5309 10.7856 43.8236L12.6887 41.7544L13.7656 33.0699C13.8636 32.2803 14.2711 31.562 14.8987 31.0729L23.0516 24.719C23.9742 23.9999 25.1197 23.6271 26.2887 23.6654L36.0925 23.9863L44.4283 17.4898C45.111 16.9578 45.9478 16.6616 46.8131 16.6455L52.1966 16.5458C52.6269 16.5379 53.0141 16.8062 53.1578 17.2119L53.4077 17.9177C53.576 18.3931 53.3639 18.9195 52.9131 19.1454L46.9206 22.149L46.6617 24.2369L51.9392 27.1863C52.2808 27.3773 52.4797 27.75 52.448 28.1401L52.3782 29.0013C52.3267 29.6356 51.7036 30.0611 51.0941 29.8782Z" fill="#77A4C5"/>
<path fill-rule="evenodd" clip-rule="evenodd" d="M79.3567 34.1215C78.4629 41.3286 71.8959 46.4466 64.6888 45.5529C57.4817 44.6591 52.3637 38.0921 53.2574 30.885C54.1512 23.6779 60.7182 18.5599 67.9253 19.4537C75.1324 20.3474 80.2504 26.9144 79.3567 34.1215ZM72.4099 33.2601C71.9919 36.6306 68.9207 39.0241 65.5502 38.6061C62.1798 38.1881 59.7863 35.117 60.2042 31.7465C60.6222 28.376 63.6934 25.9825 67.0638 26.4005C70.4343 26.8184 72.8278 29.8896 72.4099 33.2601Z" fill="#77A4C5"/>
<path d="M95.3983 84.9998H4.24734C3.38126 84.9998 2.92468 83.9737 3.50449 83.3304L6.21531 80.3223C7.15773 79.2765 8.5805 78.8032 9.96159 79.0759L18.7845 80.818L25.2016 77.2774C27.6561 75.9231 30.5073 75.4709 33.2605 75.9993L47 78.6362L64.7012 51.0256C65.5348 49.7254 66.8377 48.7967 68.3387 48.4328L76.5 46.4543L79.2583 41.885C80.043 40.5851 81.9331 40.5993 82.6981 41.9108L84.3102 44.6745C84.4362 44.8905 84.5348 45.1214 84.6035 45.3619L86.5 51.9998L88.4391 53.4109C89.3667 54.0859 90.0339 55.0594 90.3289 56.1681L97.331 82.4856C97.6688 83.755 96.7119 84.9998 95.3983 84.9998Z" fill="#77A4C5"/>
<path fill-rule="evenodd" clip-rule="evenodd" d="M13.0496 77.31C20.2567 78.2037 26.8237 73.0857 27.7175 65.8786C28.6112 58.6715 23.4932 52.1045 16.2861 51.2108C9.07903 50.317 2.512 55.435 1.61826 62.6421C0.72452 69.8492 5.84251 76.4162 13.0496 77.31ZM13.9111 70.3632C17.2816 70.7811 20.3527 68.3876 20.7707 65.0172C21.1887 61.6467 18.7952 58.5755 15.4247 58.1575C12.0542 57.7396 8.98302 60.1331 8.56505 63.5036C8.14708 66.874 10.5406 69.9452 13.9111 70.3632Z" fill="#77A4C5"/>
</svg>
