<svg width="160" height="160" viewBox="0 0 160 160" fill="none" xmlns="http://www.w3.org/2000/svg">
<path d="M63.9999 21.9998C63.9999 20.3429 65.343 18.9998 66.9999 18.9998H76C77.6568 18.9998 79 20.3429 79 21.9998C79 23.6566 77.6568 24.9998 76 24.9998H69.9999V27.9993H84.9999C86.6568 27.9993 87.9999 29.3424 87.9999 30.9993C87.9999 32.6561 86.6568 33.9993 84.9999 33.9993H66.9999C65.343 33.9993 63.9999 32.6561 63.9999 30.9993V21.9998Z" fill="#77A4C5"/>
<path fill-rule="evenodd" clip-rule="evenodd" d="M12.1892 70.3757C12.9984 63.8501 18.9445 59.216 25.4701 60.0253C31.9957 60.8345 36.6297 66.7806 35.8205 73.3062C35.0113 79.8318 29.0652 84.4658 22.5396 83.6566C16.014 82.8473 11.38 76.9013 12.1892 70.3757ZM24.7317 65.9797C21.4946 65.5782 18.545 67.877 18.1436 71.1141C17.7422 74.3512 20.0409 77.3008 23.278 77.7022C26.5151 78.1036 29.4647 75.8048 29.8661 72.5678C30.2675 69.3307 27.9688 66.3811 24.7317 65.9797Z" fill="#77A4C5"/>
<path fill-rule="evenodd" clip-rule="evenodd" d="M121.941 70.3757C122.751 63.8501 128.697 59.216 135.222 60.0253C141.748 60.8345 146.382 66.7806 145.573 73.3062C144.764 79.8318 138.817 84.4658 132.292 83.6566C125.766 82.8473 121.132 76.9013 121.941 70.3757ZM134.484 65.9797C131.247 65.5782 128.297 67.877 127.896 71.1141C127.494 74.3512 129.793 77.3008 133.03 77.7022C136.267 78.1036 139.217 75.8048 139.618 72.5678C140.02 69.3307 137.721 66.3811 134.484 65.9797Z" fill="#77A4C5"/>
<path fill-rule="evenodd" clip-rule="evenodd" d="M40.0273 56.7002C44.3829 61.3146 46.7231 67.7648 45.8813 74.5538C44.383 86.6358 33.374 95.2156 21.292 93.7173C9.21001 92.219 0.630209 81.2101 2.12848 69.1281C3.61083 57.1745 14.4028 48.649 26.3329 49.9202L34.3392 38.3912L21.0682 38.5459C18.8068 38.5723 16.8093 37.0774 16.1968 34.9005L15.7217 33.2119C14.9107 30.3293 16.7981 27.3852 19.756 26.9187L19.9631 26.8861L19.018 18.3286C18.8362 16.6825 20.0226 15.2005 21.6685 15.0176L48.6686 12.0176C48.6837 12.0159 48.6987 12.0144 48.7138 12.0129L48.9919 11.7401C50.128 10.6259 51.6602 10.0086 53.2514 10.024L77.2439 10.2568C79.1153 10.2749 80.9212 10.9486 82.3472 12.1606L98.0246 25.4849L120.106 25.6992C121.112 25.7089 122.104 25.9354 123.015 26.3631L136.009 32.4672C137.858 33.3357 138.756 35.4578 138.091 37.3893L137.056 40.3955C136.525 41.9376 135.112 43.0031 133.483 43.0884L116.91 43.9556L122.762 52.7336C126.767 50.4247 131.529 49.3518 136.47 49.9645C148.552 51.4628 157.132 62.4718 155.634 74.5538C154.135 86.6358 143.126 95.2156 131.044 93.7173C118.962 92.219 110.382 81.2101 111.881 69.1281C112.174 66.7592 112.834 64.525 113.795 62.475L102.297 55.5758C101.657 57.6768 101.34 59.7023 101.192 61.2047C100.933 63.8284 98.6484 66.0929 95.7346 65.8931L60.3378 63.4661C59.1161 63.3823 57.9676 62.8531 57.1101 61.9789L54.6494 59.47C53.522 58.3204 53.1215 56.8345 53.1306 55.5742C53.1382 54.5327 52.9865 52.0434 51.7684 47.8151L40.0273 56.7002ZM120.464 31.7937L131.833 37.1345L131.822 37.1671L116.022 37.9938C115.961 37.9906 115.892 37.9877 115.814 37.9854C115.558 37.978 115.213 37.978 114.792 38.0014C113.95 38.0481 112.798 38.1882 111.444 38.5512C108.717 39.2824 105.225 40.9047 101.849 44.3779C97.1667 49.1947 95.7541 56.1008 95.3046 59.8495L61.1275 57.5062L59.1309 55.4704C59.1274 53.6791 58.8279 50.4844 57.3749 45.6116C56.6329 43.1234 55.0176 41.0967 53.2859 39.512C51.5393 37.9137 49.5051 36.6103 47.6369 35.5946C45.7568 34.5723 43.9623 33.7972 42.6435 33.2783C41.9812 33.0177 41.4317 32.819 41.0421 32.6836C40.8472 32.6159 40.6919 32.5638 40.5819 32.5277L40.5075 32.5034L40.4517 32.4854L40.4134 32.4732L40.4012 32.4694L40.3969 32.468L40.3952 32.4675C40.3952 32.4675 40.3938 32.467 39.5458 35.1839L40.3937 32.467L39.9401 32.3255L22.7148 32.5263L38.9828 29.9611L53.1932 16.0237L77.1857 16.2565C77.6536 16.261 78.105 16.4294 78.4615 16.7324L95.7942 31.4636L120.048 31.6989C120.192 31.7003 120.334 31.7326 120.464 31.7937ZM44.7709 40.8658C43.4617 40.154 42.1839 39.574 41.1267 39.1362L32.535 51.5082C33.4549 51.8935 34.3407 52.3385 35.1882 52.8378L48.1489 43.0297C47.1147 42.2338 45.9517 41.5078 44.7709 40.8658ZM117.065 57.4395C117.368 57.0886 117.682 56.7476 118.006 56.417L110.574 45.2691C109.214 45.9447 107.69 46.9773 106.151 48.56C105.68 49.0445 105.252 49.5678 104.863 50.1185L117.065 57.4395ZM25.8962 25.9505L36.152 24.3333L41.7726 18.8207L25.3108 20.6498L25.8962 25.9505ZM25.9793 55.9189C17.1859 54.8285 9.17334 61.073 8.08287 69.8665C6.9924 78.6599 13.2369 86.6725 22.0304 87.7629C30.8239 88.8534 38.8364 82.6089 39.9269 73.8154C41.0173 65.0219 34.7728 57.0094 25.9793 55.9189ZM135.732 55.9189C126.938 54.8285 118.926 61.073 117.835 69.8665C116.745 78.6599 122.989 86.6725 131.783 87.7629C140.576 88.8534 148.589 82.6089 149.679 73.8154C150.77 65.0219 144.525 57.0094 135.732 55.9189Z" fill="#77A4C5"/>
<circle cx="66" cy="112.999" r="9" stroke="#4ECD00" stroke-width="6"/>
<circle cx="66.0001" cy="112.999" r="3" fill="#4ECD00"/>
<circle cx="108" cy="112.999" r="9" stroke="#4ECD00" stroke-width="6"/>
<circle cx="108" cy="112.999" r="3" fill="#4ECD00"/>
<circle cx="87.0001" cy="128.999" r="3" fill="#4ECD00"/>
<path fill-rule="evenodd" clip-rule="evenodd" d="M90.0001 81.9993C90.0001 80.3424 88.6569 78.9993 87.0001 78.9993C85.3432 78.9993 84.0001 80.3424 84.0001 81.9993V87.9993H81.0001C79.3432 87.9993 78.0001 89.3424 78.0001 90.9993V94.9993H77.3657C75.1432 92.7468 70.8077 89.9993 64 89.9993C55.617 89.9993 50.5812 94.7048 49.1023 100.223C46.506 109.909 40.7433 130.817 39.6205 134.657C38.8205 137.393 38.3215 141.171 39.1401 144.713C39.9956 148.414 42.3584 151.972 47.1561 153.378C50.8274 154.454 54.5133 154.308 57.9404 152.745C60.8888 151.401 63.4558 149.097 65.62 145.999H86.9999H87H108.101C110.265 149.097 112.832 151.401 115.781 152.745C119.208 154.308 122.893 154.454 126.565 153.378C131.362 151.972 133.725 148.414 134.581 144.713C135.399 141.171 134.9 137.393 134.1 134.657C132.978 130.817 127.215 109.909 124.619 100.223C123.14 94.7048 118.104 89.9993 109.721 89.9993C102.913 89.9993 98.5777 92.7468 96.3552 94.9993H96.0001V90.9993C96.0001 89.3424 94.6569 87.9993 93.0001 87.9993H90.0001V81.9993ZM90.0001 94.9993V93.9993H84.0001V94.9993H86.9999H87H90.0001ZM74.4769 100.999H86.9999H87H99.244L100.143 99.7696C100.812 98.8547 103.683 95.9993 109.721 95.9993C115.502 95.9993 118.076 98.9893 118.823 101.776C121.42 111.466 127.198 132.431 128.341 136.341C128.958 138.449 129.25 141.133 128.735 143.362C128.257 145.43 127.161 146.951 124.877 147.62C122.443 148.334 120.254 148.191 118.27 147.286C116.244 146.362 114.179 144.527 112.277 141.429L111.399 139.999H87H86.9999H62.3217L61.4435 141.429C59.5415 144.527 57.4768 146.362 55.4512 147.286C53.4669 148.191 51.2776 148.334 48.8439 147.62C46.5594 146.951 45.4641 145.43 44.986 143.362C44.4709 141.133 44.763 138.449 45.3794 136.341C46.5228 132.431 52.3005 111.466 54.8977 101.776C55.6446 98.9893 58.2187 95.9993 64 95.9993C70.038 95.9993 72.9093 98.8547 73.578 99.7696L74.4769 100.999Z" fill="#77A4C5"/>
<rect x="81.0001" y="106.999" width="12" height="6" rx="3" fill="#4ECD00"/>
<rect x="76.0001" y="130.999" width="9" height="6" rx="3" fill="#4ECD00"/>
<rect x="76.0001" y="120.999" width="9" height="6" rx="3" fill="#4ECD00"/>
<rect x="89.0001" y="130.999" width="9" height="6" rx="3" fill="#4ECD00"/>
<rect x="89.0001" y="120.999" width="9" height="6" rx="3" fill="#4ECD00"/>
</svg>
