<svg width="160" height="160" viewBox="0 0 160 160" fill="none" xmlns="http://www.w3.org/2000/svg">
<path fill-rule="evenodd" clip-rule="evenodd" d="M55.1111 3.99927C53.5595 3.99927 52.2639 5.18242 52.1234 6.72766C52.11 6.87494 52.0959 7.04079 52.0802 7.22367C51.9376 8.89032 51.674 11.9719 50.7912 15.3136C49.796 19.0805 48.1321 22.6917 45.4336 24.8996C42.5278 27.2771 38.3153 28.8888 34.1216 29.7914C29.8978 30.7005 26.1987 30.7854 24.5214 30.4894C23.648 30.3352 22.7512 30.5754 22.0718 31.1454C21.3924 31.7155 21 32.5569 21 33.4437V102.088C21 116.615 28.5943 125.271 37.1351 130.86C41.3504 133.618 45.8278 135.658 49.7253 137.327C50.5531 137.682 51.3429 138.015 52.0936 138.332L52.0955 138.333C55.0132 139.564 57.3402 140.546 59.0121 141.55C66.7745 146.207 73.283 150.603 77.5604 156.28C77.6543 156.411 77.7597 156.536 77.8764 156.652C78.1275 156.904 78.4157 157.104 78.7256 157.249C79.1316 157.44 79.5671 157.533 80 157.533C80.4329 157.533 80.8684 157.44 81.2744 157.249C81.5843 157.104 81.8726 156.904 82.1237 156.652C82.2403 156.535 82.3457 156.411 82.4396 156.28C86.7171 150.603 93.2255 146.207 100.988 141.55C102.66 140.546 104.987 139.564 107.905 138.333C108.656 138.016 109.446 137.682 110.275 137.327C114.172 135.658 118.65 133.618 122.865 130.86C131.406 125.271 139 116.615 139 102.088V33.4437C139 32.5569 138.608 31.7155 137.928 31.1454C137.249 30.5754 136.352 30.3352 135.479 30.4894C133.801 30.7854 130.102 30.7005 125.878 29.7914C121.685 28.8888 117.472 27.2771 114.566 24.8996C111.868 22.6917 110.204 19.0805 109.209 15.3136C108.326 11.9719 108.062 8.89031 107.92 7.22367L107.919 7.21882C107.904 7.03786 107.89 6.87364 107.877 6.72766C107.736 5.18242 106.44 3.99927 104.889 3.99927H55.1111ZM57.8408 9.99927C57.6333 11.8346 57.2715 14.2745 56.5922 16.8461C55.4744 21.0773 53.379 26.1512 49.233 29.5434C45.2944 32.7659 40.0439 34.6542 35.384 35.6571C32.3997 36.2994 29.4505 36.6217 27 36.6407V102.088C27 114.005 33.0168 120.994 40.4204 125.839C44.1774 128.297 48.2556 130.171 52.0872 131.812C52.7921 132.113 53.5001 132.412 54.202 132.707C57.1674 133.956 60.0256 135.16 62.099 136.405C68.7171 140.375 75.1219 144.537 80 149.85C84.8781 144.537 91.2829 140.375 97.901 136.405C99.9744 135.16 102.833 133.956 105.798 132.707C106.5 132.412 107.208 132.113 107.913 131.812C111.744 130.171 115.823 128.297 119.58 125.839C126.983 120.994 133 114.005 133 102.088V36.6407C130.549 36.6217 127.6 36.2994 124.616 35.6571C119.956 34.6542 114.706 32.7659 110.767 29.5434C106.621 26.1512 104.526 21.0773 103.408 16.8461C102.728 14.2745 102.367 11.8346 102.159 9.99927H57.8408Z" fill="#77A4C5"/>
<path fill-rule="evenodd" clip-rule="evenodd" d="M80 56.9993C68.402 56.9993 59 66.4013 59 77.9993C59 89.5972 68.402 98.9993 80 98.9993C91.598 98.9993 101 89.5972 101 77.9993C101 77.2082 100.956 76.4285 100.872 75.6622C100.69 74.0154 101.877 72.5328 103.524 72.3508C105.171 72.1687 106.653 73.3562 106.835 75.003C106.944 75.9878 107 76.9876 107 77.9993C107 92.911 94.9117 104.999 80 104.999C65.0883 104.999 53 92.911 53 77.9993C53 63.0876 65.0883 50.9993 80 50.9993C85.5462 50.9993 90.7101 52.6748 95.0021 55.5477C96.379 56.4693 96.748 58.3327 95.8264 59.7095C94.9047 61.0864 93.0414 61.4554 91.6646 60.5338C88.3293 58.3012 84.3213 56.9993 80 56.9993Z" fill="#4ECD00"/>
<path fill-rule="evenodd" clip-rule="evenodd" d="M103.121 61.8779C104.293 63.0495 104.293 64.949 103.121 66.1206L82.1213 87.1206C80.9497 88.2922 79.0503 88.2922 77.8787 87.1206L66.8787 76.1206C65.7071 74.949 65.7071 73.0495 66.8787 71.8779C68.0503 70.7064 69.9497 70.7064 71.1213 71.8779L80 80.7566L98.8787 61.8779C100.05 60.7064 101.95 60.7064 103.121 61.8779Z" fill="#4ECD00"/>
</svg>
