<svg width="32" height="32" viewBox="0 0 32 32" fill="none" xmlns="http://www.w3.org/2000/svg">
<path d="M15 7C15 6.44772 15.4477 6 16 6C16.5523 6 17 6.44772 17 7V15H25C25.5523 15 26 15.4477 26 16C26 16.5523 25.5523 17 25 17H17V25C17 25.5523 16.5523 26 16 26C15.4477 26 15 25.5523 15 25V17H7C6.44772 17 6 16.5523 6 16C6 15.4477 6.44772 15 7 15H15V7Z" fill="#3FA1E9"/>
<path fill-rule="evenodd" clip-rule="evenodd" d="M0 5C0 2.23858 2.23858 0 5 0H27C29.7614 0 32 2.23858 32 5V27C32 29.7614 29.7614 32 27 32H5C2.23858 32 0 29.7614 0 27V5ZM5 2C3.34315 2 2 3.34315 2 5V27C2 28.6569 3.34315 30 5 30H27C28.6569 30 30 28.6569 30 27V5C30 3.34315 28.6569 2 27 2H5Z" fill="#3FA1E9"/>
</svg>
