<svg width="100" height="100" viewBox="0 0 100 100" fill="none" xmlns="http://www.w3.org/2000/svg">
<path d="M29.0391 24.9998H39.0195V22.4607H32.7988V22.324L34.6348 20.5955C35.8587 19.4757 36.7116 18.613 37.1934 18.0076C37.6816 17.4021 38.0397 16.8129 38.2676 16.24C38.502 15.6606 38.6191 15.0421 38.6191 14.3845C38.6191 13.6293 38.4303 12.9587 38.0527 12.3728C37.6751 11.7869 37.1445 11.3311 36.4609 11.0056C35.7773 10.6801 34.9896 10.5173 34.0977 10.5173C33.4206 10.5173 32.8086 10.5857 32.2617 10.7224C31.7148 10.8526 31.2103 11.0414 30.748 11.2888C30.2858 11.5362 29.7031 11.9594 29 12.5583L30.6406 14.5017C31.207 14.033 31.7507 13.6716 32.2715 13.4177C32.7923 13.1638 33.3294 13.0369 33.8828 13.0369C34.4102 13.0369 34.8301 13.1768 35.1426 13.4568C35.4616 13.7367 35.6211 14.1632 35.6211 14.7361C35.6211 15.1202 35.5495 15.4913 35.4062 15.8494C35.263 16.2074 35.0286 16.5981 34.7031 17.0212C34.3776 17.4379 33.6842 18.1899 32.623 19.2771L29.0391 22.9001V24.9998Z" fill="#77A4C5"/>
<path d="M42.4277 27.5779C43.235 25.7745 43.8079 24.2153 44.1465 22.9001L44 22.6755H41.2656C41.0312 24.212 40.7025 25.8461 40.2793 27.5779H42.4277Z" fill="#77A4C5"/>
<path fill-rule="evenodd" clip-rule="evenodd" d="M56.5684 22.0408H54.8496V24.9998H51.9004V22.0408H45.8066V19.9412L52.0664 10.7224H54.8496V19.697H56.5684V22.0408ZM51.9004 19.697V17.2751C51.9004 16.8715 51.9167 16.2856 51.9492 15.5173C51.9818 14.7491 52.0078 14.3031 52.0273 14.1794H51.9492C51.7083 14.7133 51.4186 15.2341 51.0801 15.7419L48.4629 19.697H51.9004Z" fill="#77A4C5"/>
<path d="M69.7715 16.9822H64.1074V19.5017H66.8125V22.4802C66.1615 22.6104 65.5202 22.6755 64.8887 22.6755C63.6777 22.6755 62.7533 22.2686 62.1152 21.4548C61.4837 20.6345 61.168 19.4496 61.168 17.9001C61.168 16.4158 61.5618 15.2341 62.3496 14.3552C63.1374 13.4763 64.1855 13.0369 65.4941 13.0369C66.6204 13.0369 67.7044 13.2973 68.7461 13.8181L69.752 11.3962C68.3913 10.8103 66.9785 10.5173 65.5137 10.5173C63.1764 10.5173 61.347 11.1619 60.0254 12.4509C58.7103 13.74 58.0527 15.5369 58.0527 17.8416C58.0527 20.2113 58.6191 22.031 59.752 23.3005C60.8913 24.5636 62.5384 25.1951 64.6934 25.1951C65.5397 25.1951 66.3665 25.1332 67.1738 25.0095C67.9876 24.8923 68.8535 24.684 69.7715 24.3845V16.9822Z" fill="#77A4C5"/>
<path d="M84.8789 24.9998H81.8613V18.8376H76.207V24.9998H73.1797V10.7224H76.207V16.3181H81.8613V10.7224H84.8789V24.9998Z" fill="#77A4C5"/>
<path d="M87.2324 24.9998H95.8555V22.7244H90.7578L95.6797 16.0154V14.0818H87.5352V16.3572H92.291L87.2324 23.2419V24.9998Z" fill="#77A4C5"/>
<path d="M4 25.9998C4 24.3429 5.34315 22.9998 7 22.9998H17C18.6569 22.9998 20 24.3429 20 25.9998V83.9998C20 85.6566 18.6569 86.9998 17 86.9998H7C5.34315 86.9998 4 85.6566 4 83.9998V25.9998Z" fill="#77A4C5"/>
<path d="M29 40.9998C29 39.3429 30.3431 37.9998 32 37.9998H42C43.6569 37.9998 45 39.3429 45 40.9998V83.9998C45 85.6566 43.6569 86.9998 42 86.9998H32C30.3431 86.9998 29 85.6566 29 83.9998V40.9998Z" fill="#77A4C5"/>
<path d="M57 52.9998C55.3431 52.9998 54 54.3429 54 55.9998V83.9998C54 85.6566 55.3431 86.9998 57 86.9998H67C68.6569 86.9998 70 85.6566 70 83.9998V55.9998C70 54.3429 68.6569 52.9998 67 52.9998H57Z" fill="#77A4C5"/>
<path d="M79 68.9998C79 67.3429 80.3431 65.9998 82 65.9998H92C93.6569 65.9998 95 67.3429 95 68.9998V83.9998C95 85.6566 93.6569 86.9998 92 86.9998H82C80.3431 86.9998 79 85.6566 79 83.9998V68.9998Z" fill="#77A4C5"/>
</svg>
