<svg width="160" height="160" viewBox="0 0 160 160" fill="none" xmlns="http://www.w3.org/2000/svg">
<path d="M51 75.9992C49.3431 75.9992 48 77.3424 48 78.9992C48 80.6561 49.3431 81.9992 51 81.9992C58.5536 81.9992 65.3782 85.0971 70.282 90.0994C71.4419 91.2825 73.3413 91.3014 74.5244 90.1415C75.7076 88.9817 75.7265 87.0823 74.5666 85.8991C68.5808 79.7932 60.2308 75.9992 51 75.9992Z" fill="#4ECD00"/>
<path fill-rule="evenodd" clip-rule="evenodd" d="M39 46.9992C37.3431 46.9992 36 48.3424 36 49.9992V59.9992C36 61.6561 37.3431 62.9992 39 62.9992H42V66.9429C33.3157 68.7927 25.6021 73.2642 19.7284 79.485L13.1213 72.8779C11.9497 71.7063 10.0503 71.7063 8.87868 72.8779C7.70711 74.0495 7.70711 75.949 8.87868 77.1206L82.8787 151.121C84.0503 152.292 85.9497 152.292 87.1213 151.121C88.2929 149.949 88.2929 148.049 87.1213 146.878L80.5142 140.271C88.8141 132.434 94 121.322 94 108.999C94 88.3378 79.4276 71.0798 60 66.9426V62.9992H63C64.6569 62.9992 66 61.6561 66 59.9992V49.9992C66 48.3424 64.6569 46.9992 63 46.9992H39ZM54 62.9992H48V66.1023C48.9911 66.034 49.9915 65.9992 51 65.9992C52.0085 65.9992 53.0089 66.034 54 66.1023V62.9992ZM42 56.9992V52.9992H60V56.9992H42ZM45.2497 105.006L23.9729 83.7295C30.7283 76.507 40.3374 71.9992 51 71.9992C71.4345 71.9992 88 88.5647 88 108.999C88 119.662 83.4922 129.271 76.2697 136.026L54.9929 114.749C56.8104 113.485 58 111.381 58 108.999C58 108.786 57.9905 108.575 57.9718 108.366L77.4904 97.0973C78.9252 96.2689 79.4169 94.4341 78.5884 92.9992C77.76 91.5644 75.9252 91.0727 74.4904 91.9012L54.9209 103.2C53.8023 102.442 52.4529 101.999 51 101.999C48.6182 101.999 46.5142 103.189 45.2497 105.006Z" fill="#4ECD00"/>
<path d="M15.9972 96.9738C16.5354 95.4068 15.7015 93.7002 14.1345 93.1619C12.5675 92.6237 10.8609 93.4577 10.3226 95.0247C8.81639 99.41 8 104.112 8 108.999C8 132.747 27.2518 151.999 51 151.999C55.8868 151.999 60.5893 151.183 64.9745 149.677C66.5415 149.138 67.3755 147.432 66.8373 145.865C66.2991 144.298 64.5925 143.464 63.0255 144.002C59.2591 145.296 55.2148 145.999 51 145.999C30.5655 145.999 14 129.434 14 108.999C14 104.784 14.7036 100.74 15.9972 96.9738Z" fill="#4ECD00"/>
<path d="M128 63.9998C130.209 63.9998 132 62.2089 132 59.9998C132 57.7906 130.209 55.9998 128 55.9998C125.791 55.9998 124 57.7906 124 59.9998C124 62.2089 125.791 63.9998 128 63.9998Z" fill="#77A4C5"/>
<path fill-rule="evenodd" clip-rule="evenodd" d="M136.076 7.99976C134.191 4.64524 130.277 2.75799 126.319 3.6172L106 8.02862V7.99976H65C58.3728 7.99976 53.0003 13.3721 53 19.9992V40.9998C53 42.6566 54.3431 43.9998 56 43.9998C57.6569 43.9998 59 42.6566 59 40.9998V30.3944C60.765 31.4154 62.8143 31.9998 65 31.9998L139 31.9992C140.657 31.9992 142 33.3424 142 34.9992V46.9993H127C119.82 46.9993 114 52.8196 114 59.9993C114 67.179 119.82 72.9993 127 72.9993H142V84.9992C142 86.6561 140.657 87.9992 139 87.9992H97C95.3431 87.9992 94 89.3424 94 90.9992C94 92.6561 95.3431 93.9992 97 93.9992H139C143.971 93.9992 148 89.9698 148 84.9992V72.9993C151.866 72.9993 155 69.8653 155 65.9993V53.9993C155 50.1333 151.866 46.9993 148 46.9993V16.9998C148 12.0292 143.971 7.99976 139 7.99976H136.076ZM131.162 11.7809C130.813 10.1592 129.214 9.12866 127.592 9.48061L65.6365 22.9315C64.0174 23.283 62.4198 22.2554 62.0683 20.6362C61.7168 19.0171 62.7444 17.4196 64.3635 17.068L78.4963 13.9998H65C61.6865 13.9998 59.0003 16.6858 59 19.9992C59 23.313 61.6863 25.9998 65 25.9998L139 25.9992C140.052 25.9992 141.062 26.1797 142 26.5114V16.9998C142 15.3429 140.657 13.9998 139 13.9998H137.777L138.933 19.3683C139.282 20.9881 138.251 22.5838 136.631 22.9326C135.012 23.2813 133.416 22.2509 133.067 20.6312L131.162 11.7809ZM127 52.9993C123.134 52.9993 120 56.1333 120 59.9993C120 63.8653 123.134 66.9993 127 66.9993H148C148.552 66.9993 149 66.5516 149 65.9993V53.9993C149 53.447 148.552 52.9993 148 52.9993H127Z" fill="#77A4C5"/>
</svg>
