<svg width="100" height="100" viewBox="0 0 100 100" fill="none" xmlns="http://www.w3.org/2000/svg">
<path d="M47.9999 17.9998C47.9999 16.3429 49.3431 14.9998 50.9999 14.9998C52.6568 14.9998 53.9999 16.3429 53.9999 17.9998V27.9998C53.9999 29.6566 52.6568 30.9998 50.9999 30.9998C49.3431 30.9998 47.9999 29.6566 47.9999 27.9998V17.9998Z" fill="#77A4C5"/>
<path fill-rule="evenodd" clip-rule="evenodd" d="M50.9999 64.9998C59.2842 64.9998 65.9999 58.284 65.9999 49.9998C65.9999 41.7155 59.2842 34.9998 50.9999 34.9998C42.7157 34.9998 35.9999 41.7155 35.9999 49.9998C35.9999 58.284 42.7157 64.9998 50.9999 64.9998ZM50.9999 58.9998C55.9705 58.9998 59.9999 54.9703 59.9999 49.9998C59.9999 45.0292 55.9705 40.9998 50.9999 40.9998C46.0294 40.9998 41.9999 45.0292 41.9999 49.9998C41.9999 54.9703 46.0294 58.9998 50.9999 58.9998Z" fill="#77A4C5"/>
<path d="M50.9999 69.9998C49.3431 69.9998 47.9999 71.3429 47.9999 72.9998V82.9998C47.9999 84.6566 49.3431 85.9998 50.9999 85.9998C52.6568 85.9998 53.9999 84.6566 53.9999 82.9998V72.9998C53.9999 71.3429 52.6568 69.9998 50.9999 69.9998Z" fill="#77A4C5"/>
<path d="M25.8977 25.3975C24.7261 26.5691 24.7261 28.4685 25.8977 29.6401L32.9687 36.7112C34.1403 37.8828 36.0398 37.8828 37.2114 36.7112C38.3829 35.5396 38.3829 33.6401 37.2114 32.4685L30.1403 25.3975C28.9687 24.2259 27.0692 24.2259 25.8977 25.3975Z" fill="#77A4C5"/>
<path d="M64.7885 64.2883C63.617 65.4599 63.617 67.3594 64.7885 68.531L71.8596 75.6021C73.0312 76.7736 74.9307 76.7736 76.1022 75.6021C77.2738 74.4305 77.2738 72.531 76.1022 71.3594L69.0312 64.2883C67.8596 63.1168 65.9601 63.1168 64.7885 64.2883Z" fill="#77A4C5"/>
<path d="M71.8596 25.3975C73.0312 24.2259 74.9307 24.2259 76.1022 25.3975C77.2738 26.5691 77.2738 28.4686 76.1022 29.6401L69.0312 36.7112C67.8596 37.8828 65.9601 37.8828 64.7885 36.7112C63.617 35.5396 63.617 33.6401 64.7885 32.4686L71.8596 25.3975Z" fill="#77A4C5"/>
<path d="M32.9687 64.2884C34.1403 63.1168 36.0398 63.1168 37.2114 64.2884C38.3829 65.4599 38.3829 67.3594 37.2114 68.531L30.1403 75.6021C28.9687 76.7737 27.0692 76.7737 25.8977 75.6021C24.7261 74.4305 24.7261 72.531 25.8977 71.3594L32.9687 64.2884Z" fill="#77A4C5"/>
<path d="M83.4991 47.2784C85.156 47.2784 86.4991 48.6216 86.4991 50.2784C86.4991 51.9353 85.156 53.2784 83.4991 53.2784H73.4991C71.8423 53.2784 70.4991 51.9353 70.4991 50.2784C70.4991 48.6216 71.8423 47.2784 73.4991 47.2784H83.4991Z" fill="#77A4C5"/>
<path d="M31.5009 50.7211C31.5009 49.0642 30.1577 47.7211 28.5009 47.7211H18.5009C16.844 47.7211 15.5009 49.0642 15.5009 50.7211C15.5009 52.3779 16.844 53.7211 18.5009 53.7211H28.5009C30.1577 53.7211 31.5009 52.3779 31.5009 50.7211Z" fill="#77A4C5"/>
</svg>
