<svg width="160" height="160" viewBox="0 0 160 160" fill="none" xmlns="http://www.w3.org/2000/svg">
<path fill-rule="evenodd" clip-rule="evenodd" d="M50.0561 4.81467C48.9009 3.72747 47.099 3.72747 45.9439 4.81467L28.9439 20.8147C28.0482 21.6576 27.7579 22.9619 28.2113 24.1052C28.6647 25.2485 29.77 25.9993 31 25.9993H38V38.9993C38 40.6561 39.3431 41.9993 41 41.9993H55C56.6568 41.9993 58 40.6561 58 38.9993V25.9993H65C66.2299 25.9993 67.3353 25.2485 67.7887 24.1052C68.2421 22.9619 67.9517 21.6576 67.0561 20.8147L50.0561 4.81467ZM41 19.9993H38.5647L48 11.119L57.4352 19.9993H55C53.3431 19.9993 52 21.3424 52 22.9993V35.9993H44V22.9993C44 21.3424 42.6568 19.9993 41 19.9993Z" fill="#4ECD00"/>
<path fill-rule="evenodd" clip-rule="evenodd" d="M50.0561 88.1839C48.9009 89.2711 47.0991 89.2711 45.9439 88.1839L28.9439 72.1839C28.0482 71.3409 27.7579 70.0367 28.2113 68.8933C28.6647 67.75 29.77 66.9993 31 66.9993H38L38 53.9993C38 52.3424 39.3431 50.9993 41 50.9993H55C55.7956 50.9993 56.5587 51.3153 57.1213 51.8779C57.6839 52.4406 58 53.2036 58 53.9993L58 66.9993H65C66.2299 66.9993 67.3353 67.75 67.7887 68.8933C68.2421 70.0367 67.9517 71.3409 67.0561 72.1839L50.0561 88.1839ZM41 72.9993H38.5647L48 81.8795L57.4353 72.9993H55C54.2043 72.9993 53.4413 72.6832 52.8787 72.1206C52.3161 71.558 52 70.7949 52 69.9993L52 56.9993H44L44 69.9993C44 71.6561 42.6568 72.9993 41 72.9993Z" fill="#4ECD00"/>
<path fill-rule="evenodd" clip-rule="evenodd" d="M90.1846 49.0554C91.2718 47.9002 91.2718 46.0983 90.1846 44.9432L74.1846 27.9432C73.3416 27.0475 72.0374 26.7572 70.8941 27.2106C69.7507 27.664 69 28.7693 69 29.9993V63.9993C69 65.2292 69.7507 66.3346 70.8941 66.788C72.0374 67.2414 73.3416 66.951 74.1846 66.0554L90.1846 49.0554ZM75 56.4345V37.564L83.8802 46.9993L75 56.4345Z" fill="#4ECD00"/>
<path fill-rule="evenodd" clip-rule="evenodd" d="M5.8154 44.9432C4.7282 46.0983 4.7282 47.9002 5.8154 49.0554L21.8154 66.0554C22.6584 66.951 23.9626 67.2414 25.1059 66.788C26.2493 66.3346 27 65.2292 27 63.9993V29.9993C27 28.7693 26.2493 27.664 25.1059 27.2106C23.9626 26.7572 22.6584 27.0475 21.8154 27.9432L5.8154 44.9432ZM21 37.564V56.4346L12.1197 46.9993L21 37.564Z" fill="#4ECD00"/>
<path d="M126.5 90.9993C125.086 90.9993 123.825 91.6511 123 92.6706C122.175 91.6511 120.914 90.9993 119.5 90.9993C117.015 90.9993 115 93.014 115 95.4993C115 97.9846 117.015 99.9993 119.5 99.9993C120.914 99.9993 122.175 99.3474 123 98.3279C123.825 99.3474 125.086 99.9993 126.5 99.9993C128.985 99.9993 131 97.9846 131 95.4993C131 93.014 128.985 90.9993 126.5 90.9993Z" fill="#77A4C5"/>
<path d="M74 109.999C74 108.342 75.3431 106.999 77 106.999H83C84.6569 106.999 86 108.342 86 109.999C86 111.656 84.6569 112.999 83 112.999H77C75.3431 112.999 74 111.656 74 109.999Z" fill="#77A4C5"/>
<path d="M77 115.999C75.3431 115.999 74 117.342 74 118.999C74 120.656 75.3431 121.999 77 121.999H83C84.6569 121.999 86 120.656 86 118.999C86 117.342 84.6569 115.999 83 115.999H77Z" fill="#77A4C5"/>
<path d="M89 118.999C89 117.342 90.3431 115.999 92 115.999H94C95.6569 115.999 97 117.342 97 118.999C97 120.656 95.6569 121.999 94 121.999H92C90.3431 121.999 89 120.656 89 118.999Z" fill="#77A4C5"/>
<path d="M99 118.999C99 117.342 100.343 115.999 102 115.999H104C105.657 115.999 107 117.342 107 118.999C107 120.656 105.657 121.999 104 121.999H102C100.343 121.999 99 120.656 99 118.999Z" fill="#77A4C5"/>
<path d="M89 109.999C89 108.342 90.3431 106.999 92 106.999H98C99.6569 106.999 101 108.342 101 109.999C101 111.656 99.6569 112.999 98 112.999H92C90.3431 112.999 89 111.656 89 109.999Z" fill="#77A4C5"/>
<path d="M104 109.999C104 108.342 105.343 106.999 107 106.999H113C114.657 106.999 116 108.342 116 109.999C116 111.656 114.657 112.999 113 112.999H107C105.343 112.999 104 111.656 104 109.999Z" fill="#77A4C5"/>
<path d="M119 109.999C119 108.342 120.343 106.999 122 106.999H128C129.657 106.999 131 108.342 131 109.999C131 111.656 129.657 112.999 128 112.999H122C120.343 112.999 119 111.656 119 109.999Z" fill="#77A4C5"/>
<path fill-rule="evenodd" clip-rule="evenodd" d="M80 68.9993C80 65.1333 83.134 61.9993 87 61.9993H148C151.866 61.9993 155 65.1333 155 68.9993V106.999C155 110.865 151.866 113.999 148 113.999H140V126.999C140 130.865 136.866 133.999 133 133.999H72C71.6605 133.999 71.3266 133.975 71 133.928V136.799C71 136.867 70.9987 136.933 70.996 136.999H71V146.799C71 148.78 69.8357 150.232 68.7229 151.144C67.5885 152.073 66.1284 152.777 64.5892 153.311C61.4824 154.388 57.3849 154.999 53 154.999C48.6151 154.999 44.5176 154.388 41.4108 153.311C40.1815 152.885 39.0028 152.35 38 151.678C36.9972 152.35 35.8185 152.885 34.5892 153.311C31.4824 154.388 27.3849 154.999 23 154.999C18.6151 154.999 14.5176 154.388 11.4108 153.311C9.87158 152.777 8.41155 152.073 7.27707 151.144C6.16432 150.232 5 148.78 5 146.799V136.999H5.00398C5.00134 136.933 5 136.867 5 136.799V126.999H5.00398C5.00134 126.933 5 126.867 5 126.799V116.999H5.02414C5.00828 116.836 5 116.67 5 116.499C5 114.547 6.08901 113.067 7.21368 112.092C8.34631 111.11 9.81087 110.362 11.3606 109.794C14.4842 108.648 18.5998 107.999 23 107.999C27.4002 107.999 31.5158 108.648 34.6394 109.794C36.1891 110.362 37.6537 111.11 38.7863 112.092C39.911 113.067 41 114.547 41 116.499C41 116.67 40.9917 116.836 40.9759 116.999H41V119.93C41.1196 119.883 41.2399 119.838 41.3606 119.794C44.4842 118.648 48.5998 117.999 53 117.999C57.4002 117.999 61.5158 118.648 64.6394 119.794C64.7601 119.838 64.8804 119.883 65 119.93V88.9993C65 85.1333 68.134 81.9993 72 81.9993H80V68.9993ZM71 126.999V88.9993C71 88.447 71.4477 87.9993 72 87.9993H133C133.552 87.9993 134 88.447 134 88.9993V126.999C134 127.552 133.552 127.999 133 127.999H72C71.4477 127.999 71 127.552 71 126.999ZM148 107.999H140V92.4993H149V106.999C149 107.552 148.552 107.999 148 107.999ZM149 86.4993H139.54C138.534 83.8679 135.985 81.9993 133 81.9993H86V78.2493H149V86.4993ZM86 72.2493H149V68.9993C149 68.447 148.552 67.9993 148 67.9993H87C86.4477 67.9993 86 68.447 86 68.9993V72.2493ZM10.9312 116.841C10.9242 116.851 10.922 116.856 10.922 116.856C10.922 116.856 10.923 116.855 10.9247 116.852C10.9263 116.85 10.9286 116.846 10.9312 116.841ZM13.4262 115.427C12.4028 115.802 11.7133 116.185 11.2996 116.499C11.7133 116.813 12.4028 117.196 13.4262 117.572C15.7316 118.417 19.1159 118.999 23 118.999C26.8841 118.999 30.2684 118.417 32.5738 117.572C33.5972 117.196 34.2867 116.813 34.7004 116.499C34.2867 116.185 33.5972 115.802 32.5738 115.427C30.2684 114.581 26.8841 113.999 23 113.999C19.1159 113.999 15.7316 114.581 13.4262 115.427ZM35.078 116.856C35.078 116.856 35.0741 116.851 35.0688 116.841C35.0758 116.851 35.078 116.856 35.078 116.856ZM35.0688 116.157C35.0741 116.148 35.078 116.143 35.078 116.143C35.078 116.143 35.0758 116.148 35.0688 116.157ZM10.9312 116.157C10.9242 116.148 10.922 116.143 10.922 116.143C10.922 116.143 10.9259 116.147 10.9312 116.157ZM11 146.434V143.163C11.1362 143.214 11.2732 143.263 11.4108 143.311C14.5176 144.388 18.6151 144.999 23 144.999C27.3849 144.999 31.4824 144.388 34.5892 143.311C34.7268 143.263 34.8638 143.214 35 143.163V146.434C34.9771 146.455 34.9504 146.478 34.9195 146.503C34.5359 146.818 33.7992 147.234 32.624 147.642C30.3019 148.447 26.8993 148.999 23 148.999C19.1007 148.999 15.6981 148.447 13.376 147.642C12.2008 147.234 11.4641 146.818 11.0805 146.503C11.0496 146.478 11.0229 146.455 11 146.434ZM41 146.434V143.163C41.1362 143.214 41.2732 143.263 41.4108 143.311C44.5176 144.388 48.6151 144.999 53 144.999C57.3849 144.999 61.4824 144.388 64.5892 143.311C64.7268 143.263 64.8638 143.214 65 143.163V146.434C64.9771 146.455 64.9504 146.478 64.9195 146.503C64.5359 146.818 63.7992 147.234 62.624 147.642C60.3019 148.447 56.8993 148.999 53 148.999C49.1007 148.999 45.6981 148.447 43.376 147.642C42.2008 147.234 41.4641 146.818 41.0805 146.503C41.0496 146.478 41.0229 146.455 41 146.434ZM41.0805 136.503C41.0496 136.478 41.0229 136.455 41 136.434V133.069C41.1196 133.115 41.2399 133.161 41.3606 133.205C44.4842 134.35 48.5998 134.999 53 134.999C57.4002 134.999 61.5158 134.35 64.6394 133.205C64.7601 133.161 64.8804 133.115 65 133.069V136.434C64.9904 136.443 64.9801 136.452 64.9691 136.461C64.954 136.475 64.9375 136.488 64.9195 136.503C64.5359 136.818 63.7992 137.234 62.624 137.642C60.3019 138.447 56.8993 138.999 53 138.999C49.1007 138.999 45.6981 138.447 43.376 137.642C42.2008 137.234 41.4641 136.818 41.0805 136.503ZM11 136.434V133.163C11.1362 133.214 11.2732 133.263 11.4108 133.311C14.5176 134.388 18.6151 134.999 23 134.999C27.3849 134.999 31.4824 134.388 34.5892 133.311C34.7268 133.263 34.8638 133.214 35 133.163V136.434C34.9771 136.455 34.9504 136.478 34.9195 136.503C34.5359 136.818 33.7992 137.234 32.624 137.642C30.3019 138.447 26.8993 138.999 23 138.999C19.1007 138.999 15.6981 138.447 13.376 137.642C12.2008 137.234 11.4641 136.818 11.0805 136.503C11.0496 136.478 11.0229 136.455 11 136.434ZM35 123.069C34.8804 123.115 34.7601 123.161 34.6394 123.205C31.5158 124.35 27.4002 124.999 23 124.999C18.5998 124.999 14.4842 124.35 11.3606 123.205C11.2399 123.161 11.1196 123.115 11 123.069V126.434C11.0229 126.455 11.0496 126.478 11.0805 126.503C11.4641 126.818 12.2008 127.234 13.376 127.642C15.6981 128.447 19.1007 128.999 23 128.999C26.8993 128.999 30.3019 128.447 32.624 127.642C33.7992 127.234 34.5359 126.818 34.9195 126.503C34.9504 126.478 34.9771 126.455 35 126.434V123.069ZM10.8886 126.323C10.8798 126.312 10.8769 126.307 10.8769 126.307C10.8769 126.307 10.8817 126.312 10.8886 126.323ZM35.1114 136.323C35.1202 136.312 35.1231 136.307 35.1231 136.307C35.1231 136.307 35.1216 136.308 35.1191 136.312C35.117 136.314 35.1144 136.318 35.1114 136.323ZM10.8801 136.312C10.882 136.314 10.8847 136.318 10.8886 136.323C10.8817 136.312 10.8769 136.307 10.8769 136.307C10.8769 136.307 10.8778 136.308 10.8801 136.312ZM43.4262 125.427C42.4028 125.802 41.7133 126.185 41.2996 126.499C41.7133 126.813 42.4028 127.196 43.4262 127.572C45.7316 128.417 49.1159 128.999 53 128.999C56.8841 128.999 60.2684 128.417 62.5738 127.572C63.5972 127.196 64.2867 126.813 64.7004 126.499C64.2867 126.185 63.5972 125.802 62.5738 125.427C60.2684 124.581 56.8841 123.999 53 123.999C49.1159 123.999 45.7316 124.581 43.4262 125.427ZM65.1231 136.307C65.1231 136.307 65.1202 136.312 65.1114 136.323C65.1183 136.312 65.1231 136.307 65.1231 136.307ZM65.1231 146.307C65.1231 146.307 65.1202 146.312 65.1114 146.323C65.1183 146.312 65.1231 146.307 65.1231 146.307ZM35.1114 146.323C35.1202 146.312 35.1231 146.307 35.1231 146.307C35.1231 146.307 35.1216 146.308 35.119 146.312C35.117 146.314 35.1144 146.318 35.1114 146.323ZM10.8799 146.311C10.8817 146.314 10.8846 146.318 10.8886 146.323C10.8817 146.312 10.8769 146.307 10.8769 146.307C10.8769 146.307 10.8777 146.308 10.8799 146.311Z" fill="#77A4C5"/>
</svg>
