<svg width="24" height="24" viewBox="0 0 24 24" fill="none" xmlns="http://www.w3.org/2000/svg">
<path fill-rule="evenodd" clip-rule="evenodd" d="M12 2.99976C7.02944 2.99976 3 7.02919 3 11.9998C3 16.9703 7.02944 20.9998 12 20.9998C16.9706 20.9998 21 16.9703 21 11.9998C21 11.661 20.9813 11.3269 20.945 10.9985C20.8843 10.4496 21.2802 9.95538 21.8291 9.8947C22.378 9.83402 22.8722 10.2298 22.9329 10.7788C22.9773 11.18 23 11.5874 23 11.9998C23 18.0749 18.0751 22.9998 12 22.9998C5.92487 22.9998 1 18.0749 1 11.9998C1 5.92462 5.92487 0.999756 12 0.999756C14.2599 0.999756 16.3634 1.68231 18.1118 2.85269C18.5708 3.1599 18.6938 3.78101 18.3866 4.23996C18.0794 4.69891 17.4583 4.82192 16.9993 4.51471C15.5698 3.5578 13.8516 2.99976 12 2.99976Z" fill="#77A4C5"/>
<path fill-rule="evenodd" clip-rule="evenodd" d="M22.7071 4.29265C23.0976 4.68317 23.0976 5.31634 22.7071 5.70686L12.7071 15.7069C12.3166 16.0974 11.6834 16.0974 11.2929 15.7069L6.29289 10.7069C5.90237 10.3163 5.90237 9.68317 6.29289 9.29265C6.68342 8.90212 7.31658 8.90212 7.70711 9.29265L12 13.5855L21.2929 4.29265C21.6834 3.90212 22.3166 3.90212 22.7071 4.29265Z" fill="#4ECD00"/>
</svg>
