<svg width="100" height="100" viewBox="0 0 100 100" fill="none" xmlns="http://www.w3.org/2000/svg">
<path d="M13 32.9998C11.3431 32.9998 10 34.3429 10 35.9998V63.9998C10 65.6566 11.3431 66.9998 13 66.9998H23C24.6569 66.9998 26 65.6566 26 63.9998V35.9998C26 34.3429 24.6569 32.9998 23 32.9998H13Z" fill="#77A4C5"/>
<path d="M29 35.9998C29 34.3429 30.3431 32.9998 32 32.9998H42C43.6569 32.9998 45 34.3429 45 35.9998V63.9998C45 65.6566 43.6569 66.9998 42 66.9998H32C30.3431 66.9998 29 65.6566 29 63.9998V35.9998Z" fill="#77A4C5"/>
<path d="M51 32.9998C49.3431 32.9998 48 34.3429 48 35.9998V63.9998C48 65.6566 49.3431 66.9998 51 66.9998H61C62.6569 66.9998 64 65.6566 64 63.9998V35.9998C64 34.3429 62.6569 32.9998 61 32.9998H51Z" fill="#77A4C5"/>
<path d="M67 35.9998C67 34.3429 68.3431 32.9998 70 32.9998H80C81.6569 32.9998 83 34.3429 83 35.9998V63.9998C83 65.6566 81.6569 66.9998 80 66.9998H70C68.3431 66.9998 67 65.6566 67 63.9998V35.9998Z" fill="#77A4C5"/>
<path fill-rule="evenodd" clip-rule="evenodd" d="M13 25.9998C7.47715 25.9998 3 30.4769 3 35.9998V63.9998C3 69.5226 7.47715 73.9998 13 73.9998H80C85.5229 73.9998 90 69.5226 90 63.9998V59.9998H94C95.6569 59.9998 97 58.6566 97 56.9998V42.9998C97 41.3429 95.6569 39.9998 94 39.9998H90V35.9998C90 30.4769 85.5229 25.9998 80 25.9998H13ZM7 35.9998C7 32.686 9.68629 29.9998 13 29.9998H80C83.3137 29.9998 86 32.686 86 35.9998V63.9998C86 67.3135 83.3137 69.9998 80 69.9998H13C9.68629 69.9998 7 67.3135 7 63.9998V35.9998Z" fill="#77A4C5"/>
</svg>
