<svg width="100" height="100" viewBox="0 0 100 100" fill="none" xmlns="http://www.w3.org/2000/svg">
<path fill-rule="evenodd" clip-rule="evenodd" d="M43.8463 19.5839L24.0244 33.9998H16C9.34314 33.9998 4 39.3429 4 45.9998V53.9998C4 60.697 9.57129 65.9998 16 65.9998H24.0244L43.8463 80.4157C45.2619 81.4452 46.9673 81.9998 48.7177 81.9998C53.2919 81.9998 57 78.2916 57 73.7175V26.282C57 21.7079 53.2919 17.9998 48.7177 17.9998C46.9673 17.9998 45.2619 18.5543 43.8463 19.5839ZM47.3753 24.4363C47.7654 24.1526 48.2354 23.9998 48.7177 23.9998C49.9782 23.9998 51 25.0216 51 26.282V73.7175C51 74.9779 49.9782 75.9998 48.7177 75.9998C48.2354 75.9998 47.7654 75.8469 47.3753 75.5632L26.7645 60.5735C26.2518 60.2006 25.6339 59.9998 24.9998 59.9998H16C12.8037 59.9998 10 57.3025 10 53.9998V45.9998C10 42.6566 12.6569 39.9998 16 39.9998H25C25.634 39.9998 26.2518 39.7989 26.7645 39.426L47.3753 24.4363Z" fill="#77A4C5"/>
<path d="M77.9521 21.3746C76.5023 20.5726 74.6768 21.0978 73.8749 22.5477C73.0729 23.9975 73.5981 25.8229 75.0479 26.6249C83.3735 31.2302 89 40.0947 89 50.2692C89 60.4436 83.3735 69.3081 75.0479 73.9134C73.5981 74.7154 73.0729 76.5408 73.8749 77.9907C74.6768 79.4405 76.5023 79.9657 77.9521 79.1637C88.1106 73.5445 95 62.7135 95 50.2692C95 37.8248 88.1106 26.9938 77.9521 21.3746Z" fill="#77A4C5"/>
<path d="M66.8084 29.7968C67.4728 28.5864 68.9926 28.1438 70.2029 28.8082C77.5233 32.8264 82.5 40.5797 82.5 49.4997C82.5 58.4198 77.5233 66.173 70.2029 70.1913C68.9926 70.8557 67.4728 70.4131 66.8084 69.2027C66.1441 67.9923 66.5867 66.4726 67.797 65.8082C73.5944 62.6259 77.5 56.5088 77.5 49.4997C77.5 42.4907 73.5944 36.3736 67.797 33.1913C66.5867 32.5269 66.1441 31.0071 66.8084 29.7968Z" fill="#77A4C5"/>
<path d="M63.0932 38.325C62.1683 37.7212 60.929 37.9816 60.3252 38.9065C59.7214 39.8315 59.9818 41.0707 60.9068 41.6745C63.2622 43.2121 65 46.295 65 49.9997C65 53.7044 63.2622 56.7874 60.9068 58.325C59.9818 58.9287 59.7214 60.168 60.3252 61.093C60.929 62.0179 62.1683 62.2783 63.0932 61.6745C66.7004 59.3199 69 54.9054 69 49.9997C69 45.0941 66.7004 40.6796 63.0932 38.325Z" fill="#77A4C5"/>
</svg>
