<svg xmlns="http://www.w3.org/2000/svg" width="254" height="65" viewBox="0 0 254 65">
  <metadata><?xpacket begin="﻿" id="W5M0MpCehiHzreSzNTczkc9d"?>
<x:xmpmeta xmlns:x="adobe:ns:meta/" x:xmptk="Adobe XMP Core 5.6-c142 79.160924, 2017/07/13-01:06:39        ">
   <rdf:RDF xmlns:rdf="http://www.w3.org/1999/02/22-rdf-syntax-ns#">
      <rdf:Description rdf:about=""/>
   </rdf:RDF>
</x:xmpmeta>
                                                                                                    
                                                                                                    
                                                                                                    
                                                                                                    
                                                                                                    
                                                                                                    
                                                                                                    
                                                                                                    
                                                                                                    
                                                                                                    
                                                                                                    
                                                                                                    
                                                                                                    
                                                                                                    
                                                                                                    
                                                                                                    
                                                                                                    
                                                                                                    
                                                                                                    
                                                                                                    
                           
<?xpacket end="w"?></metadata>
<defs>
    <style>
      .cls-1 {
        fill: #34383a;
      }

      .cls-1, .cls-2 {
        fill-rule: evenodd;
      }

      .cls-2 {
        fill: #7cf432;
      }
    </style>
  </defs>
  <path class="cls-1" d="M243.3,47.935V42.36l-2.484,5.575H224.584l-2.016-4.4v4.4H202.914V37.454h-1.56v10.48h-19.6V42.36l-2.483,5.575H134.087l-1.313-5.013h-2.316l-1.313,5.013H93.951V17.7h11.558l2.405,9.2,2.4-9.2h11.56V34.864L127.239,17.7h8.749l5.037,16v-16h39.251v5.579l2.481-5.579h18.6v9.908h1.56V17.7h19.654v2.687l1.168-2.687h18.092v5.579l2.481-5.579H254V47.935H243.3ZM119,20.57h-6.465L107.92,38.284,103.289,20.57H96.824V45.064h4.95V38.436l-0.455-10.211,4.9,16.839h3.367l4.9-16.839-0.454,10.211v6.628H119V20.57Zm14.883,0h-4.528l-7.66,24.493h5.235l1.313-5.013h6.752l1.313,5.013h5.286Zm34.783,0h-4.949V40.959H158.8V20.57h-4.95V40.959h-4.983V20.57H143.9V45.064h24.765V20.57Zm20.911,0h-4.95L177.4,36.8V20.57h-4.966V45.064H177.4l7.222-16.217V45.064h4.95V20.57Zm21.146,0h-4.933v9.908H198.48V20.57h-4.949V45.064h4.949V34.583h7.307v10.48h4.933V20.57Zm14.934,11.405,5.993-11.405H225.62l-4.26,9.791h-1.666V20.57h-4.95V45.064h4.95V35.071h2.155l4.58,9.992h5.892Zm5.46,4.39V27.761L228.888,32Zm20.013-15.8h-4.95L238.954,36.8V20.57h-4.966V45.064h4.966l7.223-16.217V45.064h4.95V20.57ZM131.608,27.2l2.289,8.731h-4.579ZM249.6,7.7h-2.626l-0.511,1.949h-2.036l2.979-9.525h1.761l3,9.525h-2.055Zm-1.317-5L247.4,6.1h1.781Zm-11.97,7.078a3.2,3.2,0,0,1-2.344-.8,3.11,3.11,0,0,1-.806-2.309V0.129H235.1V6.684a1.959,1.959,0,0,0,.262,1.158,1.474,1.474,0,0,0,1.892.006,1.963,1.963,0,0,0,.262-1.132V0.129h1.925V6.724A3.088,3.088,0,0,1,238.625,9,3.174,3.174,0,0,1,236.315,9.785Zm-10.131-.059a1.1,1.1,0,0,1-.773-0.281,0.956,0.956,0,0,1-.3-0.733A0.982,0.982,0,0,1,225.4,7.98a1.19,1.19,0,0,1,1.552,0,1.027,1.027,0,0,1-.007,1.472A1.1,1.1,0,0,1,226.184,9.726ZM213.394,8.5l3.889-6.764h-3.929v-1.6H219.5V1.261l-3.856,6.8h3.929v1.6h-6.181V8.5Zm-7.578-8.367h1.925V9.654h-1.925V0.129Zm-5.777,6.725a2.711,2.711,0,0,1-.765,2.093,3.129,3.129,0,0,1-2.207.707h-3.156V0.129h2.946A3.378,3.378,0,0,1,199.123.8,2.4,2.4,0,0,1,199.9,2.74a2.352,2.352,0,0,1-.32,1.25,1.892,1.892,0,0,1-.877.765,1.665,1.665,0,0,1,.989.739A2.512,2.512,0,0,1,200.039,6.855Zm-2.33-4.841a1.12,1.12,0,0,0-.852-0.281h-1.022V4.113h1a1.018,1.018,0,0,0,1.132-1.171A1.346,1.346,0,0,0,197.709,2.014Zm-0.518,3.5h-1.356V8.058h1.232a0.964,0.964,0,0,0,.785-0.32,1.378,1.378,0,0,0,.269-0.909Q198.121,5.546,197.191,5.513ZM186.85,9.726a1.1,1.1,0,0,1-.771-0.281,0.956,0.956,0,0,1-.3-0.733,0.978,0.978,0,0,1,.3-0.733,1.188,1.188,0,0,1,1.551,0,1.026,1.026,0,0,1-.006,1.472A1.109,1.109,0,0,1,186.85,9.726Zm-8.965-9.6h1.925V9.654h-1.925V0.129Zm-7.374,9.525-1.743-3.677-0.759.955V9.654h-1.925V0.129h1.925V4.284l0.61-1.027,1.774-3.127h2.356l-2.73,4.187L172.8,9.654h-2.284Zm-15-6.248V9.654h-1.925V0.129h1.925l2.822,6.254V0.129h1.918V9.654h-1.925ZM145.75,0.129h1.925V9.654H145.75V0.129ZM137.9,5.579h-2.841V9.654h-1.925V0.129h1.925V3.983H137.9V0.129h1.918V9.654H137.9V5.579ZM125.37,1.928a0.986,0.986,0,0,0-.819-0.353,1.022,1.022,0,0,0-.785.3,1.106,1.106,0,0,0-.282.8,1,1,0,0,0,.315.713,3.662,3.662,0,0,0,1.113.654,4.746,4.746,0,0,1,2.023,1.236,2.746,2.746,0,0,1,.635,1.864,2.458,2.458,0,0,1-.792,1.943,3.14,3.14,0,0,1-2.155.7,3.712,3.712,0,0,1-1.682-.379A2.863,2.863,0,0,1,121.75,8.32a3.169,3.169,0,0,1-.426-1.668h1.931a1.818,1.818,0,0,0,.321,1.2,1.313,1.313,0,0,0,1.047.373,0.918,0.918,0,0,0,1.009-1.066,1.172,1.172,0,0,0-.3-0.877,3.344,3.344,0,0,0-1.081-.622,5.086,5.086,0,0,1-2.063-1.269,2.572,2.572,0,0,1-.627-1.727,2.411,2.411,0,0,1,.85-1.93,3.542,3.542,0,0,1,3.739-.36,2.524,2.524,0,0,1,1.054,1.04,3.1,3.1,0,0,1,.374,1.531h-1.919A1.552,1.552,0,0,0,125.37,1.928ZM113.851,7.7h-2.626l-0.511,1.949h-2.036l2.98-9.525h1.761l3,9.525h-2.056Zm-1.317-5-0.89,3.4h1.781Zm-11.126,4.37,0.177-3.971-1.9,6.549H98.37L96.465,3.106l0.177,3.971V9.654H94.717V0.129h2.514l1.8,6.889,1.793-6.889h2.515V9.654h-1.932V7.077ZM82.837,47.564a16.9,16.9,0,0,1-2.631,2.3l2.251,1.153,11.994,2,18.99,7.977,14.492-6.479,100.449,6.479L239.876,65H0V60.994L12.139,51.08l0.081-.086a5.825,5.825,0,0,1-2.406-4.809,20.154,20.154,0,0,1,.414-3.837,9.779,9.779,0,0,1-2.809-4.714L6.665,34.685a11.964,11.964,0,0,1,8.66-14.514L22.663,18.3q0.07-.344.154-0.684a18.21,18.21,0,0,0-5.038-2.761,7.934,7.934,0,0,1-10.022-1.6A7.876,7.876,0,0,1,10.132,1.075a7.938,7.938,0,0,1,9.673,1.91A31.868,31.868,0,0,1,29.521,7.74c3.337-2.328,7.152-3.214,10.326-3.95l0.044-.011c0.647-.15,1.316-0.306,1.917-0.459,0.468-.12.936-0.244,1.4-0.367l0.066-.017c1.051-.278,2.129-0.562,3.252-0.814,4.889-1.1,12.332.911,17.815,4.713a28.305,28.305,0,0,1,6.939-.168c3.618,0.381,8.17,1.768,9.306,6.213L82.5,20.338a5.949,5.949,0,0,1,.822,1.791,5.875,5.875,0,0,1,0,3.082A16.87,16.87,0,0,1,82.837,47.564ZM53.385,35.991l-8.366,2.138a16.835,16.835,0,0,1,2.074,6.641c0.052,0.543.071,1.088,0.07,1.631l7.93-2.883A16.824,16.824,0,0,1,53.385,35.991Z"/>
  <path id="Shape_1_copy" data-name="Shape 1 copy" class="cls-2" d="M80.186,25.188A3.019,3.019,0,0,0,79.8,21.64L77.75,13.6c-0.58-2.268-2.862-3.626-6.781-4.039a25.886,25.886,0,0,0-7.368.347C58.238,5.756,51.048,4.094,47.166,4.965c-1.073.24-2.127,0.519-3.146,0.788l-0.06.015c-0.477.126-.953,0.252-1.43,0.374-0.646.165-1.336,0.325-2.021,0.484-3.69.856-7.83,1.816-10.979,4.872a28.594,28.594,0,0,0-11.505-6,4.981,4.981,0,1,0-.766,6.091,21.254,21.254,0,0,1,8.908,5.074,14.368,14.368,0,0,0-.88,3.964l-9.242,2.362A9.038,9.038,0,0,0,9.505,33.959l0.754,2.948a6.858,6.858,0,0,0,3.3,4.276,17.1,17.1,0,0,0-.811,5.028,3.022,3.022,0,0,0,2.343,2.977,3.047,3.047,0,0,0,1.357,0c0.045,0.222.1,0.444,0.152,0.665A14.016,14.016,0,0,0,31.961,60.282,14.026,14.026,0,0,0,44.244,46.336a13.944,13.944,0,0,0-6.093-11.473,3.029,3.029,0,0,0,.343-0.611,3.065,3.065,0,0,0,.182-0.614l0.19-.077,0,0.008a3.039,3.039,0,0,0,3.7,2.18l10.712-2.737a3.037,3.037,0,0,0,1.758-1.233,2.985,2.985,0,0,0,1.687,1.039,13.965,13.965,0,0,0,10.423,16.95,14.06,14.06,0,0,0,16.91-10.61,13.936,13.936,0,0,0-4.29-13.408A3.046,3.046,0,0,0,80.186,25.188Z"/>
  <path id="Shape_1_copy_2" data-name="Shape 1 copy 2" class="cls-1" d="M77.156,24.363a13.673,13.673,0,0,0-19.049,5.845,0.787,0.787,0,1,1-1.417-.686,15.227,15.227,0,0,1,1.882-2.928,66.877,66.877,0,0,0-22.608,5.778l0.018,0.007a0.786,0.786,0,0,1-.6,1.453,13.644,13.644,0,0,0-18.8,12.413A0.789,0.789,0,1,1,15,46.232a15,15,0,0,1,1.532-6.424,4.639,4.639,0,0,1-4.086-3.459L11.689,33.4A6.786,6.786,0,0,1,16.6,25.167l10.916-2.79A12.124,12.124,0,0,1,28.831,16.2C25.72,12.692,21.715,10.384,16.319,9A2.713,2.713,0,1,1,16.4,7.4h0a26.024,26.024,0,0,1,13.282,7.393c0.221-.318.455-0.629,0.708-0.927,2.743-3.222,6.749-4.152,10.626-5.052,0.685-.159,1.394-0.323,2.069-0.5,0.483-.124.966-0.251,1.449-0.379,1.018-.269,2.071-0.548,3.121-0.783,3.569-.8,10.657,1.132,15.349,5.177a24.008,24.008,0,0,1,7.721-.534c1.985,0.209,4.436.788,4.839,2.367l2.241,8.765c0.046,0.025.092,0.049,0.138,0.074a0.787,0.787,0,0,1-.788,1.361h0ZM13.459,6.956a1.16,1.16,0,0,0-.86.957,1.152,1.152,0,0,0,.556,1.157,1.157,1.157,0,1,0,.3-2.114h0Zm60.577,7.6c-0.232-.908-5.361-2.063-11.055-0.608h0a0.814,0.814,0,0,1-.142.022c-0.024,0-.047,0-0.072,0a0.82,0.82,0,0,1-.093,0,0.71,0.71,0,0,1-.072-0.017,0.784,0.784,0,0,1-.078-0.019,0.724,0.724,0,0,1-.073-0.034,0.712,0.712,0,0,1-.082-0.043,0.792,0.792,0,0,1-.108-0.079l0,0C57.708,9.658,50.888,8.038,48,8.685c-1.021.229-2.059,0.5-3.062,0.769-0.488.129-.975,0.258-1.462,0.382-0.693.177-1.41,0.343-2.1,0.5-3.624.841-7.373,1.711-9.777,4.536a10.532,10.532,0,0,0-1.1,1.557c-0.006.013-.014,0.025-0.02,0.038A10.52,10.52,0,0,0,29.4,24.3a0.789,0.789,0,0,1-1.529.391c-0.063-.246-0.115-0.494-0.162-0.743L16.991,26.688a5.212,5.212,0,0,0-3.772,6.322l0.754,2.948a3.075,3.075,0,0,0,3.454,2.266,15.271,15.271,0,0,1,16.338-6.556,68.57,68.57,0,0,1,26.4-6.746,15.287,15.287,0,0,1,15.791-2.876l-1.916-7.493h0ZM58.772,16.01L42.247,20.233a0.787,0.787,0,0,1-.958-0.565L39.61,13.1a0.786,0.786,0,0,1,.569-0.956l1.411-.364c1.729-.448,4.341-1.125,5.223-1.327,2.729-.625,9.677.736,12.4,4.32a0.784,0.784,0,0,1-.1,1.052,0.791,0.791,0,0,1-.338.182h0ZM47.163,11.985c-0.86.2-3.459,0.871-5.179,1.317l-0.652.169,1.29,5.047,14.467-3.7c-2.71-2.347-7.909-3.3-9.926-2.835h0Zm-2,9.107L51.7,19.421a0.785,0.785,0,1,1,.389,1.521l-6.539,1.671a0.789,0.789,0,0,1-.6-0.078,0.785,0.785,0,0,1,.215-1.443h0ZM27.3,35.026a11.77,11.77,0,0,1,12.315,4.333,11.72,11.72,0,0,1-4.365,17.6,11.79,11.79,0,0,1-12.933-1.842,11.665,11.665,0,0,1-2.234-14.7A11.813,11.813,0,0,1,27.3,35.026h0Zm5.418,21.188a10.19,10.19,0,0,0,7.556-8.41A10.153,10.153,0,0,0,29.637,36.247a10.209,10.209,0,0,0-9.062,6.774,10.1,10.1,0,0,0,4.415,12.1,10.234,10.234,0,0,0,7.723,1.095h0Zm-4.244-16.6A7.013,7.013,0,0,1,35.807,42.2a6.984,6.984,0,0,1-2.6,10.485,7.026,7.026,0,0,1-7.707-1.1,6.951,6.951,0,0,1-1.331-8.76,7.039,7.039,0,0,1,4.3-3.21h0ZM31.54,51.625A5.435,5.435,0,0,0,35.57,47.14,5.416,5.416,0,0,0,29.9,40.975a5.445,5.445,0,0,0-4.833,3.613,5.39,5.39,0,0,0,2.355,6.453,5.458,5.458,0,0,0,4.12.584h0ZM29.6,44.056a2.41,2.41,0,0,1,2.523.887,2.4,2.4,0,0,1-.893,3.6,2.415,2.415,0,0,1-2.649-.377,2.4,2.4,0,0,1,.17-3.709,2.42,2.42,0,0,1,.849-0.4h0Zm12.017-12,10.712-2.738a0.785,0.785,0,1,1,.389,1.521L42.01,33.576a0.788,0.788,0,0,1-.837-0.283,0.785,0.785,0,0,1,.165-1.108,0.791,0.791,0,0,1,.282-0.13h0Zm25.824-7.289A11.77,11.77,0,0,1,79.761,29.1a11.72,11.72,0,0,1-4.365,17.6,11.79,11.79,0,0,1-12.933-1.841,11.664,11.664,0,0,1-2.234-14.7,11.812,11.812,0,0,1,7.216-5.387h0Zm5.418,21.188a10.19,10.19,0,0,0,7.556-8.41A10.153,10.153,0,0,0,69.787,25.987a10.209,10.209,0,0,0-9.062,6.773,10.1,10.1,0,0,0,4.414,12.1,10.233,10.233,0,0,0,7.723,1.095h0Zm-4.244-16.6a7.013,7.013,0,0,1,7.338,2.582,6.984,6.984,0,0,1-2.6,10.485,7.025,7.025,0,0,1-7.707-1.1,6.949,6.949,0,0,1-1.33-8.759,7.04,7.04,0,0,1,4.3-3.21h0Zm3.071,12.011a5.435,5.435,0,0,0,4.03-4.486,5.415,5.415,0,0,0-5.671-6.164,5.445,5.445,0,0,0-4.834,3.613,5.391,5.391,0,0,0,2.355,6.454,5.458,5.458,0,0,0,4.12.584h0Zm-1.936-7.57a2.41,2.41,0,0,1,2.523.886,2.4,2.4,0,0,1-.893,3.6,2.414,2.414,0,0,1-2.649-.377A2.4,2.4,0,0,1,68.9,34.2a2.419,2.419,0,0,1,.849-0.4h0Z"/>
</svg>
