<svg width="256" height="84" viewBox="0 0 256 84" fill="none" xmlns="http://www.w3.org/2000/svg">
<path d="M17.5 63.5L1.00002 76.9877V81H241L229.5 76.9877L129 70.5L114.5 76.9877L95.5 69L83.5 67L64 57L40 65.7284L17.5 63.5Z" fill="#34383A"/>
<path fill-rule="evenodd" clip-rule="evenodd" d="M85.3211 41.1996C85.5948 40.1895 85.5944 39.1256 85.3197 38.1168C85.147 37.4782 84.8691 36.8728 84.4972 36.3253L82.5901 28.8646C81.4535 24.4183 76.9023 23.0309 73.2839 22.6501C70.9733 22.4211 68.6427 22.4776 66.345 22.8181C60.862 19.0153 53.4188 17.0066 48.5296 18.1037C47.4059 18.3556 46.328 18.6404 45.2772 18.918L45.2117 18.9348C44.7436 19.0588 44.2755 19.1826 43.8072 19.3023C43.2057 19.4561 42.5369 19.6118 41.8902 19.7618L41.8466 19.773C38.6726 20.5095 34.8573 21.3952 31.5206 23.7242C28.7304 21.6716 25.5251 20.1034 21.805 18.9672C20.6486 17.6057 19.0628 16.6758 17.3061 16.3289C15.5495 15.982 13.7257 16.2386 12.132 17.057C10.5384 17.8754 9.26891 19.2072 8.53063 20.8353C7.79233 22.4634 7.62876 24.2917 8.06658 26.0222C8.37197 27.2091 8.95054 28.3084 9.75647 29.233C10.5624 30.1576 11.5736 30.8821 12.7099 31.3492C13.8463 31.8163 15.0766 32.0132 16.3035 31.9241C17.5304 31.8351 18.7202 31.4627 19.7787 30.8364C21.5947 31.4851 23.2952 32.4174 24.8168 33.5983C24.7608 33.8253 24.7095 34.0534 24.6628 34.2826L17.3246 36.1584C14.2485 36.9458 11.6093 38.9166 9.98578 41.6384C8.3623 44.3601 7.88719 47.6106 8.66468 50.6767L9.41848 53.6255C9.8853 55.4324 10.8599 57.0681 12.2277 58.3406C11.9674 59.6041 11.8289 60.8894 11.8141 62.1788C11.8011 63.4871 12.2209 64.7624 13.0086 65.8075C13.7963 66.8527 14.9081 67.6093 16.172 67.9605C16.9434 70.1747 18.1688 72.204 19.7703 73.9193C21.3717 75.6347 23.3143 76.9986 25.4745 77.9245C27.6347 78.8504 29.9654 79.318 32.3184 79.2975C34.6714 79.2771 36.9954 78.7691 39.1426 77.8059C41.2898 76.8426 43.2133 75.4451 44.7909 73.7022C46.3685 71.9592 47.5657 69.909 48.3064 67.6817C49.0472 65.4543 49.3153 63.0987 49.0937 60.7643C48.8722 58.4299 48.1657 56.1678 47.0194 54.1219L55.3853 51.9833C55.3568 54.7113 55.9908 57.4045 57.2333 59.833C58.4759 62.2616 60.29 64.3534 62.5209 65.93C64.7518 67.5066 67.3333 68.5213 70.0452 68.8873C72.757 69.2533 75.5186 68.9598 78.0943 68.032C80.6701 67.1041 82.9835 65.5694 84.8372 63.5587C86.6909 61.5481 88.0299 59.1212 88.7399 56.4852C89.4498 53.8492 89.5097 51.0823 88.9144 48.4206C88.3191 45.7589 87.0862 43.2814 85.3211 41.1996Z" fill="#34383A"/>
<path fill-rule="evenodd" clip-rule="evenodd" d="M82.1857 41.1769C82.5075 40.6207 82.644 39.9774 82.5755 39.3396C82.5071 38.7019 82.2372 38.1026 81.8048 37.6281L79.75 29.5899C79.1702 27.3216 76.8885 25.9625 72.9686 25.5498C70.5094 25.3131 68.0282 25.43 65.601 25.8969C60.238 21.74 53.0484 20.0772 49.1664 20.9484C48.0934 21.1889 47.0394 21.4676 46.0205 21.7368L45.9607 21.7521C45.4842 21.8785 45.0078 22.0045 44.531 22.1264C43.8851 22.2915 43.1948 22.4517 42.5104 22.6107C38.8205 23.4671 34.6804 24.427 31.5312 27.4841C28.4279 24.7459 24.6358 22.7708 20.0257 21.4865C19.4915 20.6 18.6929 19.9021 17.741 19.4901C16.7892 19.078 15.7316 18.9724 14.7156 19.1878C13.6995 19.4032 12.7756 19.929 12.0725 20.6919C11.3694 21.4548 10.9222 22.4168 10.7931 23.444C10.664 24.4711 10.8595 25.5122 11.3523 26.4223C11.8452 27.3324 12.6108 28.066 13.5426 28.5211C14.4744 28.9762 15.5259 29.1301 16.5507 28.9612C17.5755 28.7924 18.5226 28.3093 19.2599 27.5792C22.934 28.7115 25.8179 30.3541 28.1683 32.6549C27.6887 33.929 27.3926 35.2641 27.2886 36.6204L18.0466 38.9829C15.723 39.5779 13.7294 41.0667 12.5032 43.1228C11.2769 45.1788 10.9181 47.6342 11.5054 49.9503L12.2592 52.8991C12.4903 53.7974 12.9015 54.6393 13.468 55.3744C14.0345 56.1094 14.7447 56.7223 15.5557 57.1761C15.0357 58.8033 14.7622 60.4983 14.7443 62.2051C14.7388 62.6616 14.8372 63.1133 15.0319 63.5263C15.2266 63.9392 15.5126 64.3027 15.8685 64.5896C16.2244 64.8764 16.641 65.0792 17.087 65.1826C17.5331 65.286 17.997 65.2874 18.444 65.1868C18.4893 65.4086 18.5395 65.6304 18.5962 65.8521C19.1519 68.0455 20.2335 70.0708 21.7482 71.7542C23.2628 73.4377 25.1653 74.729 27.2924 75.5175C29.4195 76.3059 31.7077 76.5679 33.9607 76.281C36.2138 75.9941 38.3643 75.1668 40.2279 73.8702C42.0914 72.5735 43.6124 70.8462 44.6602 68.8365C45.7081 66.8267 46.2515 64.5944 46.244 62.3312C46.2364 60.068 45.678 57.8415 44.6168 55.8425C43.5556 53.8436 42.0231 52.132 40.151 50.8546C40.2888 50.6648 40.404 50.4598 40.4944 50.2437C40.5764 50.0457 40.6375 49.8397 40.6764 49.6291C40.7394 49.6028 40.8028 49.5778 40.8659 49.5519C40.8666 49.5545 40.8672 49.5572 40.8679 49.5598C41.0681 50.338 41.5701 51.0046 42.2636 51.4134C42.9572 51.8223 43.7857 51.9398 44.5672 51.7403L55.2793 49.0021C55.9965 48.8186 56.622 48.38 57.0378 47.7689C57.4647 48.2971 58.06 48.6638 58.7252 48.8085C58.1304 51.2117 58.1854 53.728 58.8845 56.1008C59.5836 58.4736 60.9019 60.618 62.7049 62.3155C64.508 64.013 66.7313 65.2027 69.1482 65.7634C71.565 66.3242 74.0891 66.2359 76.4629 65.5075C78.8368 64.7791 80.9755 63.4368 82.6611 61.6172C84.3467 59.7977 85.5189 57.5662 86.0581 55.15C86.5973 52.7339 86.4843 50.2196 85.7306 47.8636C84.9769 45.5075 83.6094 43.394 81.7676 41.7384C81.9282 41.5678 82.0684 41.3794 82.1857 41.1769Z" fill="#7CF432"/>
<path fill-rule="evenodd" clip-rule="evenodd" d="M79.1556 40.3522C77.5364 39.4271 75.7432 38.8438 73.8871 38.6383C72.0311 38.4329 70.1518 38.6097 68.3657 39.1579C66.5797 39.7061 64.925 40.6139 63.5043 41.825C62.0835 43.0361 60.927 44.5248 60.1065 46.1986C60.0149 46.3862 59.8524 46.5299 59.6547 46.5982C59.4571 46.6665 59.2404 46.6537 59.0524 46.5628C58.8644 46.4719 58.7205 46.3102 58.6524 46.1133C58.5842 45.9164 58.5974 45.7004 58.689 45.5129C59.2021 44.4684 59.8337 43.4858 60.5713 42.5843C52.7551 43.1705 45.1016 45.1269 37.963 48.3635L37.9808 48.3706C38.0765 48.4097 38.1635 48.4673 38.2368 48.54C38.3101 48.6127 38.3683 48.6991 38.408 48.7943C38.4478 48.8894 38.4683 48.9915 38.4685 49.0947C38.4686 49.1978 38.4484 49.3001 38.4089 49.3955C38.3694 49.4909 38.3115 49.5777 38.2384 49.6509C38.1654 49.7241 38.0786 49.7822 37.983 49.822C37.8874 49.8618 37.785 49.8825 37.6815 49.8828C37.578 49.8832 37.4754 49.8632 37.3798 49.824C35.324 48.9882 33.0936 48.6661 30.8826 48.8856C28.6715 49.1051 26.5468 49.8597 24.6932 51.0836C22.8396 52.3075 21.3133 53.9637 20.247 55.9082C19.1808 57.8526 18.6069 60.0264 18.5753 62.2404C18.5743 62.3437 18.5528 62.4457 18.5121 62.5408C18.4715 62.6358 18.4125 62.722 18.3385 62.7944C18.2645 62.8667 18.1769 62.9239 18.0808 62.9626C17.9847 63.0013 17.8819 63.0208 17.7783 63.0199C17.6747 63.019 17.5723 62.9978 17.477 62.9574C17.3817 62.9171 17.2954 62.8584 17.2229 62.7848C17.1504 62.7112 17.0932 62.624 17.0546 62.5283C17.0159 62.4325 16.9966 62.3301 16.9977 62.2269C17.0244 59.999 17.5477 57.804 18.5297 55.8007C17.5728 55.7155 16.6664 55.3372 15.9347 54.7178C15.2031 54.0983 14.6821 53.2681 14.4432 52.341L13.6893 49.392C13.2482 47.6526 13.5177 45.8086 14.4387 44.2645C15.3597 42.7205 16.857 41.6025 18.602 41.1559L29.5177 38.3655C29.4024 36.2284 29.8556 34.0979 30.8314 32.1895C27.7202 28.6775 23.7152 26.369 18.3193 24.9824C18.0956 25.5956 17.6587 26.1089 17.088 26.4289C16.5174 26.7489 15.8508 26.8544 15.2096 26.7263C14.5683 26.5982 13.9948 26.2449 13.5934 25.7307C13.192 25.2165 12.9894 24.5755 13.0222 23.9241C13.0551 23.2728 13.3213 22.6544 13.7725 22.1814C14.2238 21.7084 14.83 21.4121 15.481 21.3464C16.1321 21.2807 16.7848 21.4499 17.3204 21.8234C17.8561 22.1969 18.2392 22.7497 18.4 23.3815C18.4 23.3815 18.4 23.3815 18.4004 23.3828C24.0073 24.778 28.3686 27.2029 31.6823 30.7777C31.9033 30.46 32.1371 30.1488 32.3907 29.8505C35.134 26.6272 39.1396 25.6975 43.0166 24.7974C43.7017 24.6383 44.4103 24.4741 45.0858 24.3014C45.5691 24.1778 46.0519 24.0502 46.535 23.9221C47.5526 23.6527 48.6055 23.3741 49.656 23.1384C53.2252 22.3377 60.3131 24.271 65.0048 28.3168C67.5329 27.7222 70.1405 27.5418 72.7253 27.7825C74.7102 27.9916 77.161 28.5706 77.5647 30.1498L79.8057 38.9167C79.8515 38.9421 79.8981 38.9652 79.9435 38.991C80.1176 39.0982 80.2428 39.2688 80.2928 39.4667C80.3427 39.6645 80.3133 39.8741 80.2109 40.051C80.1085 40.228 79.941 40.3583 79.7441 40.4146C79.5471 40.4708 79.3361 40.4484 79.1556 40.3522ZM15.4593 22.9397C15.2372 22.9969 15.037 23.1183 14.8839 23.2887C14.7308 23.4591 14.6318 23.6708 14.5993 23.8971C14.5668 24.1233 14.6023 24.354 14.7014 24.5599C14.8004 24.7658 14.9585 24.9377 15.1557 25.0539C15.3529 25.1701 15.5803 25.2253 15.8093 25.2127C16.0382 25.2 16.2584 25.12 16.4419 24.9828C16.6255 24.8455 16.7642 24.6572 16.8406 24.4416C16.9169 24.226 16.9275 23.9928 16.8709 23.7715C16.7944 23.4746 16.6028 23.2203 16.3382 23.0644C16.0735 22.9085 15.7575 22.8636 15.4593 22.9397ZM76.0364 30.5396C75.8042 29.6314 70.6757 28.4764 64.9816 29.9319L64.9783 29.9328C64.9316 29.9442 64.884 29.9514 64.836 29.9543C64.8117 29.9559 64.7893 29.9535 64.7641 29.9533C64.7331 29.9535 64.7022 29.952 64.6714 29.9487C64.6472 29.945 64.6239 29.9377 64.5997 29.9314C64.5756 29.925 64.5477 29.9215 64.5223 29.912C64.4973 29.902 64.4729 29.8906 64.4492 29.8779C64.4208 29.8654 64.3933 29.8511 64.3668 29.8351C64.3287 29.8117 64.2925 29.7852 64.2589 29.7557L64.2558 29.7537C59.7078 25.6424 52.888 24.022 49.9992 24.6694C48.9782 24.8984 47.9402 25.1726 46.9371 25.4387C46.4496 25.568 45.9625 25.6966 45.4748 25.8213C44.7823 25.9984 44.0649 26.1648 43.3721 26.3255C39.7482 27.1671 35.999 28.0368 33.595 30.8626C33.1821 31.3477 32.8141 31.869 32.4955 32.4201C32.4892 32.4331 32.4819 32.4453 32.4751 32.458C31.1126 34.8329 30.7273 37.6406 31.4005 40.2893C31.4521 40.4913 31.4211 40.7057 31.3142 40.8852C31.2074 41.0647 31.0334 41.1946 30.8306 41.2464C30.6278 41.2983 30.4129 41.2677 30.233 41.1616C30.0531 41.0554 29.923 40.8822 29.8713 40.6802C29.8083 40.4337 29.7563 40.1856 29.7095 39.937L18.9909 42.677C17.6511 43.0202 16.5017 43.8786 15.7946 45.0642C15.0875 46.2497 14.8805 47.6654 15.2191 49.0009L15.973 51.95C16.1629 52.6881 16.6217 53.329 17.2601 53.7479C17.8985 54.1668 18.6708 54.3338 19.4269 54.2164C21.1363 51.5728 23.6263 49.5219 26.5529 48.3472C29.4795 47.1726 32.6982 46.932 35.7644 47.6589C44.0228 43.6662 53.0006 41.3712 62.1619 40.9109C64.2673 39.0147 66.8608 37.7408 69.6506 37.2325C72.4403 36.7243 75.3156 37.0019 77.9529 38.0341L76.037 30.5394L76.0364 30.5396ZM60.7721 31.9964L44.2467 36.2207C44.0442 36.2725 43.8295 36.242 43.6498 36.1359C43.4701 36.0298 43.3401 35.8569 43.2886 35.6551L41.6099 29.0884C41.5584 28.8866 41.5894 28.6726 41.6961 28.4933C41.8029 28.314 41.9766 28.1842 42.1792 28.1324C42.4787 28.0558 42.9843 27.9247 43.5902 27.7678C45.3193 27.3198 47.9317 26.6427 48.8128 26.4401C51.5417 25.8146 58.4896 27.1759 61.208 30.7616C61.2861 30.8649 61.3374 30.9859 61.3573 31.1138C61.3772 31.2417 61.365 31.3726 61.3219 31.4948C61.2787 31.617 61.2059 31.7268 61.11 31.8143C61.0141 31.9018 60.898 31.9643 60.7721 31.9964ZM49.1633 27.9704C48.3037 28.167 45.7043 28.8414 43.984 29.2874L43.3323 29.4563L44.6227 34.5043L59.0893 30.8062C56.3791 28.4582 51.1805 27.5082 49.1634 27.9706L49.1633 27.9704ZM47.1586 37.0802L53.6975 35.4087C53.9001 35.3569 54.1148 35.3874 54.2945 35.4935C54.4742 35.5995 54.6041 35.7725 54.6557 35.9742C54.7073 36.176 54.6763 36.3901 54.5696 36.5694C54.4628 36.7487 54.289 36.8785 54.0865 36.9303L47.5475 38.6018C47.4466 38.6294 47.3412 38.6367 47.2375 38.6234C47.1337 38.61 47.0338 38.5761 46.9434 38.5238C46.853 38.4715 46.774 38.4017 46.711 38.3186C46.648 38.2355 46.6023 38.1406 46.5765 38.0396C46.5506 37.9387 46.5453 37.8335 46.5606 37.7304C46.576 37.6272 46.6119 37.5281 46.666 37.4388C46.7202 37.3495 46.7917 37.2719 46.8763 37.2103C46.9608 37.1488 47.0568 37.1046 47.1586 37.0804L47.1586 37.0802ZM29.2953 51.0178C31.5503 50.4452 33.9238 50.5512 36.1158 51.3227C38.3078 52.0941 40.2201 53.4963 41.6108 55.352C43.0015 57.2077 43.8083 59.4336 43.9293 61.7485C44.0502 64.0634 43.4799 66.3633 42.2903 68.3577C41.1008 70.352 39.3454 71.9512 37.246 72.9532C35.1466 73.9551 32.7975 74.3149 30.4955 73.9871C28.1934 73.6592 26.0418 72.6584 24.3126 71.1111C22.5833 69.5638 21.354 67.5395 20.78 65.294C20.0154 62.2791 20.4826 59.0828 22.079 56.4064C23.6754 53.7301 26.2706 51.7921 29.2953 51.0178ZM34.7129 72.2113C36.6644 71.7092 38.4238 70.6421 39.7687 69.1448C41.1137 67.6476 41.9839 65.7874 42.2693 63.7993C42.5547 61.8112 42.2426 59.7845 41.3723 57.9753C40.5021 56.1661 39.1128 54.6556 37.38 53.6346C35.6472 52.6137 33.6487 52.1282 31.6371 52.2394C29.6254 52.3507 27.6909 53.0537 26.078 54.2597C24.4651 55.4656 23.2463 57.1204 22.5754 59.0148C21.9046 60.9093 21.8119 62.9583 22.3091 64.9031C22.9812 67.5118 24.6647 69.7463 26.9901 71.1164C29.3154 72.4865 32.0929 72.8803 34.713 72.2115L34.7129 72.2113ZM30.4685 55.6074C31.8122 55.2661 33.2265 55.3293 34.5327 55.789C35.8388 56.2487 36.9783 57.0842 37.807 58.19C38.6357 59.2957 39.1164 60.6221 39.1885 62.0015C39.2606 63.3808 38.9208 64.7513 38.212 65.9397C37.5032 67.1281 36.4572 68.081 35.2063 68.6781C33.9553 69.2751 32.5555 69.4896 31.1838 69.2942C29.8121 69.0989 28.53 68.5026 27.4995 67.5806C26.4691 66.6587 25.7365 65.4525 25.3944 64.1144C24.9389 62.3179 25.2173 60.4133 26.1685 58.8185C27.1198 57.2237 28.6662 56.069 30.4686 55.6076L30.4685 55.6074ZM33.5397 67.6215C34.5806 67.3537 35.519 66.7845 36.2364 65.9859C36.9538 65.1873 37.4179 64.195 37.5701 63.1346C37.7224 62.0742 37.5559 60.9932 37.0917 60.0282C36.6275 59.0631 35.8864 58.2574 34.9622 57.7129C34.0379 57.1684 32.9719 56.9094 31.8989 56.9687C30.8259 57.0281 29.7941 57.4031 28.9338 58.0464C28.0735 58.6896 27.4234 59.5723 27.0656 60.5828C26.7078 61.5932 26.6584 62.6862 26.9236 63.7235C27.282 65.1151 28.1799 66.3072 29.4202 67.0381C30.6606 67.7691 32.1422 67.9792 33.5399 67.6224L33.5397 67.6215ZM31.6042 60.0499C32.066 59.9325 32.5521 59.954 33.001 60.1119C33.45 60.2698 33.8417 60.5568 34.1267 60.9368C34.4116 61.3168 34.577 61.7726 34.6018 62.2467C34.6267 62.7208 34.51 63.1919 34.2664 63.6004C34.0229 64.0088 33.6634 64.3364 33.2335 64.5417C32.8036 64.747 32.3225 64.8207 31.851 64.7536C31.3795 64.6865 30.9388 64.4815 30.5847 64.1647C30.2305 63.8478 29.9787 63.4332 29.8611 62.9733C29.783 62.6677 29.7662 62.3495 29.8115 62.0372C29.8569 61.7248 29.9635 61.4242 30.1254 61.1528C30.2873 60.8813 30.5012 60.6442 30.755 60.455C31.0087 60.2658 31.2973 60.1282 31.6042 60.0501L31.6042 60.0499ZM43.6207 48.0457L54.3329 45.3074C54.5355 45.2556 54.7502 45.2861 54.9299 45.3922C55.1096 45.4982 55.2395 45.6712 55.2911 45.873C55.3427 46.0747 55.3117 46.2888 55.2049 46.4681C55.0982 46.6474 54.9244 46.7772 54.7219 46.829L44.0096 49.5673C43.9087 49.5949 43.8033 49.6023 43.6996 49.5889C43.5959 49.5755 43.4959 49.5416 43.4055 49.4893C43.3151 49.437 43.2361 49.3672 43.1731 49.2841C43.1101 49.201 43.0644 49.1061 43.0386 49.0052C43.0127 48.9042 43.0074 48.799 43.0228 48.6959C43.0381 48.5927 43.074 48.4936 43.1282 48.4043C43.1823 48.315 43.2538 48.2374 43.3384 48.1758C43.4229 48.1143 43.5189 48.0702 43.6207 48.046L43.6207 48.0457ZM69.445 40.7542C71.7 40.1816 74.0734 40.2877 76.2655 41.0591C78.4575 41.8305 80.3697 43.2327 81.7604 45.0884C83.1512 46.944 83.958 49.17 84.079 51.4849C84.1999 53.7997 83.6296 56.0997 82.4401 58.094C81.2505 60.0883 79.4952 61.6875 77.3958 62.6895C75.2965 63.6915 72.9474 64.0513 70.6453 63.7235C68.3433 63.3957 66.1917 62.3949 64.4624 60.8476C62.7331 59.3004 61.5038 57.2761 60.9297 55.0307C60.1652 52.0157 60.6324 48.8195 62.2288 46.1431C63.8252 43.4667 66.4204 41.5288 69.4451 40.7545L69.445 40.7542ZM74.8626 61.9477C76.8141 61.4456 78.5734 60.3785 79.9184 58.8813C81.2633 57.384 82.1335 55.5238 82.419 53.5358C82.7044 51.5477 82.3923 49.521 81.5221 47.7118C80.6518 45.9026 79.2625 44.3921 77.5298 43.3711C75.797 42.3502 73.7985 41.8646 71.7869 41.9758C69.7753 42.0871 67.8408 42.7901 66.2279 43.996C64.615 45.2019 63.3961 46.8566 62.7252 48.751C62.0543 50.6455 61.9616 52.6945 62.4587 54.6393C63.1308 57.2481 64.8142 59.4827 67.1396 60.8529C69.465 62.2231 72.2425 62.617 74.8627 61.9481L74.8626 61.9477ZM70.6182 45.3438C71.9619 45.0025 73.3762 45.0657 74.6824 45.5254C75.9886 45.9851 77.128 46.8206 77.9567 47.9264C78.7854 49.0322 79.2662 50.3586 79.3382 51.738C79.4103 53.1174 79.0704 54.4878 78.3616 55.6762C77.6528 56.8646 76.6068 57.8175 75.3558 58.4145C74.1048 59.0116 72.705 59.226 71.3333 59.0306C69.9616 58.8353 68.6795 58.2389 67.6491 57.3169C66.6186 56.3949 65.8861 55.1887 65.5441 53.8506C65.089 52.0542 65.3677 50.1499 66.3189 48.5553C67.2701 46.9606 68.8162 45.8059 70.6183 45.3442L70.6182 45.3438ZM73.6894 57.3579C74.7302 57.0901 75.6687 56.5209 76.386 55.7223C77.1034 54.9237 77.5676 53.9315 77.7198 52.8711C77.8721 51.8107 77.7056 50.7297 77.2414 49.7646C76.7772 48.7996 76.0362 47.9939 75.112 47.4494C74.1877 46.9048 73.1217 46.6458 72.0488 46.7052C70.9758 46.7645 69.9439 47.1395 69.0836 47.7827C68.2233 48.4259 67.5732 49.3085 67.2153 50.319C66.8575 51.3295 66.808 52.4224 67.0732 53.4597C67.4315 54.8514 68.3294 56.0435 69.5698 56.7746C70.8103 57.5056 72.2919 57.7158 73.6896 57.359L73.6894 57.3579ZM71.7538 49.7863C72.2156 49.6688 72.7018 49.6904 73.1508 49.8482C73.5998 50.006 73.9915 50.2931 74.2765 50.673C74.5614 51.053 74.7268 51.5088 74.7517 51.9829C74.7766 52.457 74.6599 52.9281 74.4164 53.3366C74.1729 53.7451 73.8134 54.0727 73.3835 54.278C72.9535 54.4833 72.4724 54.5571 72.0009 54.49C71.5295 54.4229 71.0888 54.2179 70.7346 53.901C70.3804 53.5842 70.1286 53.1696 70.011 52.7097C69.933 52.404 69.9161 52.086 69.9615 51.7736C70.0069 51.4613 70.1135 51.1608 70.2754 50.8893C70.4372 50.6179 70.6511 50.3808 70.9048 50.1916C71.1586 50.0024 71.4471 49.8649 71.754 49.7868L71.7538 49.7863Z" fill="#34383A"/>
<path fill-rule="evenodd" clip-rule="evenodd" d="M106.564 33.6348L108.97 42.8505L111.368 33.6348H122.934V50.8224L128.305 33.6348H131.36C131.36 33.6348 131.944 33.6349 132.319 33.6349C132.645 33.6349 133.155 33.6348 133.155 33.6348H137.059L142.098 49.652V33.6348H181.369V39.2211L183.852 33.6348H202.458V43.5563H204.019V33.6348H223.683V36.3251L224.852 33.6348H242.953V39.2211L245.436 33.6348H255.132V63.9104H244.43V58.328L241.945 63.9104H225.7L223.683 59.5043V63.9104H204.019V53.4161H202.458V63.9104H182.845V58.328L180.361 63.9104H135.157L133.843 58.8906H131.526L130.212 63.9104H112.306H108.97H105.653H95V33.6348H106.564ZM102.827 54.3987L102.372 44.174L107.274 61.0355H110.643L115.545 44.174L115.09 54.3987V61.0355H120.059V36.5096H113.591L108.976 54.2471L104.343 36.5096H97.8748V61.0355H102.827V54.3987ZM127.993 61.0355L129.307 56.0158H136.062L137.376 61.0355H142.665L134.95 36.5096H130.419L122.755 61.0355H127.993ZM130.385 51.8888H134.967L132.676 43.1464L130.385 51.8888ZM169.751 61.0355V36.5096H164.799V56.9254H159.88V36.5096H154.928V56.9254H149.942V36.5096H144.973V61.0355H169.751ZM185.72 44.7972V61.0355H190.672V36.5096H185.72L178.494 52.7648V36.5096H173.525V61.0355H178.494L185.72 44.7972ZM199.583 50.5413H206.894V61.0355H211.829V36.5096H206.894V46.4311H199.583V36.5096H194.631V61.0355H199.583V50.5413ZM222.964 51.0298L227.546 61.0355H233.441L226.771 47.9303L232.767 36.5096H226.737L222.475 46.3132H220.808V36.5096H215.855V61.0355H220.808V51.0298H222.964ZM232.234 43.7095L230.007 47.9509L232.234 52.3262V43.7095ZM235.109 61.0355H240.078L247.304 44.7972V61.0355H252.257V36.5096H247.304L240.078 52.7648V36.5096H235.109V61.0355Z" fill="#34383A"/>
<path d="M98.2819 16.0412L100.083 22.9391L101.878 16.0412H104.394V25.579H102.461V22.998L102.638 19.0218L100.732 25.579H99.4217L97.5155 19.0218L97.6923 22.998V25.579H95.7664V16.0412H98.2819Z" fill="#34383A"/>
<path d="M114.91 23.6269H112.283L111.772 25.579H109.735L112.716 16.0412H114.478L117.478 25.579H115.421L114.91 23.6269ZM112.702 22.022H114.484L113.593 18.6222L112.702 22.022Z" fill="#34383A"/>
<path d="M126.697 23.0767C126.697 22.688 126.597 22.3954 126.396 22.1989C126.199 21.998 125.839 21.7905 125.315 21.5765C124.359 21.2141 123.671 20.7904 123.251 20.3057C122.832 19.8166 122.623 19.2401 122.623 18.5763C122.623 17.7727 122.906 17.1286 123.474 16.6438C124.046 16.1547 124.771 15.9102 125.649 15.9102C126.234 15.9102 126.756 16.0346 127.215 16.2835C127.673 16.5281 128.025 16.8753 128.269 17.3251C128.518 17.7749 128.643 18.2859 128.643 18.858H126.723C126.723 18.4125 126.627 18.0741 126.435 17.8426C126.247 17.6068 125.974 17.4889 125.616 17.4889C125.28 17.4889 125.018 17.5893 124.83 17.7902C124.642 17.9867 124.549 18.2531 124.549 18.5894C124.549 18.8514 124.653 19.0894 124.863 19.3034C125.073 19.5131 125.444 19.7314 125.977 19.9585C126.907 20.2948 127.581 20.7075 128.001 21.1966C128.424 21.6857 128.636 22.308 128.636 23.0636C128.636 23.8933 128.372 24.5418 127.844 25.0091C127.315 25.4764 126.597 25.71 125.688 25.71C125.073 25.71 124.511 25.5834 124.005 25.3301C123.498 25.0768 123.101 24.7143 122.813 24.2427C122.529 23.771 122.387 23.2142 122.387 22.5722H124.319C124.319 23.1225 124.426 23.5221 124.64 23.771C124.854 24.02 125.204 24.1444 125.688 24.1444C126.361 24.1444 126.697 23.7885 126.697 23.0767Z" fill="#34383A"/>
<path d="M140.895 25.579H138.976V21.4979H136.133V25.579H134.207V16.0412H136.133V19.8996H138.976V16.0412H140.895V25.579Z" fill="#34383A"/>
<path d="M148.752 25.579H146.826V16.0412H148.752V25.579Z" fill="#34383A"/>
<path d="M161.331 25.579H159.405L156.589 19.3231V25.579H154.663V16.0412H156.589L159.412 22.3037V16.0412H161.331V25.579Z" fill="#34383A"/>
<path d="M169.856 21.8975L169.096 22.8539V25.579H167.17V16.0412H169.096V20.2009L169.706 19.1724L171.481 16.0412H173.839L171.107 20.2336L173.885 25.579H171.599L169.856 21.8975Z" fill="#34383A"/>
<path d="M180.903 25.579H178.977V16.0412H180.903V25.579Z" fill="#34383A"/>
<path d="M186.873 24.6357C186.873 24.3388 186.971 24.0942 187.168 23.902C187.369 23.7099 187.629 23.6138 187.948 23.6138C188.258 23.6138 188.515 23.7099 188.72 23.902C188.926 24.0898 189.028 24.3344 189.028 24.6357C189.028 24.9414 188.924 25.1882 188.714 25.376C188.509 25.5594 188.253 25.6511 187.948 25.6511C187.637 25.6511 187.38 25.5572 187.175 25.3694C186.974 25.1816 186.873 24.9371 186.873 24.6357Z" fill="#34383A"/>
<path d="M195.012 25.579V16.0412H197.959C198.955 16.0412 199.711 16.2639 200.226 16.7093C200.746 17.1504 201.005 17.7989 201.005 18.6549C201.005 19.1397 200.898 19.5567 200.684 19.9061C200.47 20.2555 200.178 20.511 199.807 20.6725C200.235 20.7948 200.564 21.0416 200.796 21.4128C201.027 21.7796 201.143 22.2338 201.143 22.7753C201.143 23.7012 200.888 24.3999 200.377 24.8716C199.87 25.3432 199.134 25.579 198.169 25.579H195.012ZM196.937 21.4324V23.9807H198.169C198.514 23.9807 198.776 23.8737 198.955 23.6597C199.134 23.4457 199.224 23.1422 199.224 22.7491C199.224 21.8932 198.914 21.4543 198.293 21.4324H196.937ZM196.937 20.0306H197.94C198.695 20.0306 199.073 19.6397 199.073 18.858C199.073 18.4256 198.986 18.1156 198.811 17.9278C198.636 17.74 198.352 17.6461 197.959 17.6461H196.937V20.0306Z" fill="#34383A"/>
<path d="M208.849 25.579H206.923V16.0412H208.849V25.579Z" fill="#34383A"/>
<path d="M216.758 23.9807H220.689V25.579H214.505V24.4196L218.396 17.6461H214.465V16.0412H220.617V17.1744L216.758 23.9807Z" fill="#34383A"/>
<path d="M226.226 24.6357C226.226 24.3388 226.325 24.0942 226.521 23.902C226.722 23.7099 226.982 23.6138 227.301 23.6138C227.611 23.6138 227.868 23.7099 228.074 23.902C228.279 24.0898 228.381 24.3344 228.381 24.6357C228.381 24.9414 228.277 25.1882 228.067 25.376C227.862 25.5594 227.606 25.6511 227.301 25.6511C226.991 25.6511 226.733 25.5572 226.528 25.3694C226.327 25.1816 226.226 24.9371 226.226 24.6357Z" fill="#34383A"/>
<path d="M240.568 16.0412V22.6443C240.559 23.6356 240.287 24.3955 239.749 24.924C239.212 25.448 238.441 25.71 237.437 25.71C236.415 25.71 235.633 25.4437 235.092 24.9109C234.555 24.3781 234.286 23.6073 234.286 22.5985V16.0412H236.225V22.605C236.225 23.1465 236.312 23.533 236.487 23.7645C236.662 23.9959 236.978 24.1117 237.437 24.1117C237.896 24.1117 238.21 23.9981 238.38 23.771C238.551 23.5396 238.638 23.1618 238.642 22.6378V16.0412H240.568Z" fill="#34383A"/>
<path d="M250.731 23.6269H248.104L247.593 25.579H245.556L248.536 16.0412H250.298L253.299 25.579H251.242L250.731 23.6269ZM248.523 22.022H250.305L249.414 18.6222L248.523 22.022Z" fill="#34383A"/>
</svg>
