<svg width="255" height="65" viewBox="0 0 255 65" fill="none" xmlns="http://www.w3.org/2000/svg">
<g clip-path="url(#clip0)">
<path d="M16.5 47.5L1.52588e-05 60.9877V65H240L228.5 60.9877L128 54.5L113.5 60.9877L94.5 53L82.5 51L63 41L39 49.7284L16.5 47.5Z" fill="#34383A"/>
<path fill-rule="evenodd" clip-rule="evenodd" d="M84.3211 25.1996C84.5948 24.1895 84.5944 23.1256 84.3197 22.1168C84.147 21.4782 83.8691 20.8728 83.4972 20.3253L81.5901 12.8646C80.4535 8.4183 75.9023 7.03094 72.2839 6.65006C69.9733 6.42112 67.6427 6.47756 65.345 6.81811C59.862 3.01534 52.4188 1.00656 47.5296 2.10375C46.4059 2.35557 45.328 2.64037 44.2772 2.91803L44.2117 2.93476C43.7436 3.05881 43.2755 3.18265 42.8072 3.30235C42.2057 3.45612 41.5369 3.61179 40.8902 3.76182L40.8466 3.77297C37.6726 4.50953 33.8573 5.39522 30.5206 7.7242C27.7304 5.67156 24.5251 4.10339 20.805 2.9672C19.6486 1.60574 18.0628 0.675753 16.3061 0.328856C14.5495 -0.0180402 12.7257 0.238621 11.132 1.05699C9.53837 1.87536 8.26891 3.20717 7.53063 4.83526C6.79233 6.46335 6.62876 8.29169 7.06658 10.0222C7.37197 11.2091 7.95054 12.3084 8.75647 13.233C9.5624 14.1576 10.5736 14.8821 11.7099 15.3492C12.8463 15.8163 14.0766 16.0132 15.3035 15.9241C16.5304 15.8351 17.7202 15.4627 18.7787 14.8364C20.5947 15.4851 22.2952 16.4174 23.8168 17.5983C23.7608 17.8253 23.7095 18.0534 23.6628 18.2826L16.3246 20.1584C13.2485 20.9458 10.6093 22.9166 8.98578 25.6384C7.3623 28.3601 6.88719 31.6106 7.66468 34.6767L8.41848 37.6255C8.8853 39.4324 9.85985 41.0681 11.2277 42.3406C10.9674 43.6041 10.8289 44.8894 10.8141 46.1788C10.8011 47.4871 11.2209 48.7624 12.0086 49.8075C12.7963 50.8527 13.9081 51.6093 15.172 51.9605C15.9434 54.1747 17.1688 56.204 18.7703 57.9193C20.3717 59.6347 22.3143 60.9986 24.4745 61.9245C26.6347 62.8504 28.9654 63.318 31.3184 63.2975C33.6714 63.2771 35.9954 62.7691 38.1426 61.8059C40.2898 60.8426 42.2133 59.4451 43.7909 57.7022C45.3685 55.9592 46.5657 53.909 47.3064 51.6817C48.0472 49.4543 48.3153 47.0987 48.0937 44.7643C47.8722 42.4299 47.1657 40.1678 46.0194 38.1219L54.3853 35.9833C54.3568 38.7113 54.9908 41.4045 56.2333 43.833C57.4759 46.2616 59.29 48.3534 61.5209 49.93C63.7518 51.5066 66.3333 52.5213 69.0452 52.8873C71.757 53.2533 74.5186 52.9598 77.0943 52.032C79.6701 51.1041 81.9835 49.5694 83.8372 47.5587C85.6909 45.5481 87.0299 43.1212 87.7399 40.4852C88.4498 37.8492 88.5097 35.0823 87.9144 32.4206C87.3191 29.7589 86.0862 27.2814 84.3211 25.1996Z" fill="#34383A"/>
<path fill-rule="evenodd" clip-rule="evenodd" d="M81.1857 25.1769C81.5075 24.6207 81.644 23.9774 81.5755 23.3396C81.5071 22.7019 81.2372 22.1026 80.8048 21.6281L78.75 13.5899C78.1702 11.3216 75.8885 9.96246 71.9686 9.54981C69.5094 9.31308 67.0282 9.42998 64.601 9.89691C59.238 5.73999 52.0484 4.07716 48.1664 4.9484C47.0934 5.18886 46.0394 5.46757 45.0205 5.73682L44.9607 5.7521C44.4842 5.87855 44.0078 6.0045 43.531 6.12637C42.8851 6.29148 42.1948 6.45174 41.5104 6.61071C37.8205 7.4671 33.6804 8.42702 30.5312 11.4841C27.4279 8.74588 23.6358 6.7708 19.0257 5.48651C18.4915 4.59999 17.6929 3.9021 16.741 3.49007C15.7892 3.07803 14.7316 2.97237 13.7156 3.18779C12.6995 3.40321 11.7756 3.929 11.0725 4.6919C10.3694 5.45481 9.92217 6.41684 9.79308 7.44399C9.66399 8.47113 9.85948 9.51225 10.3523 10.4223C10.8452 11.3324 11.6108 12.066 12.5426 12.5211C13.4744 12.9762 14.5259 13.1301 15.5507 12.9612C16.5755 12.7924 17.5226 12.3093 18.2599 11.5792C21.934 12.7115 24.8179 14.3541 27.1683 16.6549C26.6887 17.929 26.3926 19.2641 26.2886 20.6204L17.0466 22.9829C14.723 23.5779 12.7294 25.0667 11.5032 27.1228C10.2769 29.1788 9.91806 31.6342 10.5054 33.9503L11.2592 36.8991C11.4903 37.7974 11.9015 38.6393 12.468 39.3744C13.0345 40.1094 13.7447 40.7223 14.5557 41.1761C14.0357 42.8033 13.7622 44.4983 13.7443 46.2051C13.7388 46.6616 13.8372 47.1133 14.0319 47.5263C14.2266 47.9392 14.5126 48.3027 14.8685 48.5896C15.2244 48.8764 15.641 49.0792 16.087 49.1826C16.5331 49.286 16.997 49.2874 17.444 49.1868C17.4893 49.4086 17.5395 49.6304 17.5962 49.8521C18.1519 52.0455 19.2335 54.0708 20.7482 55.7542C22.2628 57.4377 24.1653 58.729 26.2924 59.5175C28.4195 60.3059 30.7077 60.5679 32.9607 60.281C35.2138 59.9941 37.3643 59.1668 39.2279 57.8702C41.0914 56.5735 42.6124 54.8462 43.6602 52.8365C44.7081 50.8267 45.2515 48.5944 45.244 46.3312C45.2364 44.068 44.678 41.8415 43.6168 39.8425C42.5556 37.8436 41.0231 36.132 39.151 34.8546C39.2888 34.6648 39.404 34.4598 39.4944 34.2437C39.5764 34.0457 39.6375 33.8397 39.6764 33.6291C39.7394 33.6028 39.8028 33.5778 39.8659 33.5519C39.8666 33.5545 39.8672 33.5572 39.8679 33.5598C40.0681 34.338 40.5701 35.0046 41.2636 35.4134C41.9572 35.8223 42.7857 35.9398 43.5672 35.7403L54.2793 33.0021C54.9965 32.8186 55.622 32.38 56.0378 31.7689C56.4647 32.2971 57.06 32.6638 57.7252 32.8085C57.1304 35.2117 57.1854 37.728 57.8845 40.1008C58.5836 42.4736 59.9019 44.618 61.7049 46.3155C63.508 48.013 65.7313 49.2027 68.1482 49.7634C70.565 50.3242 73.0891 50.2359 75.4629 49.5075C77.8368 48.7791 79.9755 47.4368 81.6611 45.6172C83.3467 43.7977 84.5189 41.5662 85.0581 39.15C85.5973 36.7339 85.4843 34.2196 84.7306 31.8636C83.9769 29.5075 82.6094 27.394 80.7676 25.7384C80.9282 25.5678 81.0684 25.3794 81.1857 25.1769Z" fill="#7CF432"/>
<path fill-rule="evenodd" clip-rule="evenodd" d="M78.1556 24.3522C76.5364 23.4271 74.7432 22.8438 72.8871 22.6383C71.0311 22.4329 69.1518 22.6097 67.3657 23.1579C65.5797 23.7061 63.925 24.6139 62.5043 25.825C61.0835 27.0361 59.927 28.5248 59.1065 30.1986C59.0149 30.3862 58.8524 30.5299 58.6547 30.5982C58.4571 30.6665 58.2404 30.6537 58.0524 30.5628C57.8644 30.4719 57.7205 30.3102 57.6524 30.1133C57.5842 29.9164 57.5974 29.7004 57.689 29.5129C58.2021 28.4684 58.8337 27.4858 59.5713 26.5843C51.7551 27.1705 44.1016 29.1269 36.963 32.3635L36.9808 32.3706C37.0765 32.4097 37.1635 32.4673 37.2368 32.54C37.3101 32.6127 37.3683 32.6991 37.408 32.7943C37.4478 32.8894 37.4683 32.9915 37.4685 33.0947C37.4686 33.1978 37.4484 33.3001 37.4089 33.3955C37.3694 33.4909 37.3115 33.5777 37.2384 33.6509C37.1654 33.7241 37.0786 33.7822 36.983 33.822C36.8874 33.8618 36.785 33.8825 36.6815 33.8828C36.578 33.8832 36.4754 33.8632 36.3798 33.824C34.324 32.9882 32.0936 32.6661 29.8826 32.8856C27.6715 33.1051 25.5468 33.8597 23.6932 35.0836C21.8396 36.3075 20.3133 37.9637 19.247 39.9082C18.1808 41.8526 17.6069 44.0264 17.5753 46.2404C17.5743 46.3437 17.5528 46.4457 17.5121 46.5408C17.4715 46.6358 17.4125 46.722 17.3385 46.7944C17.2645 46.8667 17.1769 46.9239 17.0808 46.9626C16.9847 47.0013 16.8819 47.0208 16.7783 47.0199C16.6747 47.019 16.5723 46.9978 16.477 46.9574C16.3817 46.9171 16.2954 46.8584 16.2229 46.7848C16.1504 46.7112 16.0932 46.624 16.0546 46.5283C16.0159 46.4325 15.9966 46.3301 15.9977 46.2269C16.0244 43.999 16.5477 41.804 17.5297 39.8007C16.5728 39.7155 15.6664 39.3372 14.9347 38.7178C14.2031 38.0983 13.6821 37.2681 13.4432 36.341L12.6893 33.392C12.2482 31.6526 12.5177 29.8086 13.4387 28.2645C14.3597 26.7205 15.857 25.6025 17.602 25.1559L28.5177 22.3655C28.4024 20.2284 28.8556 18.0979 29.8314 16.1895C26.7202 12.6775 22.7152 10.369 17.3193 8.98241C17.0956 9.59561 16.6587 10.1089 16.088 10.4289C15.5174 10.7489 14.8508 10.8544 14.2096 10.7263C13.5683 10.5982 12.9948 10.2449 12.5934 9.73071C12.192 9.21648 11.9894 8.57545 12.0222 7.92413C12.0551 7.2728 12.3213 6.65442 12.7725 6.18139C13.2238 5.70835 13.83 5.41206 14.481 5.34637C15.1321 5.28068 15.7848 5.44994 16.3204 5.82341C16.8561 6.19687 17.2392 6.74973 17.4 7.38151C17.4 7.38151 17.4 7.38151 17.4004 7.38281C23.0073 8.77796 27.3686 11.2029 30.6823 14.7777C30.9033 14.46 31.1371 14.1488 31.3907 13.8505C34.134 10.6272 38.1396 9.69749 42.0166 8.79743C42.7017 8.63829 43.4103 8.47405 44.0858 8.30137C44.5691 8.17782 45.0519 8.05025 45.535 7.92213C46.5526 7.65273 47.6055 7.37408 48.656 7.13844C52.2252 6.33766 59.3131 8.27103 64.0048 12.3168C66.5329 11.7222 69.1405 11.5418 71.7253 11.7825C73.7102 11.9916 76.161 12.5706 76.5647 14.1498L78.8057 22.9167C78.8515 22.9421 78.8981 22.9652 78.9435 22.991C79.1176 23.0982 79.2428 23.2688 79.2928 23.4667C79.3427 23.6645 79.3133 23.8741 79.2109 24.051C79.1085 24.228 78.941 24.3583 78.7441 24.4146C78.5471 24.4708 78.3361 24.4484 78.1556 24.3522ZM14.4593 6.93973C14.2372 6.99686 14.037 7.11831 13.8839 7.2887C13.7308 7.4591 13.6318 7.6708 13.5993 7.89705C13.5668 8.12331 13.6023 8.35396 13.7014 8.55987C13.8004 8.76577 13.9585 8.93768 14.1557 9.05387C14.3529 9.17006 14.5803 9.22532 14.8093 9.21267C15.0382 9.20001 15.2584 9.12001 15.4419 8.98277C15.6255 8.84552 15.7642 8.6572 15.8406 8.4416C15.9169 8.22601 15.9275 7.99281 15.8709 7.77147C15.7944 7.4746 15.6028 7.22031 15.3382 7.06438C15.0735 6.90845 14.7575 6.86362 14.4593 6.93973ZM75.0364 14.5396C74.8042 13.6314 69.6757 12.4764 63.9816 13.9319L63.9783 13.9328C63.9316 13.9442 63.884 13.9514 63.836 13.9543C63.8117 13.9559 63.7893 13.9535 63.7641 13.9533C63.7331 13.9535 63.7022 13.952 63.6714 13.9487C63.6472 13.945 63.6239 13.9377 63.5997 13.9314C63.5756 13.925 63.5477 13.9215 63.5223 13.912C63.4973 13.902 63.4729 13.8906 63.4492 13.8779C63.4208 13.8654 63.3933 13.8511 63.3668 13.8351C63.3287 13.8117 63.2925 13.7852 63.2589 13.7557L63.2558 13.7537C58.7078 9.64244 51.888 8.02195 48.9992 8.66939C47.9782 8.89842 46.9402 9.17258 45.9371 9.43873C45.4496 9.56796 44.9625 9.69665 44.4748 9.82131C43.7823 9.99835 43.0649 10.1648 42.3721 10.3255C38.7482 11.1671 34.999 12.0368 32.595 14.8626C32.1821 15.3477 31.8141 15.869 31.4955 16.4201C31.4892 16.4331 31.4819 16.4453 31.4751 16.458C30.1126 18.8329 29.7273 21.6406 30.4005 24.2893C30.4521 24.4913 30.4211 24.7057 30.3142 24.8852C30.2074 25.0647 30.0334 25.1946 29.8306 25.2464C29.6278 25.2983 29.4129 25.2677 29.233 25.1616C29.0531 25.0554 28.923 24.8822 28.8713 24.6802C28.8083 24.4337 28.7563 24.1856 28.7095 23.937L17.9909 26.677C16.6511 27.0202 15.5017 27.8786 14.7946 29.0642C14.0875 30.2497 13.8805 31.6654 14.2191 33.0009L14.973 35.95C15.1629 36.6881 15.6217 37.329 16.2601 37.7479C16.8985 38.1668 17.6708 38.3338 18.4269 38.2164C20.1363 35.5728 22.6263 33.5219 25.5529 32.3472C28.4795 31.1726 31.6982 30.932 34.7644 31.6589C43.0228 27.6662 52.0006 25.3712 61.1619 24.9109C63.2673 23.0147 65.8608 21.7408 68.6506 21.2325C71.4403 20.7243 74.3156 21.0019 76.9529 22.0341L75.037 14.5394L75.0364 14.5396ZM59.7721 15.9964L43.2467 20.2207C43.0442 20.2725 42.8295 20.242 42.6498 20.1359C42.4701 20.0298 42.3401 19.8569 42.2886 19.6551L40.6099 13.0884C40.5584 12.8866 40.5894 12.6726 40.6961 12.4933C40.8029 12.314 40.9766 12.1842 41.1792 12.1324C41.4787 12.0558 41.9843 11.9247 42.5902 11.7678C44.3193 11.3198 46.9317 10.6427 47.8128 10.4401C50.5417 9.81459 57.4896 11.1759 60.208 14.7616C60.2861 14.8649 60.3374 14.9859 60.3573 15.1138C60.3772 15.2417 60.365 15.3726 60.3219 15.4948C60.2787 15.617 60.2059 15.7268 60.11 15.8143C60.0141 15.9018 59.898 15.9643 59.7721 15.9964ZM48.1633 11.9704C47.3037 12.167 44.7043 12.8414 42.984 13.2874L42.3323 13.4563L43.6227 18.5043L58.0893 14.8062C55.3791 12.4582 50.1805 11.5082 48.1634 11.9706L48.1633 11.9704ZM46.1586 21.0802L52.6975 19.4087C52.9001 19.3569 53.1148 19.3874 53.2945 19.4935C53.4742 19.5995 53.6041 19.7725 53.6557 19.9742C53.7073 20.176 53.6763 20.3901 53.5696 20.5694C53.4628 20.7487 53.289 20.8785 53.0865 20.9303L46.5475 22.6018C46.4466 22.6294 46.3412 22.6367 46.2375 22.6234C46.1337 22.61 46.0338 22.5761 45.9434 22.5238C45.853 22.4715 45.774 22.4017 45.711 22.3186C45.648 22.2355 45.6023 22.1406 45.5765 22.0396C45.5506 21.9387 45.5453 21.8335 45.5606 21.7304C45.576 21.6272 45.6119 21.5281 45.666 21.4388C45.7202 21.3495 45.7917 21.2719 45.8763 21.2103C45.9608 21.1488 46.0568 21.1046 46.1586 21.0804L46.1586 21.0802ZM28.2953 35.0178C30.5503 34.4452 32.9238 34.5512 35.1158 35.3227C37.3078 36.0941 39.2201 37.4963 40.6108 39.352C42.0015 41.2077 42.8083 43.4336 42.9293 45.7485C43.0502 48.0634 42.4799 50.3633 41.2903 52.3577C40.1008 54.352 38.3454 55.9512 36.246 56.9532C34.1466 57.9551 31.7975 58.3149 29.4955 57.9871C27.1934 57.6592 25.0418 56.6584 23.3126 55.1111C21.5833 53.5638 20.354 51.5395 19.78 49.294C19.0154 46.2791 19.4826 43.0828 21.079 40.4064C22.6754 37.7301 25.2706 35.7921 28.2953 35.0178ZM33.7129 56.2113C35.6644 55.7092 37.4238 54.6421 38.7687 53.1448C40.1137 51.6476 40.9839 49.7874 41.2693 47.7993C41.5547 45.8112 41.2426 43.7845 40.3723 41.9753C39.5021 40.1661 38.1128 38.6556 36.38 37.6346C34.6472 36.6137 32.6487 36.1282 30.6371 36.2394C28.6254 36.3507 26.6909 37.0537 25.078 38.2597C23.4651 39.4656 22.2463 41.1204 21.5754 43.0148C20.9046 44.9093 20.8119 46.9583 21.3091 48.9031C21.9812 51.5118 23.6647 53.7463 25.9901 55.1164C28.3154 56.4865 31.0929 56.8803 33.713 56.2115L33.7129 56.2113ZM29.4685 39.6074C30.8122 39.2661 32.2265 39.3293 33.5327 39.789C34.8388 40.2487 35.9783 41.0842 36.807 42.19C37.6357 43.2957 38.1164 44.6221 38.1885 46.0015C38.2606 47.3808 37.9208 48.7513 37.212 49.9397C36.5032 51.1281 35.4572 52.081 34.2063 52.6781C32.9553 53.2751 31.5555 53.4896 30.1838 53.2942C28.8121 53.0989 27.53 52.5026 26.4995 51.5806C25.4691 50.6587 24.7365 49.4525 24.3944 48.1144C23.9389 46.3179 24.2173 44.4133 25.1685 42.8185C26.1198 41.2237 27.6662 40.069 29.4686 39.6076L29.4685 39.6074ZM32.5397 51.6215C33.5806 51.3537 34.519 50.7845 35.2364 49.9859C35.9538 49.1873 36.4179 48.195 36.5701 47.1346C36.7224 46.0742 36.5559 44.9932 36.0917 44.0282C35.6275 43.0631 34.8864 42.2574 33.9622 41.7129C33.0379 41.1684 31.9719 40.9094 30.8989 40.9687C29.8259 41.0281 28.7941 41.4031 27.9338 42.0464C27.0735 42.6896 26.4234 43.5723 26.0656 44.5828C25.7078 45.5932 25.6584 46.6862 25.9236 47.7235C26.282 49.1151 27.1799 50.3072 28.4202 51.0381C29.6606 51.7691 31.1422 51.9792 32.5399 51.6224L32.5397 51.6215ZM30.6042 44.0499C31.066 43.9325 31.5521 43.954 32.001 44.1119C32.45 44.2698 32.8417 44.5568 33.1267 44.9368C33.4116 45.3168 33.577 45.7726 33.6018 46.2467C33.6267 46.7208 33.51 47.1919 33.2664 47.6004C33.0229 48.0088 32.6634 48.3364 32.2335 48.5417C31.8036 48.747 31.3225 48.8207 30.851 48.7536C30.3795 48.6865 29.9388 48.4815 29.5847 48.1647C29.2305 47.8478 28.9787 47.4332 28.8611 46.9733C28.783 46.6677 28.7662 46.3495 28.8115 46.0372C28.8569 45.7248 28.9635 45.4242 29.1254 45.1528C29.2873 44.8813 29.5012 44.6442 29.755 44.455C30.0087 44.2658 30.2973 44.1282 30.6042 44.0501L30.6042 44.0499ZM42.6207 32.0457L53.3329 29.3074C53.5355 29.2556 53.7502 29.2861 53.9299 29.3922C54.1096 29.4982 54.2395 29.6712 54.2911 29.873C54.3427 30.0747 54.3117 30.2888 54.2049 30.4681C54.0982 30.6474 53.9244 30.7772 53.7219 30.829L43.0096 33.5673C42.9087 33.5949 42.8033 33.6023 42.6996 33.5889C42.5959 33.5755 42.4959 33.5416 42.4055 33.4893C42.3151 33.437 42.2361 33.3672 42.1731 33.2841C42.1101 33.201 42.0644 33.1061 42.0386 33.0052C42.0127 32.9042 42.0074 32.799 42.0228 32.6959C42.0381 32.5927 42.074 32.4936 42.1282 32.4043C42.1823 32.315 42.2538 32.2374 42.3384 32.1758C42.4229 32.1143 42.5189 32.0702 42.6207 32.046L42.6207 32.0457ZM68.445 24.7542C70.7 24.1816 73.0734 24.2877 75.2655 25.0591C77.4575 25.8305 79.3697 27.2327 80.7604 29.0884C82.1512 30.944 82.958 33.17 83.079 35.4849C83.1999 37.7997 82.6296 40.0997 81.4401 42.094C80.2505 44.0883 78.4952 45.6875 76.3958 46.6895C74.2965 47.6915 71.9474 48.0513 69.6453 47.7235C67.3433 47.3957 65.1917 46.3949 63.4624 44.8476C61.7331 43.3004 60.5038 41.2761 59.9297 39.0307C59.1652 36.0157 59.6324 32.8195 61.2288 30.1431C62.8252 27.4667 65.4204 25.5288 68.4451 24.7545L68.445 24.7542ZM73.8626 45.9477C75.8141 45.4456 77.5734 44.3785 78.9184 42.8813C80.2633 41.384 81.1335 39.5238 81.419 37.5358C81.7044 35.5477 81.3923 33.521 80.5221 31.7118C79.6518 29.9026 78.2625 28.3921 76.5298 27.3711C74.797 26.3502 72.7985 25.8646 70.7869 25.9758C68.7753 26.0871 66.8408 26.7901 65.2279 27.996C63.615 29.2019 62.3961 30.8566 61.7252 32.751C61.0543 34.6455 60.9616 36.6945 61.4587 38.6393C62.1308 41.2481 63.8142 43.4827 66.1396 44.8529C68.465 46.2231 71.2425 46.617 73.8627 45.9481L73.8626 45.9477ZM69.6182 29.3438C70.9619 29.0025 72.3762 29.0657 73.6824 29.5254C74.9886 29.9851 76.128 30.8206 76.9567 31.9264C77.7854 33.0322 78.2662 34.3586 78.3382 35.738C78.4103 37.1174 78.0704 38.4878 77.3616 39.6762C76.6528 40.8646 75.6068 41.8175 74.3558 42.4145C73.1048 43.0116 71.705 43.226 70.3333 43.0306C68.9616 42.8353 67.6795 42.2389 66.6491 41.3169C65.6186 40.3949 64.8861 39.1887 64.5441 37.8506C64.089 36.0542 64.3677 34.1499 65.3189 32.5553C66.2701 30.9606 67.8162 29.8059 69.6183 29.3442L69.6182 29.3438ZM72.6894 41.3579C73.7302 41.0901 74.6687 40.5209 75.386 39.7223C76.1034 38.9237 76.5676 37.9315 76.7198 36.8711C76.8721 35.8107 76.7056 34.7297 76.2414 33.7646C75.7772 32.7996 75.0362 31.9939 74.112 31.4494C73.1877 30.9048 72.1217 30.6458 71.0488 30.7052C69.9758 30.7645 68.9439 31.1395 68.0836 31.7827C67.2233 32.4259 66.5732 33.3085 66.2153 34.319C65.8575 35.3295 65.808 36.4224 66.0732 37.4597C66.4315 38.8514 67.3294 40.0435 68.5698 40.7746C69.8103 41.5056 71.2919 41.7158 72.6896 41.359L72.6894 41.3579ZM70.7538 33.7863C71.2156 33.6688 71.7018 33.6904 72.1508 33.8482C72.5998 34.006 72.9915 34.2931 73.2765 34.673C73.5614 35.053 73.7268 35.5088 73.7517 35.9829C73.7766 36.457 73.6599 36.9281 73.4164 37.3366C73.1729 37.7451 72.8134 38.0727 72.3835 38.278C71.9535 38.4833 71.4724 38.5571 71.0009 38.49C70.5295 38.4229 70.0888 38.2179 69.7346 37.901C69.3804 37.5842 69.1286 37.1696 69.011 36.7097C68.933 36.404 68.9161 36.086 68.9615 35.7736C69.0069 35.4613 69.1135 35.1608 69.2754 34.8893C69.4372 34.6179 69.6511 34.3808 69.9048 34.1916C70.1586 34.0024 70.4471 33.8649 70.754 33.7868L70.7538 33.7863Z" fill="#34383A"/>
<path fill-rule="evenodd" clip-rule="evenodd" d="M105.564 17.6348L107.97 26.8505L110.368 17.6348H121.934V34.8224L127.305 17.6348H130.36C130.36 17.6348 130.944 17.6349 131.319 17.6349C131.645 17.6349 132.155 17.6348 132.155 17.6348H136.059L141.098 33.652V17.6348H180.369V23.2211L182.852 17.6348H201.458V27.5563H203.019V17.6348H222.683V20.3251L223.852 17.6348H241.953V23.2211L244.436 17.6348H254.132V47.9104H243.43V42.328L240.945 47.9104H224.7L222.683 43.5043V47.9104H203.019V37.4161H201.458V47.9104H181.845V42.328L179.361 47.9104H134.157L132.843 42.8906H130.526L129.212 47.9104H111.306H107.97H104.653H94V17.6348H105.564ZM101.827 38.3987L101.372 28.174L106.274 45.0355H109.643L114.545 28.174L114.09 38.3987V45.0355H119.059V20.5096H112.591L107.976 38.2471L103.343 20.5096H96.8748V45.0355H101.827V38.3987ZM126.993 45.0355L128.307 40.0158H135.062L136.376 45.0355H141.665L133.95 20.5096H129.419L121.755 45.0355H126.993ZM129.385 35.8888H133.967L131.676 27.1464L129.385 35.8888ZM168.751 45.0355V20.5096H163.799V40.9254H158.88V20.5096H153.928V40.9254H148.942V20.5096H143.973V45.0355H168.751ZM184.72 28.7972V45.0355H189.672V20.5096H184.72L177.494 36.7648V20.5096H172.525V45.0355H177.494L184.72 28.7972ZM198.583 34.5413H205.894V45.0355H210.829V20.5096H205.894V30.4311H198.583V20.5096H193.631V45.0355H198.583V34.5413ZM221.964 35.0298L226.546 45.0355H232.441L225.771 31.9303L231.767 20.5096H225.737L221.475 30.3132H219.808V20.5096H214.855V45.0355H219.808V35.0298H221.964ZM231.234 27.7095L229.007 31.9509L231.234 36.3262V27.7095ZM234.109 45.0355H239.078L246.304 28.7972V45.0355H251.257V20.5096H246.304L239.078 36.7648V20.5096H234.109V45.0355Z" fill="#34383A"/>
<path d="M97.2819 0.0411708L99.0833 6.93909L100.878 0.0411708H103.394V9.57903H101.461V6.99804L101.638 3.02175L99.7319 9.57903H98.4217L96.5155 3.02175L96.6923 6.99804V9.57903H94.7664V0.0411708H97.2819Z" fill="#34383A"/>
<path d="M113.91 7.62691H111.283L110.772 9.57903H108.735L111.716 0.0411708H113.478L116.478 9.57903H114.421L113.91 7.62691ZM111.702 6.02199H113.484L112.593 2.62216L111.702 6.02199Z" fill="#34383A"/>
<path d="M125.697 7.07665C125.697 6.68798 125.597 6.39538 125.396 6.19886C125.199 5.99797 124.839 5.79053 124.315 5.57654C123.359 5.21406 122.671 4.79045 122.251 4.3057C121.832 3.81657 121.623 3.24011 121.623 2.5763C121.623 1.77275 121.906 1.12859 122.474 0.643838C123.046 0.154717 123.771 -0.0898438 124.649 -0.0898438C125.234 -0.0898438 125.756 0.0346201 126.215 0.283548C126.673 0.528108 127.025 0.875297 127.269 1.32511C127.518 1.77493 127.643 2.28589 127.643 2.85798H125.723C125.723 2.41253 125.627 2.07408 125.435 1.84262C125.247 1.6068 124.974 1.48888 124.616 1.48888C124.28 1.48888 124.018 1.58933 123.83 1.79022C123.642 1.98674 123.548 2.25313 123.548 2.5894C123.548 2.85143 123.653 3.08944 123.863 3.30343C124.073 3.51306 124.444 3.73141 124.977 3.95851C125.907 4.29478 126.581 4.70747 127.001 5.19659C127.424 5.68572 127.636 6.30803 127.636 7.06355C127.636 7.89331 127.372 8.54183 126.844 9.00912C126.315 9.4764 125.597 9.71005 124.688 9.71005C124.073 9.71005 123.511 9.5834 123.005 9.3301C122.498 9.07681 122.101 8.71434 121.813 8.24268C121.529 7.77103 121.387 7.21422 121.387 6.57225H123.319C123.319 7.12251 123.426 7.5221 123.64 7.77103C123.854 8.01996 124.204 8.14442 124.688 8.14442C125.361 8.14442 125.697 7.7885 125.697 7.07665Z" fill="#34383A"/>
<path d="M139.895 9.57903H137.976V5.49793H135.133V9.57903H133.207V0.0411708H135.133V3.89955H137.976V0.0411708H139.895V9.57903Z" fill="#34383A"/>
<path d="M147.752 9.57903H145.826V0.0411708H147.752V9.57903Z" fill="#34383A"/>
<path d="M160.331 9.57903H158.405L155.589 3.32309V9.57903H153.663V0.0411708H155.589L158.412 6.30367V0.0411708H160.331V9.57903Z" fill="#34383A"/>
<path d="M168.856 5.89752L168.096 6.85393V9.57903H166.17V0.0411708H168.096V4.20088L168.706 3.17242L170.481 0.0411708H172.839L170.107 4.23364L172.885 9.57903H170.599L168.856 5.89752Z" fill="#34383A"/>
<path d="M179.903 9.57903H177.977V0.0411708H179.903V9.57903Z" fill="#34383A"/>
<path d="M185.873 8.63573C185.873 8.33876 185.971 8.0942 186.168 7.90205C186.369 7.70989 186.629 7.61381 186.947 7.61381C187.258 7.61381 187.515 7.70989 187.72 7.90205C187.926 8.08983 188.028 8.33439 188.028 8.63573C188.028 8.94143 187.924 9.18817 187.714 9.37596C187.509 9.55938 187.253 9.65109 186.947 9.65109C186.637 9.65109 186.38 9.5572 186.174 9.36941C185.974 9.18162 185.873 8.93706 185.873 8.63573Z" fill="#34383A"/>
<path d="M194.012 9.57903V0.0411708H196.959C197.955 0.0411708 198.711 0.263896 199.226 0.709345C199.746 1.15043 200.005 1.79895 200.005 2.65491C200.005 3.13967 199.898 3.55673 199.684 3.9061C199.47 4.25547 199.178 4.51095 198.807 4.67254C199.235 4.79482 199.564 5.04156 199.796 5.41277C200.027 5.77961 200.143 6.23379 200.143 6.77532C200.143 7.70116 199.888 8.3999 199.377 8.87155C198.87 9.34321 198.134 9.57903 197.169 9.57903H194.012ZM195.937 5.43242V7.98065H197.169C197.514 7.98065 197.776 7.87366 197.955 7.65967C198.134 7.44568 198.224 7.14216 198.224 6.74912C198.224 5.89316 197.914 5.45426 197.293 5.43242H195.937ZM195.937 4.03056H196.94C197.695 4.03056 198.073 3.6397 198.073 2.85798C198.073 2.42564 197.986 2.11557 197.811 1.92778C197.636 1.73999 197.352 1.6461 196.959 1.6461H195.937V4.03056Z" fill="#34383A"/>
<path d="M207.849 9.57903H205.923V0.0411708H207.849V9.57903Z" fill="#34383A"/>
<path d="M215.758 7.98065H219.689V9.57903H213.505V8.41955L217.396 1.6461H213.465V0.0411708H219.617V1.17445L215.758 7.98065Z" fill="#34383A"/>
<path d="M225.226 8.63573C225.226 8.33876 225.325 8.0942 225.521 7.90205C225.722 7.70989 225.982 7.61381 226.301 7.61381C226.611 7.61381 226.868 7.70989 227.074 7.90205C227.279 8.08983 227.381 8.33439 227.381 8.63573C227.381 8.94143 227.277 9.18817 227.067 9.37596C226.862 9.55938 226.606 9.65109 226.301 9.65109C225.991 9.65109 225.733 9.5572 225.528 9.36941C225.327 9.18162 225.226 8.93706 225.226 8.63573Z" fill="#34383A"/>
<path d="M239.568 0.0411708V6.64431C239.559 7.63565 239.287 8.39553 238.749 8.92396C238.212 9.44802 237.441 9.71005 236.437 9.71005C235.415 9.71005 234.633 9.44365 234.092 8.91086C233.555 8.37807 233.286 7.60726 233.286 6.59845V0.0411708H235.225V6.605C235.225 7.14653 235.312 7.53302 235.487 7.76448C235.662 7.99594 235.978 8.11167 236.437 8.11167C236.895 8.11167 237.21 7.99812 237.38 7.77103C237.551 7.53957 237.638 7.16181 237.642 6.63775V0.0411708H239.568Z" fill="#34383A"/>
<path d="M249.731 7.62691H247.104L246.593 9.57903H244.556L247.536 0.0411708H249.298L252.299 9.57903H250.242L249.731 7.62691ZM247.523 6.02199H249.305L248.414 2.62216L247.523 6.02199Z" fill="#34383A"/>
</g>
<defs>
<clipPath id="clip0">
</clipPath>
</defs>
</svg>
