<svg width="271" height="67" viewBox="0 0 271 67" fill="none" xmlns="http://www.w3.org/2000/svg">
<path d="M6.16016 49.2363H6.20117L8.61426 43.6035H10.3027H11.417V44.4717L10.3027 44.6631V49.9473L11.417 50.1387V51H7.8418V50.1387L8.95605 49.9473V45.8662L8.91504 45.8525L6.64551 51H5.71582L3.40527 45.7432L3.36426 45.7568V49.9473L4.47852 50.1387V51H0.90332V50.1387L2.01758 49.9473V44.6631L0.90332 44.4717V43.6035H2.01758H3.75391L6.16016 49.2363Z" fill="#8A8F92"/>
<path d="M17.46 51C17.4189 50.7995 17.387 50.6195 17.3643 50.46C17.3415 50.3005 17.3255 50.141 17.3164 49.9814C17.0566 50.3141 16.7308 50.5921 16.3389 50.8154C15.9515 51.0342 15.5368 51.1436 15.0947 51.1436C14.3245 51.1436 13.7389 50.9567 13.3379 50.583C12.9368 50.2048 12.7363 49.6738 12.7363 48.9902C12.7363 48.2884 13.0189 47.7484 13.584 47.3701C14.1536 46.9873 14.9329 46.7959 15.9219 46.7959H17.3096V45.9346C17.3096 45.5016 17.1729 45.1598 16.8994 44.9092C16.626 44.654 16.2454 44.5264 15.7578 44.5264C15.4206 44.5264 15.1221 44.5697 14.8623 44.6562C14.6071 44.7428 14.3997 44.8613 14.2402 45.0117L14.0967 45.791H13.0576V44.3555C13.3949 44.0866 13.8027 43.8724 14.2812 43.7129C14.7598 43.5488 15.2793 43.4668 15.8398 43.4668C16.6784 43.4668 17.3574 43.681 17.877 44.1094C18.3965 44.5378 18.6562 45.1507 18.6562 45.9482V49.5098C18.6562 49.6055 18.6562 49.6989 18.6562 49.79C18.6608 49.8812 18.6676 49.9723 18.6768 50.0635L19.2236 50.1387V51H17.46ZM15.293 50.0156C15.7396 50.0156 16.1475 49.9085 16.5166 49.6943C16.8857 49.4801 17.1501 49.2227 17.3096 48.9219V47.7051H15.874C15.3226 47.7051 14.8851 47.8327 14.5615 48.0879C14.2425 48.3431 14.083 48.653 14.083 49.0176C14.083 49.3411 14.1833 49.5895 14.3838 49.7627C14.5843 49.9313 14.8874 50.0156 15.293 50.0156Z" fill="#8A8F92"/>
<path d="M23.667 50.0908C24.1136 50.0908 24.5055 49.9541 24.8428 49.6807C25.1846 49.4027 25.3555 49.0632 25.3555 48.6621H26.5654L26.5791 48.7031C26.6019 49.3411 26.3171 49.9085 25.7246 50.4053C25.1367 50.8975 24.4508 51.1436 23.667 51.1436C22.5915 51.1436 21.7689 50.7926 21.1992 50.0908C20.6341 49.389 20.3516 48.5072 20.3516 47.4453V47.1582C20.3516 46.1055 20.6364 45.2282 21.2061 44.5264C21.7757 43.82 22.596 43.4668 23.667 43.4668C24.2594 43.4668 24.7904 43.5648 25.2598 43.7607C25.7337 43.9567 26.1257 44.2256 26.4355 44.5674L26.4971 46.208H25.4238L25.1299 45.0459C24.9704 44.891 24.7653 44.7656 24.5146 44.6699C24.264 44.5742 23.9814 44.5264 23.667 44.5264C22.9606 44.5264 22.4548 44.7816 22.1494 45.292C21.8486 45.7979 21.6982 46.4199 21.6982 47.1582V47.4453C21.6982 48.2018 21.8486 48.833 22.1494 49.3389C22.4502 49.8402 22.9561 50.0908 23.667 50.0908Z" fill="#8A8F92"/>
<path d="M27.9463 44.4717V43.6035H30.4072H31.5215V44.4717L30.4072 44.6631V49.9473H33.0049V43.6035H34.3516V49.9473H36.9561V44.6631L35.8418 44.4717V43.6035H38.3027H39.417V44.4717L38.3027 44.6631V49.9473L39.417 50.1387V51H27.9463V50.1387L29.0605 49.9473V44.6631L27.9463 44.4717Z" fill="#8A8F92"/>
<path d="M47.6133 43.6035V45.8047H46.458L46.3555 44.6494H44.7695V49.9473L45.8838 50.1387V51H42.3086V50.1387L43.4229 49.9473V44.6494H41.8643L41.7617 45.8047H40.6133V43.6035H47.6133Z" fill="#8A8F92"/>
<path d="M53.5127 51C53.4717 50.7995 53.4398 50.6195 53.417 50.46C53.3942 50.3005 53.3783 50.141 53.3691 49.9814C53.1094 50.3141 52.7835 50.5921 52.3916 50.8154C52.0042 51.0342 51.5895 51.1436 51.1475 51.1436C50.3773 51.1436 49.7917 50.9567 49.3906 50.583C48.9896 50.2048 48.7891 49.6738 48.7891 48.9902C48.7891 48.2884 49.0716 47.7484 49.6367 47.3701C50.2064 46.9873 50.9857 46.7959 51.9746 46.7959H53.3623V45.9346C53.3623 45.5016 53.2256 45.1598 52.9521 44.9092C52.6787 44.654 52.2982 44.5264 51.8105 44.5264C51.4733 44.5264 51.1748 44.5697 50.915 44.6562C50.6598 44.7428 50.4525 44.8613 50.293 45.0117L50.1494 45.791H49.1104V44.3555C49.4476 44.0866 49.8555 43.8724 50.334 43.7129C50.8125 43.5488 51.332 43.4668 51.8926 43.4668C52.7311 43.4668 53.4102 43.681 53.9297 44.1094C54.4492 44.5378 54.709 45.1507 54.709 45.9482V49.5098C54.709 49.6055 54.709 49.6989 54.709 49.79C54.7135 49.8812 54.7204 49.9723 54.7295 50.0635L55.2764 50.1387V51H53.5127ZM51.3457 50.0156C51.7923 50.0156 52.2002 49.9085 52.5693 49.6943C52.9385 49.4801 53.2028 49.2227 53.3623 48.9219V47.7051H51.9268C51.3753 47.7051 50.9378 47.8327 50.6143 48.0879C50.2952 48.3431 50.1357 48.653 50.1357 49.0176C50.1357 49.3411 50.236 49.5895 50.4365 49.7627C50.637 49.9313 50.9401 50.0156 51.3457 50.0156Z" fill="#8A8F92"/>
<path d="M60.082 44.0273C61.0208 44.0273 61.7637 44.3418 62.3105 44.9707C62.8574 45.5951 63.1309 46.3971 63.1309 47.377V47.5273C63.1309 48.5892 62.8346 49.4574 62.2422 50.1318C61.6497 50.8063 60.8431 51.1436 59.8223 51.1436C58.8014 51.1436 57.9948 50.8063 57.4023 50.1318C56.8099 49.4574 56.5137 48.5892 56.5137 47.5273V46.5703C56.5137 45.112 56.819 43.9499 57.4297 43.084C58.0404 42.2181 58.8607 41.6826 59.8906 41.4775C60.4648 41.3727 60.8796 41.2474 61.1348 41.1016C61.3945 40.9557 61.5244 40.7165 61.5244 40.3838H62.5635L62.5771 40.4248C62.5908 41.2269 62.4017 41.7533 62.0098 42.0039C61.6178 42.2546 60.9958 42.4528 60.1436 42.5986C59.5192 42.7035 58.986 42.945 58.5439 43.3232C58.1064 43.6969 57.8376 44.2461 57.7373 44.9707L57.7646 45.0049C58.0335 44.7178 58.3708 44.4831 58.7764 44.3008C59.1865 44.1185 59.6217 44.0273 60.082 44.0273ZM59.8086 45.0801C59.166 45.0801 58.6807 45.2988 58.3525 45.7363C58.0244 46.1738 57.8604 46.7207 57.8604 47.377V47.5273C57.8604 48.2702 58.0244 48.8831 58.3525 49.3662C58.6807 49.8493 59.1706 50.0908 59.8223 50.0908C60.4648 50.0908 60.9525 49.8493 61.2852 49.3662C61.6178 48.8831 61.7842 48.2702 61.7842 47.5273V47.377C61.7842 46.7207 61.6156 46.1738 61.2783 45.7363C60.9456 45.2988 60.4557 45.0801 59.8086 45.0801Z" fill="#8A8F92"/>
<path d="M21.7529 64.1387L23.291 63.9473V56.4893L21.7256 56.5166V55.6758L24.6377 55.0469V63.9473L26.1689 64.1387V65H21.7529V64.1387Z" fill="#8A8F92"/>
<path d="M29.0332 65H27.6865V63.6191H29.0332V65ZM29.0332 58.9844H27.6865V57.6035H29.0332V58.9844Z" fill="#8A8F92"/>
<path d="M30.3936 64.1387L31.9316 63.9473V56.4893L30.3662 56.5166V55.6758L33.2783 55.0469V63.9473L34.8096 64.1387V65H30.3936V64.1387Z" fill="#8A8F92"/>
<path d="M42.165 57.6445C42.165 58.1641 42.0192 58.6198 41.7275 59.0117C41.4359 59.3991 41.0417 59.6885 40.5449 59.8799C41.1191 60.0804 41.5771 60.3949 41.9189 60.8232C42.2653 61.2516 42.4385 61.7461 42.4385 62.3066C42.4385 63.2272 42.1377 63.9313 41.5361 64.4189C40.9391 64.902 40.1621 65.1436 39.2051 65.1436C38.2298 65.1436 37.446 64.902 36.8535 64.4189C36.2611 63.9313 35.9648 63.2272 35.9648 62.3066C35.9648 61.7461 36.1335 61.2516 36.4707 60.8232C36.8079 60.3949 37.2637 60.0804 37.8379 59.8799C37.3411 59.6885 36.9515 59.3991 36.6689 59.0117C36.3864 58.6198 36.2451 58.1641 36.2451 57.6445C36.2451 56.7695 36.514 56.0951 37.0518 55.6211C37.5941 55.1426 38.3073 54.9033 39.1914 54.9033C40.0664 54.9033 40.7796 55.1426 41.3311 55.6211C41.887 56.0951 42.165 56.7695 42.165 57.6445ZM41.0986 62.2793C41.0986 61.7324 40.9186 61.2835 40.5586 60.9326C40.1986 60.5817 39.7428 60.4062 39.1914 60.4062C38.6354 60.4062 38.182 60.5817 37.8311 60.9326C37.4847 61.279 37.3115 61.7279 37.3115 62.2793C37.3115 62.8444 37.4824 63.2887 37.8242 63.6123C38.1706 63.9313 38.6309 64.0908 39.2051 64.0908C39.7656 64.0908 40.2214 63.929 40.5723 63.6055C40.9232 63.2819 41.0986 62.8398 41.0986 62.2793ZM40.8184 57.6719C40.8184 57.1797 40.6634 56.7718 40.3535 56.4482C40.0482 56.1247 39.6608 55.9629 39.1914 55.9629C38.7129 55.9629 38.3255 56.1201 38.0293 56.4346C37.7376 56.7445 37.5918 57.1569 37.5918 57.6719C37.5918 58.1777 37.7399 58.5833 38.0361 58.8887C38.3324 59.194 38.722 59.3467 39.2051 59.3467C39.679 59.3467 40.0664 59.194 40.3672 58.8887C40.668 58.5833 40.8184 58.1777 40.8184 57.6719Z" fill="#8A8F92"/>
<path d="M107.871 52.9756L108.985 52.7842V44.6631L107.871 44.4717V43.6035H110.141L110.264 44.5059C110.51 44.1686 110.808 43.9111 111.159 43.7334C111.515 43.5557 111.925 43.4668 112.39 43.4668C113.306 43.4668 114.017 43.8314 114.522 44.5605C115.033 45.2852 115.288 46.2445 115.288 47.4385V47.582C115.288 48.6484 115.033 49.5098 114.522 50.166C114.012 50.8177 113.308 51.1436 112.41 51.1436C111.954 51.1436 111.553 51.0684 111.207 50.918C110.865 50.763 110.574 50.5352 110.332 50.2344V52.7842L111.446 52.9756V53.8438H107.871V52.9756ZM113.935 47.4385C113.935 46.5954 113.771 45.9049 113.442 45.3672C113.114 44.8294 112.627 44.5605 111.979 44.5605C111.597 44.5605 111.269 44.6471 110.995 44.8203C110.722 44.9935 110.501 45.2305 110.332 45.5312V49.1338C110.501 49.4391 110.719 49.6761 110.988 49.8447C111.262 50.0088 111.597 50.0908 111.993 50.0908C112.631 50.0908 113.114 49.8584 113.442 49.3936C113.771 48.9287 113.935 48.3249 113.935 47.582V47.4385Z" fill="#8A8F92"/>
<path d="M121.338 51C121.297 50.7995 121.265 50.6195 121.242 50.46C121.219 50.3005 121.203 50.141 121.194 49.9814C120.935 50.3141 120.609 50.5921 120.217 50.8154C119.829 51.0342 119.415 51.1436 118.973 51.1436C118.202 51.1436 117.617 50.9567 117.216 50.583C116.815 50.2048 116.614 49.6738 116.614 48.9902C116.614 48.2884 116.897 47.7484 117.462 47.3701C118.032 46.9873 118.811 46.7959 119.8 46.7959H121.188V45.9346C121.188 45.5016 121.051 45.1598 120.777 44.9092C120.504 44.654 120.123 44.5264 119.636 44.5264C119.299 44.5264 119 44.5697 118.74 44.6562C118.485 44.7428 118.278 44.8613 118.118 45.0117L117.975 45.791H116.936V44.3555C117.273 44.0866 117.681 43.8724 118.159 43.7129C118.638 43.5488 119.157 43.4668 119.718 43.4668C120.556 43.4668 121.235 43.681 121.755 44.1094C122.274 44.5378 122.534 45.1507 122.534 45.9482V49.5098C122.534 49.6055 122.534 49.6989 122.534 49.79C122.539 49.8812 122.546 49.9723 122.555 50.0635L123.102 50.1387V51H121.338ZM119.171 50.0156C119.618 50.0156 120.025 49.9085 120.395 49.6943C120.764 49.4801 121.028 49.2227 121.188 48.9219V47.7051H119.752C119.201 47.7051 118.763 47.8327 118.439 48.0879C118.12 48.3431 117.961 48.653 117.961 49.0176C117.961 49.3411 118.061 49.5895 118.262 49.7627C118.462 49.9313 118.765 50.0156 119.171 50.0156Z" fill="#8A8F92"/>
<path d="M127.217 46.6797C127.691 46.6797 128.028 46.5908 128.229 46.4131C128.434 46.2308 128.536 45.9688 128.536 45.627C128.536 45.3171 128.42 45.055 128.188 44.8408C127.955 44.6266 127.602 44.5195 127.128 44.5195C126.704 44.5195 126.349 44.6312 126.062 44.8545C125.774 45.0778 125.631 45.349 125.631 45.668H124.353L124.339 45.627C124.312 44.9935 124.569 44.4785 125.111 44.082C125.654 43.681 126.326 43.4805 127.128 43.4805C127.994 43.4805 128.671 43.6673 129.158 44.041C129.646 44.4102 129.89 44.9388 129.89 45.627C129.89 45.9596 129.789 46.265 129.589 46.543C129.388 46.821 129.108 47.0397 128.748 47.1992C129.163 47.3451 129.479 47.5638 129.698 47.8555C129.917 48.1426 130.026 48.4958 130.026 48.915C130.026 49.6077 129.76 50.1501 129.227 50.542C128.698 50.9339 127.998 51.1299 127.128 51.1299C126.321 51.1299 125.629 50.9362 125.05 50.5488C124.476 50.1569 124.2 49.5918 124.223 48.8535L124.236 48.8125H125.515C125.515 49.1589 125.665 49.4596 125.966 49.7148C126.267 49.9701 126.654 50.0977 127.128 50.0977C127.616 50.0977 127.994 49.986 128.263 49.7627C128.532 49.5348 128.666 49.2523 128.666 48.915C128.666 48.5186 128.548 48.2292 128.311 48.0469C128.078 47.8646 127.714 47.7734 127.217 47.7734H125.932V46.6797H127.217Z" fill="#8A8F92"/>
<path d="M136.698 49.2363H136.739L139.152 43.6035H140.841H141.955V44.4717L140.841 44.6631V49.9473L141.955 50.1387V51H138.38V50.1387L139.494 49.9473V45.8662L139.453 45.8525L137.184 51H136.254L133.943 45.7432L133.902 45.7568V49.9473L135.017 50.1387V51H131.441V50.1387L132.556 49.9473V44.6631L131.441 44.4717V43.6035H132.556H134.292L136.698 49.2363Z" fill="#8A8F92"/>
<path d="M146.549 51.1436C145.519 51.1436 144.699 50.8018 144.088 50.1182C143.482 49.43 143.179 48.5391 143.179 47.4453V47.1445C143.179 46.0918 143.491 45.2168 144.115 44.5195C144.744 43.8177 145.487 43.4668 146.344 43.4668C147.337 43.4668 148.089 43.7676 148.6 44.3691C149.115 44.9707 149.372 45.7728 149.372 46.7754V47.6162H144.573L144.553 47.6504C144.566 48.3613 144.746 48.9469 145.093 49.4072C145.439 49.863 145.924 50.0908 146.549 50.0908C147.005 50.0908 147.403 50.027 147.745 49.8994C148.091 49.7673 148.39 49.5872 148.641 49.3594L149.167 50.2344C148.903 50.4896 148.552 50.7061 148.114 50.8838C147.681 51.057 147.16 51.1436 146.549 51.1436ZM146.344 44.5264C145.893 44.5264 145.507 44.7178 145.188 45.1006C144.869 45.4788 144.674 45.9551 144.601 46.5293L144.614 46.5635H148.025V46.3857C148.025 45.8571 147.884 45.415 147.602 45.0596C147.319 44.7041 146.9 44.5264 146.344 44.5264Z" fill="#8A8F92"/>
<path d="M150.541 52.9756L151.655 52.7842V44.6631L150.541 44.4717V43.6035H152.811L152.934 44.5059C153.18 44.1686 153.478 43.9111 153.829 43.7334C154.185 43.5557 154.595 43.4668 155.06 43.4668C155.976 43.4668 156.687 43.8314 157.192 44.5605C157.703 45.2852 157.958 46.2445 157.958 47.4385V47.582C157.958 48.6484 157.703 49.5098 157.192 50.166C156.682 50.8177 155.978 51.1436 155.08 51.1436C154.624 51.1436 154.223 51.0684 153.877 50.918C153.535 50.763 153.243 50.5352 153.002 50.2344V52.7842L154.116 52.9756V53.8438H150.541V52.9756ZM156.604 47.4385C156.604 46.5954 156.44 45.9049 156.112 45.3672C155.784 44.8294 155.297 44.5605 154.649 44.5605C154.267 44.5605 153.938 44.6471 153.665 44.8203C153.392 44.9935 153.171 45.2305 153.002 45.5312V49.1338C153.171 49.4391 153.389 49.6761 153.658 49.8447C153.932 50.0088 154.267 50.0908 154.663 50.0908C155.301 50.0908 155.784 49.8584 156.112 49.3936C156.44 48.9287 156.604 48.3249 156.604 47.582V47.4385Z" fill="#8A8F92"/>
<path d="M85.9072 64.1387L87.4453 63.9473V56.4893L85.8799 56.5166V55.6758L88.792 55.0469V63.9473L90.3232 64.1387V65H85.9072V64.1387Z" fill="#8A8F92"/>
<path d="M97.0908 61.6504H98.4648V62.7031H97.0908V63.9473L98.2051 64.1387V65H94.6367V64.1387L95.751 63.9473V62.7031H91.2803V61.9443L95.6689 55.0469H97.0908V61.6504ZM92.7158 61.6504H95.751V56.9678L95.71 56.9541L95.5732 57.3164L92.7158 61.6504Z" fill="#8A8F92"/>
<path d="M102.881 64.1387L103.674 63.9814L105.854 61.2607L103.742 58.6289L102.949 58.4717V57.6035H105.848V58.4717L105.178 58.5537L106.559 60.3311L107.946 58.5469L107.283 58.4717V57.6035H110.202V58.4717L109.409 58.6289L107.297 61.2607L109.471 63.9814L110.271 64.1387V65H107.372V64.1387L108.028 64.0635L106.579 62.2041L105.13 64.0635L105.793 64.1387V65H102.881V64.1387Z" fill="#8A8F92"/>
<path d="M114.755 65V64.0771L118.016 60.4541C118.599 59.8024 118.993 59.2852 119.198 58.9023C119.408 58.5195 119.513 58.1276 119.513 57.7266C119.513 57.2298 119.367 56.8128 119.075 56.4756C118.784 56.1338 118.398 55.9629 117.92 55.9629C117.232 55.9629 116.726 56.1383 116.402 56.4893C116.079 56.8402 115.917 57.3369 115.917 57.9795H114.625L114.611 57.9385C114.589 57.0817 114.871 56.3617 115.459 55.7783C116.051 55.195 116.872 54.9033 117.92 54.9033C118.818 54.9033 119.531 55.1654 120.06 55.6895C120.593 56.209 120.859 56.8721 120.859 57.6787C120.859 58.221 120.698 58.7633 120.374 59.3057C120.055 59.848 119.604 60.4336 119.021 61.0625L116.402 63.9131L116.416 63.9473H119.95L120.06 62.8057H121.201V65H114.755Z" fill="#8A8F92"/>
<path d="M124.312 59.4014H125.487C126.084 59.4014 126.506 59.2533 126.752 58.957C127.003 58.6562 127.128 58.2393 127.128 57.7061C127.128 57.1364 126.987 56.7035 126.704 56.4072C126.422 56.111 126.005 55.9629 125.453 55.9629C124.929 55.9629 124.507 56.1178 124.188 56.4277C123.874 56.7331 123.717 57.141 123.717 57.6514H122.425L122.411 57.6104C122.388 56.8584 122.66 56.2204 123.225 55.6963C123.794 55.1676 124.537 54.9033 125.453 54.9033C126.374 54.9033 127.107 55.1494 127.654 55.6416C128.201 56.1292 128.475 56.8265 128.475 57.7334C128.475 58.1436 128.349 58.5537 128.099 58.9639C127.853 59.3695 127.481 59.6794 126.984 59.8936C127.581 60.0895 128.003 60.3971 128.249 60.8164C128.5 61.2357 128.625 61.7051 128.625 62.2246C128.625 63.1315 128.326 63.8447 127.729 64.3643C127.137 64.8838 126.378 65.1436 125.453 65.1436C124.542 65.1436 123.79 64.8997 123.197 64.4121C122.605 63.9199 122.32 63.2546 122.343 62.416L122.363 62.375H123.648C123.648 62.8991 123.808 63.3161 124.127 63.626C124.451 63.9359 124.893 64.0908 125.453 64.0908C126.023 64.0908 126.469 63.9359 126.793 63.626C127.117 63.3161 127.278 62.8581 127.278 62.252C127.278 61.6367 127.135 61.1833 126.848 60.8916C126.561 60.5999 126.107 60.4541 125.487 60.4541H124.312V59.4014Z" fill="#8A8F92"/>
<path d="M133.301 64.1387L134.094 63.9814L136.274 61.2607L134.162 58.6289L133.369 58.4717V57.6035H136.268V58.4717L135.598 58.5537L136.979 60.3311L138.366 58.5469L137.703 58.4717V57.6035H140.622V58.4717L139.829 58.6289L137.717 61.2607L139.891 63.9814L140.69 64.1387V65H137.792V64.1387L138.448 64.0635L136.999 62.2041L135.55 64.0635L136.213 64.1387V65H133.301V64.1387Z" fill="#8A8F92"/>
<path d="M145.339 64.1387L146.877 63.9473V56.4893L145.312 56.5166V55.6758L148.224 55.0469V63.9473L149.755 64.1387V65H145.339V64.1387Z" fill="#8A8F92"/>
<path d="M154.82 54.9033C155.158 54.9033 155.493 54.9421 155.825 55.0195C156.162 55.097 156.44 55.195 156.659 55.3135L156.399 56.3184C156.185 56.2135 155.951 56.1292 155.695 56.0654C155.44 55.9971 155.148 55.9629 154.82 55.9629C154.123 55.9629 153.567 56.2272 153.152 56.7559C152.742 57.2799 152.523 58.0729 152.496 59.1348L152.523 59.1621C152.779 58.9251 153.091 58.7383 153.46 58.6016C153.829 58.4603 154.228 58.3896 154.656 58.3896C155.545 58.3896 156.254 58.6973 156.782 59.3125C157.311 59.9277 157.575 60.707 157.575 61.6504C157.575 62.6803 157.293 63.5212 156.728 64.1729C156.167 64.82 155.417 65.1436 154.479 65.1436C153.508 65.1436 152.703 64.7904 152.065 64.084C151.427 63.3776 151.108 62.3773 151.108 61.083V59.7432C151.108 58.1663 151.455 56.9655 152.147 56.1406C152.84 55.3158 153.731 54.9033 154.82 54.9033ZM154.362 59.3945C153.902 59.3945 153.51 59.488 153.187 59.6748C152.863 59.8571 152.617 60.1032 152.448 60.4131V61.2129C152.448 62.138 152.64 62.849 153.022 63.3457C153.41 63.8424 153.895 64.0908 154.479 64.0908C155.03 64.0908 155.458 63.8584 155.764 63.3936C156.074 62.9242 156.229 62.3431 156.229 61.6504C156.229 60.9941 156.062 60.4541 155.729 60.0303C155.401 59.6064 154.946 59.3945 154.362 59.3945Z" fill="#8A8F92"/>
<path d="M165.519 64.0908C165.965 64.0908 166.357 63.9541 166.694 63.6807C167.036 63.4027 167.207 63.0632 167.207 62.6621H168.417L168.431 62.7031C168.453 63.3411 168.169 63.9085 167.576 64.4053C166.988 64.8975 166.302 65.1436 165.519 65.1436C164.443 65.1436 163.62 64.7926 163.051 64.0908C162.486 63.389 162.203 62.5072 162.203 61.4453V61.1582C162.203 60.1055 162.488 59.2282 163.058 58.5264C163.627 57.82 164.448 57.4668 165.519 57.4668C166.111 57.4668 166.642 57.5648 167.111 57.7607C167.585 57.9567 167.977 58.2256 168.287 58.5674L168.349 60.208H167.275L166.981 59.0459C166.822 58.891 166.617 58.7656 166.366 58.6699C166.116 58.5742 165.833 58.5264 165.519 58.5264C164.812 58.5264 164.306 58.7816 164.001 59.292C163.7 59.7979 163.55 60.4199 163.55 61.1582V61.4453C163.55 62.2018 163.7 62.833 164.001 63.3389C164.302 63.8402 164.808 64.0908 165.519 64.0908Z" fill="#8A8F92"/>
<path d="M175.055 63.2363H175.096L177.509 57.6035H179.197H180.312V58.4717L179.197 58.6631V63.9473L180.312 64.1387V65H176.736V64.1387L177.851 63.9473V59.8662L177.81 59.8525L175.54 65H174.61L172.3 59.7432L172.259 59.7568V63.9473L173.373 64.1387V65H169.798V64.1387L170.912 63.9473V58.6631L169.798 58.4717V57.6035H170.912H172.648L175.055 63.2363Z" fill="#8A8F92"/>
<path d="M218.644 42.1064C217.44 43.5374 216.627 44.8066 216.203 45.9141C215.784 47.0169 215.481 48.3545 215.294 49.9268L215.185 51H213.838L213.947 49.9268C214.139 48.359 214.51 46.9577 215.062 45.7227C215.613 44.4876 216.367 43.2822 217.324 42.1064H213.168L213.065 43.248H211.917V41.0469H218.644V42.1064Z" fill="#8A8F92"/>
<path d="M226.272 47.2061C226.272 48.4775 225.99 49.4528 225.425 50.1318C224.86 50.8063 224.087 51.1436 223.107 51.1436C222.132 51.1436 221.36 50.804 220.79 50.125C220.22 49.446 219.936 48.473 219.936 47.2061V44.8477C219.936 43.5807 220.218 42.6077 220.783 41.9287C221.348 41.2451 222.118 40.9033 223.094 40.9033C224.074 40.9033 224.848 41.2451 225.418 41.9287C225.988 42.6077 226.272 43.5807 226.272 44.8477V47.2061ZM224.926 44.5605C224.926 43.6992 224.769 43.0521 224.454 42.6191C224.144 42.1816 223.691 41.9629 223.094 41.9629C222.506 41.9629 222.057 42.1816 221.747 42.6191C221.437 43.0521 221.282 43.6992 221.282 44.5605V47.4795C221.282 48.3408 221.439 48.9925 221.754 49.4346C222.068 49.8721 222.52 50.0908 223.107 50.0908C223.704 50.0908 224.156 49.8721 224.461 49.4346C224.771 48.9971 224.926 48.3454 224.926 47.4795V44.5605Z" fill="#8A8F92"/>
<path d="M234.257 47.2061C234.257 48.4775 233.974 49.4528 233.409 50.1318C232.844 50.8063 232.072 51.1436 231.092 51.1436C230.117 51.1436 229.344 50.804 228.774 50.125C228.205 49.446 227.92 48.473 227.92 47.2061V44.8477C227.92 43.5807 228.202 42.6077 228.768 41.9287C229.333 41.2451 230.103 40.9033 231.078 40.9033C232.058 40.9033 232.833 41.2451 233.402 41.9287C233.972 42.6077 234.257 43.5807 234.257 44.8477V47.2061ZM232.91 44.5605C232.91 43.6992 232.753 43.0521 232.438 42.6191C232.129 42.1816 231.675 41.9629 231.078 41.9629C230.49 41.9629 230.041 42.1816 229.731 42.6191C229.422 43.0521 229.267 43.6992 229.267 44.5605V47.4795C229.267 48.3408 229.424 48.9925 229.738 49.4346C230.053 49.8721 230.504 50.0908 231.092 50.0908C231.689 50.0908 232.14 49.8721 232.445 49.4346C232.755 48.9971 232.91 48.3454 232.91 47.4795V44.5605Z" fill="#8A8F92"/>
<path d="M235.419 50.1387L236.533 49.9473V44.6631L235.419 44.4717V43.6035H237.743L237.832 44.5674C238.069 44.2165 238.374 43.9453 238.748 43.7539C239.122 43.5625 239.555 43.4668 240.047 43.4668C240.539 43.4668 240.961 43.5807 241.312 43.8086C241.667 44.0365 241.934 44.3783 242.111 44.834C242.344 44.4147 242.651 44.082 243.034 43.8359C243.417 43.5898 243.864 43.4668 244.374 43.4668C245.131 43.4668 245.728 43.7266 246.165 44.2461C246.603 44.7611 246.821 45.5381 246.821 46.5771V49.9473L247.936 50.1387V51H244.354V50.1387L245.468 49.9473V46.5635C245.468 45.8343 245.342 45.3193 245.092 45.0186C244.841 44.7132 244.47 44.5605 243.978 44.5605C243.508 44.5605 243.13 44.7269 242.843 45.0596C242.56 45.3877 242.396 45.8024 242.351 46.3037V49.9473L243.465 50.1387V51H239.89V50.1387L241.004 49.9473V46.5635C241.004 45.8708 240.874 45.3649 240.614 45.0459C240.359 44.7223 239.988 44.5605 239.5 44.5605C239.09 44.5605 238.753 44.6449 238.488 44.8135C238.224 44.9821 238.021 45.2191 237.88 45.5244V49.9473L238.994 50.1387V51H235.419V50.1387Z" fill="#8A8F92"/>
<path d="M248.688 50.1387L249.426 50.0361L252.905 41.0469H254.061L257.479 50.0361L258.21 50.1387V51H255.353V50.1387L256.104 50.0088L255.448 48.1768H251.463L250.786 50.0088L251.538 50.1387V51H248.688V50.1387ZM251.88 47.0488H255.038L253.493 42.7764H253.452L251.88 47.0488Z" fill="#8A8F92"/>
<path d="M258.989 50.1387L260.104 49.9473V41.3955L258.989 41.2041V40.3359H261.45V44.5879C261.705 44.2324 262.018 43.9567 262.387 43.7607C262.756 43.5648 263.166 43.4668 263.617 43.4668C264.41 43.4668 265.025 43.7038 265.463 44.1777C265.9 44.6517 266.119 45.3809 266.119 46.3652V49.9473L267.233 50.1387V51H263.658V50.1387L264.772 49.9473V46.3516C264.772 45.7409 264.64 45.2897 264.376 44.998C264.116 44.7064 263.727 44.5605 263.207 44.5605C262.838 44.5605 262.501 44.6494 262.195 44.8271C261.895 45.0003 261.646 45.2373 261.45 45.5381V49.9473L262.564 50.1387V51H258.989V50.1387Z" fill="#8A8F92"/>
<path d="M231.099 61.6504H232.473V62.7031H231.099V63.9473L232.213 64.1387V65H228.645V64.1387L229.759 63.9473V62.7031H225.288V61.9443L229.677 55.0469H231.099V61.6504ZM226.724 61.6504H229.759V56.9678L229.718 56.9541L229.581 57.3164L226.724 61.6504Z" fill="#8A8F92"/>
<path d="M235.316 65H233.97V63.6191H235.316V65Z" fill="#8A8F92"/>
<path d="M243.185 57.6445C243.185 58.1641 243.039 58.6198 242.747 59.0117C242.455 59.3991 242.061 59.6885 241.564 59.8799C242.139 60.0804 242.597 60.3949 242.938 60.8232C243.285 61.2516 243.458 61.7461 243.458 62.3066C243.458 63.2272 243.157 63.9313 242.556 64.4189C241.959 64.902 241.182 65.1436 240.225 65.1436C239.249 65.1436 238.465 64.902 237.873 64.4189C237.281 63.9313 236.984 63.2272 236.984 62.3066C236.984 61.7461 237.153 61.2516 237.49 60.8232C237.827 60.3949 238.283 60.0804 238.857 59.8799C238.361 59.6885 237.971 59.3991 237.688 59.0117C237.406 58.6198 237.265 58.1641 237.265 57.6445C237.265 56.7695 237.534 56.0951 238.071 55.6211C238.614 55.1426 239.327 54.9033 240.211 54.9033C241.086 54.9033 241.799 55.1426 242.351 55.6211C242.907 56.0951 243.185 56.7695 243.185 57.6445ZM242.118 62.2793C242.118 61.7324 241.938 61.2835 241.578 60.9326C241.218 60.5817 240.762 60.4062 240.211 60.4062C239.655 60.4062 239.201 60.5817 238.851 60.9326C238.504 61.279 238.331 61.7279 238.331 62.2793C238.331 62.8444 238.502 63.2887 238.844 63.6123C239.19 63.9313 239.65 64.0908 240.225 64.0908C240.785 64.0908 241.241 63.929 241.592 63.6055C241.943 63.2819 242.118 62.8398 242.118 62.2793ZM241.838 57.6719C241.838 57.1797 241.683 56.7718 241.373 56.4482C241.068 56.1247 240.68 55.9629 240.211 55.9629C239.732 55.9629 239.345 56.1201 239.049 56.4346C238.757 56.7445 238.611 57.1569 238.611 57.6719C238.611 58.1777 238.759 58.5833 239.056 58.8887C239.352 59.194 239.742 59.3467 240.225 59.3467C240.699 59.3467 241.086 59.194 241.387 58.8887C241.688 58.5833 241.838 58.1777 241.838 57.6719Z" fill="#8A8F92"/>
<path d="M247.56 55.915L246.65 56.0586L248.879 62.5254L249.104 63.3115H249.146L249.371 62.5254L251.593 56.0518L250.697 55.915V55.0469H253.835V55.915L253.035 56.0244L249.699 65H248.544L245.208 56.0244L244.415 55.915V55.0469H247.56V55.915Z" fill="#8A8F92"/>
<path d="M21 1C20.4477 1 20 1.44772 20 2V5.73333C20 6.28562 20.4477 6.73333 21 6.73333C21.5523 6.73333 22 6.28562 22 5.73333V3H24.4667C25.019 3 25.4667 2.55228 25.4667 2C25.4667 1.44772 25.019 1 24.4667 1H21Z" fill="#8A8F92"/>
<path d="M30.5333 1C29.981 1 29.5333 1.44772 29.5333 2C29.5333 2.55228 29.981 3 30.5333 3H37.4667C38.019 3 38.4667 2.55228 38.4667 2C38.4667 1.44772 38.019 1 37.4667 1H30.5333Z" fill="#8A8F92"/>
<path d="M43.5333 1C42.981 1 42.5333 1.44772 42.5333 2C42.5333 2.55228 42.981 3 43.5333 3H46V5.46667C46 6.01895 46.4477 6.46667 47 6.46667C47.5523 6.46667 48 6.01895 48 5.46667V2C48 1.44772 47.5523 1 47 1H43.5333Z" fill="#8A8F92"/>
<path d="M48 11.5333C48 10.981 47.5523 10.5333 47 10.5333C46.4477 10.5333 46 10.981 46 11.5333V18.4667C46 19.019 46.4477 19.4667 47 19.4667C47.5523 19.4667 48 19.019 48 18.4667V11.5333Z" fill="#8A8F92"/>
<path d="M22 12.2667C22 11.7144 21.5523 11.2667 21 11.2667C20.4477 11.2667 20 11.7144 20 12.2667V16C20 16.5523 20.4477 17 21 17C21.5523 17 22 16.5523 22 16V12.2667Z" fill="#8A8F92"/>
<path d="M48 24.5333C48 23.981 47.5523 23.5333 47 23.5333C46.4477 23.5333 46 23.981 46 24.5333V27H43.2667C42.7144 27 42.2667 27.4477 42.2667 28C42.2667 28.5523 42.7144 29 43.2667 29H47C47.5523 29 48 28.5523 48 28V24.5333Z" fill="#8A8F92"/>
<path d="M33 27C32.4477 27 32 27.4477 32 28C32 28.5523 32.4477 29 33 29H36.7333C37.2856 29 37.7333 28.5523 37.7333 28C37.7333 27.4477 37.2856 27 36.7333 27H33Z" fill="#8A8F92"/>
<path d="M43.7071 5.29302C44.0976 5.68354 44.0976 6.3167 43.7071 6.70723L34.4142 16.0001H37C37.5523 16.0001 38 16.4478 38 17.0001C38 17.5524 37.5523 18.0001 37 18.0001H32C31.4477 18.0001 31 17.5524 31 17.0001V12.0001C31 11.4478 31.4477 11.0001 32 11.0001C32.5523 11.0001 33 11.4478 33 12.0001V14.5859L42.2929 5.29302C42.6834 4.90249 43.3166 4.90249 43.7071 5.29302Z" fill="#8A8F92"/>
<path fill-rule="evenodd" clip-rule="evenodd" d="M14 20C14 19.4477 14.4477 19 15 19H29C29.5523 19 30 19.4477 30 20V34C30 34.5523 29.5523 35 29 35H15C14.4477 35 14 34.5523 14 34V20ZM16 21V33H28V21H16Z" fill="#8A8F92"/>
<path fill-rule="evenodd" clip-rule="evenodd" d="M128 3C128.288 3 128.563 3.12448 128.753 3.3415L132.253 7.3415C132.616 7.75713 132.574 8.38889 132.159 8.75258C131.743 9.11626 131.111 9.07414 130.747 8.6585L129 6.66145V19.1707C130.165 19.5826 131 20.6938 131 22C131 22.1436 130.99 22.2848 130.97 22.423L141.569 28.9454L141.019 26.1961C140.911 25.6546 141.262 25.1278 141.804 25.0194C142.345 24.9111 142.872 25.2623 142.981 25.8039L143.981 30.8039C144.089 31.3455 143.738 31.8723 143.196 31.9806L138.196 32.9806C137.655 33.0889 137.128 32.7377 137.019 32.1961C136.911 31.6546 137.262 31.1278 137.804 31.0194L140.309 30.5184L130.041 24.1992C129.505 24.6961 128.788 25 128 25C127.212 25 126.495 24.6961 125.959 24.1992L115.691 30.5184L118.196 31.0194C118.738 31.1278 119.089 31.6546 118.981 32.1961C118.872 32.7377 118.345 33.0889 117.804 32.9806L112.804 31.9806C112.262 31.8723 111.911 31.3455 112.019 30.8039L113.019 25.8039C113.128 25.2623 113.655 24.9111 114.196 25.0194C114.738 25.1278 115.089 25.6546 114.981 26.1961L114.431 28.9454L125.03 22.423C125.01 22.2848 125 22.1436 125 22C125 20.6938 125.835 19.5825 127 19.1707V6.66145L125.253 8.6585C124.889 9.07414 124.257 9.11626 123.842 8.75258C123.426 8.38889 123.384 7.75713 123.747 7.3415L127.247 3.3415C127.437 3.12448 127.712 3 128 3ZM127 22C127 21.4477 127.448 21 128 21C128.552 21 129 21.4477 129 22C129 22.5523 128.552 23 128 23C127.448 23 127 22.5523 127 22Z" fill="#8A8F92"/>
<path d="M223 10C221.895 10 221 10.8954 221 12V24C221 25.1046 221.895 26 223 26H226C227.105 26 228 25.1046 228 24V12C228 10.8954 227.105 10 226 10H223Z" fill="#8A8F92"/>
<path d="M230 12C230 10.8954 230.895 10 232 10H235C236.105 10 237 10.8954 237 12V24C237 25.1046 236.105 26 235 26H232C230.895 26 230 25.1046 230 24V12Z" fill="#8A8F92"/>
<path d="M241 10C239.895 10 239 10.8954 239 12V24C239 25.1046 239.895 26 241 26H244C245.105 26 246 25.1046 246 24V12C246 10.8954 245.105 10 244 10H241Z" fill="#8A8F92"/>
<path d="M248 12C248 10.8954 248.895 10 250 10H253C254.105 10 255 10.8954 255 12V24C255 25.1046 254.105 26 253 26H250C248.895 26 248 25.1046 248 24V12Z" fill="#8A8F92"/>
<path fill-rule="evenodd" clip-rule="evenodd" d="M222 6C219.239 6 217 8.23858 217 11V25C217 27.7614 219.239 30 222 30H254C256.761 30 259 27.7614 259 25V23H262C262.552 23 263 22.5523 263 22V14C263 13.4477 262.552 13 262 13H259V11C259 8.23858 256.761 6 254 6H222ZM219 11C219 9.34315 220.343 8 222 8H254C255.657 8 257 9.34315 257 11V25C257 26.6569 255.657 28 254 28H222C220.343 28 219 26.6569 219 25V11Z" fill="#8A8F92"/>
</svg>
