<svg width="100" height="64" viewBox="0 0 100 64" fill="none" xmlns="http://www.w3.org/2000/svg">
<g clip-path="url(#clip0)">
<path d="M15.5 47.5L0 62.9877V64H100V63L93.5 53L88 55L81.5 51L62 41L38 49.7284L15.5 47.5Z" fill="#34383A"/>
<path fill-rule="evenodd" clip-rule="evenodd" d="M83.3211 25.1996C83.5949 24.1895 83.5944 23.1256 83.3197 22.1168C83.1471 21.4782 82.8691 20.8728 82.4972 20.3253L80.5901 12.8646C79.4535 8.4183 74.9023 7.03094 71.2839 6.65006C68.9733 6.42112 66.6427 6.47756 64.345 6.81811C58.8621 3.01534 51.4188 1.00656 46.5296 2.10375C45.4059 2.35557 44.328 2.64037 43.2772 2.91803L43.2117 2.93476C42.7436 3.05881 42.2755 3.18265 41.8073 3.30235C41.2057 3.45612 40.5369 3.61179 39.8902 3.76182L39.8466 3.77297C36.6726 4.50953 32.8573 5.39521 29.5206 7.7242C26.7304 5.67156 23.5252 4.10339 19.805 2.9672C18.6486 1.60574 17.0628 0.675753 15.3061 0.328856C13.5495 -0.01804 11.7257 0.238621 10.132 1.05699C8.53839 1.87536 7.26893 3.20717 6.53064 4.83526C5.79235 6.46335 5.62878 8.29169 6.0666 10.0222C6.37199 11.2091 6.95055 12.3084 7.75648 13.233C8.56241 14.1576 9.57358 14.8821 10.7099 15.3492C11.8463 15.8163 13.0766 16.0132 14.3035 15.9241C15.5305 15.8351 16.7203 15.4627 17.7788 14.8364C19.5947 15.4851 21.2952 16.4174 22.8168 17.5983C22.7608 17.8253 22.7095 18.0534 22.6628 18.2826L15.3246 20.1584C12.2485 20.9458 9.60928 22.9166 7.98579 25.6384C6.36231 28.3601 5.8872 31.6106 6.6647 34.6767L7.4185 37.6255C7.88532 39.4324 8.85987 41.0681 10.2277 42.3406C9.9674 43.6041 9.8289 44.8894 9.81415 46.1788C9.80107 47.4871 10.2209 48.7624 11.0086 49.8075C11.7964 50.8527 12.9082 51.6093 14.172 51.9605C14.9434 54.1747 16.1688 56.204 17.7703 57.9193C19.3718 59.6347 21.3143 60.9986 23.4745 61.9245C25.6348 62.8504 27.9654 63.318 30.3184 63.2975C32.6715 63.2771 34.9954 62.7691 37.1426 61.8059C39.2898 60.8426 41.2133 59.4451 42.7909 57.7022C44.3685 55.9592 45.5657 53.909 46.3065 51.6817C47.0472 49.4543 47.3153 47.0987 47.0937 44.7643C46.8722 42.4299 46.1658 40.1678 45.0194 38.1219L53.3854 35.9833C53.3568 38.7113 53.9908 41.4045 55.2333 43.833C56.4759 46.2616 58.29 48.3534 60.5209 49.93C62.7519 51.5066 65.3334 52.5213 68.0452 52.8873C70.757 53.2533 73.5186 52.9598 76.0943 52.032C78.6701 51.1041 80.9835 49.5694 82.8372 47.5587C84.691 45.5481 86.0299 43.1212 86.7399 40.4852C87.4498 37.8492 87.5097 35.0823 86.9144 32.4206C86.3191 29.7589 85.0863 27.2814 83.3211 25.1996Z" fill="#34383A"/>
<path fill-rule="evenodd" clip-rule="evenodd" d="M80.1857 25.1769C80.5075 24.6207 80.644 23.9774 80.5755 23.3396C80.5071 22.7019 80.2372 22.1026 79.8048 21.6281L77.75 13.5899C77.1702 11.3216 74.8885 9.96246 70.9686 9.54981C68.5094 9.31308 66.0282 9.42998 63.601 9.89691C58.238 5.73999 51.0484 4.07716 47.1664 4.9484C46.0934 5.18886 45.0394 5.46757 44.0205 5.73682L43.9607 5.7521C43.4842 5.87855 43.0078 6.0045 42.531 6.12637C41.8851 6.29148 41.1948 6.45174 40.5104 6.61071C36.8205 7.4671 32.6804 8.42702 29.5312 11.4841C26.4279 8.74588 22.6358 6.7708 18.0257 5.48651C17.4915 4.59999 16.6929 3.9021 15.741 3.49007C14.7892 3.07803 13.7316 2.97237 12.7156 3.18779C11.6995 3.40321 10.7756 3.929 10.0725 4.6919C9.36941 5.45481 8.92217 6.41684 8.79308 7.44399C8.66399 8.47113 8.85948 9.51225 9.35232 10.4223C9.84516 11.3324 10.6108 12.066 11.5426 12.5211C12.4744 12.9762 13.5259 13.1301 14.5507 12.9612C15.5755 12.7924 16.5226 12.3093 17.2599 11.5792C20.934 12.7115 23.8179 14.3541 26.1683 16.6549C25.6887 17.929 25.3926 19.2641 25.2886 20.6204L16.0466 22.9829C13.723 23.5779 11.7294 25.0667 10.5032 27.1228C9.27689 29.1788 8.91806 31.6342 9.50537 33.9503L10.2592 36.8991C10.4903 37.7974 10.9015 38.6393 11.468 39.3744C12.0345 40.1094 12.7447 40.7223 13.5557 41.1761C13.0357 42.8033 12.7622 44.4983 12.7443 46.2051C12.7388 46.6616 12.8372 47.1133 13.0319 47.5263C13.2266 47.9392 13.5126 48.3027 13.8685 48.5896C14.2244 48.8764 14.641 49.0792 15.087 49.1826C15.5331 49.286 15.997 49.2874 16.444 49.1868C16.4893 49.4086 16.5395 49.6304 16.5962 49.8521C17.1519 52.0455 18.2335 54.0708 19.7482 55.7542C21.2628 57.4377 23.1653 58.729 25.2924 59.5175C27.4195 60.3059 29.7077 60.5679 31.9607 60.281C34.2138 59.9941 36.3643 59.1668 38.2279 57.8702C40.0914 56.5735 41.6124 54.8462 42.6602 52.8365C43.7081 50.8267 44.2515 48.5944 44.244 46.3312C44.2364 44.068 43.678 41.8415 42.6168 39.8425C41.5556 37.8436 40.0231 36.132 38.151 34.8546C38.2888 34.6648 38.404 34.4598 38.4944 34.2437C38.5764 34.0457 38.6375 33.8397 38.6764 33.6291C38.7394 33.6028 38.8028 33.5778 38.8659 33.5519C38.8666 33.5545 38.8672 33.5572 38.8679 33.5598C39.0681 34.338 39.5701 35.0046 40.2636 35.4134C40.9572 35.8223 41.7857 35.9398 42.5672 35.7403L53.2793 33.0021C53.9965 32.8186 54.622 32.38 55.0378 31.7689C55.4647 32.2971 56.06 32.6638 56.7252 32.8085C56.1304 35.2117 56.1854 37.728 56.8845 40.1008C57.5836 42.4736 58.9019 44.618 60.7049 46.3155C62.508 48.013 64.7313 49.2027 67.1482 49.7634C69.565 50.3242 72.0891 50.2359 74.4629 49.5075C76.8368 48.7791 78.9755 47.4368 80.6611 45.6172C82.3467 43.7977 83.5189 41.5662 84.0581 39.15C84.5973 36.7339 84.4843 34.2196 83.7306 31.8636C82.9769 29.5075 81.6094 27.394 79.7676 25.7384C79.9282 25.5678 80.0684 25.3794 80.1857 25.1769Z" fill="#7CF432"/>
<path fill-rule="evenodd" clip-rule="evenodd" d="M77.1557 24.3522C75.5364 23.4271 73.7432 22.8438 71.8871 22.6383C70.0311 22.4329 68.1518 22.6097 66.3657 23.1579C64.5797 23.7061 62.925 24.6139 61.5043 25.825C60.0835 27.0361 58.927 28.5248 58.1065 30.1986C58.0149 30.3862 57.8524 30.5299 57.6547 30.5982C57.4571 30.6665 57.2404 30.6537 57.0524 30.5628C56.8644 30.4719 56.7206 30.3102 56.6524 30.1133C56.5842 29.9164 56.5974 29.7004 56.689 29.5129C57.2022 28.4684 57.8337 27.4858 58.5713 26.5843C50.7551 27.1705 43.1016 29.1269 35.963 32.3635L35.9808 32.3706C36.0765 32.4097 36.1635 32.4673 36.2368 32.54C36.3101 32.6127 36.3683 32.6991 36.408 32.7943C36.4478 32.8894 36.4683 32.9915 36.4685 33.0947C36.4686 33.1978 36.4484 33.3001 36.4089 33.3955C36.3695 33.4909 36.3115 33.5777 36.2385 33.6509C36.1654 33.7241 36.0786 33.7822 35.983 33.822C35.8874 33.8618 35.785 33.8825 35.6815 33.8828C35.578 33.8832 35.4755 33.8632 35.3798 33.824C33.3241 32.9882 31.0937 32.6661 28.8826 32.8856C26.6715 33.1051 24.5468 33.8597 22.6932 35.0836C20.8396 36.3075 19.3133 37.9637 18.247 39.9082C17.1808 41.8526 16.6069 44.0264 16.5754 46.2404C16.5743 46.3437 16.5528 46.4457 16.5122 46.5408C16.4715 46.6358 16.4125 46.722 16.3385 46.7944C16.2645 46.8667 16.1769 46.9239 16.0808 46.9626C15.9847 47.0013 15.8819 47.0208 15.7783 47.0199C15.6747 47.019 15.5723 46.9978 15.477 46.9574C15.3818 46.9171 15.2954 46.8584 15.2229 46.7848C15.1504 46.7112 15.0932 46.624 15.0546 46.5283C15.0159 46.4325 14.9966 46.3301 14.9977 46.2269C15.0245 43.999 15.5477 41.804 16.5297 39.8007C15.5728 39.7155 14.6664 39.3372 13.9347 38.7178C13.2031 38.0983 12.6821 37.2681 12.4432 36.341L11.6893 33.392C11.2482 31.6526 11.5177 29.8086 12.4387 28.2645C13.3597 26.7205 14.857 25.6025 16.6021 25.1559L27.5177 22.3655C27.4024 20.2284 27.8556 18.0979 28.8314 16.1895C25.7202 12.6775 21.7153 10.369 16.3193 8.98241C16.0956 9.59561 15.6587 10.1089 15.0881 10.4289C14.5174 10.7489 13.8509 10.8544 13.2096 10.7263C12.5683 10.5982 11.9948 10.2449 11.5934 9.73071C11.1921 9.21648 10.9894 8.57545 11.0222 7.92413C11.0551 7.2728 11.3213 6.65442 11.7726 6.18139C12.2238 5.70835 12.83 5.41206 13.4811 5.34637C14.1321 5.28068 14.7848 5.44994 15.3205 5.82341C15.8561 6.19687 16.2392 6.74973 16.4001 7.38151C16.4001 7.38151 16.4001 7.38151 16.4004 7.38281C22.0073 8.77796 26.3686 11.2029 29.6823 14.7777C29.9033 14.46 30.1371 14.1488 30.3907 13.8505C33.134 10.6272 37.1396 9.69749 41.0166 8.79743C41.7017 8.63829 42.4103 8.47405 43.0858 8.30137C43.5692 8.17782 44.0519 8.05025 44.535 7.92213C45.5526 7.65273 46.6055 7.37408 47.656 7.13844C51.2252 6.33766 58.3131 8.27103 63.0048 12.3168C65.5329 11.7222 68.1405 11.5418 70.7253 11.7825C72.7102 11.9916 75.161 12.5706 75.5647 14.1498L77.8057 22.9167C77.8515 22.9421 77.8981 22.9652 77.9435 22.991C78.1176 23.0982 78.2429 23.2688 78.2928 23.4667C78.3427 23.6645 78.3133 23.8741 78.2109 24.051C78.1085 24.228 77.9411 24.3583 77.7441 24.4146C77.5471 24.4708 77.3361 24.4484 77.1557 24.3522ZM13.4593 6.93973C13.2372 6.99686 13.037 7.11831 12.8839 7.2887C12.7308 7.4591 12.6318 7.6708 12.5993 7.89705C12.5668 8.12331 12.6023 8.35396 12.7014 8.55987C12.8004 8.76577 12.9585 8.93768 13.1557 9.05387C13.3529 9.17006 13.5804 9.22532 13.8093 9.21267C14.0382 9.20001 14.2584 9.12001 14.442 8.98277C14.6255 8.84552 14.7642 8.6572 14.8406 8.4416C14.9169 8.22601 14.9275 7.99281 14.8709 7.77147C14.7944 7.4746 14.6028 7.22031 14.3382 7.06438C14.0736 6.90845 13.7575 6.86362 13.4593 6.93973ZM74.0364 14.5396C73.8042 13.6314 68.6757 12.4764 62.9816 13.9319L62.9783 13.9328C62.9316 13.9442 62.884 13.9514 62.836 13.9543C62.8118 13.9559 62.7893 13.9535 62.7641 13.9533C62.7331 13.9535 62.7022 13.952 62.6714 13.9487C62.6472 13.945 62.6239 13.9377 62.5998 13.9314C62.5756 13.925 62.5477 13.9215 62.5223 13.912C62.4973 13.902 62.4729 13.8906 62.4492 13.8779C62.4208 13.8654 62.3933 13.8511 62.3669 13.8351C62.3287 13.8117 62.2926 13.7852 62.2589 13.7557L62.2559 13.7537C57.7078 9.64244 50.888 8.02195 47.9992 8.66939C46.9782 8.89842 45.9402 9.17258 44.9371 9.43873C44.4496 9.56796 43.9625 9.69665 43.4749 9.82131C42.7823 9.99835 42.0649 10.1648 41.3721 10.3255C37.7482 11.1671 33.999 12.0368 31.5951 14.8626C31.1821 15.3477 30.8141 15.869 30.4955 16.4201C30.4893 16.4331 30.4819 16.4453 30.4752 16.458C29.1126 18.8329 28.7274 21.6406 29.4005 24.2893C29.4521 24.4913 29.4211 24.7057 29.3142 24.8852C29.2074 25.0647 29.0334 25.1946 28.8306 25.2464C28.6279 25.2983 28.4129 25.2677 28.233 25.1616C28.0531 25.0554 27.923 24.8822 27.8714 24.6802C27.8084 24.4337 27.7563 24.1856 27.7095 23.937L16.9909 26.677C15.6512 27.0202 14.5017 27.8786 13.7946 29.0642C13.0875 30.2497 12.8806 31.6654 13.2191 33.0009L13.973 35.95C14.1629 36.6881 14.6217 37.329 15.2601 37.7479C15.8985 38.1668 16.6708 38.3338 17.4269 38.2164C19.1363 35.5728 21.6263 33.5219 24.5529 32.3472C27.4795 31.1726 30.6983 30.932 33.7644 31.6589C42.0228 27.6662 51.0006 25.3712 60.162 24.9109C62.2673 23.0147 64.8608 21.7408 67.6506 21.2325C70.4403 20.7243 73.3156 21.0019 75.9529 22.0341L74.0371 14.5394L74.0364 14.5396ZM58.7721 15.9964L42.2468 20.2207C42.0442 20.2725 41.8295 20.242 41.6498 20.1359C41.4701 20.0298 41.3402 19.8569 41.2886 19.6551L39.61 13.0884C39.5584 12.8866 39.5894 12.6726 39.6961 12.4933C39.8029 12.314 39.9766 12.1842 40.1792 12.1324C40.4788 12.0558 40.9843 11.9247 41.5902 11.7678C43.3193 11.3198 45.9317 10.6427 46.8128 10.4401C49.5417 9.81459 56.4896 11.1759 59.208 14.7616C59.2861 14.8649 59.3374 14.9859 59.3573 15.1138C59.3772 15.2417 59.365 15.3726 59.3219 15.4948C59.2787 15.617 59.206 15.7268 59.11 15.8143C59.0141 15.9018 58.898 15.9643 58.7721 15.9964ZM47.1633 11.9704C46.3037 12.167 43.7043 12.8414 41.984 13.2874L41.3324 13.4563L42.6228 18.5043L57.0894 14.8062C54.3791 12.4582 49.1805 11.5082 47.1634 11.9706L47.1633 11.9704ZM45.1586 21.0802L51.6976 19.4087C51.9001 19.3569 52.1148 19.3874 52.2945 19.4935C52.4742 19.5995 52.6042 19.7725 52.6557 19.9742C52.7073 20.176 52.6763 20.3901 52.5696 20.5694C52.4628 20.7487 52.2891 20.8785 52.0865 20.9303L45.5475 22.6018C45.4466 22.6294 45.3412 22.6367 45.2375 22.6234C45.1338 22.61 45.0338 22.5761 44.9434 22.5238C44.853 22.4715 44.774 22.4017 44.711 22.3186C44.648 22.2355 44.6023 22.1406 44.5765 22.0396C44.5507 21.9387 44.5453 21.8335 44.5607 21.7304C44.576 21.6272 44.6119 21.5281 44.6661 21.4388C44.7202 21.3495 44.7917 21.2719 44.8763 21.2103C44.9608 21.1488 45.0568 21.1046 45.1586 21.0804L45.1586 21.0802ZM27.2953 35.0178C29.5503 34.4452 31.9238 34.5512 34.1158 35.3227C36.3079 36.0941 38.2201 37.4963 39.6108 39.352C41.0015 41.2077 41.8083 43.4336 41.9293 45.7485C42.0502 48.0634 41.4799 50.3633 40.2903 52.3577C39.1008 54.352 37.3454 55.9512 35.246 56.9532C33.1467 57.9551 30.7975 58.3149 28.4955 57.9871C26.1935 57.6592 24.0418 56.6584 22.3126 55.1111C20.5833 53.5638 19.354 51.5395 18.78 49.294C18.0154 46.2791 18.4826 43.0828 20.079 40.4064C21.6754 37.7301 24.2706 35.7921 27.2953 35.0178ZM32.7129 56.2113C34.6644 55.7092 36.4238 54.6421 37.7687 53.1448C39.1137 51.6476 39.9839 49.7874 40.2693 47.7993C40.5547 45.8112 40.2426 43.7845 39.3724 41.9753C38.5021 40.1661 37.1128 38.6556 35.38 37.6346C33.6472 36.6137 31.6487 36.1282 29.6371 36.2394C27.6254 36.3507 25.6909 37.0537 24.078 38.2597C22.4652 39.4656 21.2463 41.1204 20.5754 43.0148C19.9046 44.9093 19.8119 46.9583 20.3091 48.9031C20.9813 51.5118 22.6647 53.7463 24.9901 55.1164C27.3155 56.4865 30.0929 56.8803 32.713 56.2115L32.7129 56.2113ZM28.4685 39.6074C29.8122 39.2661 31.2265 39.3293 32.5327 39.789C33.8389 40.2487 34.9783 41.0842 35.807 42.19C36.6357 43.2957 37.1165 44.6221 37.1885 46.0015C37.2606 47.3808 36.9208 48.7513 36.212 49.9397C35.5032 51.1281 34.4572 52.081 33.2063 52.6781C31.9553 53.2751 30.5555 53.4896 29.1838 53.2942C27.8121 53.0989 26.53 52.5026 25.4995 51.5806C24.4691 50.6587 23.7365 49.4525 23.3945 48.1144C22.9389 46.3179 23.2173 44.4133 24.1685 42.8185C25.1198 41.2237 26.6662 40.069 28.4686 39.6076L28.4685 39.6074ZM31.5397 51.6215C32.5806 51.3537 33.519 50.7845 34.2364 49.9859C34.9538 49.1873 35.4179 48.195 35.5702 47.1346C35.7224 46.0742 35.5559 44.9932 35.0917 44.0282C34.6275 43.0631 33.8864 42.2574 32.9622 41.7129C32.0379 41.1684 30.9719 40.9094 29.8989 40.9687C28.8259 41.0281 27.7941 41.4031 26.9338 42.0464C26.0735 42.6896 25.4234 43.5723 25.0656 44.5828C24.7078 45.5932 24.6584 46.6862 24.9236 47.7235C25.282 49.1151 26.1799 50.3072 27.4203 51.0381C28.6607 51.7691 30.1422 51.9792 31.5399 51.6224L31.5397 51.6215ZM29.6042 44.0499C30.066 43.9325 30.5521 43.954 31.0011 44.1119C31.45 44.2698 31.8418 44.5568 32.1267 44.9368C32.4116 45.3168 32.577 45.7726 32.6018 46.2467C32.6267 46.7208 32.51 47.1919 32.2665 47.6004C32.0229 48.0088 31.6634 48.3364 31.2335 48.5417C30.8036 48.747 30.3225 48.8207 29.851 48.7536C29.3795 48.6865 28.9389 48.4815 28.5847 48.1647C28.2305 47.8478 27.9787 47.4332 27.8612 46.9733C27.7831 46.6677 27.7662 46.3495 27.8115 46.0372C27.8569 45.7248 27.9636 45.4242 28.1254 45.1528C28.2873 44.8813 28.5013 44.6442 28.755 44.455C29.0087 44.2658 29.2973 44.1282 29.6042 44.0501L29.6042 44.0499ZM41.6207 32.0457L52.3329 29.3074C52.5355 29.2556 52.7502 29.2861 52.9299 29.3922C53.1096 29.4982 53.2395 29.6712 53.2911 29.873C53.3427 30.0747 53.3117 30.2888 53.205 30.4681C53.0982 30.6474 52.9244 30.7772 52.7219 30.829L42.0096 33.5673C41.9087 33.5949 41.8033 33.6023 41.6996 33.5889C41.5959 33.5755 41.4959 33.5416 41.4055 33.4893C41.3151 33.437 41.2361 33.3672 41.1731 33.2841C41.1101 33.201 41.0644 33.1061 41.0386 33.0052C41.0128 32.9042 41.0074 32.799 41.0228 32.6959C41.0381 32.5927 41.074 32.4936 41.1282 32.4043C41.1824 32.315 41.2538 32.2374 41.3384 32.1758C41.423 32.1143 41.5189 32.0702 41.6207 32.046L41.6207 32.0457ZM67.445 24.7542C69.7 24.1816 72.0735 24.2877 74.2655 25.0591C76.4575 25.8305 78.3697 27.2327 79.7605 29.0884C81.1512 30.944 81.958 33.17 82.079 35.4849C82.1999 37.7997 81.6296 40.0997 80.4401 42.094C79.2506 44.0883 77.4952 45.6875 75.3959 46.6895C73.2965 47.6915 70.9474 48.0513 68.6453 47.7235C66.3433 47.3957 64.1917 46.3949 62.4624 44.8476C60.7331 43.3004 59.5038 41.2761 58.9297 39.0307C58.1652 36.0157 58.6324 32.8195 60.2288 30.1431C61.8252 27.4667 64.4204 25.5288 67.4451 24.7545L67.445 24.7542ZM72.8626 45.9477C74.8141 45.4456 76.5734 44.3785 77.9184 42.8813C79.2634 41.384 80.1335 39.5238 80.419 37.5358C80.7044 35.5477 80.3923 33.521 79.5221 31.7118C78.6518 29.9026 77.2626 28.3921 75.5298 27.3711C73.797 26.3502 71.7985 25.8646 69.7869 25.9758C67.7753 26.0871 65.8408 26.7901 64.2279 27.996C62.615 29.2019 61.3961 30.8566 60.7252 32.751C60.0543 34.6455 59.9616 36.6945 60.4587 38.6393C61.1308 41.2481 62.8142 43.4827 65.1396 44.8529C67.465 46.2231 70.2426 46.617 72.8627 45.9481L72.8626 45.9477ZM68.6182 29.3438C69.9619 29.0025 71.3762 29.0657 72.6824 29.5254C73.9886 29.9851 75.128 30.8206 75.9567 31.9264C76.7854 33.0322 77.2662 34.3586 77.3382 35.738C77.4103 37.1174 77.0705 38.4878 76.3616 39.6762C75.6528 40.8646 74.6068 41.8175 73.3558 42.4145C72.1049 43.0116 70.7051 43.226 69.3333 43.0306C67.9616 42.8353 66.6795 42.2389 65.6491 41.3169C64.6187 40.3949 63.8861 39.1887 63.5441 37.8506C63.089 36.0542 63.3677 34.1499 64.3189 32.5553C65.2701 30.9606 66.8162 29.8059 68.6183 29.3442L68.6182 29.3438ZM71.6894 41.3579C72.7303 41.0901 73.6687 40.5209 74.3861 39.7223C75.1035 38.9237 75.5676 37.9315 75.7198 36.8711C75.8721 35.8107 75.7056 34.7297 75.2414 33.7646C74.7772 32.7996 74.0362 31.9939 73.112 31.4494C72.1877 30.9048 71.1218 30.6458 70.0488 30.7052C68.9758 30.7645 67.9439 31.1395 67.0836 31.7827C66.2233 32.4259 65.5732 33.3085 65.2153 34.319C64.8575 35.3295 64.8081 36.4224 65.0732 37.4597C65.4316 38.8514 66.3294 40.0435 67.5699 40.7746C68.8103 41.5056 70.2919 41.7158 71.6896 41.359L71.6894 41.3579ZM69.7539 33.7863C70.2157 33.6688 70.7018 33.6904 71.1508 33.8482C71.5998 34.006 71.9915 34.2931 72.2765 34.673C72.5615 35.053 72.7268 35.5088 72.7517 35.9829C72.7767 36.457 72.66 36.9281 72.4164 37.3366C72.1729 37.7451 71.8134 38.0727 71.3835 38.278C70.9536 38.4833 70.4724 38.5571 70.001 38.49C69.5295 38.4229 69.0888 38.2179 68.7346 37.901C68.3804 37.5842 68.1286 37.1696 68.0111 36.7097C67.933 36.404 67.9162 36.086 67.9615 35.7736C68.0069 35.4613 68.1135 35.1608 68.2754 34.8893C68.4373 34.6179 68.6512 34.3808 68.9049 34.1916C69.1586 34.0024 69.4471 33.8649 69.754 33.7868L69.7539 33.7863Z" fill="#34383A"/>
</g>
<defs>
<clipPath id="clip0">
</clipPath>
</defs>
</svg>
