<svg xmlns="http://www.w3.org/2000/svg" width="100" height="65" viewBox="0 0 100 65">
  <metadata><?xpacket begin="﻿" id="W5M0MpCehiHzreSzNTczkc9d"?>
<x:xmpmeta xmlns:x="adobe:ns:meta/" x:xmptk="Adobe XMP Core 5.6-c142 79.160924, 2017/07/13-01:06:39        ">
   <rdf:RDF xmlns:rdf="http://www.w3.org/1999/02/22-rdf-syntax-ns#">
      <rdf:Description rdf:about=""/>
   </rdf:RDF>
</x:xmpmeta>
                                                                                                    
                                                                                                    
                                                                                                    
                                                                                                    
                                                                                                    
                                                                                                    
                                                                                                    
                                                                                                    
                                                                                                    
                                                                                                    
                                                                                                    
                                                                                                    
                                                                                                    
                                                                                                    
                                                                                                    
                                                                                                    
                                                                                                    
                                                                                                    
                                                                                                    
                                                                                                    
                           
<?xpacket end="w"?></metadata>
<defs>
    <style>
      .cls-1 {
        fill: #34383a;
      }

      .cls-1, .cls-2 {
        fill-rule: evenodd;
      }

      .cls-2 {
        fill: #7cf432;
      }
    </style>
  </defs>
  <path class="cls-1" d="M0,65V63.988l12.22-13a5.825,5.825,0,0,1-2.406-4.809,20.154,20.154,0,0,1,.414-3.837,9.779,9.779,0,0,1-2.809-4.714L6.665,34.685a11.964,11.964,0,0,1,8.66-14.514L22.663,18.3q0.07-.344.154-0.684a18.21,18.21,0,0,0-5.038-2.761,7.934,7.934,0,0,1-10.022-1.6A7.876,7.876,0,0,1,10.132,1.075a7.938,7.938,0,0,1,9.673,1.91A31.868,31.868,0,0,1,29.521,7.74c3.337-2.328,7.152-3.214,10.326-3.95l0.044-.011c0.647-.15,1.316-0.306,1.917-0.459,0.468-.12.936-0.244,1.4-0.367l0.066-.017c1.051-.278,2.129-0.562,3.252-0.814,4.889-1.1,12.332.911,17.815,4.713a28.305,28.305,0,0,1,6.939-.168c3.618,0.381,8.17,1.768,9.306,6.213L82.5,20.338a5.949,5.949,0,0,1,.822,1.791,5.875,5.875,0,0,1,0,3.082,16.876,16.876,0,0,1-3.5,24.932L81.5,51,88,55l5.5-2L100,64v1H0ZM45.019,38.129a16.835,16.835,0,0,1,2.074,6.641c0.052,0.543.071,1.088,0.07,1.631l7.93-2.883a16.824,16.824,0,0,1-1.708-7.527Z"/>
  <path id="Shape_1_copy" data-name="Shape 1 copy" class="cls-2" d="M80.186,25.188A3.019,3.019,0,0,0,79.8,21.64L77.75,13.6c-0.58-2.268-2.862-3.626-6.781-4.039a25.886,25.886,0,0,0-7.368.347C58.238,5.756,51.048,4.094,47.166,4.965c-1.073.24-2.127,0.519-3.146,0.788l-0.06.015c-0.477.126-.953,0.252-1.43,0.374-0.646.165-1.336,0.325-2.021,0.484-3.69.856-7.83,1.816-10.979,4.872a28.594,28.594,0,0,0-11.505-6,4.981,4.981,0,1,0-.766,6.091,21.254,21.254,0,0,1,8.908,5.074,14.368,14.368,0,0,0-.88,3.964l-9.242,2.362A9.038,9.038,0,0,0,9.505,33.959l0.754,2.948a6.858,6.858,0,0,0,3.3,4.276,17.1,17.1,0,0,0-.811,5.028,3.022,3.022,0,0,0,2.343,2.977,3.047,3.047,0,0,0,1.357,0c0.045,0.222.1,0.444,0.152,0.665A14.016,14.016,0,0,0,31.961,60.282,14.026,14.026,0,0,0,44.244,46.336a13.944,13.944,0,0,0-6.093-11.473,3.029,3.029,0,0,0,.343-0.611,3.065,3.065,0,0,0,.182-0.614l0.19-.077,0,0.008a3.039,3.039,0,0,0,3.7,2.18l10.712-2.737a3.037,3.037,0,0,0,1.758-1.233,2.985,2.985,0,0,0,1.687,1.039,13.965,13.965,0,0,0,10.423,16.95,14.06,14.06,0,0,0,16.91-10.61,13.936,13.936,0,0,0-4.29-13.408A3.046,3.046,0,0,0,80.186,25.188Z"/>
  <path id="Shape_1_copy_2" data-name="Shape 1 copy 2" class="cls-1" d="M77.156,24.363a13.673,13.673,0,0,0-19.049,5.845,0.787,0.787,0,1,1-1.417-.686,15.227,15.227,0,0,1,1.882-2.928,66.877,66.877,0,0,0-22.608,5.778l0.018,0.007a0.786,0.786,0,0,1-.6,1.453,13.644,13.644,0,0,0-18.8,12.413A0.789,0.789,0,1,1,15,46.232a15,15,0,0,1,1.532-6.424,4.639,4.639,0,0,1-4.086-3.459L11.689,33.4A6.786,6.786,0,0,1,16.6,25.167l10.916-2.79A12.124,12.124,0,0,1,28.831,16.2C25.72,12.692,21.715,10.384,16.319,9A2.713,2.713,0,1,1,16.4,7.4h0a26.024,26.024,0,0,1,13.282,7.393c0.221-.318.455-0.629,0.708-0.927,2.743-3.222,6.749-4.152,10.626-5.052,0.685-.159,1.394-0.323,2.069-0.5,0.483-.124.966-0.251,1.449-0.379,1.018-.269,2.071-0.548,3.121-0.783,3.569-.8,10.657,1.132,15.349,5.177a24.008,24.008,0,0,1,7.721-.534c1.985,0.209,4.436.788,4.839,2.367l2.241,8.765c0.046,0.025.092,0.049,0.138,0.074a0.787,0.787,0,0,1-.788,1.361h0ZM13.459,6.956a1.16,1.16,0,0,0-.86.957,1.152,1.152,0,0,0,.556,1.157,1.157,1.157,0,1,0,.3-2.114h0Zm60.577,7.6c-0.232-.908-5.361-2.063-11.055-0.608h0a0.814,0.814,0,0,1-.142.022c-0.024,0-.047,0-0.072,0a0.82,0.82,0,0,1-.093,0,0.71,0.71,0,0,1-.072-0.017,0.784,0.784,0,0,1-.078-0.019,0.724,0.724,0,0,1-.073-0.034,0.712,0.712,0,0,1-.082-0.043,0.792,0.792,0,0,1-.108-0.079l0,0C57.708,9.658,50.888,8.038,48,8.685c-1.021.229-2.059,0.5-3.062,0.769-0.488.129-.975,0.258-1.462,0.382-0.693.177-1.41,0.343-2.1,0.5-3.624.841-7.373,1.711-9.777,4.536a10.532,10.532,0,0,0-1.1,1.557c-0.006.013-.014,0.025-0.02,0.038A10.52,10.52,0,0,0,29.4,24.3a0.789,0.789,0,0,1-1.529.391c-0.063-.246-0.115-0.494-0.162-0.743L16.991,26.688a5.212,5.212,0,0,0-3.772,6.322l0.754,2.948a3.075,3.075,0,0,0,3.454,2.266,15.271,15.271,0,0,1,16.338-6.556,68.57,68.57,0,0,1,26.4-6.746,15.287,15.287,0,0,1,15.791-2.876l-1.916-7.493h0ZM58.772,16.01L42.247,20.233a0.787,0.787,0,0,1-.958-0.565L39.61,13.1a0.786,0.786,0,0,1,.569-0.956l1.411-.364c1.729-.448,4.341-1.125,5.223-1.327,2.729-.625,9.677.736,12.4,4.32a0.784,0.784,0,0,1-.1,1.052,0.791,0.791,0,0,1-.338.182h0ZM47.163,11.985c-0.86.2-3.459,0.871-5.179,1.317l-0.652.169,1.29,5.047,14.467-3.7c-2.71-2.347-7.909-3.3-9.926-2.835h0Zm-2,9.107L51.7,19.421a0.785,0.785,0,1,1,.389,1.521l-6.539,1.671a0.789,0.789,0,0,1-.6-0.078,0.785,0.785,0,0,1,.215-1.443h0ZM27.3,35.026a11.77,11.77,0,0,1,12.315,4.333,11.72,11.72,0,0,1-4.365,17.6,11.79,11.79,0,0,1-12.933-1.842,11.665,11.665,0,0,1-2.234-14.7A11.813,11.813,0,0,1,27.3,35.026h0Zm5.418,21.188a10.19,10.19,0,0,0,7.556-8.41A10.153,10.153,0,0,0,29.637,36.247a10.209,10.209,0,0,0-9.062,6.774,10.1,10.1,0,0,0,4.415,12.1,10.234,10.234,0,0,0,7.723,1.095h0Zm-4.244-16.6A7.013,7.013,0,0,1,35.807,42.2a6.984,6.984,0,0,1-2.6,10.485,7.026,7.026,0,0,1-7.707-1.1,6.951,6.951,0,0,1-1.331-8.76,7.039,7.039,0,0,1,4.3-3.21h0ZM31.54,51.625A5.435,5.435,0,0,0,35.57,47.14,5.416,5.416,0,0,0,29.9,40.975a5.445,5.445,0,0,0-4.833,3.613,5.39,5.39,0,0,0,2.355,6.453,5.458,5.458,0,0,0,4.12.584h0ZM29.6,44.056a2.41,2.41,0,0,1,2.523.887,2.4,2.4,0,0,1-.893,3.6,2.415,2.415,0,0,1-2.649-.377,2.4,2.4,0,0,1,.17-3.709,2.42,2.42,0,0,1,.849-0.4h0Zm12.017-12,10.712-2.738a0.785,0.785,0,1,1,.389,1.521L42.01,33.576a0.788,0.788,0,0,1-.837-0.283,0.785,0.785,0,0,1,.165-1.108,0.791,0.791,0,0,1,.282-0.13h0Zm25.824-7.289A11.77,11.77,0,0,1,79.761,29.1a11.72,11.72,0,0,1-4.365,17.6,11.79,11.79,0,0,1-12.933-1.841,11.664,11.664,0,0,1-2.234-14.7,11.812,11.812,0,0,1,7.216-5.387h0Zm5.418,21.188a10.19,10.19,0,0,0,7.556-8.41A10.153,10.153,0,0,0,69.787,25.987a10.209,10.209,0,0,0-9.062,6.773,10.1,10.1,0,0,0,4.414,12.1,10.233,10.233,0,0,0,7.723,1.095h0Zm-4.244-16.6a7.013,7.013,0,0,1,7.338,2.582,6.984,6.984,0,0,1-2.6,10.485,7.025,7.025,0,0,1-7.707-1.1,6.949,6.949,0,0,1-1.33-8.759,7.04,7.04,0,0,1,4.3-3.21h0Zm3.071,12.011a5.435,5.435,0,0,0,4.03-4.486,5.415,5.415,0,0,0-5.671-6.164,5.445,5.445,0,0,0-4.834,3.613,5.391,5.391,0,0,0,2.355,6.454,5.458,5.458,0,0,0,4.12.584h0Zm-1.936-7.57a2.41,2.41,0,0,1,2.523.886,2.4,2.4,0,0,1-.893,3.6,2.414,2.414,0,0,1-2.649-.377A2.4,2.4,0,0,1,68.9,34.2a2.419,2.419,0,0,1,.849-0.4h0Z"/>
</svg>
