<?xml version="1.0" encoding="utf-8"?><svg viewBox="0 0 1600 160" xmlns="http://www.w3.org/2000/svg" xmlns:xlink="http://www.w3.org/1999/xlink"><style>:root>svg{display:none}:root>svg:target{display:block}</style><svg viewBox="0 0 12 12" id="arrow-select" xmlns="http://www.w3.org/2000/svg"><path fill-rule="evenodd" clip-rule="evenodd" d="M6 0a1 1 0 0 1 1 1v7.586l3.293-3.293a1 1 0 1 1 1.414 1.414l-5 5a1 1 0 0 1-1.414 0l-5-5a1 1 0 0 1 1.414-1.414L5 8.586V1a1 1 0 0 1 1-1z"/></svg><svg fill="none" viewBox="0 0 159 30" id="beatom-logo" xmlns="http://www.w3.org/2000/svg"><path fill-rule="evenodd" clip-rule="evenodd" d="M29.68 15.675c1.287-.525 1.969-1.2 1.969-1.875 0-1.425-3.332-2.7-8.178-3.375l.303-.6c5.073.75 8.632 2.25 8.632 3.975 0 .9-.909 1.725-2.499 2.4a3.639 3.639 0 0 0-.227-.525zm-7.571-6c1.665-3.525 2.271-6.3 1.514-7.35v-.3c0-.3-.076-.6-.227-.9.151.075.303.075.454.225 1.439.975.833 4.575-1.287 9.075a1.996 1.996 0 0 0-.454-.75zm-.53-5.85c-.985 0-1.742-.75-1.742-1.725 0-.975.757-1.725 1.742-1.725.984 0 1.741.75 1.741 1.725 0 .9-.757 1.725-1.741 1.725zm-4.695 1.35c-.075-.075-.151-.225-.151-.3.984-.9 1.893-1.725 2.801-2.325.076.225.152.45.303.6-.833.6-1.741 1.425-2.65 2.325-.227-.075-.227-.15-.303-.3zM21.05 16.65c-.228 0-.455.075-.758.075a95.461 95.461 0 0 0-1.211-3.45C16.127 5.7 12.19.15 10.221.9c-.378.15-.681.6-.832 1.2-.228-.075-.455-.15-.682-.15C8.934.975 9.313.375 9.92.15c2.347-.9 6.814 4.875 9.918 12.9.454 1.2.833 2.4 1.212 3.6zM10.07 3.975c0 .825-.681 1.575-1.59 1.575S6.966 4.8 6.966 3.975 7.647 2.4 8.556 2.4c.908 0 1.514.675 1.514 1.575zM5.224 12.75c-1.135 0-2.12-.9-2.12-2.1 0-1.2.909-2.1 2.12-2.1 1.212 0 2.12.9 2.12 2.1 0 1.2-.984 2.1-2.12 2.1zm1.893 4.125c-.076.075-.151.225-.151.3-.152.075-.152.15-.227.225C2.65 16.65 0 15.3 0 13.8c0-.9.984-1.8 2.726-2.475.075.15.151.375.227.525-1.363.6-2.196 1.2-2.196 1.95-.076 1.275 2.499 2.4 6.36 3.075zm-1.06 2.1c1.666 0 2.953 1.275 2.953 2.925s-1.287 2.925-2.953 2.925S3.104 23.55 3.104 21.9s1.363-2.925 2.953-2.925zm-.53 6.3c0 .75.152 1.35.606 1.575 1.211.825 4.088-1.05 7.268-4.425l.379.675c-3.483 3.6-6.663 5.475-8.177 4.5-.606-.45-.833-1.275-.757-2.55.227.15.454.225.681.225zm15.446 3.15c.303-.075.53-.375.681-.675H22.336c-.227.75-.606 1.275-1.136 1.5-1.741.675-4.694-2.4-7.344-7.35.303.075.605.15.908.15 2.347 4.275 4.77 6.9 6.209 6.375zm-1.514-3.6c0-1.35 1.06-2.4 2.422-2.4 1.363 0 2.423 1.05 2.423 2.4 0 1.35-1.06 2.4-2.423 2.4-1.287 0-2.422-1.05-2.422-2.4zm2.498-2.925h-.303a29.75 29.75 0 0 0-.681-3.15c.227 0 .454-.075.681-.075.303 1.125.53 2.25.682 3.225h-.379zm-2.801-3c.378 0 .681 0 1.06-.075l.227.9c-1.212 1.05-2.877 1.65-4.619 1.65-2.271 0-4.315-1.05-5.678-2.775.53.075 1.135.15 1.817.225 1.666.075 5.678.15 7.193.075zm-2.045-8.475c.758 1.575 1.893 4.2 2.423 5.925.076.15.076.3.152.45-.227 0-.379 0-.606.075-.909.075-5.83.075-7.117 0-.757 0-1.666-.15-2.347-.225.303-.525.605-1.125.984-1.8.833-1.5 3.104-4.5 3.71-5.175.303-.375.984-1.05 1.514-1.65.379.675.909 1.575 1.287 2.4zm-1.892-3.75c.075.15.227.3.302.525-1.287 1.5-2.65 3.15-4.012 5.1a65.18 65.18 0 0 0-3.938 6.6c-.227-.075-.454-.225-.681-.225.984-2.1 2.347-4.425 3.937-6.75C12.19 9.9 13.63 8.175 15.067 6.6c.076 0 .076 0 .152.075zm-2.12 1.2C12.114 9 9.994 11.625 9.237 12.9c-.227.3-.378.6-.53.9.227-2.775 2.044-5.1 4.543-6.075-.076.075-.076.15-.151.15zm-5.452 2.1c.303-.075.53-.075.833-.15l.303.6c-.379.075-.757.075-1.06.15 0-.15-.076-.375-.076-.6zm1.59-4.125c.152 1.05.303 2.175.606 3.45-.227.225-.379.45-.606.75C8.86 8.625 8.631 7.2 8.48 6c.303-.075.53-.075.757-.15zM21.58 16.575c-.379-1.5-2.348-6.375-2.878-7.5-.227-.525-.454-1.05-.605-1.425 2.877.9 4.921 3.6 4.921 6.675 0 .75-.151 1.5-.378 2.25-.228 0-.606.075-.985.075 0-.075-.075-.075-.075-.075zm3.255.975c-2.498.45-5.451.675-8.707.675-2.65 0-5.148-.15-7.42-.525.076-.075.076-.15.152-.225.075-.075.151-.225.227-.375 2.12.3 4.467.45 7.041.45 3.18 0 6.057-.225 8.556-.6.076.225.076.45.151.6zm2.499-3.075c1.287 0 2.271.975 2.271 2.25s-.984 2.25-2.271 2.25-2.272-.975-2.272-2.25.985-2.25 2.272-2.25zM156.35 27.225c-.303.3-.757.45-1.287.45-.303 0-.606-.075-.833-.15-.227-.15-.454-.3-.606-.45-.151-.225-.303-.45-.378-.75-.076-.3-.152-.6-.152-.975s.076-.675.152-.975c.075-.3.227-.525.378-.75a1.18 1.18 0 0 1 .606-.45c.227-.15.53-.15.833-.15.303 0 .606.075.833.15.227.15.454.3.605.45.152.225.303.45.379.75.076.3.151.6.151.975 0 .9-.227 1.5-.681 1.875zm-.076-2.475c-.075-.225-.151-.375-.227-.6a.91.91 0 0 0-.378-.375c-.152-.075-.303-.15-.53-.15-.228 0-.379.075-.53.15a.908.908 0 0 0-.379.375c-.076.15-.151.375-.227.6-.076.225-.076.45-.076.675 0 .225 0 .45.076.675.076.225.151.375.227.6.076.225.227.3.379.375.151.075.302.15.53.15.378 0 .681-.15.908-.525.227-.3.303-.75.303-1.275-.076-.225-.076-.45-.076-.675zm-4.618 2.925h-.303v-3.45c0-.15 0-.3-.076-.375-.076-.075-.151-.075-.303-.075h-.075v-.225-.225H151.429c.151 0 .302.075.454.15.076.15.151.3.151.45v3.825c-.151-.15-.303-.075-.378-.075zm-.152-5.25c-.151 0-.227 0-.378-.075-.076-.075-.152-.15-.152-.375 0-.15 0-.225.076-.3.076-.075.227-.075.454-.075.152 0 .303 0 .379.075.076.075.076.15.076.375 0 .15 0 .3-.076.375h-.379zm-2.423 4.65c-.378.45-.832.675-1.362.675-.53 0-.909-.225-1.212-.6-.227-.375-.378-.975-.378-1.725 0-.375.075-.675.151-.975.076-.3.227-.525.379-.75.151-.225.302-.375.53-.45.227-.075.378-.15.605-.15.379 0 .757.15 1.136.375V21l.076-.075h.227c.151 0 .227 0 .303.075.075.075.075.15.075.375v4.95c0 .45.076.825.228.975-.076.15-.152.3-.303.375-.227-.075-.379-.3-.455-.6zm-.075-3a1.665 1.665 0 0 0-1.06-.375c-.303 0-.53.15-.757.45-.228.3-.303.75-.303 1.35 0 .6.075 1.05.303 1.275.151.3.378.45.681.45.227 0 .379-.075.606-.15.227-.15.378-.3.53-.525v-2.475zM144.236 27a2.73 2.73 0 0 1-.757.525c-.303.15-.606.225-.833.225a1.26 1.26 0 0 1-.909-.375 1.932 1.932 0 0 1-.303-1.05v-2.25c0-.3 0-.6-.075-.75.075-.075.227-.15.454-.15s.378.15.378.45V26.1c0 .375.076.675.152.825.076.15.303.225.53.225.227 0 .53-.075.757-.225.227-.15.454-.3.681-.525v-3.225h.682v3.15c0 .45.076.825.227.975-.076.15-.151.3-.303.375-.378-.075-.53-.3-.681-.675zm-4.922-3.3v3c0 .225.152.375.379.375h.681c.076.075.076.225.076.3v.225c-.303 0-.53.075-.833.075-.606 0-.908-.225-.908-.75V23.7h-.682v-.225-.225h.682v-.975c0-.15 0-.3.075-.375.076-.075.152-.075.303-.075h.227l.076.075v1.35h1.136v.45h-1.212zm-3.71 1.275l.53.225c.757.3 1.136.75 1.136 1.275 0 .375-.151.75-.454.9-.303.225-.757.3-1.287.3-.53 0-.985-.15-1.515-.45 0-.15.076-.375.227-.45.303.15.53.3.758.3.227.075.378.075.605.075.152 0 .303 0 .379-.075.076-.075.227-.075.303-.15.075-.075.151-.15.151-.225.076-.075.076-.15.076-.225 0-.15-.076-.3-.152-.45-.075-.15-.302-.225-.53-.3l-.53-.225c-.378-.15-.681-.3-.908-.525-.227-.225-.303-.45-.303-.75 0-.15.076-.375.151-.525.076-.15.152-.3.303-.375.152-.075.303-.225.455-.225.151-.075.378-.075.605-.075.455 0 .909.075 1.363.3a.68.68 0 0 1-.227.525c-.227-.075-.454-.15-.606-.225-.227-.075-.378-.075-.53-.075-.303 0-.454.075-.605.225-.152.15-.228.3-.228.45 0 .15.076.3.152.375.303.15.454.225.681.375zM130.91 27.3c0 .45-.076.75-.151 1.05-.076.3-.152.525-.303.75-.152.15-.303.3-.53.375-.227.075-.455.15-.757.15-.606 0-1.06-.075-1.59-.3 0-.225.075-.375.227-.525.378.225.833.3 1.211.3.227 0 .454 0 .606-.075.151-.075.303-.15.378-.3l.228-.45c0-.15.075-.375.075-.6v-.525c-.378.375-.833.6-1.363.6-.454 0-.832-.225-1.135-.6-.303-.375-.379-.975-.379-1.725 0-.375.076-.675.152-.975.075-.3.227-.525.378-.75.152-.225.303-.375.53-.45.227-.075.454-.15.682-.15.454 0 .908.15 1.287.45a.678.678 0 0 1 .454-.45c.151.075.227.225.303.375-.152.15-.227.45-.227.975v2.85h-.076zm-.606-3.225a2.28 2.28 0 0 0-.53-.375c-.151-.075-.378-.15-.53-.15-.303 0-.605.15-.833.45-.227.3-.302.75-.302 1.35 0 .6.075.975.302 1.275.152.3.379.45.682.45.227 0 .454-.075.681-.15.227-.15.379-.3.53-.45v-2.4zm-4.391 3.6c-.227 0-.379-.15-.379-.45V24.75c0-.375-.075-.6-.151-.75-.076-.15-.227-.225-.53-.225-.227 0-.53.075-.757.225-.227.15-.455.3-.682.525v3.225h-.605v-4.5l.075-.075h.227c.152 0 .228.075.303.075.076.075.076.225.076.375v.15c.227-.225.454-.375.757-.45.303-.15.53-.15.833-.15.379 0 .681.15.909.375.151.225.302.6.302 1.05v2.25c0 .375 0 .6.076.75-.151 0-.303.075-.454.075zm-4.997 0h-.303v-3.45c0-.15 0-.3-.076-.375-.076-.075-.151-.075-.303-.075h-.075v-.225-.225H120.689c.151 0 .302.075.454.15.076.15.151.3.151.45v3.825c-.151-.15-.227-.075-.378-.075zm-.152-5.25c-.151 0-.227 0-.378-.075-.076-.075-.152-.15-.152-.375 0-.15 0-.225.076-.3.076-.075.227-.075.454-.075.152 0 .303 0 .379.075.076.075.076.15.076.375 0 .15 0 .3-.076.375h-.379zm-2.12 5.25c-.227 0-.378-.15-.378-.45V24.75c0-.375-.076-.6-.152-.75-.075-.15-.227-.225-.454-.225s-.454.075-.606.15c-.227.15-.378.3-.605.525v3.225h-.606V24.75c0-.375-.076-.6-.152-.75-.075-.15-.227-.225-.454-.225a.866.866 0 0 0-.606.225c-.227.15-.378.3-.605.525v3.15h-.606V23.25l.076-.075h.227c.151 0 .227.075.303.075.075.075.075.225.075.375v.15c.379-.45.833-.675 1.363-.675s.833.225 1.06.675c.53-.45.985-.675 1.439-.675.378 0 .681.15.833.375.151.225.303.6.303.975v2.25c0 .375 0 .6.075.75-.227.15-.378.225-.53.225zm-7.193 0c-.227 0-.378-.15-.378-.45V24.75c0-.375-.076-.6-.152-.75-.075-.15-.227-.225-.454-.225s-.454.075-.606.15c-.227.15-.378.3-.605.525v3.225h-.606V24.75c0-.375-.076-.6-.151-.75-.076-.15-.228-.225-.455-.225a.862.862 0 0 0-.605.225c-.228.15-.379.3-.606.525v3.15h-.606V23.25l.076-.075h.227c.151 0 .227.075.303.075.076.075.076.225.076.375v.15c.378-.45.832-.675 1.362-.675.53 0 .833.225 1.06.675.53-.45.985-.675 1.439-.675.379 0 .681.15.833.375.151.225.303.6.303.975v2.25c0 .375 0 .6.075.75-.227.15-.378.225-.53.225zm-7.495-.6c-.455.45-.909.675-1.363.675-.227 0-.454 0-.606-.075-.151-.075-.303-.15-.454-.3-.076-.15-.227-.225-.227-.45-.076-.15-.076-.3-.076-.525 0-.225.076-.45.151-.6.076-.15.228-.3.303-.45.152-.15.303-.225.53-.3.227-.075.379-.075.606-.075.454 0 .833 0 1.136.075v-.45c0-.6-.303-.9-.833-.9-.454 0-.909.15-1.514.375a.677.677 0 0 1-.228-.525c.682-.3 1.212-.45 1.818-.45.908 0 1.438.525 1.438 1.5v1.875c0 .225 0 .375.076.525.076.15.076.225.227.375-.076.15-.151.3-.303.375-.454-.15-.606-.375-.681-.675zm-.076-1.575c-.151 0-.303-.075-.454-.075h-.53c-.379 0-.606.075-.757.225-.152.15-.303.375-.303.6 0 .225.075.45.227.6a.69.69 0 0 0 .53.225c.227 0 .454-.075.681-.15.227-.15.455-.3.606-.525v-.9zm-3.634-1.725c-.455 0-.833.3-1.136.825v3h-.606v-3.15c0-.375-.075-.75-.303-.9.076-.15.152-.3.303-.375.303.15.53.375.682.825.227-.525.681-.825 1.211-.825h.454c0 .225-.075.45-.151.6h-.454zM96.763 27.3c0 .45 0 .75-.076 1.05-.076.3-.151.525-.303.75-.151.15-.303.3-.53.375-.227.075-.454.15-.757.15-.606 0-1.06-.075-1.59-.3 0-.225.076-.375.227-.525.379.225.833.3 1.212.3.227 0 .454 0 .605-.075.152-.075.303-.15.379-.3l.227-.45c0-.15.076-.375.076-.6v-.525c-.379.375-.833.6-1.363.6-.454 0-.833-.225-1.136-.6-.303-.375-.378-.975-.378-1.725 0-.375.075-.675.151-.975.076-.3.227-.525.379-.75.151-.225.303-.375.53-.45.227-.075.454-.15.681-.15.454 0 .909.15 1.287.45a.68.68 0 0 1 .455-.45c.151.075.227.225.302.375-.151.15-.227.45-.227.975v2.85h-.151zm-.606-3.225a2.3 2.3 0 0 0-.53-.375c-.151-.075-.378-.15-.53-.15-.303 0-.606.15-.833.45-.227.3-.303.75-.303 1.35 0 .6.076.975.303 1.275.152.3.379.45.682.45.227 0 .454-.075.681-.15.227-.15.379-.3.53-.45v-2.4zM90.48 27.75c-.303 0-.606-.075-.833-.15-.227-.15-.455-.3-.606-.45-.152-.225-.303-.45-.379-.75-.075-.3-.151-.6-.151-.975s.076-.675.151-.975c.076-.3.227-.525.379-.75.151-.225.379-.375.606-.45.227-.15.53-.15.832-.15.303 0 .606.075.833.15.227.15.455.3.606.45.152.225.303.45.379.75.075.3.151.6.151.975 0 .825-.227 1.425-.606 1.8-.454.375-.832.525-1.362.525zm1.135-3c-.075-.225-.151-.375-.227-.6a.908.908 0 0 0-.379-.375c-.15-.075-.302-.15-.53-.15-.227 0-.378.075-.53.15a.908.908 0 0 0-.378.375 5.13 5.13 0 0 0-.227.6c-.076.225-.076.45-.076.675 0 .225 0 .45.076.675.075.225.151.375.227.6.076.15.227.3.379.375.151.075.302.15.53.15.378 0 .681-.15.908-.525.227-.3.303-.75.303-1.275 0-.225-.076-.45-.076-.675zm-3.861-.975c-.454 0-.833.3-1.136.825v3h-.606v-3.15c0-.375-.075-.75-.302-.9.075-.15.151-.3.302-.375.303.15.53.375.682.825.227-.525.681-.825 1.211-.825h.455c0 .225-.076.45-.152.6h-.454zm-3.635 3.3c-.15.225-.302.375-.53.45-.227.075-.378.15-.605.15-.455 0-.833-.15-1.212-.375v1.8c0 .15 0 .3-.075.375-.076.075-.152.075-.303.075h-.227l-.076-.075V23.25l.076-.075h.227c.151 0 .227.075.303.075.075.075.075.225.075.375v.075c.379-.375.833-.6 1.287-.6.53 0 .91.225 1.136.6.227.375.379.975.379 1.725 0 .375-.076.675-.152.975 0 .225-.151.45-.303.675zm-.227-2.475c-.075-.225-.151-.375-.227-.525a.589.589 0 0 0-.303-.3c-.075-.075-.227-.075-.378-.075-.227 0-.455.075-.682.225-.227.15-.378.3-.53.525v2.325c.379.3.682.375 1.06.375.379 0 .606-.15.833-.45.227-.3.303-.75.303-1.275 0-.3 0-.6-.076-.825zm-6.965 2.475c-.379.45-.833.675-1.363.675s-.909-.225-1.212-.6c-.227-.375-.378-.975-.378-1.725 0-.375.076-.675.151-.975.076-.3.227-.525.379-.75.151-.225.303-.375.53-.45.227-.075.378-.15.605-.15.38 0 .758.15 1.136.375V21l.076-.075h.227c.151 0 .227 0 .303.075.076.075.076.15.076.375v4.95c0 .45.075.825.227.975-.076.15-.152.3-.303.375a.983.983 0 0 1-.454-.6zm-.076-3a1.664 1.664 0 0 0-1.06-.375c-.303 0-.53.15-.757.45-.227.3-.303.75-.303 1.35 0 .6.076 1.05.303 1.275.151.3.378.45.681.45.227 0 .379-.075.606-.15.227-.15.379-.3.53-.525v-2.475zm-4.391 3.6c-.228 0-.379-.15-.379-.45V24.75c0-.375-.076-.6-.151-.75-.076-.15-.228-.225-.53-.225-.228 0-.53.075-.758.225-.227.15-.454.3-.681.525v3.225h-.606v-4.5l.076-.075h.303c.151 0 .227.075.303.075.075.075.075.225.075.375v.15c.227-.225.455-.375.757-.45.303-.15.53-.15.833-.15.379 0 .682.15.909.375.151.225.303.6.303 1.05v2.25c0 .375 0 .6.076.75-.152 0-.303.075-.53.075zm-5.225-.6c-.454.45-.908.675-1.363.675-.227 0-.454 0-.605-.075-.152-.075-.303-.15-.455-.3-.075-.15-.227-.225-.227-.45-.076-.15-.076-.3-.076-.525 0-.225.076-.45.152-.6.076-.15.227-.3.303-.45.151-.15.303-.225.53-.3.227-.075.378-.075.606-.075.454 0 .832 0 1.135.075v-.45c0-.6-.303-.9-.833-.9-.454 0-.908.15-1.514.375a.678.678 0 0 1-.227-.525c.681-.3 1.211-.45 1.817-.45.909 0 1.439.525 1.439 1.5v1.875c0 .225 0 .375.075.525.076.15.076.225.228.375-.076.15-.152.3-.303.375-.455-.15-.606-.375-.682-.675zM67.16 25.5H66.174c-.378 0-.605.075-.757.225-.151.15-.303.375-.303.6 0 .225.076.45.227.6a.69.69 0 0 0 .53.225c.228 0 .455-.075.682-.15.227-.15.454-.3.606-.525V25.5zm-6.209 2.175c-.227 0-.379-.15-.379-.45V24.75c0-.375-.075-.6-.151-.75-.076-.15-.227-.225-.53-.225-.227 0-.53.075-.757.225-.227.15-.455.3-.682.525v3.225h-.605v-4.5l.075-.075h.227c.152 0 .228.075.303.075.076.075.076.225.076.375v.15c.227-.225.454-.375.757-.45.303-.15.53-.15.833-.15.379 0 .681.15.909.375.151.225.302.6.302 1.05v2.25c0 .375 0 .6.076.75-.076 0-.227.075-.454.075zm-4.694-.375c0 .45-.076.75-.152 1.05-.075.3-.151.525-.303.75-.151.15-.303.3-.53.375-.227.075-.454.15-.757.15-.606 0-1.06-.075-1.59-.3 0-.225.076-.375.227-.525.379.225.833.3 1.212.3.227 0 .454 0 .605-.075.152-.075.303-.15.38-.3l.226-.45c0-.15.076-.375.076-.6v-.525c-.379.375-.833.6-1.363.6-.454 0-.833-.225-1.136-.6-.303-.375-.378-.975-.378-1.725 0-.375.075-.675.151-.975.076-.3.227-.525.379-.75.151-.225.303-.375.53-.45.227-.075.454-.15.681-.15.454 0 .909.15 1.287.45a.68.68 0 0 1 .455-.45c.151.075.227.225.303.375-.152.15-.228.45-.228.975v2.85h-.075zm-.606-3.225c-.151-.15-.379-.3-.53-.375-.151-.075-.379-.15-.53-.15-.303 0-.606.15-.833.45-.227.3-.303.75-.303 1.35 0 .6.076.975.303 1.275.151.3.379.45.681.45.228 0 .455-.075.682-.15.227-.15.379-.3.53-.45v-2.4zm-4.467 3.6h-.303v-3.45c0-.15 0-.3-.076-.375-.076-.075-.151-.075-.303-.075h-.075v-.225-.225H50.956c.151 0 .302.075.454.15.076.15.151.3.151.45v3.825c-.075-.15-.227-.075-.378-.075zm-.152-5.25c-.151 0-.227 0-.378-.075-.076-.075-.152-.15-.152-.375 0-.15 0-.225.076-.3.076-.075.227-.075.454-.075.152 0 .303 0 .379.075.076.075.076.15.076.375 0 .15 0 .3-.076.375h-.379zm-3.104 2.55l.53.225c.757.3 1.136.75 1.136 1.275 0 .375-.152.75-.455.9-.302.225-.757.3-1.287.3-.53 0-.984-.15-1.514-.45 0-.15.076-.375.227-.45.303.15.53.3.757.3.227.075.379.075.606.075.151 0 .303 0 .379-.075.075-.075.227-.075.303-.15.075-.075.151-.15.151-.225.076-.075.076-.15.076-.225 0-.15-.076-.3-.152-.45-.075-.15-.303-.225-.53-.3l-.53-.225c-.378-.15-.681-.3-.908-.525-.227-.225-.303-.45-.303-.75 0-.15.076-.375.151-.525.076-.15.152-.3.303-.375.152-.075.303-.225.454-.225.152-.075.379-.075.606-.075.454 0 .909.075 1.363.3a.678.678 0 0 1-.227.525c-.227-.075-.455-.15-.606-.225-.227-.075-.379-.075-.53-.075-.303 0-.454.075-.606.225-.151.15-.227.3-.227.45 0 .15.076.3.152.375.302.15.454.225.681.375zm-2.423.6h-2.801c0 1.05.454 1.5 1.136 1.5.378 0 .832-.15 1.287-.375.151.15.227.3.227.45-.53.3-1.06.525-1.666.525-.303 0-.606-.075-.833-.15-.227-.15-.378-.3-.53-.45-.151-.225-.227-.45-.303-.75-.075-.3-.075-.6-.075-.9 0-.375.075-.675.151-.9.076-.3.227-.525.379-.75.151-.225.378-.375.605-.45.227-.15.455-.15.758-.15.302 0 .53.075.757.15.227.075.378.225.53.375.151.15.227.375.303.6.075.225.151.525.151.75v.3c-.076.075-.076.15-.076.225zm-.681-.6c0-.45-.076-.75-.227-.975-.152-.225-.455-.375-.757-.375-.379 0-.606.15-.833.375-.227.3-.303.6-.303 1.125h2.195v-.15h-.075zm-4.77 2.1c-.379.45-.833.675-1.363.675s-.909-.225-1.212-.6c-.227-.375-.378-.975-.378-1.725 0-.375.076-.675.151-.975.076-.3.227-.525.379-.75.151-.225.303-.375.53-.45.227-.075.379-.15.606-.15.378 0 .757.15 1.135.375V21l.076-.075h.227c.152 0 .227 0 .303.075.076.075.076.15.076.375v4.95c0 .45.075.825.227.975-.076.15-.152.3-.303.375a.984.984 0 0 1-.454-.6zm-.076-3a1.664 1.664 0 0 0-1.06-.375c-.303 0-.53.15-.757.45-.227.3-.303.75-.303 1.35 0 .6.076 1.05.303 1.275.151.3.379.45.681.45.227 0 .379-.075.606-.15.227-.15.379-.3.53-.525v-2.475zM154.896 7.183c-.625.28-3.748.726-4.316.838-.568.168-1.646.28-1.646.28s.056 5.197.284 5.867c.227.727.567 2.46 2.044 2.403 1.476-.056 2.782-.838 3.066-.503.284.335.34.95-.171 1.285-.511.336-1.987.727-2.611.727-.625 0-2.499-.503-3.123-1.788-.625-1.286-.625-5.31-.568-6.091.057-.783-.057-2.347-.057-2.347s-1.079.167-1.476-.28c-.454-.447-.625-1.285-.284-1.62.341-.336.852-.056 1.363 0 .511.055.794 0 .794 0l-.17-3.745s-.454-.614-.227-1.117.568-.615.909-.615c.34 0 .738.28.738.95 0 .615-.057 4.694-.057 4.694h4.429c1.022 0 1.476-.056 1.646.28.057.279.057.503-.567.782zm-8.801 8.494c-.341.727-2.442 3.074-3.123 3.409-.738.335-1.76.223-2.442-.168-.624-.335-2.044-2.347-2.157-3.632-.057-1.285.567-4.75.624-4.974.057-.223-.341-1.62-.17-2.403.227-.782.454-.95.852-.782.454.168.34.615.34.615s.795-2.794 2.044-3.744c1.306-1.006 1.59-.727 2.044-.56.511.168 1.477 1.342 1.363 2.571-.17 1.23-.057 1.845-.738 2.795-.625.95-2.044 2.347-3.009 2.626-.909.28-1.704.223-1.704.223s-.738 3.354-.284 4.192c.455.838 1.193 2.067 2.158 1.732.908-.335 3.009-2.57 3.463-2.85.625-.335 1.079.28.739.95zm-2.158-8.773c.227-1.062.284-1.565-.284-1.51-.568.057-1.476 1.398-1.874 1.9-.34.504-.795 2.124-.795 2.124s2.726-1.453 2.953-2.514zm-8.403 10.114c-.909.56-1.42 1.062-2.158.615-.738-.447-1.136-1.23-1.42-3.241-.283-2.068-.738-5.31-1.022-5.7-.283-.336-1.419 1.788-2.157 3.185s-2.215 3.688-2.782 4.75c-.568 1.062-.852 1.565-1.42 1.565s-1.306-.783-1.136-2.627c.171-1.844.455-5.476.341-6.314-.057-.839-.057-2.18 0-2.683.057-.503.057-.726.568-.726.511 0 1.022.782.908 1.844-.056 1.062-.17 3.241-.227 4.191-.056.95 0 2.962 0 2.962s2.158-3.409 2.783-4.694c.624-1.286 1.76-3.353 2.725-4.136.908-.782 1.59-.447 1.76.783.227 1.23.738 7.04.909 7.823.227.783.227 1.62.738 1.397.511-.223 1.646-1.061 1.987-1.676.341-.615.511-1.565 1.079-1.788.568-.224.908.503.738 1.117-.114.727-1.249 2.794-2.214 3.353zm-17.034 1.23c-.739 0-1.306-.56-1.136-1.565.17-1.006 1.192-1.565 1.703-1.341.511.223 1.079.838.909 1.788-.114.894-.738 1.118-1.476 1.118zm-6.587-.336c-.738-.503-1.76-2.29-1.93-4.135-.171-1.844.056-3.856.056-3.856s-2.328 4.527-3.179 6.036c-.852 1.508-1.704 2.29-2.271 2.123-.568-.168-.852-1.285-.909-2.85-.057-1.565.17-6.315 0-7.041-.17-.727-.568-1.565-1.192-.28-.625 1.286-3.861 7.321-4.259 8.383-.454 1.061-.738 1.564-1.306 1.564-.567 0-.851-.558-.851-2.011 0-1.397.227-3.968.34-5.253.17-1.286.227-3.241 0-3.744-.227-.503-.454-1.062-.17-1.62.284-.56.454-.616.908-.504.511.168.795.838.738 1.788-.056.95-.34 4.527-.34 5.197 0 .615-.227 2.795-.227 2.795s2.498-4.75 3.634-6.818c1.135-2.068 1.76-2.85 2.555-2.682.795.167 1.362 1.34 1.476 2.794.17 1.397 0 7.88 0 7.88s1.363-1.845 2.158-3.466c.795-1.62 2.782-5.308 3.123-5.98.34-.614 1.078-.334 1.305-.055.228.28 0 .727-.17 1.23-.17.502-.227 4.358-.057 5.811.171 1.51.341 2.85 1.193 3.074.851.223 1.703-1.286 2.271-1.677.568-.447 1.022-.335 1.022.224s-.738 1.9-1.42 2.626c-.738.56-1.816.95-2.498.447zm-24.131 1.062c-2.896-.112-2.726-2.347-2.782-3.465-.057-1.117 1.362-5.755 1.703-6.985.34-1.23.51-1.844.852-2.459.34-.614 1.362-1.117 2.214-1.23.852-.055 2.328.95 3.066 2.46.738 1.564 1.079 4.414.511 6.035-.624 1.677-3.18 5.756-5.564 5.644zm3.747-11.12c-.624-1.51-1.93-1.398-1.93-1.398s0 .839-.284 1.118c-.284.28-1.08 1.118-1.704 2.57-.624 1.398-1.42 5.086-1.476 6.036-.057.95 1.476 1.509 2.612.782 1.136-.726 3.066-2.961 3.463-4.47.455-1.51-.056-3.13-.68-4.638zm-11.697.167c-.567.168-1.646.28-1.646.28s.057 5.197.284 5.867c.227.727.568 2.46 2.044 2.403 1.476-.056 2.782-.838 3.066-.503.284.335.34.95-.17 1.285-.511.336-1.988.727-2.612.727-.625 0-2.499-.503-3.123-1.788-.625-1.286-.625-5.31-.568-6.091.057-.783-.057-2.347-.057-2.347s-1.078.167-1.476-.28c-.454-.447-.625-1.285-.284-1.62.34-.336.852-.056 1.363 0 .51.055.795 0 .795 0l-.17-3.745s-.455-.614-.228-1.117.568-.615.909-.615c.34 0 .738.28.738.95 0 .615-.057 4.694-.057 4.694h4.429c1.022 0 1.476-.056 1.647.28.17.335.17.558-.511.838-.682.223-3.805.615-4.373.782zm-6.643 7.935s.852.615.738 1.118c-.17.503-.738 1.23-1.42 1.285-.737.056-.794-.447-1.078-1.006-.284-.558-.17-5.755-.17-5.755s-1.306 2.067-1.93 3.073c-.625 1.006-2.84 3.409-3.35 3.633-.512.223-1.42-1.006-1.704-1.397-.284-.448.227-4.527.51-6.371.285-1.844.796-3.577 1.193-4.75.455-1.23.909-1.788 1.76-2.459.852-.726 2.215 0 3.01.28.795.279 1.476.95 1.93.782.454-.168.795 0 .795 0s-.17 2.57-.227 3.967c-.057 1.398-.852 6.762-.852 7.377 0 .615.795.223.795.223zm-1.362-9.555s-.795-1.062-1.76-1.342c-1.023-.279-1.59-.167-2.215.447-.625.56-1.079 2.683-1.363 3.856-.284 1.118-.738 4.974-.795 5.533-.056.559 0 1.509.455 1.23.454-.28 3.406-4.248 3.974-5.31.568-1.061 1.363-2.18 1.59-2.906.227-.838.114-1.508.114-1.508zM59.619 19.086c-.738.335-1.76.223-2.442-.168-.624-.335-2.044-2.347-2.157-3.632-.057-1.285.567-4.75.624-4.974.057-.223-.34-1.62-.17-2.403.227-.782.454-.95.852-.782.454.168.34.615.34.615s.795-2.794 2.044-3.744c1.306-1.006 1.59-.727 2.044-.56.512.168 1.477 1.342 1.363 2.571-.17 1.23-.057 1.845-.738 2.795-.624.95-2.044 2.347-3.01 2.626-.908.28-1.703.223-1.703.223s-.738 3.354-.284 4.192c.455.838 1.193 2.067 2.158 1.732.909-.335 3.01-2.57 3.464-2.85.51-.28.908.28.567 1.006-.17.67-2.214 3.018-2.952 3.353zM60.64 6.904c.227-1.062.284-1.565-.284-1.51-.568.057-1.476 1.398-1.874 1.9-.34.504-.795 2.124-.795 2.124s2.726-1.453 2.953-2.514zm-10.107 3.744c1.987.726 3.464 1.23 3.407 2.18-.057 1.005-.909 2.067-2.158 2.793-1.192.727-6.132 2.012-7.097 2.18-1.022.223-1.42 0-1.76.279-.341.28-.795.224-1.08 0-.283-.223-.737-.782-.624-1.062.057-.28.057-5.867.057-5.867s-.852-.056-1.022-.447c-.17-.336.17-.839.454-1.062.284-.224.454-.336.454-.336s-.34-5.029-.51-5.532c-.17-.503-.455-1.006-.852-1.006-.454 0-1.704.336-2.158 0-.454-.335-.625-.838-.511-1.23.17-.334 0-.726.625-.726.624 0 5.167.447 7.154.839 1.987.447 5.848 1.9 5.735 2.905-.057 1.006-.228 1.51-1.363 2.18-1.136.726-6.132 3.073-6.132 3.073s5.394.112 7.381.839zm-6.189-3.186c1.079-.726 3.634-1.508 4.202-1.9.568-.447-.227-.95-1.476-1.34-1.306-.448-4.43-1.007-4.43-1.007l.171 5.141c0-.055.511-.167 1.533-.894zm-1.533 3.8v5.03s3.123-.168 3.975-.447c.851-.28 4.031-1.51 4.996-2.012.909-.503.511-1.062-.17-1.341-.625-.28-.511-.503-3.01-.727-2.441-.112-5.791-.503-5.791-.503z" fill="#fff"/></svg><svg fill="none" viewBox="0 0 271 67" id="ck-settings" xmlns="http://www.w3.org/2000/svg"><path d="M6.16 49.236h.041l2.413-5.633h2.803v.869l-1.114.191v5.284l1.114.192V51H7.842v-.861l1.114-.192v-4.08l-.041-.014L6.645 51h-.93l-2.31-5.257-.04.014v4.19l1.114.192V51H.903v-.861l1.115-.192v-5.284l-1.115-.191v-.869h2.851l2.406 5.633zM17.46 51c-.041-.2-.073-.38-.096-.54a5.656 5.656 0 0 1-.048-.479c-.26.333-.585.611-.977.834a2.49 2.49 0 0 1-1.244.329c-.77 0-1.356-.187-1.757-.561-.401-.378-.602-.91-.602-1.593 0-.702.283-1.242.848-1.62.57-.383 1.349-.574 2.338-.574h1.388v-.861c0-.433-.137-.775-.41-1.026-.274-.255-.655-.383-1.142-.383-.337 0-.636.044-.896.13a1.678 1.678 0 0 0-.622.356l-.143.779h-1.04v-1.435a3.942 3.942 0 0 1 1.224-.643 4.776 4.776 0 0 1 1.559-.246c.838 0 1.517.214 2.037.642.52.429.78 1.042.78 1.84v3.841c.004.091.01.182.02.273l.547.076V51H17.46zm-2.167-.984c.447 0 .855-.108 1.224-.322.369-.214.633-.471.793-.772v-1.217h-1.436c-.551 0-.989.128-1.313.383-.319.255-.478.565-.478.93 0 .323.1.572.3.745.201.168.504.253.91.253zM23.667 50.09c.447 0 .838-.136 1.176-.41.342-.277.512-.617.512-1.018h1.21l.014.041c.023.638-.262 1.205-.854 1.702a3.108 3.108 0 0 1-2.058.739c-1.076 0-1.898-.351-2.468-1.053-.565-.702-.847-1.584-.847-2.646v-.287c0-1.053.284-1.93.854-2.632.57-.706 1.39-1.06 2.461-1.06.592 0 1.123.099 1.593.295.474.196.866.465 1.175.806l.062 1.641h-1.073l-.294-1.162a1.782 1.782 0 0 0-.615-.376 2.362 2.362 0 0 0-.848-.144c-.706 0-1.212.256-1.518.766-.3.506-.45 1.128-.45 1.866v.287c0 .757.15 1.388.45 1.894.301.501.807.752 1.518.752zM27.946 44.472v-.869h3.575v.869l-1.114.191v5.284h2.598v-6.344h1.347v6.344h2.604v-5.284l-1.114-.191v-.869h3.575v.869l-1.114.191v5.284l1.114.192V51h-11.47v-.861l1.114-.192v-5.284l-1.115-.191zM47.613 43.603v2.202h-1.155l-.102-1.156h-1.587v5.298l1.115.192V51h-3.575v-.861l1.114-.192V44.65h-1.559l-.102 1.156h-1.149v-2.202h7zM53.513 51a9.28 9.28 0 0 1-.096-.54 5.697 5.697 0 0 1-.048-.479c-.26.333-.586.611-.977.834a2.49 2.49 0 0 1-1.245.329c-.77 0-1.355-.187-1.756-.561-.401-.378-.602-.91-.602-1.593 0-.702.283-1.242.848-1.62.57-.383 1.349-.574 2.338-.574h1.387v-.861c0-.433-.136-.775-.41-1.026-.273-.255-.654-.383-1.142-.383-.337 0-.635.044-.895.13a1.678 1.678 0 0 0-.622.356l-.144.779H49.11v-1.435a3.941 3.941 0 0 1 1.224-.643 4.775 4.775 0 0 1 1.559-.246c.838 0 1.517.214 2.037.642.52.429.779 1.042.779 1.84v3.841c.005.091.011.182.02.273l.547.076V51h-1.763zm-2.167-.984c.446 0 .854-.108 1.223-.322.37-.214.634-.471.793-.772v-1.217h-1.435c-.552 0-.99.128-1.313.383-.319.255-.478.565-.478.93 0 .323.1.572.3.745.201.168.504.253.91.253zM60.082 44.027c.939 0 1.682.315 2.228.944.547.624.82 1.426.82 2.406v.15c0 1.062-.295 1.93-.888 2.605-.592.674-1.399 1.012-2.42 1.012-1.02 0-1.827-.338-2.42-1.012-.592-.675-.888-1.543-.888-2.605v-.957c0-1.458.305-2.62.916-3.486.61-.866 1.43-1.401 2.46-1.607.575-.104.99-.23 1.245-.375.26-.146.39-.385.39-.718h1.038l.014.04c.014.803-.175 1.33-.567 1.58-.392.25-1.014.449-1.866.595a3.23 3.23 0 0 0-1.6.724c-.438.374-.706.923-.807 1.648l.028.034a3.114 3.114 0 0 1 1.011-.704c.41-.183.846-.274 1.306-.274zm-.273 1.053c-.643 0-1.128.219-1.456.656-.329.438-.493.985-.493 1.641v.15c0 .743.164 1.356.492 1.84.329.482.819.724 1.47.724.643 0 1.13-.242 1.463-.725.333-.483.5-1.096.5-1.839v-.15c0-.656-.17-1.203-.507-1.64-.332-.438-.822-.657-1.47-.657zM21.561 64.139l1.539-.192V56.49l-1.566.028v-.841l2.912-.63v8.901l1.531.192V65h-4.416v-.861zM28.842 65h-1.347v-1.38h1.347V65zm0-6.016h-1.347v-1.38h1.347v1.38zM30.202 64.139l1.538-.192V56.49l-1.565.028v-.841l2.912-.63v8.901l1.531.192V65h-4.416v-.861zM41.386 61.65h1.374v1.053h-1.374v1.244l1.114.192V65h-3.568v-.861l1.114-.192v-1.244h-4.47v-.759l4.388-6.897h1.422v6.603zm-4.375 0h3.035v-4.682l-.041-.014-.137.362-2.857 4.334zM107.871 52.976l1.114-.192v-8.12l-1.114-.192v-.869h2.27l.123.903c.246-.337.544-.595.895-.773a2.72 2.72 0 0 1 1.231-.266c.916 0 1.627.364 2.132 1.093.511.725.766 1.684.766 2.878v.144c0 1.066-.255 1.928-.766 2.584-.51.652-1.214.978-2.112.978-.456 0-.857-.076-1.203-.226a2.362 2.362 0 0 1-.875-.684v2.55l1.114.192v.868h-3.575v-.868zm6.064-5.538c0-.843-.164-1.533-.493-2.07-.328-.539-.815-.808-1.463-.808-.382 0-.71.087-.984.26-.273.173-.494.41-.663.711v3.603c.169.305.387.542.656.71.274.165.609.247 1.005.247.638 0 1.121-.233 1.449-.697.329-.465.493-1.07.493-1.812v-.144zM121.338 51c-.041-.2-.073-.38-.096-.54a5.535 5.535 0 0 1-.048-.479c-.259.333-.585.611-.977.834a2.49 2.49 0 0 1-1.244.329c-.771 0-1.356-.187-1.757-.561-.401-.378-.602-.91-.602-1.593 0-.702.283-1.242.848-1.62.57-.383 1.349-.574 2.338-.574h1.388v-.861c0-.433-.137-.775-.411-1.026-.273-.255-.654-.383-1.141-.383-.337 0-.636.044-.896.13a1.683 1.683 0 0 0-.622.356l-.143.779h-1.039v-1.435a3.941 3.941 0 0 1 1.223-.643 4.778 4.778 0 0 1 1.559-.246c.838 0 1.517.214 2.037.642.519.429.779 1.042.779 1.84v3.841c.005.091.012.182.021.273l.547.076V51h-1.764zm-2.167-.984c.447 0 .854-.108 1.224-.322.369-.214.633-.471.793-.772v-1.217h-1.436c-.551 0-.989.128-1.313.383-.319.255-.478.565-.478.93 0 .323.1.572.301.745.2.168.503.253.909.253zM127.217 46.68c.474 0 .811-.09 1.012-.267.205-.182.307-.444.307-.786 0-.31-.116-.572-.348-.786-.233-.214-.586-.322-1.06-.322-.424 0-.779.112-1.066.336-.288.223-.431.494-.431.813h-1.278l-.014-.041c-.027-.634.23-1.149.772-1.545.543-.401 1.215-.602 2.017-.602.866 0 1.543.187 2.03.561.488.37.732.898.732 1.586 0 .333-.101.638-.301.916a2.017 2.017 0 0 1-.841.656c.415.146.731.365.95.657.219.287.328.64.328 1.059 0 .693-.266 1.235-.799 1.627-.529.392-1.229.588-2.099.588-.807 0-1.499-.194-2.078-.581-.574-.392-.85-.957-.827-1.696l.013-.04h1.279c0 .346.15.647.451.902.301.255.688.383 1.162.383.488 0 .866-.112 1.135-.335.269-.228.403-.51.403-.848 0-.396-.118-.686-.355-.868-.233-.182-.597-.274-1.094-.274h-1.285V46.68h1.285zM136.698 49.236h.041l2.413-5.633h2.803v.869l-1.114.191v5.284l1.114.192V51h-3.575v-.861l1.114-.192v-4.08l-.041-.014L137.184 51h-.93l-2.311-5.257-.041.014v4.19l1.115.192V51h-3.576v-.861l1.115-.192v-5.284l-1.115-.191v-.869h2.851l2.406 5.633zM146.549 51.144c-1.03 0-1.85-.342-2.461-1.026-.606-.688-.909-1.579-.909-2.673v-.3c0-1.053.312-1.928.936-2.626.629-.701 1.372-1.052 2.229-1.052.993 0 1.745.3 2.256.902.515.602.772 1.404.772 2.406v.841h-4.799l-.02.034c.013.711.193 1.297.54 1.757.346.456.831.684 1.456.684.456 0 .854-.064 1.196-.192.346-.132.645-.312.896-.54l.526.875c-.264.256-.615.472-1.053.65-.433.173-.954.26-1.565.26zm-.205-6.618c-.451 0-.837.192-1.156.575-.319.378-.514.854-.587 1.428l.013.034h3.411v-.177c0-.529-.141-.971-.423-1.326-.283-.356-.702-.534-1.258-.534zM150.541 52.976l1.114-.192v-8.12l-1.114-.192v-.869h2.27l.123.903c.246-.337.544-.595.895-.773a2.72 2.72 0 0 1 1.231-.266c.916 0 1.627.364 2.132 1.093.511.725.766 1.684.766 2.878v.144c0 1.066-.255 1.928-.766 2.584-.51.652-1.214.978-2.112.978-.456 0-.857-.076-1.203-.226a2.354 2.354 0 0 1-.875-.684v2.55l1.114.192v.868h-3.575v-.868zm6.063-5.538c0-.843-.164-1.533-.492-2.07-.328-.539-.815-.808-1.463-.808-.382 0-.711.087-.984.26-.273.173-.494.41-.663.711v3.603c.169.305.387.542.656.71.274.165.609.247 1.005.247.638 0 1.121-.233 1.449-.697.328-.465.492-1.07.492-1.812v-.144zM84.991 64.139l1.538-.192V56.49l-1.565.028v-.841l2.912-.63v8.901l1.531.192V65h-4.416v-.861zM92.415 59.401h1.176c.597 0 1.018-.148 1.265-.444.25-.3.375-.718.375-1.25 0-.57-.14-1.004-.423-1.3-.283-.296-.7-.444-1.251-.444-.524 0-.946.155-1.265.465-.314.305-.472.713-.472 1.223h-1.292l-.013-.04c-.023-.753.248-1.39.813-1.915.57-.528 1.313-.793 2.229-.793.92 0 1.654.246 2.2.739.548.487.821 1.184.821 2.091 0 .41-.125.82-.376 1.23-.246.407-.617.716-1.114.93.597.197 1.018.504 1.265.923.25.42.376.89.376 1.409 0 .907-.299 1.62-.896 2.14-.592.519-1.351.779-2.276.779-.912 0-1.664-.244-2.256-.732-.593-.492-.877-1.157-.855-1.996l.02-.041h1.286c0 .524.16.941.479 1.251.323.31.765.465 1.326.465.57 0 1.016-.155 1.34-.465.323-.31.485-.768.485-1.374 0-.615-.144-1.069-.43-1.36-.288-.292-.741-.438-1.361-.438h-1.176v-1.053zM101.404 64.139l.793-.158 2.181-2.72-2.112-2.632-.793-.157v-.869h2.898v.869l-.67.082 1.381 1.777 1.388-1.784-.663-.075v-.869h2.919v.869l-.793.157-2.113 2.632 2.174 2.72.8.158V65h-2.898v-.861l.656-.075-1.449-1.86-1.45 1.86.663.075V65h-2.912v-.861zM113.278 65v-.923l3.261-3.623c.583-.652.978-1.169 1.183-1.552.209-.383.314-.774.314-1.175 0-.497-.146-.914-.437-1.251-.292-.342-.677-.513-1.156-.513-.688 0-1.194.175-1.517.526-.324.351-.486.848-.486 1.49h-1.292l-.013-.04c-.023-.857.26-1.577.847-2.16.593-.584 1.413-.876 2.461-.876.898 0 1.611.262 2.14.787.533.519.8 1.182.8 1.989 0 .542-.162 1.084-.486 1.627-.319.542-.77 1.128-1.353 1.757l-2.618 2.85.013.034h3.535l.109-1.141h1.142V65h-6.447zM124.893 54.903c.337 0 .672.04 1.004.117.338.077.616.175.834.293l-.259 1.005a3.581 3.581 0 0 0-1.579-.355c-.698 0-1.254.264-1.668.793-.411.524-.629 1.317-.657 2.379l.028.027c.255-.237.567-.424.936-.56a3.32 3.32 0 0 1 1.197-.212c.888 0 1.597.307 2.125.922.529.616.793 1.395.793 2.338 0 1.03-.282 1.871-.847 2.523-.561.647-1.31.97-2.249.97-.971 0-1.775-.353-2.413-1.059-.638-.706-.957-1.707-.957-3.001v-1.34c0-1.577.346-2.778 1.039-3.602.692-.825 1.583-1.238 2.673-1.238zm-.458 4.492c-.461 0-.853.093-1.176.28-.324.182-.57.428-.738.738v.8c0 .925.191 1.636.574 2.133.387.496.872.745 1.456.745.551 0 .98-.233 1.285-.697.31-.47.465-1.05.465-1.744 0-.656-.167-1.196-.499-1.62-.328-.424-.784-.636-1.367-.636zM132.084 64.139l.793-.158 2.181-2.72-2.113-2.632-.793-.157v-.869h2.899v.869l-.67.082 1.381 1.777 1.387-1.784-.663-.075v-.869h2.919v.869l-.793.157-2.112 2.632 2.174 2.72.8.158V65h-2.899v-.861l.656-.075-1.449-1.86-1.449 1.86.663.075V65h-2.912v-.861zM143.958 65v-.923l3.261-3.623c.583-.652.977-1.169 1.182-1.552.21-.383.315-.774.315-1.175 0-.497-.146-.914-.438-1.251-.291-.342-.676-.513-1.155-.513-.688 0-1.194.175-1.518.526-.323.351-.485.848-.485 1.49h-1.292l-.014-.04c-.022-.857.26-1.577.848-2.16.593-.584 1.413-.876 2.461-.876.898 0 1.611.262 2.14.787.533.519.799 1.182.799 1.989 0 .542-.161 1.084-.485 1.627-.319.542-.77 1.128-1.353 1.757l-2.619 2.85.014.034h3.534l.11-1.141h1.141V65h-6.446zM158.197 61.206c0 1.271-.282 2.247-.847 2.926-.565.674-1.338 1.012-2.318 1.012-.975 0-1.747-.34-2.317-1.019-.57-.679-.855-1.652-.855-2.919v-2.358c0-1.267.283-2.24.848-2.92.565-.683 1.335-1.025 2.311-1.025.979 0 1.754.342 2.324 1.026.569.679.854 1.652.854 2.919v2.358zm-1.346-2.646c0-.86-.158-1.508-.472-1.94-.31-.438-.763-.657-1.36-.657-.588 0-1.037.219-1.347.656-.31.433-.465 1.08-.465 1.941v2.92c0 .86.157 1.513.472 1.955.314.437.765.656 1.353.656.597 0 1.048-.219 1.354-.656.31-.438.465-1.09.465-1.956V58.56zM166.435 64.09a1.81 1.81 0 0 0 1.175-.41c.342-.277.513-.617.513-1.018h1.21l.014.041c.022.638-.262 1.205-.855 1.702a3.108 3.108 0 0 1-2.057.739c-1.076 0-1.899-.351-2.468-1.053-.565-.702-.848-1.584-.848-2.646v-.287c0-1.053.285-1.93.855-2.632.569-.706 1.39-1.06 2.461-1.06.592 0 1.123.099 1.592.295a3.22 3.22 0 0 1 1.176.806l.062 1.641h-1.074l-.294-1.162a1.773 1.773 0 0 0-.615-.376 2.358 2.358 0 0 0-.847-.144c-.707 0-1.213.256-1.518.766-.301.506-.451 1.128-.451 1.866v.287c0 .757.15 1.388.451 1.894.301.501.807.752 1.518.752zM175.971 63.236h.041l2.413-5.633h2.803v.869l-1.115.191v5.284l1.115.192V65h-3.576v-.861l1.115-.192v-4.08l-.041-.014-2.27 5.147h-.93l-2.31-5.257-.041.014v4.19l1.114.192V65h-3.575v-.861l1.114-.192v-5.284l-1.114-.191v-.869h2.85l2.407 5.633zM209.326 50.139l1.538-.192V42.49l-1.565.028v-.841l2.912-.63v8.901l1.531.192V51h-4.416v-.861zM214.932 51v-.923l3.26-3.623c.584-.652.978-1.169 1.183-1.552.21-.383.314-.774.314-1.175 0-.497-.145-.914-.437-1.251-.292-.342-.677-.513-1.155-.513-.688 0-1.194.175-1.518.526-.323.351-.485.848-.485 1.49h-1.292l-.014-.04c-.023-.857.26-1.577.848-2.16.592-.584 1.413-.876 2.461-.876.897 0 1.611.262 2.139.787.534.519.8 1.182.8 1.989 0 .542-.162 1.084-.485 1.627-.319.542-.77 1.128-1.354 1.757l-2.618 2.85.014.034h3.534l.109-1.141h1.142V51h-6.446zM229.171 47.206c0 1.271-.283 2.247-.848 2.926-.565.674-1.337 1.012-2.317 1.012-.975 0-1.748-.34-2.318-1.019-.569-.679-.854-1.652-.854-2.919v-2.358c0-1.267.283-2.24.848-2.92.565-.683 1.335-1.025 2.31-1.025.98 0 1.755.342 2.324 1.026.57.679.855 1.652.855 2.919v2.358zm-1.347-2.646c0-.86-.157-1.508-.471-1.94-.31-.438-.764-.657-1.361-.657-.588 0-1.037.219-1.346.656-.31.433-.465 1.08-.465 1.941v2.92c0 .86.157 1.513.471 1.955.315.437.766.656 1.354.656.597 0 1.048-.219 1.353-.656.31-.438.465-1.09.465-1.956V44.56zM237.155 47.206c0 1.271-.282 2.247-.847 2.926-.565.674-1.338 1.012-2.318 1.012-.975 0-1.747-.34-2.317-1.019-.57-.679-.855-1.652-.855-2.919v-2.358c0-1.267.283-2.24.848-2.92.565-.683 1.335-1.025 2.311-1.025.979 0 1.754.342 2.324 1.026.569.679.854 1.652.854 2.919v2.358zm-1.346-2.646c0-.86-.158-1.508-.472-1.94-.31-.438-.763-.657-1.36-.657-.588 0-1.037.219-1.347.656-.31.433-.465 1.08-.465 1.941v2.92c0 .86.157 1.513.472 1.955.314.437.765.656 1.353.656.597 0 1.048-.219 1.354-.656.31-.438.465-1.09.465-1.956V44.56zM238.317 50.139l1.115-.192v-5.284l-1.115-.191v-.869h2.325l.088.964c.237-.35.543-.622.916-.813.374-.191.807-.287 1.299-.287.493 0 .914.114 1.265.342.355.227.622.57.8 1.025.232-.42.54-.752.923-.998.382-.246.829-.37 1.339-.37.757 0 1.354.26 1.791.78.438.515.657 1.292.657 2.331v3.37l1.114.192V51h-3.582v-.861l1.114-.192v-3.384c0-.729-.125-1.244-.376-1.544-.25-.306-.622-.459-1.114-.459-.469 0-.848.167-1.135.5-.282.328-.446.742-.492 1.244v3.643l1.114.192V51h-3.575v-.861l1.114-.192v-3.384c0-.692-.13-1.198-.389-1.517-.256-.324-.627-.486-1.115-.486-.41 0-.747.085-1.011.253a1.635 1.635 0 0 0-.609.711v4.423l1.115.192V51h-3.576v-.861zM251.586 50.139l.738-.103 3.48-8.99h1.155l3.418 8.99.731.103V51h-2.857v-.861l.752-.13-.656-1.832h-3.986l-.676 1.832.752.13V51h-2.851v-.861zm3.192-3.09h3.159l-1.545-4.273h-.041l-1.573 4.273zM261.888 50.139l1.114-.192v-8.552l-1.114-.19v-.87h2.461v4.253c.255-.356.567-.631.936-.827a2.583 2.583 0 0 1 1.231-.294c.793 0 1.408.237 1.845.71.438.475.657 1.204.657 2.188v3.582l1.114.192V51h-3.575v-.861l1.114-.192v-3.595c0-.611-.132-1.062-.397-1.354-.259-.292-.649-.438-1.169-.438-.369 0-.706.09-1.011.267-.301.173-.549.41-.745.711v4.41l1.114.19V51h-3.575v-.861zM227.633 59.401h1.176c.597 0 1.018-.148 1.264-.444.251-.3.376-.718.376-1.25 0-.57-.141-1.004-.424-1.3-.282-.296-.699-.444-1.251-.444-.524 0-.945.155-1.264.465-.315.305-.472.713-.472 1.223h-1.292l-.014-.04c-.022-.753.249-1.39.814-1.915.57-.528 1.312-.793 2.228-.793.921 0 1.655.246 2.202.739.546.487.82 1.184.82 2.091 0 .41-.125.82-.376 1.23-.246.407-.618.716-1.114.93.597.197 1.018.504 1.264.923.251.42.376.89.376 1.409 0 .907-.298 1.62-.895 2.14-.593.519-1.351.779-2.277.779-.911 0-1.663-.244-2.255-.732-.593-.492-.878-1.157-.855-1.996l.021-.041h1.285c0 .524.159.941.478 1.251.324.31.766.465 1.326.465.57 0 1.017-.155 1.34-.465.324-.31.486-.768.486-1.374 0-.615-.144-1.069-.431-1.36-.287-.292-.741-.438-1.36-.438h-1.176v-1.053zM235.05 65h-1.347v-1.38h1.347V65zM243.335 56.106c-1.203 1.431-2.017 2.7-2.44 3.808-.42 1.103-.723 2.44-.91 4.013L239.876 65h-1.347l.11-1.073c.191-1.568.562-2.97 1.114-4.204.551-1.235 1.306-2.44 2.263-3.617h-4.157l-.102 1.142h-1.149v-2.201h6.727v1.06zM247.266 55.915l-.91.144 2.229 6.466.226.787h.041l.225-.787 2.222-6.473-.896-.137v-.868h3.138v.868l-.8.11L249.405 65h-1.155l-3.336-8.976-.793-.109v-.868h3.145v.868zM21 1a1 1 0 0 0-1 1v3.733a1 1 0 1 0 2 0V3h2.467a1 1 0 1 0 0-2H21zM30.533 1a1 1 0 1 0 0 2h6.934a1 1 0 1 0 0-2h-6.934zM43.533 1a1 1 0 1 0 0 2H46v2.467a1 1 0 1 0 2 0V2a1 1 0 0 0-1-1h-3.467zM48 11.533a1 1 0 1 0-2 0v6.934a1 1 0 1 0 2 0v-6.934zM22 12.267a1 1 0 1 0-2 0V16a1 1 0 1 0 2 0v-3.733zM48 24.533a1 1 0 1 0-2 0V27h-2.733a1 1 0 1 0 0 2H47a1 1 0 0 0 1-1v-3.467zM33 27a1 1 0 1 0 0 2h3.733a1 1 0 1 0 0-2H33zM43.707 5.293a1 1 0 0 1 0 1.414L34.414 16H37a1 1 0 1 1 0 2h-5a1 1 0 0 1-1-1v-5a1 1 0 1 1 2 0v2.586l9.293-9.293a1 1 0 0 1 1.414 0z" fill="#8A8F92"/><path fill-rule="evenodd" clip-rule="evenodd" d="M14 20a1 1 0 0 1 1-1h14a1 1 0 0 1 1 1v14a1 1 0 0 1-1 1H15a1 1 0 0 1-1-1V20zm2 1v12h12V21H16zM128 3c.288 0 .563.124.753.341l3.5 4a1.001 1.001 0 0 1-1.506 1.317L129 6.662v12.51a3.002 3.002 0 0 1 1.97 3.252l10.599 6.522-.55-2.749a1 1 0 0 1 1.962-.392l1 5a1 1 0 0 1-.785 1.177l-5 1a1 1 0 0 1-.392-1.962l2.505-.5-10.268-6.32c-.536.497-1.253.801-2.041.801a2.992 2.992 0 0 1-2.041-.8l-10.268 6.318 2.505.501a1 1 0 1 1-.392 1.962l-5-1a1 1 0 0 1-.785-1.177l1-5a1 1 0 0 1 1.962.392l-.55 2.75 10.599-6.523a3.001 3.001 0 0 1 1.97-3.252V6.66l-1.747 1.998a1 1 0 0 1-1.506-1.318l3.5-4c.19-.217.465-.341.753-.341zm-1 19a1 1 0 1 1 2 0 1 1 0 0 1-2 0z" fill="#8A8F92"/><path d="M223 10a2 2 0 0 0-2 2v12a2 2 0 0 0 2 2h3a2 2 0 0 0 2-2V12a2 2 0 0 0-2-2h-3zM230 12a2 2 0 0 1 2-2h3a2 2 0 0 1 2 2v12a2 2 0 0 1-2 2h-3a2 2 0 0 1-2-2V12zM241 10a2 2 0 0 0-2 2v12a2 2 0 0 0 2 2h3a2 2 0 0 0 2-2V12a2 2 0 0 0-2-2h-3zM248 12a2 2 0 0 1 2-2h3a2 2 0 0 1 2 2v12a2 2 0 0 1-2 2h-3a2 2 0 0 1-2-2V12z" fill="#8A8F92"/><path fill-rule="evenodd" clip-rule="evenodd" d="M222 6a5 5 0 0 0-5 5v14a5 5 0 0 0 5 5h32a5 5 0 0 0 5-5v-2h3a1 1 0 0 0 1-1v-8a1 1 0 0 0-1-1h-3v-2a5 5 0 0 0-5-5h-32zm-3 5a3 3 0 0 1 3-3h32a3 3 0 0 1 3 3v14a3 3 0 0 1-3 3h-32a3 3 0 0 1-3-3V11z" fill="#8A8F92"/></svg><svg fill="none" viewBox="0 0 24 24" id="close" xmlns="http://www.w3.org/2000/svg"><path d="M3.707 2.293a1 1 0 1 0-1.414 1.414L10.586 12l-8.293 8.293a1 1 0 1 0 1.414 1.414L12 13.414l8.293 8.293a1 1 0 1 0 1.414-1.414L13.414 12l8.293-8.293a1 1 0 0 0-1.414-1.414L12 10.586 3.707 2.293z" fill="#C8D0D9"/></svg><svg fill="none" viewBox="0 0 160 160" id="icon-about1" xmlns="http://www.w3.org/2000/svg"><path fill-rule="evenodd" clip-rule="evenodd" d="M55.111 4a3 3 0 0 0-2.988 2.728l-.043.496c-.142 1.666-.406 4.748-1.289 8.09-.995 3.767-2.659 7.378-5.357 9.586-2.906 2.377-7.119 3.989-11.312 4.891-4.224.91-7.923.994-9.6.698A3 3 0 0 0 21 33.444v68.644c0 14.527 7.594 23.183 16.135 28.772 4.215 2.758 8.693 4.798 12.59 6.467.828.355 1.618.688 2.369 1.005l.002.001c2.917 1.231 5.244 2.213 6.916 3.217 7.763 4.657 14.271 9.053 18.548 14.73a2.982 2.982 0 0 0 1.165.969 2.991 2.991 0 0 0 2.55 0 2.983 2.983 0 0 0 1.165-.969c4.277-5.677 10.785-10.073 18.548-14.73 1.672-1.004 3.999-1.986 6.917-3.217.751-.317 1.541-.651 2.37-1.006 3.897-1.669 8.375-3.709 12.59-6.467 8.541-5.589 16.135-14.245 16.135-28.772V33.444a2.999 2.999 0 0 0-3.521-2.955c-1.678.296-5.377.212-9.601-.698-4.193-.902-8.406-2.514-11.312-4.891-2.698-2.208-4.362-5.82-5.357-9.586-.883-3.342-1.147-6.424-1.289-8.09l-.001-.005a81.785 81.785 0 0 0-.042-.491 3.001 3.001 0 0 0-2.988-2.729H55.111zm2.73 6c-.208 1.835-.57 4.274-1.249 6.846-1.118 4.231-3.213 9.305-7.359 12.697-3.939 3.223-9.19 5.111-13.849 6.114-2.984.642-5.933.965-8.384.984v65.447c0 11.917 6.017 18.906 13.42 23.751 3.757 2.458 7.836 4.332 11.667 5.973.705.301 1.413.6 2.115.895 2.965 1.249 5.824 2.453 7.897 3.698 6.618 3.97 13.023 8.132 17.901 13.445 4.878-5.313 11.283-9.475 17.901-13.445 2.073-1.245 4.932-2.449 7.897-3.698.702-.295 1.41-.594 2.115-.895 3.831-1.641 7.91-3.515 11.667-5.973 7.403-4.845 13.42-11.834 13.42-23.751V36.641c-2.451-.02-5.4-.342-8.384-.984-4.66-1.003-9.91-2.891-13.849-6.114-4.146-3.392-6.241-8.466-7.359-12.697-.68-2.572-1.041-5.011-1.249-6.847H57.841z" fill="#77A4C5"/><path fill-rule="evenodd" clip-rule="evenodd" d="M80 57C68.402 57 59 66.4 59 78c0 11.597 9.402 21 21 21s21-9.403 21-21c0-.792-.044-1.572-.128-2.338a3 3 0 1 1 5.963-.659c.109.985.165 1.985.165 2.996 0 14.912-12.088 27-27 27s-27-12.088-27-27c0-14.911 12.088-27 27-27 5.546 0 10.71 1.676 15.002 4.549a3 3 0 0 1-3.337 4.986A20.888 20.888 0 0 0 80 56.999z" fill="#4ECD00"/><path fill-rule="evenodd" clip-rule="evenodd" d="M103.121 61.878a3 3 0 0 1 0 4.243l-21 21a3 3 0 0 1-4.242 0l-11-11a3 3 0 0 1 4.242-4.243L80 80.757l18.879-18.88a3 3 0 0 1 4.242 0z" fill="#4ECD00"/></svg><svg fill="none" viewBox="0 0 160 160" id="icon-about2" xmlns="http://www.w3.org/2000/svg"><path d="M51 76a3 3 0 0 0 0 6c7.554 0 14.378 3.097 19.282 8.1a3 3 0 0 0 4.285-4.2C68.58 79.792 60.23 76 51 76z" fill="#4ECD00"/><path fill-rule="evenodd" clip-rule="evenodd" d="M39 47a3 3 0 0 0-3 3v10a3 3 0 0 0 3 3h3v3.943c-8.684 1.85-16.398 6.321-22.272 12.542l-6.607-6.607A3 3 0 1 0 8.88 77.12l74 74a3.001 3.001 0 0 0 4.242-4.243l-6.607-6.607C88.814 132.434 94 121.322 94 108.999c0-20.661-14.572-37.92-34-42.056v-3.944h3a3 3 0 0 0 3-3V50a3 3 0 0 0-3-3H39zm15 16h-6v3.102a43.632 43.632 0 0 1 6 0V63zm-12-6v-4h18v4H42zm3.25 48.006L23.973 83.73C30.728 76.507 40.337 72 51 72c20.434 0 37 16.565 37 36.999 0 10.663-4.508 20.272-11.73 27.027l-21.277-21.277a6.99 6.99 0 0 0 2.979-6.383L77.49 97.097a3 3 0 0 0-3-5.196L54.92 103.2a6.966 6.966 0 0 0-3.92-1.201 6.993 6.993 0 0 0-5.75 3.007z" fill="#4ECD00"/><path d="M15.997 96.974a3 3 0 0 0-5.674-1.95A42.945 42.945 0 0 0 8 109c0 23.748 19.252 43 43 43 4.887 0 9.59-.816 13.975-2.322a3 3 0 0 0-1.95-5.675A36.938 36.938 0 0 1 51 145.999c-20.434 0-37-16.565-37-37 0-4.215.704-8.259 1.997-12.025z" fill="#4ECD00"/><path d="M128 64a4 4 0 1 0 0-8 4 4 0 0 0 0 8z" fill="#77A4C5"/><path fill-rule="evenodd" clip-rule="evenodd" d="M136.076 8a9.005 9.005 0 0 0-9.757-4.383L106 8.03v-.03H65c-6.627 0-12 5.373-12 12v21a3 3 0 0 0 6 0V30.395A11.945 11.945 0 0 0 65 32h74a3 3 0 0 1 3 3v12h-15c-7.18 0-13 5.82-13 13 0 7.179 5.82 13 13 13h15v12a3 3 0 0 1-3 3H97a3 3 0 0 0 0 6h42a9 9 0 0 0 9-9V73a7 7 0 0 0 7-7V54a7 7 0 0 0-7-7V17a9 9 0 0 0-9-9h-2.924zm-4.914 3.78a3 3 0 0 0-3.57-2.3L65.636 22.932a3 3 0 0 1-1.272-5.863L78.496 14H65a6 6 0 0 0 0 12h74c1.052 0 2.062.18 3 .511V17a3 3 0 0 0-3-3h-1.223l1.156 5.368a3 3 0 0 1-5.866 1.263l-1.905-8.85zM127 53a7 7 0 1 0 0 14h21a1 1 0 0 0 1-1V54a1 1 0 0 0-1-1h-21z" fill="#77A4C5"/></svg><svg fill="none" viewBox="0 0 160 160" id="icon-about3" xmlns="http://www.w3.org/2000/svg"><path fill-rule="evenodd" clip-rule="evenodd" d="M50.056 4.815a3 3 0 0 0-4.112 0l-17 16A3 3 0 0 0 31 25.999h7v13a3 3 0 0 0 3 3h14a3 3 0 0 0 3-3V26h7a3 3 0 0 0 2.056-5.184l-17-16zM41 19.999h-2.435L48 11.12l9.435 8.88H55a3 3 0 0 0-3 3v13h-8V23a3 3 0 0 0-3-3zM50.056 88.184a3 3 0 0 1-4.112 0l-17-16A3 3 0 0 1 31 66.999h7V54a3 3 0 0 1 3-3h14a3 3 0 0 1 3 3v13h7a3 3 0 0 1 2.056 5.185l-17 16zM41 72.999h-2.435L48 81.88 57.435 73H55a3 3 0 0 1-3-3V57h-8v13a3 3 0 0 1-3 3zM90.185 49.055a3 3 0 0 0 0-4.112l-16-17A3 3 0 0 0 69 30v34a3 3 0 0 0 5.185 2.056l16-17zM75 56.435V37.564l8.88 9.435L75 56.434zM5.815 44.943a3 3 0 0 0 0 4.112l16 17A3 3 0 0 0 27 64V30a3 3 0 0 0-5.185-2.056l-16 17zM21 37.564v18.87L12.12 47 21 37.564z" fill="#4ECD00"/><path d="M126.5 91a4.49 4.49 0 0 0-3.5 1.67 4.5 4.5 0 1 0 0 5.657 4.5 4.5 0 1 0 3.5-7.329zM74 109.999a3 3 0 0 1 3-3h6a3 3 0 1 1 0 6h-6a3 3 0 0 1-3-3zM77 115.999a3 3 0 1 0 0 6h6a3 3 0 1 0 0-6h-6zM89 118.999a3 3 0 0 1 3-3h2a3 3 0 1 1 0 6h-2a3 3 0 0 1-3-3zM99 118.999a3 3 0 0 1 3-3h2a3 3 0 1 1 0 6h-2a3 3 0 0 1-3-3zM89 109.999a3 3 0 0 1 3-3h6a3 3 0 1 1 0 6h-6a3 3 0 0 1-3-3zM104 109.999a3 3 0 0 1 3-3h6a3 3 0 1 1 0 6h-6a3 3 0 0 1-3-3zM119 109.999a3 3 0 0 1 3-3h6a3 3 0 1 1 0 6h-6a3 3 0 0 1-3-3z" fill="#77A4C5"/><path fill-rule="evenodd" clip-rule="evenodd" d="M80 69a7 7 0 0 1 7-7h61a7 7 0 0 1 7 7v37.999a7 7 0 0 1-7 7h-8v13a7 7 0 0 1-7 7H72c-.34 0-.673-.024-1-.071v2.871c0 .068-.001.134-.004.2H71v9.8c0 1.981-1.164 3.433-2.277 4.345-1.135.929-2.595 1.633-4.134 2.167-3.107 1.077-7.204 1.688-11.589 1.688-4.385 0-8.482-.611-11.59-1.688-1.228-.426-2.407-.961-3.41-1.633-1.003.672-2.181 1.207-3.41 1.633-3.108 1.077-7.205 1.688-11.59 1.688s-8.482-.611-11.59-1.688c-1.538-.534-2.998-1.238-4.133-2.167C6.164 150.232 5 148.78 5 146.799v-9.8h.004a4.979 4.979 0 0 1-.004-.2v-9.8h.004a4.979 4.979 0 0 1-.004-.2v-9.8h.024a5.15 5.15 0 0 1-.024-.5c0-1.952 1.089-3.432 2.214-4.407 1.132-.982 2.597-1.73 4.147-2.298 3.123-1.146 7.239-1.795 11.639-1.795 4.4 0 8.516.649 11.64 1.795 1.55.568 3.014 1.316 4.146 2.298 1.125.975 2.214 2.455 2.214 4.407 0 .171-.008.337-.024.5H41v2.931c.12-.047.24-.092.36-.136 3.124-1.146 7.24-1.795 11.64-1.795s8.516.649 11.64 1.795c.12.044.24.089.36.136V89a7 7 0 0 1 7-7h8V69zm-9 57.999v-38a1 1 0 0 1 1-1h61a1 1 0 0 1 1 1v38a1 1 0 0 1-1 1H72a1 1 0 0 1-1-1zm77-19h-8v-15.5h9V107a1 1 0 0 1-1 1zm1-21.5h-9.46A7.002 7.002 0 0 0 133 82H86v-3.75h63v8.25zM86 72.25h63V69a1 1 0 0 0-1-1H87a1 1 0 0 0-1 1v3.25zm-75.069 44.592l-.009.015.003-.004a.08.08 0 0 0 .006-.011zm2.495-1.414c-1.023.375-1.713.758-2.126 1.072.413.314 1.103.697 2.126 1.073 2.306.845 5.69 1.427 9.574 1.427 3.884 0 7.268-.582 9.574-1.427 1.023-.376 1.713-.759 2.126-1.073-.413-.314-1.103-.697-2.126-1.072-2.306-.846-5.69-1.428-9.574-1.428-3.884 0-7.268.582-9.574 1.428zm21.652 1.429l-.01-.015c.008.01.01.015.01.015zm-.01-.699l.01-.014s-.002.005-.01.014zm-24.137 0c-.007-.009-.009-.014-.009-.014l.01.014zM11 146.434v-3.271c.136.051.273.1.41.148 3.108 1.077 7.205 1.688 11.59 1.688s8.482-.611 11.59-1.688c.137-.048.274-.097.41-.148v3.271l-.08.069c-.384.315-1.12.731-2.296 1.139-2.322.805-5.725 1.357-9.624 1.357-3.9 0-7.302-.552-9.624-1.357-1.175-.408-1.912-.824-2.295-1.139a1.721 1.721 0 0 1-.081-.069zm30 0v-3.271c.136.051.273.1.41.148 3.108 1.077 7.205 1.688 11.59 1.688s8.482-.611 11.59-1.688c.137-.048.274-.097.41-.148v3.271l-.08.069c-.384.315-1.12.731-2.296 1.139-2.322.805-5.725 1.357-9.624 1.357-3.9 0-7.302-.552-9.624-1.357-1.175-.408-1.912-.824-2.295-1.139a1.721 1.721 0 0 1-.081-.069zm.08-9.931a1.721 1.721 0 0 1-.08-.069v-3.365c.12.046.24.092.36.136 3.124 1.145 7.24 1.794 11.64 1.794s8.516-.649 11.64-1.794c.12-.044.24-.09.36-.136v3.365a.61.61 0 0 1-.03.027l-.05.042c-.384.315-1.12.731-2.296 1.139-2.322.805-5.725 1.357-9.624 1.357-3.9 0-7.302-.552-9.624-1.357-1.175-.408-1.912-.824-2.295-1.139zM11 136.434v-3.271c.136.051.273.1.41.148 3.108 1.077 7.205 1.688 11.59 1.688s8.482-.611 11.59-1.688c.137-.048.274-.097.41-.148v3.271l-.08.069c-.384.315-1.12.731-2.296 1.139-2.322.805-5.725 1.357-9.624 1.357-3.9 0-7.302-.552-9.624-1.357-1.175-.408-1.912-.824-2.295-1.139a1.721 1.721 0 0 1-.081-.069zm24-13.365c-.12.046-.24.092-.36.136-3.124 1.145-7.24 1.794-11.64 1.794s-8.516-.649-11.64-1.794c-.12-.044-.24-.09-.36-.136v3.365l.08.069c.384.315 1.12.731 2.296 1.139 2.322.805 5.725 1.357 9.624 1.357 3.9 0 7.302-.552 9.624-1.357 1.175-.408 1.912-.824 2.295-1.139.031-.025.058-.048.081-.069v-3.365zm-24.111 3.254zm24.222 10a.154.154 0 0 0 .012-.016l-.004.005a.06.06 0 0 0-.008.011zm-24.23-.011l.008.011a.108.108 0 0 0-.012-.016l.003.005zm32.545-10.885c-1.023.375-1.713.758-2.126 1.072.413.314 1.103.697 2.126 1.073 2.306.845 5.69 1.427 9.574 1.427 3.884 0 7.268-.582 9.574-1.427 1.023-.376 1.713-.759 2.126-1.073-.413-.314-1.103-.697-2.126-1.072-2.306-.846-5.69-1.428-9.574-1.428-3.884 0-7.268.582-9.574 1.428zm21.697 10.88l-.012.016.012-.016zm0 10l-.012.016.012-.016zm-30.012.016a.154.154 0 0 0 .012-.016l-.004.005a.066.066 0 0 0-.008.011zm-24.231-.012z" fill="#77A4C5"/></svg><svg fill="none" viewBox="0 0 160 160" id="icon-about4" xmlns="http://www.w3.org/2000/svg"><path d="M64 22a3 3 0 0 1 3-3h9a3 3 0 0 1 0 6h-6v3h15a3 3 0 1 1 0 6H67a3 3 0 0 1-3-3v-9z" fill="#77A4C5"/><path fill-rule="evenodd" clip-rule="evenodd" d="M12.19 70.376c.808-6.526 6.755-11.16 13.28-10.35 6.526.808 11.16 6.755 10.35 13.28-.809 6.526-6.755 11.16-13.28 10.35-6.526-.809-11.16-6.755-10.35-13.28zm12.542-4.396a5.906 5.906 0 1 0-1.454 11.722 5.906 5.906 0 0 0 1.454-11.722zM121.941 70.376c.81-6.526 6.756-11.16 13.281-10.35 6.526.808 11.16 6.755 10.351 13.28-.809 6.526-6.756 11.16-13.281 10.35-6.526-.809-11.16-6.755-10.351-13.28zm12.543-4.396A5.906 5.906 0 1 0 133.03 77.7a5.906 5.906 0 0 0 1.454-11.721z" fill="#77A4C5"/><path fill-rule="evenodd" clip-rule="evenodd" d="M40.027 56.7c4.356 4.615 6.696 11.065 5.854 17.854-1.498 12.082-12.507 20.662-24.589 19.163C9.21 92.22.63 81.21 2.128 69.128 3.611 57.175 14.403 48.65 26.333 49.92l8.006-11.529-13.27.155a5 5 0 0 1-4.872-3.645l-.475-1.69a5 5 0 0 1 4.034-6.292l.207-.033-.945-8.557a3 3 0 0 1 2.65-3.311l27-3a3.46 3.46 0 0 1 .046-.005l.278-.273a6 6 0 0 1 4.26-1.716l23.992.233a8 8 0 0 1 5.103 1.904l15.678 13.324 22.081.214a7.004 7.004 0 0 1 2.909.664l12.994 6.104a4 4 0 0 1 2.082 4.922l-1.035 3.006a4 4 0 0 1-3.573 2.693l-16.573.868 5.852 8.778a21.946 21.946 0 0 1 13.708-2.77c12.082 1.499 20.662 12.508 19.164 24.59-1.499 12.082-12.508 20.662-24.59 19.163-12.082-1.498-20.662-12.507-19.163-24.589a22.014 22.014 0 0 1 1.914-6.653l-11.498-6.9a29.68 29.68 0 0 0-1.105 5.63c-.259 2.623-2.544 4.888-5.457 4.688l-35.397-2.427a5 5 0 0 1-3.228-1.487l-2.46-2.509c-1.128-1.15-1.529-2.636-1.52-3.896.008-1.041-.144-3.53-1.362-7.759L40.028 56.7zm80.437-24.906l11.369 5.34-.011.033-15.8.827a12.167 12.167 0 0 0-1.23.008c-.842.046-1.994.186-3.348.55-2.727.73-6.219 2.353-9.595 5.826-4.682 4.817-6.095 11.723-6.544 15.471l-34.178-2.343-1.996-2.036c-.004-1.79-.303-4.986-1.756-9.858-.742-2.489-2.357-4.515-4.09-6.1-1.746-1.598-3.78-2.902-5.648-3.917a45.411 45.411 0 0 0-7.055-3.067l-.075-.025-.055-.018-.039-.012-.012-.004-.004-.001h-.002s-.001-.001-.85 2.716l.849-2.717-.454-.142-17.225.201 16.268-2.565 14.21-13.937 23.993.232a2 2 0 0 1 1.275.476l17.333 14.732 24.254.235c.144.001.286.034.416.095zm-75.693 9.072a38.752 38.752 0 0 0-3.644-1.73l-8.592 12.372c.92.386 1.806.83 2.653 1.33l12.96-9.808c-1.033-.796-2.196-1.522-3.377-2.164zm72.294 16.574c.303-.351.617-.692.941-1.023l-7.432-11.148c-1.36.676-2.884 1.708-4.423 3.291a12.95 12.95 0 0 0-1.288 1.558l12.202 7.322zM25.896 25.95l10.256-1.617 5.62-5.512-16.461 1.829.585 5.3zm.083 29.969c-8.793-1.09-16.806 5.154-17.896 13.948-1.09 8.793 5.154 16.805 13.947 17.896 8.794 1.09 16.806-5.154 17.897-13.948 1.09-8.793-5.154-16.806-13.948-17.896zm109.753 0c-8.794-1.09-16.806 5.154-17.897 13.948-1.09 8.793 5.154 16.805 13.948 17.896 8.793 1.09 16.806-5.154 17.896-13.948 1.091-8.793-5.154-16.806-13.947-17.896z" fill="#77A4C5"/><circle cx="66" cy="112.999" r="9" stroke="#4ECD00" stroke-width="6"/><circle cx="66" cy="112.999" r="3" fill="#4ECD00"/><circle cx="108" cy="112.999" r="9" stroke="#4ECD00" stroke-width="6"/><circle cx="108" cy="112.999" r="3" fill="#4ECD00"/><circle cx="87" cy="128.999" r="3" fill="#4ECD00"/><path fill-rule="evenodd" clip-rule="evenodd" d="M90 82a3 3 0 0 0-6 0v6h-3a3 3 0 0 0-3 3v4h-.634c-2.223-2.253-6.558-5-13.366-5-8.383 0-13.419 4.705-14.898 10.223-2.596 9.686-8.359 30.594-9.481 34.434-.8 2.736-1.3 6.514-.48 10.056.855 3.701 3.217 7.259 8.015 8.665 3.671 1.076 7.357.93 10.784-.633 2.949-1.344 5.516-3.648 7.68-6.746H108.101c2.164 3.098 4.731 5.402 7.68 6.746 3.427 1.563 7.112 1.709 10.784.633 4.797-1.406 7.16-4.964 8.016-8.665.818-3.542.319-7.32-.481-10.056-1.122-3.84-6.885-24.748-9.481-34.434-1.479-5.518-6.515-10.224-14.898-10.224-6.808 0-11.143 2.748-13.366 5H96v-4a3 3 0 0 0-3-3h-3v-6zm0 13v-1h-6v1h6zm-15.523 5.999h24.767l.899-1.23c.669-.914 3.54-3.77 9.578-3.77 5.781 0 8.355 2.99 9.102 5.777 2.597 9.69 8.375 30.655 9.518 34.565.617 2.108.909 4.792.394 7.021-.478 2.068-1.574 3.589-3.858 4.258-2.434.714-4.623.571-6.607-.334-2.026-.924-4.091-2.759-5.993-5.857l-.878-1.43H62.322l-.879 1.43c-1.901 3.098-3.966 4.933-5.992 5.857-1.984.905-4.173 1.048-6.607.334-2.285-.669-3.38-2.19-3.858-4.258-.515-2.229-.223-4.913.393-7.021 1.144-3.91 6.922-24.875 9.519-34.565.747-2.787 3.32-5.777 9.102-5.777 6.038 0 8.91 2.856 9.578 3.77l.899 1.23z" fill="#77A4C5"/><rect x="81" y="106.999" width="12" height="6" rx="3" fill="#4ECD00"/><rect x="76" y="130.999" width="9" height="6" rx="3" fill="#4ECD00"/><rect x="76" y="120.999" width="9" height="6" rx="3" fill="#4ECD00"/><rect x="89" y="130.999" width="9" height="6" rx="3" fill="#4ECD00"/><rect x="89" y="120.999" width="9" height="6" rx="3" fill="#4ECD00"/></svg><svg fill="none" viewBox="0 0 24 24" id="icon-bullet" xmlns="http://www.w3.org/2000/svg"><path fill-rule="evenodd" clip-rule="evenodd" d="M12 3a9 9 0 1 0 8.945 7.998 1 1 0 0 1 1.988-.22c.044.402.067.81.067 1.222 0 6.075-4.925 11-11 11S1 18.075 1 12 5.925 1 12 1c2.26 0 4.363.682 6.112 1.853a1 1 0 1 1-1.113 1.662A8.953 8.953 0 0 0 12 3z" fill="#77A4C5"/><path fill-rule="evenodd" clip-rule="evenodd" d="M22.707 4.293a1 1 0 0 1 0 1.414l-10 10a1 1 0 0 1-1.414 0l-5-5a1 1 0 0 1 1.414-1.414L12 13.586l9.293-9.293a1 1 0 0 1 1.414 0z" fill="#4ECD00"/></svg><svg fill="none" viewBox="0 0 100 100" id="icon-car-settings-4" xmlns="http://www.w3.org/2000/svg"><path d="M51.094 29.878L46.5 28.5 46 31l5.077.846a1 1 0 0 1 .83 1.085l-.045.459a1 1 0 0 1-1.118.893l-5.248-.65.92 1.835a2 2 0 0 1-.653 2.543l-13.588 9.361a2 2 0 0 1-1.38.338l-1.034-.128a2 2 0 0 1-1.331-.756l-1.32-1.693-2.665 6.906a1 1 0 0 1-1.504.461l-.816-.566a1 1 0 0 1-.374-1.152l2.749-7.858-2.35-.526-1.838 7.263a1 1 0 0 1-1.204.727l-.724-.175a1 1 0 0 1-.755-1.113L18.5 43h-1l-4.24 3.452a1.81 1.81 0 0 1-2.474-2.628l1.903-2.07 1.077-8.684a3 3 0 0 1 1.133-1.997l8.153-6.354a5 5 0 0 1 3.237-1.054l9.803.321 8.336-6.496a4 4 0 0 1 2.385-.845l5.384-.1a1 1 0 0 1 .96.667l.25.706a1 1 0 0 1-.494 1.227l-5.992 3.004-.26 2.088 5.278 2.95a1 1 0 0 1 .509.953l-.07.861a1 1 0 0 1-1.284.877z" fill="#77A4C5"/><path fill-rule="evenodd" clip-rule="evenodd" d="M79.357 34.121c-.894 7.208-7.461 12.326-14.668 11.432-7.207-.894-12.325-7.46-11.432-14.668.894-7.207 7.461-12.325 14.668-11.431 7.207.893 12.325 7.46 11.432 14.667zm-6.947-.86a6.15 6.15 0 1 1-12.206-1.515A6.15 6.15 0 0 1 72.41 33.26z" fill="#77A4C5"/><path d="M95.398 85H4.248c-.867 0-1.323-1.026-.744-1.67l2.711-3.008a4 4 0 0 1 3.747-1.246l8.823 1.742 6.417-3.54a12 12 0 0 1 8.058-1.279L47 78.636l17.701-27.61a6 6 0 0 1 3.638-2.593l8.161-1.979 2.758-4.569c.785-1.3 2.675-1.286 3.44.026l1.612 2.764a3 3 0 0 1 .293.687L86.5 52l1.94 1.41a5 5 0 0 1 1.889 2.758l7.002 26.318A2 2 0 0 1 95.398 85z" fill="#77A4C5"/><path fill-rule="evenodd" clip-rule="evenodd" d="M13.05 77.31c7.207.894 13.774-4.224 14.668-11.431.893-7.208-4.225-13.775-11.432-14.668-7.207-.894-13.774 4.224-14.668 11.431C.725 69.85 5.843 76.416 13.05 77.31zm.861-6.947a6.15 6.15 0 1 0 1.513-12.206 6.15 6.15 0 0 0-1.513 12.206z" fill="#77A4C5"/></svg><svg fill="none" viewBox="0 0 100 100" id="icon-car-settings-5" xmlns="http://www.w3.org/2000/svg"><path d="M21.35 6.983a2 2 0 0 1 2.244-1.723l7.932 1.04a2 2 0 0 1 1.723 2.243l-2.6 19.83a2 2 0 0 1-2.243 1.723l-7.932-1.04a2 2 0 0 1-1.723-2.243l2.6-19.83z" fill="#77A4C5"/><path fill-rule="evenodd" clip-rule="evenodd" d="M33.5 20l.5-4h34l-.5 4H56v14h4c5.523 0 10 4.477 10 10v11c0 5.523-4.477 10-10 10h-4v15h12v4H34v-4h12V65h-4c-5.523 0-10-4.477-10-10V44c0-5.523 4.477-10 10-10h4V20H33.5zM60 40H42a4 4 0 0 0-4 4v11a4 4 0 0 0 4 4h18a4 4 0 0 0 4-4V44a4 4 0 0 0-4-4z" fill="#77A4C5"/><path d="M20 72a2 2 0 0 1 2-2h8a2 2 0 0 1 2 2v20a2 2 0 0 1-2 2h-8a2 2 0 0 1-2-2V72zM72 70a2 2 0 0 0-2 2v20a2 2 0 0 0 2 2h8a2 2 0 0 0 2-2V72a2 2 0 0 0-2-2h-8zM73.103 5.26a2 2 0 0 0-2.243 1.723l-2.6 19.83a2 2 0 0 0 1.723 2.243l7.932 1.04a2 2 0 0 0 2.243-1.723l2.6-19.83A2 2 0 0 0 81.035 6.3l-7.932-1.04z" fill="#77A4C5"/></svg><svg fill="none" viewBox="0 0 100 100" id="icon-car-settings-6" xmlns="http://www.w3.org/2000/svg"><path d="M48 18a3 3 0 0 1 6 0v10a3 3 0 0 1-6 0V18z" fill="#77A4C5"/><path fill-rule="evenodd" clip-rule="evenodd" d="M51 65c8.284 0 15-6.716 15-15 0-8.285-6.716-15-15-15-8.284 0-15 6.715-15 15 0 8.284 6.716 15 15 15zm0-6a9 9 0 1 0 0-18 9 9 0 0 0 0 18z" fill="#77A4C5"/><path d="M51 70a3 3 0 0 0-3 3v10a3 3 0 0 0 6 0V73a3 3 0 0 0-3-3zM25.898 25.398a3 3 0 0 0 0 4.242l7.07 7.071a3 3 0 1 0 4.243-4.242l-7.07-7.072a3 3 0 0 0-4.243 0zM64.788 64.288a3 3 0 0 0 0 4.243l7.072 7.071a3 3 0 0 0 4.242-4.243l-7.07-7.07a3 3 0 0 0-4.243 0zM71.86 25.398a3 3 0 1 1 4.242 4.242l-7.07 7.071a3 3 0 0 1-4.243-4.242l7.07-7.072zM32.969 64.288a3 3 0 0 1 4.242 4.243l-7.07 7.071a3 3 0 1 1-4.243-4.243l7.07-7.07zM83.5 47.278a3 3 0 0 1 0 6h-10a3 3 0 0 1 0-6h10zM31.5 50.721a3 3 0 0 0-3-3h-10a3 3 0 1 0 0 6h10a3 3 0 0 0 3-3z" fill="#77A4C5"/></svg><svg fill="none" viewBox="0 0 100 100" id="icon-car-settings-7" xmlns="http://www.w3.org/2000/svg"><path fill-rule="evenodd" clip-rule="evenodd" d="M43.846 19.584L24.024 34H16C9.343 34 4 39.343 4 46v8c0 6.697 5.571 12 12 12h8.024l19.822 14.416A8.282 8.282 0 0 0 57 73.718V26.282a8.282 8.282 0 0 0-13.154-6.698zm3.53 4.852A2.282 2.282 0 0 1 51 26.282v47.436a2.282 2.282 0 0 1-3.625 1.845l-20.61-14.99A3 3 0 0 0 25 60h-9c-3.196 0-6-2.697-6-6v-8c0-3.343 2.657-6 6-6h9a3 3 0 0 0 1.765-.574l20.61-14.99z" fill="#77A4C5"/><path d="M77.952 21.375a3 3 0 1 0-2.904 5.25C83.374 31.23 89 40.095 89 50.269c0 10.175-5.626 19.04-13.952 23.644a3 3 0 0 0 2.904 5.25C88.111 73.546 95 62.714 95 50.27c0-12.444-6.89-23.275-17.048-28.894z" fill="#77A4C5"/><path d="M66.808 29.797a2.5 2.5 0 0 1 3.395-.989C77.523 32.826 82.5 40.58 82.5 49.5S77.523 66.173 70.203 70.19a2.5 2.5 0 1 1-2.406-4.383c5.797-3.182 9.703-9.3 9.703-16.308 0-7.01-3.906-13.126-9.703-16.309a2.5 2.5 0 0 1-.989-3.394z" fill="#77A4C5"/><path d="M63.093 38.325a2 2 0 1 0-2.186 3.35C63.262 43.212 65 46.294 65 50c0 3.704-1.738 6.787-4.093 8.325a2 2 0 1 0 2.186 3.35C66.7 59.32 69 54.904 69 50c0-4.906-2.3-9.32-5.907-11.675z" fill="#77A4C5"/></svg><svg fill="none" viewBox="0 0 100 100" id="icon-car-settings-8" xmlns="http://www.w3.org/2000/svg"><path d="M29.04 25h9.98v-2.54h-6.221v-.136l1.836-1.729c1.224-1.12 2.077-1.982 2.558-2.587.489-.606.847-1.195 1.075-1.768a4.9 4.9 0 0 0 .351-1.855c0-.756-.189-1.426-.566-2.012-.378-.586-.908-1.042-1.592-1.367-.684-.326-1.471-.489-2.363-.489a7.58 7.58 0 0 0-1.836.205 6.27 6.27 0 0 0-1.514.567c-.462.247-1.045.67-1.748 1.27l1.64 1.943c.567-.469 1.11-.83 1.632-1.084a3.636 3.636 0 0 1 1.61-.381c.528 0 .948.14 1.26.42.32.28.48.706.48 1.28 0 .383-.072.754-.216 1.112-.143.358-.377.75-.703 1.172-.325.417-1.019 1.169-2.08 2.256L29.039 22.9V25zM42.428 27.578c.807-1.803 1.38-3.363 1.719-4.678L44 22.676h-2.734a56.83 56.83 0 0 1-.987 4.902h2.149z" fill="#77A4C5"/><path fill-rule="evenodd" clip-rule="evenodd" d="M56.568 22.04H54.85V25H51.9v-2.96h-6.093v-2.099l6.26-9.219h2.783v8.975h1.718v2.344zM51.9 19.698v-2.422c0-.403.017-.99.05-1.758.032-.768.058-1.214.077-1.338h-.078c-.24.534-.53 1.055-.869 1.563l-2.617 3.955H51.9z" fill="#77A4C5"/><path d="M69.772 16.982h-5.665v2.52h2.706v2.978a9.793 9.793 0 0 1-1.924.195c-1.211 0-2.136-.406-2.774-1.22-.631-.82-.947-2.005-.947-3.555 0-1.484.394-2.666 1.182-3.545.787-.879 1.836-1.318 3.144-1.318 1.126 0 2.21.26 3.252.781l1.006-2.422a10.61 10.61 0 0 0-4.238-.879c-2.338 0-4.167.645-5.489 1.934-1.315 1.289-1.972 3.086-1.972 5.39 0 2.37.566 4.19 1.699 5.46 1.14 1.263 2.786 1.894 4.941 1.894.847 0 1.674-.062 2.48-.186a15.57 15.57 0 0 0 2.599-.625v-7.402zM84.879 25H81.86v-6.162h-5.654V25H73.18V10.722h3.027v5.596h5.654v-5.596h3.018V25zM87.232 25h8.624v-2.276h-5.098l4.922-6.709v-1.933h-8.145v2.275h4.756l-5.059 6.885V25zM4 26a3 3 0 0 1 3-3h10a3 3 0 0 1 3 3v58a3 3 0 0 1-3 3H7a3 3 0 0 1-3-3V26zM29 41a3 3 0 0 1 3-3h10a3 3 0 0 1 3 3v43a3 3 0 0 1-3 3H32a3 3 0 0 1-3-3V41zM57 53a3 3 0 0 0-3 3v28a3 3 0 0 0 3 3h10a3 3 0 0 0 3-3V56a3 3 0 0 0-3-3H57zM79 69a3 3 0 0 1 3-3h10a3 3 0 0 1 3 3v15a3 3 0 0 1-3 3H82a3 3 0 0 1-3-3V69z" fill="#77A4C5"/></svg><svg fill="none" viewBox="0 0 100 100" id="icon-car-settings-9" xmlns="http://www.w3.org/2000/svg"><path d="M13 33a3 3 0 0 0-3 3v28a3 3 0 0 0 3 3h10a3 3 0 0 0 3-3V36a3 3 0 0 0-3-3H13zM29 36a3 3 0 0 1 3-3h10a3 3 0 0 1 3 3v28a3 3 0 0 1-3 3H32a3 3 0 0 1-3-3V36zM51 33a3 3 0 0 0-3 3v28a3 3 0 0 0 3 3h10a3 3 0 0 0 3-3V36a3 3 0 0 0-3-3H51zM67 36a3 3 0 0 1 3-3h10a3 3 0 0 1 3 3v28a3 3 0 0 1-3 3H70a3 3 0 0 1-3-3V36z" fill="#77A4C5"/><path fill-rule="evenodd" clip-rule="evenodd" d="M13 26C7.477 26 3 30.477 3 36v28c0 5.523 4.477 10 10 10h67c5.523 0 10-4.477 10-10v-4h4a3 3 0 0 0 3-3V43a3 3 0 0 0-3-3h-4v-4c0-5.523-4.477-10-10-10H13zM7 36a6 6 0 0 1 6-6h67a6 6 0 0 1 6 6v28a6 6 0 0 1-6 6H13a6 6 0 0 1-6-6V36z" fill="#77A4C5"/></svg><svg fill="none" viewBox="0 0 32 32" id="icon-close" xmlns="http://www.w3.org/2000/svg"><path d="M7 15a1 1 0 1 0 0 2h18a1 1 0 1 0 0-2H7z" fill="#4ECD00"/><path fill-rule="evenodd" clip-rule="evenodd" d="M5 0a5 5 0 0 0-5 5v22a5 5 0 0 0 5 5h22a5 5 0 0 0 5-5V5a5 5 0 0 0-5-5H5zM2 5a3 3 0 0 1 3-3h22a3 3 0 0 1 3 3v22a3 3 0 0 1-3 3H5a3 3 0 0 1-3-3V5z" fill="#4ECD00"/></svg><svg fill="none" viewBox="0 0 32 32" id="icon-open" xmlns="http://www.w3.org/2000/svg"><path d="M15 7a1 1 0 1 1 2 0v8h8a1 1 0 1 1 0 2h-8v8a1 1 0 1 1-2 0v-8H7a1 1 0 1 1 0-2h8V7z" fill="#3FA1E9"/><path fill-rule="evenodd" clip-rule="evenodd" d="M0 5a5 5 0 0 1 5-5h22a5 5 0 0 1 5 5v22a5 5 0 0 1-5 5H5a5 5 0 0 1-5-5V5zm5-3a3 3 0 0 0-3 3v22a3 3 0 0 0 3 3h22a3 3 0 0 0 3-3V5a3 3 0 0 0-3-3H5z" fill="#3FA1E9"/></svg><svg viewBox="0 0 254 65" id="logo" xmlns="http://www.w3.org/2000/svg"><defs><style>.rcls-1,.rcls-2{fill:#34383a;fill-rule:evenodd}.rcls-2{fill:#7cf432}</style></defs><path class="rcls-1" d="M243.3 47.935V42.36l-2.484 5.575h-16.232l-2.016-4.4v4.4h-19.654V37.454h-1.56v10.48h-19.6V42.36l-2.483 5.575h-45.184l-1.313-5.013h-2.316l-1.313 5.013H93.951V17.7h11.558l2.405 9.2 2.4-9.2h11.56v17.164l5.365-17.164h8.749l5.037 16v-16h39.251v5.579l2.481-5.579h18.6v9.908h1.56V17.7h19.654v2.687l1.168-2.687h18.092v5.579l2.481-5.579H254v30.235h-10.7zM119 20.57h-6.465l-4.615 17.714-4.631-17.714h-6.465v24.494h4.95v-6.628l-.455-10.211 4.9 16.839h3.367l4.9-16.839-.454 10.211v6.628H119V20.57zm14.883 0h-4.528l-7.66 24.493h5.235l1.313-5.013h6.752l1.313 5.013h5.286zm34.783 0h-4.949v20.389H158.8V20.57h-4.95v20.389h-4.983V20.57H143.9v24.494h24.765V20.57zm20.911 0h-4.95L177.4 36.8V20.57h-4.966v24.494h4.966l7.222-16.217v16.217h4.95V20.57zm21.146 0h-4.933v9.908h-7.31V20.57h-4.949v24.494h4.949V34.583h7.307v10.48h4.933V20.57zm14.934 11.405l5.993-11.405h-6.03l-4.26 9.791h-1.666V20.57h-4.95v24.494h4.95v-9.993h2.155l4.58 9.992h5.892zm5.46 4.39v-8.604L228.888 32zm20.013-15.8h-4.95L238.954 36.8V20.57h-4.966v24.494h4.966l7.223-16.217v16.217h4.95V20.57zM131.608 27.2l2.289 8.731h-4.579zM249.6 7.7h-2.626l-.511 1.949h-2.036l2.979-9.525h1.761l3 9.525h-2.055zm-1.317-5l-.883 3.4h1.781zm-11.97 7.078a3.2 3.2 0 0 1-2.344-.8 3.11 3.11 0 0 1-.806-2.309V.129h1.937v6.555a1.959 1.959 0 0 0 .262 1.158 1.474 1.474 0 0 0 1.892.006 1.963 1.963 0 0 0 .262-1.132V.129h1.925v6.595A3.088 3.088 0 0 1 238.625 9a3.174 3.174 0 0 1-2.31.785zm-10.131-.059a1.1 1.1 0 0 1-.773-.281.956.956 0 0 1-.3-.733.982.982 0 0 1 .291-.725 1.19 1.19 0 0 1 1.552 0 1.027 1.027 0 0 1-.007 1.472 1.1 1.1 0 0 1-.761.274zM213.394 8.5l3.889-6.764h-3.929v-1.6h6.146v1.125l-3.856 6.8h3.929v1.6h-6.181V8.5zM205.816.133h1.925v9.521h-1.925V.129zm-5.777 6.725a2.711 2.711 0 0 1-.765 2.093 3.129 3.129 0 0 1-2.207.707h-3.156V.129h2.946a3.378 3.378 0 0 1 2.266.671 2.4 2.4 0 0 1 .777 1.94 2.352 2.352 0 0 1-.32 1.25 1.892 1.892 0 0 1-.877.765 1.665 1.665 0 0 1 .989.739 2.512 2.512 0 0 1 .347 1.361zm-2.33-4.841a1.12 1.12 0 0 0-.852-.281h-1.022v2.377h1a1.018 1.018 0 0 0 1.132-1.171 1.346 1.346 0 0 0-.258-.928zm-.518 3.5h-1.356v2.541h1.232a.964.964 0 0 0 .785-.32 1.378 1.378 0 0 0 .269-.909q0-1.283-.93-1.316zM186.85 9.726a1.1 1.1 0 0 1-.771-.281.956.956 0 0 1-.3-.733.978.978 0 0 1 .3-.733 1.188 1.188 0 0 1 1.551 0 1.026 1.026 0 0 1-.006 1.472 1.109 1.109 0 0 1-.774.275zm-8.965-9.6h1.925v9.528h-1.925V.129zm-7.374 9.525l-1.743-3.677-.759.955v2.725h-1.925V.129h1.925v4.155l.61-1.027L170.393.13h2.356l-2.73 4.187 2.781 5.337h-2.284zm-15-6.248v6.251h-1.925V.129h1.925l2.822 6.254V.129h1.918v9.525h-1.925zM145.75.129h1.925v9.525h-1.925V.129zm-7.85 5.45h-2.841v4.075h-1.925V.129h1.925v3.854h2.841V.129h1.918v9.525H137.9V5.579zm-12.53-3.651a.986.986 0 0 0-.819-.353 1.022 1.022 0 0 0-.785.3 1.106 1.106 0 0 0-.282.8 1 1 0 0 0 .315.713 3.662 3.662 0 0 0 1.113.654 4.746 4.746 0 0 1 2.023 1.236 2.746 2.746 0 0 1 .635 1.864 2.458 2.458 0 0 1-.792 1.943 3.14 3.14 0 0 1-2.155.7 3.712 3.712 0 0 1-1.682-.379 2.863 2.863 0 0 1-1.191-1.086 3.169 3.169 0 0 1-.426-1.668h1.931a1.818 1.818 0 0 0 .321 1.2 1.313 1.313 0 0 0 1.047.373.918.918 0 0 0 1.009-1.066 1.172 1.172 0 0 0-.3-.877 3.344 3.344 0 0 0-1.081-.622 5.086 5.086 0 0 1-2.063-1.269 2.572 2.572 0 0 1-.627-1.727 2.411 2.411 0 0 1 .85-1.93 3.542 3.542 0 0 1 3.739-.36 2.524 2.524 0 0 1 1.054 1.04 3.1 3.1 0 0 1 .374 1.531h-1.919a1.552 1.552 0 0 0-.289-1.017zM113.851 7.7h-2.626l-.511 1.949h-2.036l2.98-9.525h1.761l3 9.525h-2.056zm-1.317-5l-.89 3.4h1.781zm-11.126 4.37l.177-3.971-1.9 6.549H98.37l-1.905-6.542.177 3.971v2.577h-1.925V.129h2.514l1.8 6.889 1.793-6.889h2.515v9.525h-1.932V7.077zM82.837 47.564a16.9 16.9 0 0 1-2.631 2.3l2.251 1.153 11.994 2 18.99 7.977 14.492-6.479 100.449 6.479L239.876 65H0v-4.006l12.139-9.914.081-.086a5.825 5.825 0 0 1-2.406-4.809 20.154 20.154 0 0 1 .414-3.837 9.779 9.779 0 0 1-2.809-4.714l-.754-2.949a11.964 11.964 0 0 1 8.66-14.514l7.338-1.871q.07-.344.154-.684a18.21 18.21 0 0 0-5.038-2.761 7.934 7.934 0 0 1-10.022-1.6 7.876 7.876 0 0 1 2.375-12.18 7.938 7.938 0 0 1 9.673 1.91 31.868 31.868 0 0 1 9.716 4.755c3.337-2.328 7.152-3.214 10.326-3.95l.044-.011c.647-.15 1.316-.306 1.917-.459.468-.12.936-.244 1.4-.367l.066-.017a87.71 87.71 0 0 1 3.252-.814c4.889-1.1 12.332.911 17.815 4.713a28.305 28.305 0 0 1 6.939-.168c3.618.381 8.17 1.768 9.306 6.213l1.914 7.458a5.949 5.949 0 0 1 .822 1.791 5.875 5.875 0 0 1 0 3.082 16.87 16.87 0 0 1-.485 22.353zM53.385 35.991l-8.366 2.138a16.835 16.835 0 0 1 2.074 6.641c.052.543.071 1.088.07 1.631l7.93-2.883a16.824 16.824 0 0 1-1.708-7.527z"/><path id="rShape_1_copy" data-name="Shape 1 copy" class="rcls-2" d="M80.186 25.188a3.019 3.019 0 0 0-.386-3.548l-2.05-8.04c-.58-2.268-2.862-3.626-6.781-4.039a25.886 25.886 0 0 0-7.368.347c-5.363-4.152-12.553-5.814-16.435-4.943-1.073.24-2.127.519-3.146.788l-.06.015c-.477.126-.953.252-1.43.374-.646.165-1.336.325-2.021.484-3.69.856-7.83 1.816-10.979 4.872a28.594 28.594 0 0 0-11.505-6 4.981 4.981 0 1 0-.766 6.091 21.254 21.254 0 0 1 8.908 5.074 14.368 14.368 0 0 0-.88 3.964l-9.242 2.362a9.038 9.038 0 0 0-6.54 10.97l.754 2.948a6.858 6.858 0 0 0 3.3 4.276 17.1 17.1 0 0 0-.811 5.028 3.022 3.022 0 0 0 2.343 2.977 3.047 3.047 0 0 0 1.357 0c.045.222.1.444.152.665a14.016 14.016 0 0 0 15.361 10.429 14.026 14.026 0 0 0 12.283-13.946 13.944 13.944 0 0 0-6.093-11.473 3.029 3.029 0 0 0 .343-.611 3.065 3.065 0 0 0 .182-.614l.19-.077v.008a3.039 3.039 0 0 0 3.7 2.18l10.712-2.737a3.037 3.037 0 0 0 1.758-1.233 2.985 2.985 0 0 0 1.687 1.039 13.965 13.965 0 0 0 10.423 16.95 14.06 14.06 0 0 0 16.91-10.61 13.936 13.936 0 0 0-4.29-13.408 3.046 3.046 0 0 0 .42-.562z"/><path id="rShape_1_copy_2" data-name="Shape 1 copy 2" class="rcls-1" d="M77.156 24.363a13.673 13.673 0 0 0-19.049 5.845.787.787 0 1 1-1.417-.686 15.227 15.227 0 0 1 1.882-2.928 66.877 66.877 0 0 0-22.608 5.778l.018.007a.786.786 0 0 1-.6 1.453 13.644 13.644 0 0 0-18.8 12.413.789.789 0 1 1-1.582-.013 15 15 0 0 1 1.532-6.424 4.639 4.639 0 0 1-4.086-3.459l-.757-2.949a6.786 6.786 0 0 1 4.911-8.233l10.916-2.79a12.124 12.124 0 0 1 1.315-6.177c-3.111-3.508-7.116-5.816-12.512-7.2a2.713 2.713 0 1 1 .081-1.6 26.024 26.024 0 0 1 13.282 7.393c.221-.318.455-.629.708-.927 2.743-3.222 6.749-4.152 10.626-5.052.685-.159 1.394-.323 2.069-.5.483-.124.966-.251 1.449-.379 1.018-.269 2.071-.548 3.121-.783 3.569-.8 10.657 1.132 15.349 5.177a24.008 24.008 0 0 1 7.721-.534c1.985.209 4.436.788 4.839 2.367l2.241 8.765.138.074a.787.787 0 0 1-.788 1.361zM13.459 6.956a1.16 1.16 0 0 0-.86.957 1.152 1.152 0 0 0 .556 1.157 1.157 1.157 0 1 0 .3-2.114zm60.577 7.6c-.232-.908-5.361-2.063-11.055-.608a.814.814 0 0 1-.142.022h-.072a.82.82 0 0 1-.093 0 .71.71 0 0 1-.072-.017.784.784 0 0 1-.078-.019.724.724 0 0 1-.073-.034.712.712 0 0 1-.082-.043.792.792 0 0 1-.108-.079C57.708 9.658 50.888 8.038 48 8.685c-1.021.229-2.059.5-3.062.769-.488.129-.975.258-1.462.382-.693.177-1.41.343-2.1.5-3.624.841-7.373 1.711-9.777 4.536a10.532 10.532 0 0 0-1.1 1.557l-.02.038A10.52 10.52 0 0 0 29.4 24.3a.789.789 0 0 1-1.529.391 11.85 11.85 0 0 1-.162-.743l-10.718 2.74a5.212 5.212 0 0 0-3.772 6.322l.754 2.948a3.075 3.075 0 0 0 3.454 2.266 15.271 15.271 0 0 1 16.338-6.556 68.57 68.57 0 0 1 26.4-6.746 15.287 15.287 0 0 1 15.791-2.876l-1.916-7.493zM58.772 16.01l-16.525 4.223a.787.787 0 0 1-.958-.565L39.61 13.1a.786.786 0 0 1 .569-.956l1.411-.364c1.729-.448 4.341-1.125 5.223-1.327 2.729-.625 9.677.736 12.4 4.32a.784.784 0 0 1-.1 1.052.791.791 0 0 1-.338.182zm-11.609-4.025c-.86.2-3.459.871-5.179 1.317l-.652.169 1.29 5.047 14.467-3.7c-2.71-2.347-7.909-3.3-9.926-2.835zm-2 9.107l6.537-1.671a.785.785 0 1 1 .389 1.521l-6.539 1.671a.789.789 0 0 1-.6-.078.785.785 0 0 1 .215-1.443zM27.3 35.026a11.77 11.77 0 0 1 12.315 4.333 11.72 11.72 0 0 1-4.365 17.6 11.79 11.79 0 0 1-12.933-1.842 11.665 11.665 0 0 1-2.234-14.7 11.813 11.813 0 0 1 7.217-5.391zm5.418 21.188a10.19 10.19 0 0 0 7.556-8.41 10.153 10.153 0 0 0-10.637-11.557 10.209 10.209 0 0 0-9.062 6.774 10.1 10.1 0 0 0 4.415 12.1 10.234 10.234 0 0 0 7.723 1.095zm-4.244-16.6a7.013 7.013 0 0 1 7.333 2.586 6.984 6.984 0 0 1-2.6 10.485 7.026 7.026 0 0 1-7.707-1.1 6.951 6.951 0 0 1-1.331-8.76 7.039 7.039 0 0 1 4.3-3.21zm3.066 12.011a5.435 5.435 0 0 0 4.03-4.485 5.416 5.416 0 0 0-5.67-6.165 5.445 5.445 0 0 0-4.833 3.613 5.39 5.39 0 0 0 2.355 6.453 5.458 5.458 0 0 0 4.12.584zm-1.94-7.569a2.41 2.41 0 0 1 2.523.887 2.4 2.4 0 0 1-.893 3.6 2.415 2.415 0 0 1-2.649-.377 2.4 2.4 0 0 1 .17-3.709 2.42 2.42 0 0 1 .849-.4zm12.017-12l10.712-2.738a.785.785 0 1 1 .389 1.521L42.01 33.576a.788.788 0 0 1-.837-.283.785.785 0 0 1 .165-1.108.791.791 0 0 1 .282-.13zm25.824-7.289a11.77 11.77 0 0 1 12.32 4.333 11.72 11.72 0 0 1-4.365 17.6 11.79 11.79 0 0 1-12.933-1.841 11.664 11.664 0 0 1-2.234-14.7 11.812 11.812 0 0 1 7.216-5.387zm5.418 21.188a10.19 10.19 0 0 0 7.556-8.41 10.153 10.153 0 0 0-10.628-11.558 10.209 10.209 0 0 0-9.062 6.773 10.1 10.1 0 0 0 4.414 12.1 10.233 10.233 0 0 0 7.723 1.095zm-4.244-16.6a7.013 7.013 0 0 1 7.338 2.582 6.984 6.984 0 0 1-2.6 10.485 7.025 7.025 0 0 1-7.707-1.1 6.949 6.949 0 0 1-1.33-8.759 7.04 7.04 0 0 1 4.3-3.21zm3.071 12.011a5.435 5.435 0 0 0 4.03-4.486 5.415 5.415 0 0 0-5.671-6.164 5.445 5.445 0 0 0-4.834 3.613 5.391 5.391 0 0 0 2.355 6.454 5.458 5.458 0 0 0 4.12.584zm-1.936-7.57a2.41 2.41 0 0 1 2.523.886 2.4 2.4 0 0 1-.893 3.6 2.414 2.414 0 0 1-2.649-.377A2.4 2.4 0 0 1 68.9 34.2a2.419 2.419 0 0 1 .849-.4z"/></svg><svg fill="none" viewBox="0 0 271 67" id="rc-settings" xmlns="http://www.w3.org/2000/svg"><path d="M6.16 49.236h.041l2.413-5.633h2.803v.869l-1.114.191v5.284l1.114.192V51H7.842v-.861l1.114-.192v-4.08l-.041-.014L6.645 51h-.93l-2.31-5.257-.04.014v4.19l1.114.192V51H.903v-.861l1.115-.192v-5.284l-1.115-.191v-.869h2.851l2.406 5.633zM17.46 51c-.041-.2-.073-.38-.096-.54a5.656 5.656 0 0 1-.048-.479c-.26.333-.585.611-.977.834a2.49 2.49 0 0 1-1.244.329c-.77 0-1.356-.187-1.757-.561-.401-.378-.602-.91-.602-1.593 0-.702.283-1.242.848-1.62.57-.383 1.349-.574 2.338-.574h1.388v-.861c0-.433-.137-.775-.41-1.026-.274-.255-.655-.383-1.142-.383-.337 0-.636.044-.896.13a1.678 1.678 0 0 0-.622.356l-.143.779h-1.04v-1.435a3.942 3.942 0 0 1 1.224-.643 4.776 4.776 0 0 1 1.559-.246c.838 0 1.517.214 2.037.642.52.429.78 1.042.78 1.84v3.841c.004.091.01.182.02.273l.547.076V51H17.46zm-2.167-.984c.447 0 .855-.108 1.224-.322.369-.214.633-.471.793-.772v-1.217h-1.436c-.551 0-.989.128-1.313.383-.319.255-.478.565-.478.93 0 .323.1.572.3.745.201.168.504.253.91.253zM23.667 50.09c.447 0 .838-.136 1.176-.41.342-.277.512-.617.512-1.018h1.21l.014.041c.023.638-.262 1.205-.854 1.702a3.108 3.108 0 0 1-2.058.739c-1.076 0-1.898-.351-2.468-1.053-.565-.702-.847-1.584-.847-2.646v-.287c0-1.053.284-1.93.854-2.632.57-.706 1.39-1.06 2.461-1.06.592 0 1.123.099 1.593.295.474.196.866.465 1.175.806l.062 1.641h-1.073l-.294-1.162a1.782 1.782 0 0 0-.615-.376 2.362 2.362 0 0 0-.848-.144c-.706 0-1.212.256-1.518.766-.3.506-.45 1.128-.45 1.866v.287c0 .757.15 1.388.45 1.894.301.501.807.752 1.518.752zM27.946 44.472v-.869h3.575v.869l-1.114.191v5.284h2.598v-6.344h1.347v6.344h2.604v-5.284l-1.114-.191v-.869h3.575v.869l-1.114.191v5.284l1.114.192V51h-11.47v-.861l1.114-.192v-5.284l-1.115-.191zM47.613 43.603v2.202h-1.155l-.102-1.156h-1.587v5.298l1.115.192V51h-3.575v-.861l1.114-.192V44.65h-1.559l-.102 1.156h-1.149v-2.202h7zM53.513 51a9.28 9.28 0 0 1-.096-.54 5.697 5.697 0 0 1-.048-.479c-.26.333-.586.611-.977.834a2.49 2.49 0 0 1-1.245.329c-.77 0-1.355-.187-1.756-.561-.401-.378-.602-.91-.602-1.593 0-.702.283-1.242.848-1.62.57-.383 1.349-.574 2.338-.574h1.387v-.861c0-.433-.136-.775-.41-1.026-.273-.255-.654-.383-1.142-.383-.337 0-.635.044-.895.13a1.678 1.678 0 0 0-.622.356l-.144.779H49.11v-1.435a3.941 3.941 0 0 1 1.224-.643 4.775 4.775 0 0 1 1.559-.246c.838 0 1.517.214 2.037.642.52.429.779 1.042.779 1.84v3.841c.005.091.011.182.02.273l.547.076V51h-1.763zm-2.167-.984c.446 0 .854-.108 1.223-.322.37-.214.634-.471.793-.772v-1.217h-1.435c-.552 0-.99.128-1.313.383-.319.255-.478.565-.478.93 0 .323.1.572.3.745.201.168.504.253.91.253zM60.082 44.027c.939 0 1.682.315 2.228.944.547.624.82 1.426.82 2.406v.15c0 1.062-.295 1.93-.888 2.605-.592.674-1.399 1.012-2.42 1.012-1.02 0-1.827-.338-2.42-1.012-.592-.675-.888-1.543-.888-2.605v-.957c0-1.458.305-2.62.916-3.486.61-.866 1.43-1.401 2.46-1.607.575-.104.99-.23 1.245-.375.26-.146.39-.385.39-.718h1.038l.014.04c.014.803-.175 1.33-.567 1.58-.392.25-1.014.449-1.866.595a3.23 3.23 0 0 0-1.6.724c-.438.374-.706.923-.807 1.648l.028.034a3.114 3.114 0 0 1 1.011-.704c.41-.183.846-.274 1.306-.274zm-.273 1.053c-.643 0-1.128.219-1.456.656-.329.438-.493.985-.493 1.641v.15c0 .743.164 1.356.492 1.84.329.482.819.724 1.47.724.643 0 1.13-.242 1.463-.725.333-.483.5-1.096.5-1.839v-.15c0-.656-.17-1.203-.507-1.64-.332-.438-.822-.657-1.47-.657zM21.753 64.139l1.538-.192V56.49l-1.565.028v-.841l2.912-.63v8.901l1.53.192V65h-4.415v-.861zM29.033 65h-1.347v-1.38h1.347V65zm0-6.016h-1.347v-1.38h1.347v1.38zM30.394 64.139l1.538-.192V56.49l-1.566.028v-.841l2.912-.63v8.901l1.532.192V65h-4.416v-.861zM42.165 57.645c0 .52-.146.975-.438 1.367a2.618 2.618 0 0 1-1.182.868c.574.2 1.032.515 1.374.943.346.429.52.923.52 1.484 0 .92-.301 1.624-.903 2.112-.597.483-1.374.725-2.33.725-.976 0-1.76-.242-2.353-.725-.592-.488-.888-1.192-.888-2.112 0-.56.168-1.055.506-1.484.337-.428.793-.743 1.367-.943-.497-.192-.886-.48-1.17-.868a2.277 2.277 0 0 1-.423-1.367c0-.876.269-1.55.807-2.024.542-.478 1.255-.718 2.14-.718.874 0 1.588.24 2.14.718.555.474.833 1.148.833 2.023zm-1.066 4.634c0-.547-.18-.996-.54-1.346-.36-.351-.816-.527-1.368-.527-.556 0-1.009.176-1.36.527-.346.346-.52.795-.52 1.346 0 .565.171 1.01.513 1.333.347.32.807.479 1.381.479.56 0 1.016-.162 1.367-.485.351-.324.527-.766.527-1.327zm-.28-4.607c0-.492-.156-.9-.466-1.224-.305-.323-.692-.485-1.162-.485-.478 0-.866.157-1.162.472-.291.31-.437.722-.437 1.237 0 .506.148.911.444 1.217.296.305.686.458 1.17.458.473 0 .86-.153 1.161-.458.301-.306.451-.711.451-1.217zM107.871 52.976l1.114-.192v-8.12l-1.114-.192v-.869h2.27l.123.903c.246-.337.544-.595.895-.773a2.72 2.72 0 0 1 1.231-.266c.916 0 1.627.364 2.132 1.093.511.725.766 1.684.766 2.878v.144c0 1.066-.255 1.928-.766 2.584-.51.652-1.214.978-2.112.978-.456 0-.857-.076-1.203-.226a2.362 2.362 0 0 1-.875-.684v2.55l1.114.192v.868h-3.575v-.868zm6.064-5.538c0-.843-.164-1.533-.493-2.07-.328-.539-.815-.808-1.463-.808-.382 0-.71.087-.984.26-.273.173-.494.41-.663.711v3.603c.169.305.387.542.656.71.274.165.609.247 1.005.247.638 0 1.121-.233 1.449-.697.329-.465.493-1.07.493-1.812v-.144zM121.338 51c-.041-.2-.073-.38-.096-.54a5.535 5.535 0 0 1-.048-.479c-.259.333-.585.611-.977.834a2.49 2.49 0 0 1-1.244.329c-.771 0-1.356-.187-1.757-.561-.401-.378-.602-.91-.602-1.593 0-.702.283-1.242.848-1.62.57-.383 1.349-.574 2.338-.574h1.388v-.861c0-.433-.137-.775-.411-1.026-.273-.255-.654-.383-1.141-.383-.337 0-.636.044-.896.13a1.683 1.683 0 0 0-.622.356l-.143.779h-1.039v-1.435a3.941 3.941 0 0 1 1.223-.643 4.778 4.778 0 0 1 1.559-.246c.838 0 1.517.214 2.037.642.519.429.779 1.042.779 1.84v3.841c.005.091.012.182.021.273l.547.076V51h-1.764zm-2.167-.984c.447 0 .854-.108 1.224-.322.369-.214.633-.471.793-.772v-1.217h-1.436c-.551 0-.989.128-1.313.383-.319.255-.478.565-.478.93 0 .323.1.572.301.745.2.168.503.253.909.253zM127.217 46.68c.474 0 .811-.09 1.012-.267.205-.182.307-.444.307-.786 0-.31-.116-.572-.348-.786-.233-.214-.586-.322-1.06-.322-.424 0-.779.112-1.066.336-.288.223-.431.494-.431.813h-1.278l-.014-.041c-.027-.634.23-1.149.772-1.545.543-.401 1.215-.602 2.017-.602.866 0 1.543.187 2.03.561.488.37.732.898.732 1.586 0 .333-.101.638-.301.916a2.017 2.017 0 0 1-.841.656c.415.146.731.365.95.657.219.287.328.64.328 1.059 0 .693-.266 1.235-.799 1.627-.529.392-1.229.588-2.099.588-.807 0-1.499-.194-2.078-.581-.574-.392-.85-.957-.827-1.696l.013-.04h1.279c0 .346.15.647.451.902.301.255.688.383 1.162.383.488 0 .866-.112 1.135-.335.269-.228.403-.51.403-.848 0-.396-.118-.686-.355-.868-.233-.182-.597-.274-1.094-.274h-1.285V46.68h1.285zM136.698 49.236h.041l2.413-5.633h2.803v.869l-1.114.191v5.284l1.114.192V51h-3.575v-.861l1.114-.192v-4.08l-.041-.014L137.184 51h-.93l-2.311-5.257-.041.014v4.19l1.115.192V51h-3.576v-.861l1.115-.192v-5.284l-1.115-.191v-.869h2.851l2.406 5.633zM146.549 51.144c-1.03 0-1.85-.342-2.461-1.026-.606-.688-.909-1.579-.909-2.673v-.3c0-1.053.312-1.928.936-2.626.629-.701 1.372-1.052 2.229-1.052.993 0 1.745.3 2.256.902.515.602.772 1.404.772 2.406v.841h-4.799l-.02.034c.013.711.193 1.297.54 1.757.346.456.831.684 1.456.684.456 0 .854-.064 1.196-.192.346-.132.645-.312.896-.54l.526.875c-.264.256-.615.472-1.053.65-.433.173-.954.26-1.565.26zm-.205-6.618c-.451 0-.837.192-1.156.575-.319.378-.514.854-.587 1.428l.013.034h3.411v-.177c0-.529-.141-.971-.423-1.326-.283-.356-.702-.534-1.258-.534zM150.541 52.976l1.114-.192v-8.12l-1.114-.192v-.869h2.27l.123.903c.246-.337.544-.595.895-.773a2.72 2.72 0 0 1 1.231-.266c.916 0 1.627.364 2.132 1.093.511.725.766 1.684.766 2.878v.144c0 1.066-.255 1.928-.766 2.584-.51.652-1.214.978-2.112.978-.456 0-.857-.076-1.203-.226a2.354 2.354 0 0 1-.875-.684v2.55l1.114.192v.868h-3.575v-.868zm6.063-5.538c0-.843-.164-1.533-.492-2.07-.328-.539-.815-.808-1.463-.808-.382 0-.711.087-.984.26-.273.173-.494.41-.663.711v3.603c.169.305.387.542.656.71.274.165.609.247 1.005.247.638 0 1.121-.233 1.449-.697.328-.465.492-1.07.492-1.812v-.144zM85.907 64.139l1.538-.192V56.49l-1.565.028v-.841l2.912-.63v8.901l1.531.192V65h-4.416v-.861zM97.09 61.65h1.375v1.053H97.09v1.244l1.114.192V65h-3.568v-.861l1.114-.192v-1.244h-4.47v-.759l4.388-6.897h1.422v6.603zm-4.374 0h3.035v-4.682l-.041-.014-.137.362-2.857 4.334zM102.881 64.139l.793-.158 2.18-2.72-2.112-2.632-.793-.157v-.869h2.899v.869l-.67.082 1.381 1.777 1.387-1.784-.663-.075v-.869h2.919v.869l-.793.157-2.112 2.632 2.174 2.72.8.158V65h-2.899v-.861l.656-.075-1.449-1.86-1.449 1.86.663.075V65h-2.912v-.861zM114.755 65v-.923l3.261-3.623c.583-.652.977-1.169 1.182-1.552.21-.383.315-.774.315-1.175 0-.497-.146-.914-.438-1.251-.291-.342-.677-.513-1.155-.513-.688 0-1.194.175-1.518.526-.323.351-.485.848-.485 1.49h-1.292l-.014-.04c-.022-.857.26-1.577.848-2.16.592-.584 1.413-.876 2.461-.876.898 0 1.611.262 2.14.787.533.519.799 1.182.799 1.989 0 .542-.161 1.084-.485 1.627-.319.542-.77 1.128-1.353 1.757l-2.619 2.85.014.034h3.534l.11-1.141h1.141V65h-6.446zM124.312 59.401h1.175c.597 0 1.019-.148 1.265-.444.251-.3.376-.718.376-1.25 0-.57-.141-1.004-.424-1.3-.282-.296-.699-.444-1.251-.444-.524 0-.946.155-1.265.465-.314.305-.471.713-.471 1.223h-1.292l-.014-.04c-.023-.753.249-1.39.814-1.915.569-.528 1.312-.793 2.228-.793.921 0 1.654.246 2.201.739.547.487.821 1.184.821 2.091 0 .41-.126.82-.376 1.23-.246.407-.618.716-1.115.93.597.197 1.019.504 1.265.923.251.42.376.89.376 1.409 0 .907-.299 1.62-.896 2.14-.592.519-1.351.779-2.276.779-.911 0-1.663-.244-2.256-.732-.592-.492-.877-1.157-.854-1.996l.02-.041h1.285c0 .524.16.941.479 1.251.324.31.766.465 1.326.465.57 0 1.016-.155 1.34-.465.324-.31.485-.768.485-1.374 0-.615-.143-1.069-.43-1.36-.287-.292-.741-.438-1.361-.438h-1.175v-1.053zM133.301 64.139l.793-.158 2.18-2.72-2.112-2.632-.793-.157v-.869h2.899v.869l-.67.082 1.381 1.777 1.387-1.784-.663-.075v-.869h2.919v.869l-.793.157-2.112 2.632 2.174 2.72.799.158V65h-2.898v-.861l.656-.075-1.449-1.86-1.449 1.86.663.075V65h-2.912v-.861zM145.339 64.139l1.538-.192V56.49l-1.565.028v-.841l2.912-.63v8.901l1.531.192V65h-4.416v-.861zM154.82 54.903c.338 0 .673.04 1.005.117.337.077.615.175.834.293l-.26 1.005a3.535 3.535 0 0 0-1.579-.355c-.697 0-1.253.264-1.668.793-.41.524-.629 1.317-.656 2.379l.027.027c.256-.237.568-.424.937-.56a3.318 3.318 0 0 1 1.196-.212c.889 0 1.598.307 2.126.922.529.616.793 1.395.793 2.338 0 1.03-.282 1.871-.847 2.523-.561.647-1.311.97-2.249.97-.971 0-1.776-.353-2.414-1.059-.638-.706-.957-1.707-.957-3.001v-1.34c0-1.577.347-2.778 1.039-3.602.693-.825 1.584-1.238 2.673-1.238zm-.458 4.492c-.46 0-.852.093-1.175.28-.324.182-.57.428-.739.738v.8c0 .925.192 1.636.574 2.133.388.496.873.745 1.457.745.551 0 .979-.233 1.285-.697.31-.47.465-1.05.465-1.744 0-.656-.167-1.196-.5-1.62-.328-.424-.783-.636-1.367-.636zM165.519 64.09a1.81 1.81 0 0 0 1.175-.41c.342-.277.513-.617.513-1.018h1.21l.014.041c.022.638-.262 1.205-.855 1.702a3.108 3.108 0 0 1-2.057.739c-1.076 0-1.899-.351-2.468-1.053-.565-.702-.848-1.584-.848-2.646v-.287c0-1.053.285-1.93.855-2.632.569-.706 1.39-1.06 2.461-1.06.592 0 1.123.099 1.592.295a3.22 3.22 0 0 1 1.176.806l.062 1.641h-1.074l-.294-1.162a1.773 1.773 0 0 0-.615-.376 2.358 2.358 0 0 0-.847-.144c-.707 0-1.213.256-1.518.766-.301.506-.451 1.128-.451 1.866v.287c0 .757.15 1.388.451 1.894.301.501.807.752 1.518.752zM175.055 63.236h.041l2.413-5.633h2.803v.869l-1.115.191v5.284l1.115.192V65h-3.576v-.861l1.115-.192v-4.08l-.041-.014L175.54 65h-.93l-2.31-5.257-.041.014v4.19l1.114.192V65h-3.575v-.861l1.114-.192v-5.284l-1.114-.191v-.869h2.85l2.407 5.633zM218.644 42.106c-1.204 1.431-2.017 2.7-2.441 3.808-.419 1.103-.722 2.44-.909 4.013L215.185 51h-1.347l.109-1.073c.192-1.568.563-2.97 1.115-4.204.551-1.235 1.305-2.44 2.262-3.617h-4.156l-.103 1.142h-1.148v-2.201h6.727v1.06zM226.272 47.206c0 1.271-.282 2.247-.847 2.926-.565.674-1.338 1.012-2.318 1.012-.975 0-1.747-.34-2.317-1.019-.57-.679-.854-1.652-.854-2.919v-2.358c0-1.267.282-2.24.847-2.92.565-.683 1.335-1.025 2.311-1.025.98 0 1.754.342 2.324 1.026.57.679.854 1.652.854 2.919v2.358zm-1.346-2.646c0-.86-.157-1.508-.472-1.94-.31-.438-.763-.657-1.36-.657-.588 0-1.037.219-1.347.656-.31.433-.465 1.08-.465 1.941v2.92c0 .86.157 1.513.472 1.955.314.437.766.656 1.353.656.597 0 1.049-.219 1.354-.656.31-.438.465-1.09.465-1.956V44.56zM234.257 47.206c0 1.271-.283 2.247-.848 2.926-.565.674-1.337 1.012-2.317 1.012-.975 0-1.748-.34-2.318-1.019-.569-.679-.854-1.652-.854-2.919v-2.358c0-1.267.282-2.24.848-2.92.565-.683 1.335-1.025 2.31-1.025.98 0 1.755.342 2.324 1.026.57.679.855 1.652.855 2.919v2.358zm-1.347-2.646c0-.86-.157-1.508-.472-1.94-.309-.438-.763-.657-1.36-.657-.588 0-1.037.219-1.347.656-.309.433-.464 1.08-.464 1.941v2.92c0 .86.157 1.513.471 1.955.315.437.766.656 1.354.656.597 0 1.048-.219 1.353-.656.31-.438.465-1.09.465-1.956V44.56zM235.419 50.139l1.114-.192v-5.284l-1.114-.191v-.869h2.324l.089.964a2.42 2.42 0 0 1 .916-.813c.374-.191.807-.287 1.299-.287.492 0 .914.114 1.265.342.355.227.622.57.799 1.025.233-.42.54-.752.923-.998s.83-.37 1.34-.37c.757 0 1.354.26 1.791.78.438.515.656 1.292.656 2.331v3.37l1.115.192V51h-3.582v-.861l1.114-.192v-3.384c0-.729-.126-1.244-.376-1.544-.251-.306-.622-.459-1.114-.459-.47 0-.848.167-1.135.5-.283.328-.447.742-.492 1.244v3.643l1.114.192V51h-3.575v-.861l1.114-.192v-3.384c0-.692-.13-1.198-.39-1.517-.255-.324-.626-.486-1.114-.486-.41 0-.747.085-1.012.253a1.633 1.633 0 0 0-.608.711v4.423l1.114.192V51h-3.575v-.861zM248.688 50.139l.738-.103 3.479-8.99h1.156l3.418 8.99.731.103V51h-2.857v-.861l.751-.13-.656-1.832h-3.985l-.677 1.832.752.13V51h-2.85v-.861zm3.192-3.09h3.158l-1.545-4.273h-.041l-1.572 4.273zM258.989 50.139l1.115-.192v-8.552l-1.115-.19v-.87h2.461v4.253c.255-.356.568-.631.937-.827a2.582 2.582 0 0 1 1.23-.294c.793 0 1.408.237 1.846.71.437.475.656 1.204.656 2.188v3.582l1.114.192V51h-3.575v-.861l1.114-.192v-3.595c0-.611-.132-1.062-.396-1.354-.26-.292-.649-.438-1.169-.438-.369 0-.706.09-1.012.267-.3.173-.549.41-.745.711v4.41l1.114.19V51h-3.575v-.861zM231.099 61.65h1.374v1.053h-1.374v1.244l1.114.192V65h-3.568v-.861l1.114-.192v-1.244h-4.471v-.759l4.389-6.897h1.422v6.603zm-4.375 0h3.035v-4.682l-.041-.014-.137.362-2.857 4.334zM235.316 65h-1.346v-1.38h1.346V65zM243.185 57.645c0 .52-.146.975-.438 1.367a2.62 2.62 0 0 1-1.183.868c.575.2 1.033.515 1.374.943.347.429.52.923.52 1.484 0 .92-.301 1.624-.902 2.112-.597.483-1.374.725-2.331.725-.976 0-1.76-.242-2.352-.725-.592-.488-.889-1.192-.889-2.112 0-.56.169-1.055.506-1.484.337-.428.793-.743 1.367-.943-.496-.192-.886-.48-1.169-.868a2.28 2.28 0 0 1-.423-1.367c0-.876.269-1.55.806-2.024.543-.478 1.256-.718 2.14-.718.875 0 1.588.24 2.14.718.556.474.834 1.148.834 2.023zm-1.067 4.634c0-.547-.18-.996-.54-1.346-.36-.351-.816-.527-1.367-.527-.556 0-1.01.176-1.36.527-.347.346-.52.795-.52 1.346 0 .565.171 1.01.513 1.333.346.32.806.479 1.381.479.56 0 1.016-.162 1.367-.485.351-.324.526-.766.526-1.327zm-.28-4.607c0-.492-.155-.9-.465-1.224-.305-.323-.693-.485-1.162-.485-.479 0-.866.157-1.162.472-.292.31-.438.722-.438 1.237 0 .506.148.911.445 1.217.296.305.686.458 1.169.458.474 0 .861-.153 1.162-.458.301-.306.451-.711.451-1.217zM247.56 55.915l-.91.144 2.229 6.466.225.787h.042l.225-.787 2.222-6.473-.896-.137v-.868h3.138v.868l-.8.11L249.699 65h-1.155l-3.336-8.976-.793-.109v-.868h3.145v.868zM21 1a1 1 0 0 0-1 1v3.733a1 1 0 1 0 2 0V3h2.467a1 1 0 1 0 0-2H21zM30.533 1a1 1 0 1 0 0 2h6.934a1 1 0 1 0 0-2h-6.934zM43.533 1a1 1 0 1 0 0 2H46v2.467a1 1 0 1 0 2 0V2a1 1 0 0 0-1-1h-3.467zM48 11.533a1 1 0 1 0-2 0v6.934a1 1 0 1 0 2 0v-6.934zM22 12.267a1 1 0 1 0-2 0V16a1 1 0 1 0 2 0v-3.733zM48 24.533a1 1 0 1 0-2 0V27h-2.733a1 1 0 1 0 0 2H47a1 1 0 0 0 1-1v-3.467zM33 27a1 1 0 1 0 0 2h3.733a1 1 0 1 0 0-2H33zM43.707 5.293a1 1 0 0 1 0 1.414L34.414 16H37a1 1 0 1 1 0 2h-5a1 1 0 0 1-1-1v-5a1 1 0 1 1 2 0v2.586l9.293-9.293a1 1 0 0 1 1.414 0z" fill="#8A8F92"/><path fill-rule="evenodd" clip-rule="evenodd" d="M14 20a1 1 0 0 1 1-1h14a1 1 0 0 1 1 1v14a1 1 0 0 1-1 1H15a1 1 0 0 1-1-1V20zm2 1v12h12V21H16zM128 3c.288 0 .563.124.753.341l3.5 4a1.001 1.001 0 0 1-1.506 1.317L129 6.662v12.51a3.002 3.002 0 0 1 1.97 3.252l10.599 6.522-.55-2.749a1 1 0 0 1 1.962-.392l1 5a1 1 0 0 1-.785 1.177l-5 1a1 1 0 0 1-.392-1.962l2.505-.5-10.268-6.32c-.536.497-1.253.801-2.041.801a2.992 2.992 0 0 1-2.041-.8l-10.268 6.318 2.505.501a1 1 0 1 1-.392 1.962l-5-1a1 1 0 0 1-.785-1.177l1-5a1 1 0 0 1 1.962.392l-.55 2.75 10.599-6.523a3.001 3.001 0 0 1 1.97-3.252V6.66l-1.747 1.998a1 1 0 0 1-1.506-1.318l3.5-4c.19-.217.465-.341.753-.341zm-1 19a1 1 0 1 1 2 0 1 1 0 0 1-2 0z" fill="#8A8F92"/><path d="M223 10a2 2 0 0 0-2 2v12a2 2 0 0 0 2 2h3a2 2 0 0 0 2-2V12a2 2 0 0 0-2-2h-3zM230 12a2 2 0 0 1 2-2h3a2 2 0 0 1 2 2v12a2 2 0 0 1-2 2h-3a2 2 0 0 1-2-2V12zM241 10a2 2 0 0 0-2 2v12a2 2 0 0 0 2 2h3a2 2 0 0 0 2-2V12a2 2 0 0 0-2-2h-3zM248 12a2 2 0 0 1 2-2h3a2 2 0 0 1 2 2v12a2 2 0 0 1-2 2h-3a2 2 0 0 1-2-2V12z" fill="#8A8F92"/><path fill-rule="evenodd" clip-rule="evenodd" d="M222 6a5 5 0 0 0-5 5v14a5 5 0 0 0 5 5h32a5 5 0 0 0 5-5v-2h3a1 1 0 0 0 1-1v-8a1 1 0 0 0-1-1h-3v-2a5 5 0 0 0-5-5h-32zm-3 5a3 3 0 0 1 3-3h32a3 3 0 0 1 3 3v14a3 3 0 0 1-3 3h-32a3 3 0 0 1-3-3V11z" fill="#8A8F92"/></svg><svg viewBox="0 0 100 65" id="small-logo" xmlns="http://www.w3.org/2000/svg"><defs><style>.tcls-1,.tcls-2{fill:#34383a;fill-rule:evenodd}.tcls-2{fill:#7cf432}</style></defs><path class="tcls-1" d="M0 65v-1.012l12.22-13a5.825 5.825 0 0 1-2.406-4.809 20.154 20.154 0 0 1 .414-3.837 9.779 9.779 0 0 1-2.809-4.714l-.754-2.943a11.964 11.964 0 0 1 8.66-14.514l7.338-1.871q.07-.344.154-.684a18.21 18.21 0 0 0-5.038-2.761 7.934 7.934 0 0 1-10.022-1.6 7.876 7.876 0 0 1 2.375-12.18 7.938 7.938 0 0 1 9.673 1.91 31.868 31.868 0 0 1 9.716 4.755c3.337-2.328 7.152-3.214 10.326-3.95l.044-.011c.647-.15 1.316-.306 1.917-.459.468-.12.936-.244 1.4-.367l.066-.017a87.71 87.71 0 0 1 3.252-.814c4.889-1.1 12.332.911 17.815 4.713a28.305 28.305 0 0 1 6.939-.168c3.618.381 8.17 1.768 9.306 6.213l1.914 7.458a5.949 5.949 0 0 1 .822 1.791 5.875 5.875 0 0 1 0 3.082 16.876 16.876 0 0 1-3.5 24.932L81.5 51l6.5 4 5.5-2 6.5 11v1H0zm45.019-26.871a16.835 16.835 0 0 1 2.074 6.641c.052.543.071 1.088.07 1.631l7.93-2.883a16.824 16.824 0 0 1-1.708-7.527z"/><path id="tShape_1_copy" data-name="Shape 1 copy" class="tcls-2" d="M80.186 25.188a3.019 3.019 0 0 0-.386-3.548l-2.05-8.04c-.58-2.268-2.862-3.626-6.781-4.039a25.886 25.886 0 0 0-7.368.347c-5.363-4.152-12.553-5.814-16.435-4.943-1.073.24-2.127.519-3.146.788l-.06.015c-.477.126-.953.252-1.43.374-.646.165-1.336.325-2.021.484-3.69.856-7.83 1.816-10.979 4.872a28.594 28.594 0 0 0-11.505-6 4.981 4.981 0 1 0-.766 6.091 21.254 21.254 0 0 1 8.908 5.074 14.368 14.368 0 0 0-.88 3.964l-9.242 2.362a9.038 9.038 0 0 0-6.54 10.97l.754 2.948a6.858 6.858 0 0 0 3.3 4.276 17.1 17.1 0 0 0-.811 5.028 3.022 3.022 0 0 0 2.343 2.977 3.047 3.047 0 0 0 1.357 0c.045.222.1.444.152.665a14.016 14.016 0 0 0 15.361 10.429 14.026 14.026 0 0 0 12.283-13.946 13.944 13.944 0 0 0-6.093-11.473 3.029 3.029 0 0 0 .343-.611 3.065 3.065 0 0 0 .182-.614l.19-.077v.008a3.039 3.039 0 0 0 3.7 2.18l10.712-2.737a3.037 3.037 0 0 0 1.758-1.233 2.985 2.985 0 0 0 1.687 1.039 13.965 13.965 0 0 0 10.423 16.95 14.06 14.06 0 0 0 16.91-10.61 13.936 13.936 0 0 0-4.29-13.408 3.046 3.046 0 0 0 .42-.562z"/><path id="tShape_1_copy_2" data-name="Shape 1 copy 2" class="tcls-1" d="M77.156 24.363a13.673 13.673 0 0 0-19.049 5.845.787.787 0 1 1-1.417-.686 15.227 15.227 0 0 1 1.882-2.928 66.877 66.877 0 0 0-22.608 5.778l.018.007a.786.786 0 0 1-.6 1.453 13.644 13.644 0 0 0-18.8 12.413.789.789 0 1 1-1.582-.013 15 15 0 0 1 1.532-6.424 4.639 4.639 0 0 1-4.086-3.459l-.757-2.949a6.786 6.786 0 0 1 4.911-8.233l10.916-2.79a12.124 12.124 0 0 1 1.315-6.177c-3.111-3.508-7.116-5.816-12.512-7.2a2.713 2.713 0 1 1 .081-1.6 26.024 26.024 0 0 1 13.282 7.393c.221-.318.455-.629.708-.927 2.743-3.222 6.749-4.152 10.626-5.052.685-.159 1.394-.323 2.069-.5.483-.124.966-.251 1.449-.379 1.018-.269 2.071-.548 3.121-.783 3.569-.8 10.657 1.132 15.349 5.177a24.008 24.008 0 0 1 7.721-.534c1.985.209 4.436.788 4.839 2.367l2.241 8.765.138.074a.787.787 0 0 1-.788 1.361zM13.459 6.956a1.16 1.16 0 0 0-.86.957 1.152 1.152 0 0 0 .556 1.157 1.157 1.157 0 1 0 .3-2.114zm60.577 7.6c-.232-.908-5.361-2.063-11.055-.608a.814.814 0 0 1-.142.022h-.072a.82.82 0 0 1-.093 0 .71.71 0 0 1-.072-.017.784.784 0 0 1-.078-.019.724.724 0 0 1-.073-.034.712.712 0 0 1-.082-.043.792.792 0 0 1-.108-.079C57.708 9.658 50.888 8.038 48 8.685c-1.021.229-2.059.5-3.062.769-.488.129-.975.258-1.462.382-.693.177-1.41.343-2.1.5-3.624.841-7.373 1.711-9.777 4.536a10.532 10.532 0 0 0-1.1 1.557l-.02.038A10.52 10.52 0 0 0 29.4 24.3a.789.789 0 0 1-1.529.391 11.85 11.85 0 0 1-.162-.743l-10.718 2.74a5.212 5.212 0 0 0-3.772 6.322l.754 2.948a3.075 3.075 0 0 0 3.454 2.266 15.271 15.271 0 0 1 16.338-6.556 68.57 68.57 0 0 1 26.4-6.746 15.287 15.287 0 0 1 15.791-2.876l-1.916-7.493zM58.772 16.01l-16.525 4.223a.787.787 0 0 1-.958-.565L39.61 13.1a.786.786 0 0 1 .569-.956l1.411-.364c1.729-.448 4.341-1.125 5.223-1.327 2.729-.625 9.677.736 12.4 4.32a.784.784 0 0 1-.1 1.052.791.791 0 0 1-.338.182zm-11.609-4.025c-.86.2-3.459.871-5.179 1.317l-.652.169 1.29 5.047 14.467-3.7c-2.71-2.347-7.909-3.3-9.926-2.835zm-2 9.107l6.537-1.671a.785.785 0 1 1 .389 1.521l-6.539 1.671a.789.789 0 0 1-.6-.078.785.785 0 0 1 .215-1.443zM27.3 35.026a11.77 11.77 0 0 1 12.315 4.333 11.72 11.72 0 0 1-4.365 17.6 11.79 11.79 0 0 1-12.933-1.842 11.665 11.665 0 0 1-2.234-14.7 11.813 11.813 0 0 1 7.217-5.391zm5.418 21.188a10.19 10.19 0 0 0 7.556-8.41 10.153 10.153 0 0 0-10.637-11.557 10.209 10.209 0 0 0-9.062 6.774 10.1 10.1 0 0 0 4.415 12.1 10.234 10.234 0 0 0 7.723 1.095zm-4.244-16.6a7.013 7.013 0 0 1 7.333 2.586 6.984 6.984 0 0 1-2.6 10.485 7.026 7.026 0 0 1-7.707-1.1 6.951 6.951 0 0 1-1.331-8.76 7.039 7.039 0 0 1 4.3-3.21zm3.066 12.011a5.435 5.435 0 0 0 4.03-4.485 5.416 5.416 0 0 0-5.67-6.165 5.445 5.445 0 0 0-4.833 3.613 5.39 5.39 0 0 0 2.355 6.453 5.458 5.458 0 0 0 4.12.584zm-1.94-7.569a2.41 2.41 0 0 1 2.523.887 2.4 2.4 0 0 1-.893 3.6 2.415 2.415 0 0 1-2.649-.377 2.4 2.4 0 0 1 .17-3.709 2.42 2.42 0 0 1 .849-.4zm12.017-12l10.712-2.738a.785.785 0 1 1 .389 1.521L42.01 33.576a.788.788 0 0 1-.837-.283.785.785 0 0 1 .165-1.108.791.791 0 0 1 .282-.13zm25.824-7.289a11.77 11.77 0 0 1 12.32 4.333 11.72 11.72 0 0 1-4.365 17.6 11.79 11.79 0 0 1-12.933-1.841 11.664 11.664 0 0 1-2.234-14.7 11.812 11.812 0 0 1 7.216-5.387zm5.418 21.188a10.19 10.19 0 0 0 7.556-8.41 10.153 10.153 0 0 0-10.628-11.558 10.209 10.209 0 0 0-9.062 6.773 10.1 10.1 0 0 0 4.414 12.1 10.233 10.233 0 0 0 7.723 1.095zm-4.244-16.6a7.013 7.013 0 0 1 7.338 2.582 6.984 6.984 0 0 1-2.6 10.485 7.025 7.025 0 0 1-7.707-1.1 6.949 6.949 0 0 1-1.33-8.759 7.04 7.04 0 0 1 4.3-3.21zm3.071 12.011a5.435 5.435 0 0 0 4.03-4.486 5.415 5.415 0 0 0-5.671-6.164 5.445 5.445 0 0 0-4.834 3.613 5.391 5.391 0 0 0 2.355 6.454 5.458 5.458 0 0 0 4.12.584zm-1.936-7.57a2.41 2.41 0 0 1 2.523.886 2.4 2.4 0 0 1-.893 3.6 2.414 2.414 0 0 1-2.649-.377A2.4 2.4 0 0 1 68.9 34.2a2.419 2.419 0 0 1 .849-.4z"/></svg><svg fill="none" viewBox="0 0 26 25" id="star-ico" xmlns="http://www.w3.org/2000/svg"><path fill-rule="evenodd" clip-rule="evenodd" d="M13 0l4.285 7.8L26 9.48l-6.067 6.501 1.1 8.837L13 21.036l-8.035 3.782 1.102-8.837L0 9.48 8.715 7.8 13 0z" fill="#EEC32F"/></svg><svg fill="none" viewBox="0 0 1600 98" id="top-bg" xmlns="http://www.w3.org/2000/svg"><path d="M0 80l103-33 165 25 197-49 484 63 297-86 137 56.25L1489 38l111 37v23H0V80z" fill="#fff"/></svg></svg>