<?xml version="1.0" encoding="utf-8"?><svg viewBox="0 0 1600 160" xmlns="http://www.w3.org/2000/svg" xmlns:xlink="http://www.w3.org/1999/xlink"><style>:root>svg{display:none}:root>svg:target{display:block}</style><svg fill="none" viewBox="0 0 159 30" id="beatom-logo" xmlns="http://www.w3.org/2000/svg"><path fill-rule="evenodd" clip-rule="evenodd" d="M29.68 15.675c1.287-.525 1.969-1.2 1.969-1.875 0-1.425-3.332-2.7-8.178-3.375l.303-.6c5.073.75 8.632 2.25 8.632 3.975 0 .9-.909 1.725-2.499 2.4a3.639 3.639 0 0 0-.227-.525zm-7.571-6c1.665-3.525 2.271-6.3 1.514-7.35v-.3c0-.3-.076-.6-.227-.9.151.075.303.075.454.225 1.439.975.833 4.575-1.287 9.075a1.996 1.996 0 0 0-.454-.75zm-.53-5.85c-.985 0-1.742-.75-1.742-1.725 0-.975.757-1.725 1.742-1.725.984 0 1.741.75 1.741 1.725 0 .9-.757 1.725-1.741 1.725zm-4.695 1.35c-.075-.075-.151-.225-.151-.3.984-.9 1.893-1.725 2.801-2.325.076.225.152.45.303.6-.833.6-1.741 1.425-2.65 2.325-.227-.075-.227-.15-.303-.3zM21.05 16.65c-.228 0-.455.075-.758.075a95.461 95.461 0 0 0-1.211-3.45C16.127 5.7 12.19.15 10.221.9c-.378.15-.681.6-.832 1.2-.228-.075-.455-.15-.682-.15C8.934.975 9.313.375 9.92.15c2.347-.9 6.814 4.875 9.918 12.9.454 1.2.833 2.4 1.212 3.6zM10.07 3.975c0 .825-.681 1.575-1.59 1.575S6.966 4.8 6.966 3.975 7.647 2.4 8.556 2.4c.908 0 1.514.675 1.514 1.575zM5.224 12.75c-1.135 0-2.12-.9-2.12-2.1 0-1.2.909-2.1 2.12-2.1 1.212 0 2.12.9 2.12 2.1 0 1.2-.984 2.1-2.12 2.1zm1.893 4.125c-.076.075-.151.225-.151.3-.152.075-.152.15-.227.225C2.65 16.65 0 15.3 0 13.8c0-.9.984-1.8 2.726-2.475.075.15.151.375.227.525-1.363.6-2.196 1.2-2.196 1.95-.076 1.275 2.499 2.4 6.36 3.075zm-1.06 2.1c1.666 0 2.953 1.275 2.953 2.925s-1.287 2.925-2.953 2.925S3.104 23.55 3.104 21.9s1.363-2.925 2.953-2.925zm-.53 6.3c0 .75.152 1.35.606 1.575 1.211.825 4.088-1.05 7.268-4.425l.379.675c-3.483 3.6-6.663 5.475-8.177 4.5-.606-.45-.833-1.275-.757-2.55.227.15.454.225.681.225zm15.446 3.15c.303-.075.53-.375.681-.675H22.336c-.227.75-.606 1.275-1.136 1.5-1.741.675-4.694-2.4-7.344-7.35.303.075.605.15.908.15 2.347 4.275 4.77 6.9 6.209 6.375zm-1.514-3.6c0-1.35 1.06-2.4 2.422-2.4 1.363 0 2.423 1.05 2.423 2.4 0 1.35-1.06 2.4-2.423 2.4-1.287 0-2.422-1.05-2.422-2.4zm2.498-2.925h-.303a29.75 29.75 0 0 0-.681-3.15c.227 0 .454-.075.681-.075.303 1.125.53 2.25.682 3.225h-.379zm-2.801-3c.378 0 .681 0 1.06-.075l.227.9c-1.212 1.05-2.877 1.65-4.619 1.65-2.271 0-4.315-1.05-5.678-2.775.53.075 1.135.15 1.817.225 1.666.075 5.678.15 7.193.075zm-2.045-8.475c.758 1.575 1.893 4.2 2.423 5.925.076.15.076.3.152.45-.227 0-.379 0-.606.075-.909.075-5.83.075-7.117 0-.757 0-1.666-.15-2.347-.225.303-.525.605-1.125.984-1.8.833-1.5 3.104-4.5 3.71-5.175.303-.375.984-1.05 1.514-1.65.379.675.909 1.575 1.287 2.4zm-1.892-3.75c.075.15.227.3.302.525-1.287 1.5-2.65 3.15-4.012 5.1a65.18 65.18 0 0 0-3.938 6.6c-.227-.075-.454-.225-.681-.225.984-2.1 2.347-4.425 3.937-6.75C12.19 9.9 13.63 8.175 15.067 6.6c.076 0 .076 0 .152.075zm-2.12 1.2C12.114 9 9.994 11.625 9.237 12.9c-.227.3-.378.6-.53.9.227-2.775 2.044-5.1 4.543-6.075-.076.075-.076.15-.151.15zm-5.452 2.1c.303-.075.53-.075.833-.15l.303.6c-.379.075-.757.075-1.06.15 0-.15-.076-.375-.076-.6zm1.59-4.125c.152 1.05.303 2.175.606 3.45-.227.225-.379.45-.606.75C8.86 8.625 8.631 7.2 8.48 6c.303-.075.53-.075.757-.15zM21.58 16.575c-.379-1.5-2.348-6.375-2.878-7.5-.227-.525-.454-1.05-.605-1.425 2.877.9 4.921 3.6 4.921 6.675 0 .75-.151 1.5-.378 2.25-.228 0-.606.075-.985.075 0-.075-.075-.075-.075-.075zm3.255.975c-2.498.45-5.451.675-8.707.675-2.65 0-5.148-.15-7.42-.525.076-.075.076-.15.152-.225.075-.075.151-.225.227-.375 2.12.3 4.467.45 7.041.45 3.18 0 6.057-.225 8.556-.6.076.225.076.45.151.6zm2.499-3.075c1.287 0 2.271.975 2.271 2.25s-.984 2.25-2.271 2.25-2.272-.975-2.272-2.25.985-2.25 2.272-2.25zM156.35 27.225c-.303.3-.757.45-1.287.45-.303 0-.606-.075-.833-.15-.227-.15-.454-.3-.606-.45-.151-.225-.303-.45-.378-.75-.076-.3-.152-.6-.152-.975s.076-.675.152-.975c.075-.3.227-.525.378-.75a1.18 1.18 0 0 1 .606-.45c.227-.15.53-.15.833-.15.303 0 .606.075.833.15.227.15.454.3.605.45.152.225.303.45.379.75.076.3.151.6.151.975 0 .9-.227 1.5-.681 1.875zm-.076-2.475c-.075-.225-.151-.375-.227-.6a.91.91 0 0 0-.378-.375c-.152-.075-.303-.15-.53-.15-.228 0-.379.075-.53.15a.908.908 0 0 0-.379.375c-.076.15-.151.375-.227.6-.076.225-.076.45-.076.675 0 .225 0 .45.076.675.076.225.151.375.227.6.076.225.227.3.379.375.151.075.302.15.53.15.378 0 .681-.15.908-.525.227-.3.303-.75.303-1.275-.076-.225-.076-.45-.076-.675zm-4.618 2.925h-.303v-3.45c0-.15 0-.3-.076-.375-.076-.075-.151-.075-.303-.075h-.075v-.225-.225H151.429c.151 0 .302.075.454.15.076.15.151.3.151.45v3.825c-.151-.15-.303-.075-.378-.075zm-.152-5.25c-.151 0-.227 0-.378-.075-.076-.075-.152-.15-.152-.375 0-.15 0-.225.076-.3.076-.075.227-.075.454-.075.152 0 .303 0 .379.075.076.075.076.15.076.375 0 .15 0 .3-.076.375h-.379zm-2.423 4.65c-.378.45-.832.675-1.362.675-.53 0-.909-.225-1.212-.6-.227-.375-.378-.975-.378-1.725 0-.375.075-.675.151-.975.076-.3.227-.525.379-.75.151-.225.302-.375.53-.45.227-.075.378-.15.605-.15.379 0 .757.15 1.136.375V21l.076-.075h.227c.151 0 .227 0 .303.075.075.075.075.15.075.375v4.95c0 .45.076.825.228.975-.076.15-.152.3-.303.375-.227-.075-.379-.3-.455-.6zm-.075-3a1.665 1.665 0 0 0-1.06-.375c-.303 0-.53.15-.757.45-.228.3-.303.75-.303 1.35 0 .6.075 1.05.303 1.275.151.3.378.45.681.45.227 0 .379-.075.606-.15.227-.15.378-.3.53-.525v-2.475zM144.236 27a2.73 2.73 0 0 1-.757.525c-.303.15-.606.225-.833.225a1.26 1.26 0 0 1-.909-.375 1.932 1.932 0 0 1-.303-1.05v-2.25c0-.3 0-.6-.075-.75.075-.075.227-.15.454-.15s.378.15.378.45V26.1c0 .375.076.675.152.825.076.15.303.225.53.225.227 0 .53-.075.757-.225.227-.15.454-.3.681-.525v-3.225h.682v3.15c0 .45.076.825.227.975-.076.15-.151.3-.303.375-.378-.075-.53-.3-.681-.675zm-4.922-3.3v3c0 .225.152.375.379.375h.681c.076.075.076.225.076.3v.225c-.303 0-.53.075-.833.075-.606 0-.908-.225-.908-.75V23.7h-.682v-.225-.225h.682v-.975c0-.15 0-.3.075-.375.076-.075.152-.075.303-.075h.227l.076.075v1.35h1.136v.45h-1.212zm-3.71 1.275l.53.225c.757.3 1.136.75 1.136 1.275 0 .375-.151.75-.454.9-.303.225-.757.3-1.287.3-.53 0-.985-.15-1.515-.45 0-.15.076-.375.227-.45.303.15.53.3.758.3.227.075.378.075.605.075.152 0 .303 0 .379-.075.076-.075.227-.075.303-.15.075-.075.151-.15.151-.225.076-.075.076-.15.076-.225 0-.15-.076-.3-.152-.45-.075-.15-.302-.225-.53-.3l-.53-.225c-.378-.15-.681-.3-.908-.525-.227-.225-.303-.45-.303-.75 0-.15.076-.375.151-.525.076-.15.152-.3.303-.375.152-.075.303-.225.455-.225.151-.075.378-.075.605-.075.455 0 .909.075 1.363.3a.68.68 0 0 1-.227.525c-.227-.075-.454-.15-.606-.225-.227-.075-.378-.075-.53-.075-.303 0-.454.075-.605.225-.152.15-.228.3-.228.45 0 .15.076.3.152.375.303.15.454.225.681.375zM130.91 27.3c0 .45-.076.75-.151 1.05-.076.3-.152.525-.303.75-.152.15-.303.3-.53.375-.227.075-.455.15-.757.15-.606 0-1.06-.075-1.59-.3 0-.225.075-.375.227-.525.378.225.833.3 1.211.3.227 0 .454 0 .606-.075.151-.075.303-.15.378-.3l.228-.45c0-.15.075-.375.075-.6v-.525c-.378.375-.833.6-1.363.6-.454 0-.832-.225-1.135-.6-.303-.375-.379-.975-.379-1.725 0-.375.076-.675.152-.975.075-.3.227-.525.378-.75.152-.225.303-.375.53-.45.227-.075.454-.15.682-.15.454 0 .908.15 1.287.45a.678.678 0 0 1 .454-.45c.151.075.227.225.303.375-.152.15-.227.45-.227.975v2.85h-.076zm-.606-3.225a2.28 2.28 0 0 0-.53-.375c-.151-.075-.378-.15-.53-.15-.303 0-.605.15-.833.45-.227.3-.302.75-.302 1.35 0 .6.075.975.302 1.275.152.3.379.45.682.45.227 0 .454-.075.681-.15.227-.15.379-.3.53-.45v-2.4zm-4.391 3.6c-.227 0-.379-.15-.379-.45V24.75c0-.375-.075-.6-.151-.75-.076-.15-.227-.225-.53-.225-.227 0-.53.075-.757.225-.227.15-.455.3-.682.525v3.225h-.605v-4.5l.075-.075h.227c.152 0 .228.075.303.075.076.075.076.225.076.375v.15c.227-.225.454-.375.757-.45.303-.15.53-.15.833-.15.379 0 .681.15.909.375.151.225.302.6.302 1.05v2.25c0 .375 0 .6.076.75-.151 0-.303.075-.454.075zm-4.997 0h-.303v-3.45c0-.15 0-.3-.076-.375-.076-.075-.151-.075-.303-.075h-.075v-.225-.225H120.689c.151 0 .302.075.454.15.076.15.151.3.151.45v3.825c-.151-.15-.227-.075-.378-.075zm-.152-5.25c-.151 0-.227 0-.378-.075-.076-.075-.152-.15-.152-.375 0-.15 0-.225.076-.3.076-.075.227-.075.454-.075.152 0 .303 0 .379.075.076.075.076.15.076.375 0 .15 0 .3-.076.375h-.379zm-2.12 5.25c-.227 0-.378-.15-.378-.45V24.75c0-.375-.076-.6-.152-.75-.075-.15-.227-.225-.454-.225s-.454.075-.606.15c-.227.15-.378.3-.605.525v3.225h-.606V24.75c0-.375-.076-.6-.152-.75-.075-.15-.227-.225-.454-.225a.866.866 0 0 0-.606.225c-.227.15-.378.3-.605.525v3.15h-.606V23.25l.076-.075h.227c.151 0 .227.075.303.075.075.075.075.225.075.375v.15c.379-.45.833-.675 1.363-.675s.833.225 1.06.675c.53-.45.985-.675 1.439-.675.378 0 .681.15.833.375.151.225.303.6.303.975v2.25c0 .375 0 .6.075.75-.227.15-.378.225-.53.225zm-7.193 0c-.227 0-.378-.15-.378-.45V24.75c0-.375-.076-.6-.152-.75-.075-.15-.227-.225-.454-.225s-.454.075-.606.15c-.227.15-.378.3-.605.525v3.225h-.606V24.75c0-.375-.076-.6-.151-.75-.076-.15-.228-.225-.455-.225a.862.862 0 0 0-.605.225c-.228.15-.379.3-.606.525v3.15h-.606V23.25l.076-.075h.227c.151 0 .227.075.303.075.076.075.076.225.076.375v.15c.378-.45.832-.675 1.362-.675.53 0 .833.225 1.06.675.53-.45.985-.675 1.439-.675.379 0 .681.15.833.375.151.225.303.6.303.975v2.25c0 .375 0 .6.075.75-.227.15-.378.225-.53.225zm-7.495-.6c-.455.45-.909.675-1.363.675-.227 0-.454 0-.606-.075-.151-.075-.303-.15-.454-.3-.076-.15-.227-.225-.227-.45-.076-.15-.076-.3-.076-.525 0-.225.076-.45.151-.6.076-.15.228-.3.303-.45.152-.15.303-.225.53-.3.227-.075.379-.075.606-.075.454 0 .833 0 1.136.075v-.45c0-.6-.303-.9-.833-.9-.454 0-.909.15-1.514.375a.677.677 0 0 1-.228-.525c.682-.3 1.212-.45 1.818-.45.908 0 1.438.525 1.438 1.5v1.875c0 .225 0 .375.076.525.076.15.076.225.227.375-.076.15-.151.3-.303.375-.454-.15-.606-.375-.681-.675zm-.076-1.575c-.151 0-.303-.075-.454-.075h-.53c-.379 0-.606.075-.757.225-.152.15-.303.375-.303.6 0 .225.075.45.227.6a.69.69 0 0 0 .53.225c.227 0 .454-.075.681-.15.227-.15.455-.3.606-.525v-.9zm-3.634-1.725c-.455 0-.833.3-1.136.825v3h-.606v-3.15c0-.375-.075-.75-.303-.9.076-.15.152-.3.303-.375.303.15.53.375.682.825.227-.525.681-.825 1.211-.825h.454c0 .225-.075.45-.151.6h-.454zM96.763 27.3c0 .45 0 .75-.076 1.05-.076.3-.151.525-.303.75-.151.15-.303.3-.53.375-.227.075-.454.15-.757.15-.606 0-1.06-.075-1.59-.3 0-.225.076-.375.227-.525.379.225.833.3 1.212.3.227 0 .454 0 .605-.075.152-.075.303-.15.379-.3l.227-.45c0-.15.076-.375.076-.6v-.525c-.379.375-.833.6-1.363.6-.454 0-.833-.225-1.136-.6-.303-.375-.378-.975-.378-1.725 0-.375.075-.675.151-.975.076-.3.227-.525.379-.75.151-.225.303-.375.53-.45.227-.075.454-.15.681-.15.454 0 .909.15 1.287.45a.68.68 0 0 1 .455-.45c.151.075.227.225.302.375-.151.15-.227.45-.227.975v2.85h-.151zm-.606-3.225a2.3 2.3 0 0 0-.53-.375c-.151-.075-.378-.15-.53-.15-.303 0-.606.15-.833.45-.227.3-.303.75-.303 1.35 0 .6.076.975.303 1.275.152.3.379.45.682.45.227 0 .454-.075.681-.15.227-.15.379-.3.53-.45v-2.4zM90.48 27.75c-.303 0-.606-.075-.833-.15-.227-.15-.455-.3-.606-.45-.152-.225-.303-.45-.379-.75-.075-.3-.151-.6-.151-.975s.076-.675.151-.975c.076-.3.227-.525.379-.75.151-.225.379-.375.606-.45.227-.15.53-.15.832-.15.303 0 .606.075.833.15.227.15.455.3.606.45.152.225.303.45.379.75.075.3.151.6.151.975 0 .825-.227 1.425-.606 1.8-.454.375-.832.525-1.362.525zm1.135-3c-.075-.225-.151-.375-.227-.6a.908.908 0 0 0-.379-.375c-.15-.075-.302-.15-.53-.15-.227 0-.378.075-.53.15a.908.908 0 0 0-.378.375 5.13 5.13 0 0 0-.227.6c-.076.225-.076.45-.076.675 0 .225 0 .45.076.675.075.225.151.375.227.6.076.15.227.3.379.375.151.075.302.15.53.15.378 0 .681-.15.908-.525.227-.3.303-.75.303-1.275 0-.225-.076-.45-.076-.675zm-3.861-.975c-.454 0-.833.3-1.136.825v3h-.606v-3.15c0-.375-.075-.75-.302-.9.075-.15.151-.3.302-.375.303.15.53.375.682.825.227-.525.681-.825 1.211-.825h.455c0 .225-.076.45-.152.6h-.454zm-3.635 3.3c-.15.225-.302.375-.53.45-.227.075-.378.15-.605.15-.455 0-.833-.15-1.212-.375v1.8c0 .15 0 .3-.075.375-.076.075-.152.075-.303.075h-.227l-.076-.075V23.25l.076-.075h.227c.151 0 .227.075.303.075.075.075.075.225.075.375v.075c.379-.375.833-.6 1.287-.6.53 0 .91.225 1.136.6.227.375.379.975.379 1.725 0 .375-.076.675-.152.975 0 .225-.151.45-.303.675zm-.227-2.475c-.075-.225-.151-.375-.227-.525a.589.589 0 0 0-.303-.3c-.075-.075-.227-.075-.378-.075-.227 0-.455.075-.682.225-.227.15-.378.3-.53.525v2.325c.379.3.682.375 1.06.375.379 0 .606-.15.833-.45.227-.3.303-.75.303-1.275 0-.3 0-.6-.076-.825zm-6.965 2.475c-.379.45-.833.675-1.363.675s-.909-.225-1.212-.6c-.227-.375-.378-.975-.378-1.725 0-.375.076-.675.151-.975.076-.3.227-.525.379-.75.151-.225.303-.375.53-.45.227-.075.378-.15.605-.15.38 0 .758.15 1.136.375V21l.076-.075h.227c.151 0 .227 0 .303.075.076.075.076.15.076.375v4.95c0 .45.075.825.227.975-.076.15-.152.3-.303.375a.983.983 0 0 1-.454-.6zm-.076-3a1.664 1.664 0 0 0-1.06-.375c-.303 0-.53.15-.757.45-.227.3-.303.75-.303 1.35 0 .6.076 1.05.303 1.275.151.3.378.45.681.45.227 0 .379-.075.606-.15.227-.15.379-.3.53-.525v-2.475zm-4.391 3.6c-.228 0-.379-.15-.379-.45V24.75c0-.375-.076-.6-.151-.75-.076-.15-.228-.225-.53-.225-.228 0-.53.075-.758.225-.227.15-.454.3-.681.525v3.225h-.606v-4.5l.076-.075h.303c.151 0 .227.075.303.075.075.075.075.225.075.375v.15c.227-.225.455-.375.757-.45.303-.15.53-.15.833-.15.379 0 .682.15.909.375.151.225.303.6.303 1.05v2.25c0 .375 0 .6.076.75-.152 0-.303.075-.53.075zm-5.225-.6c-.454.45-.908.675-1.363.675-.227 0-.454 0-.605-.075-.152-.075-.303-.15-.455-.3-.075-.15-.227-.225-.227-.45-.076-.15-.076-.3-.076-.525 0-.225.076-.45.152-.6.076-.15.227-.3.303-.45.151-.15.303-.225.53-.3.227-.075.378-.075.606-.075.454 0 .832 0 1.135.075v-.45c0-.6-.303-.9-.833-.9-.454 0-.908.15-1.514.375a.678.678 0 0 1-.227-.525c.681-.3 1.211-.45 1.817-.45.909 0 1.439.525 1.439 1.5v1.875c0 .225 0 .375.075.525.076.15.076.225.228.375-.076.15-.152.3-.303.375-.455-.15-.606-.375-.682-.675zM67.16 25.5H66.174c-.378 0-.605.075-.757.225-.151.15-.303.375-.303.6 0 .225.076.45.227.6a.69.69 0 0 0 .53.225c.228 0 .455-.075.682-.15.227-.15.454-.3.606-.525V25.5zm-6.209 2.175c-.227 0-.379-.15-.379-.45V24.75c0-.375-.075-.6-.151-.75-.076-.15-.227-.225-.53-.225-.227 0-.53.075-.757.225-.227.15-.455.3-.682.525v3.225h-.605v-4.5l.075-.075h.227c.152 0 .228.075.303.075.076.075.076.225.076.375v.15c.227-.225.454-.375.757-.45.303-.15.53-.15.833-.15.379 0 .681.15.909.375.151.225.302.6.302 1.05v2.25c0 .375 0 .6.076.75-.076 0-.227.075-.454.075zm-4.694-.375c0 .45-.076.75-.152 1.05-.075.3-.151.525-.303.75-.151.15-.303.3-.53.375-.227.075-.454.15-.757.15-.606 0-1.06-.075-1.59-.3 0-.225.076-.375.227-.525.379.225.833.3 1.212.3.227 0 .454 0 .605-.075.152-.075.303-.15.38-.3l.226-.45c0-.15.076-.375.076-.6v-.525c-.379.375-.833.6-1.363.6-.454 0-.833-.225-1.136-.6-.303-.375-.378-.975-.378-1.725 0-.375.075-.675.151-.975.076-.3.227-.525.379-.75.151-.225.303-.375.53-.45.227-.075.454-.15.681-.15.454 0 .909.15 1.287.45a.68.68 0 0 1 .455-.45c.151.075.227.225.303.375-.152.15-.228.45-.228.975v2.85h-.075zm-.606-3.225c-.151-.15-.379-.3-.53-.375-.151-.075-.379-.15-.53-.15-.303 0-.606.15-.833.45-.227.3-.303.75-.303 1.35 0 .6.076.975.303 1.275.151.3.379.45.681.45.228 0 .455-.075.682-.15.227-.15.379-.3.53-.45v-2.4zm-4.467 3.6h-.303v-3.45c0-.15 0-.3-.076-.375-.076-.075-.151-.075-.303-.075h-.075v-.225-.225H50.956c.151 0 .302.075.454.15.076.15.151.3.151.45v3.825c-.075-.15-.227-.075-.378-.075zm-.152-5.25c-.151 0-.227 0-.378-.075-.076-.075-.152-.15-.152-.375 0-.15 0-.225.076-.3.076-.075.227-.075.454-.075.152 0 .303 0 .379.075.076.075.076.15.076.375 0 .15 0 .3-.076.375h-.379zm-3.104 2.55l.53.225c.757.3 1.136.75 1.136 1.275 0 .375-.152.75-.455.9-.302.225-.757.3-1.287.3-.53 0-.984-.15-1.514-.45 0-.15.076-.375.227-.45.303.15.53.3.757.3.227.075.379.075.606.075.151 0 .303 0 .379-.075.075-.075.227-.075.303-.15.075-.075.151-.15.151-.225.076-.075.076-.15.076-.225 0-.15-.076-.3-.152-.45-.075-.15-.303-.225-.53-.3l-.53-.225c-.378-.15-.681-.3-.908-.525-.227-.225-.303-.45-.303-.75 0-.15.076-.375.151-.525.076-.15.152-.3.303-.375.152-.075.303-.225.454-.225.152-.075.379-.075.606-.075.454 0 .909.075 1.363.3a.678.678 0 0 1-.227.525c-.227-.075-.455-.15-.606-.225-.227-.075-.379-.075-.53-.075-.303 0-.454.075-.606.225-.151.15-.227.3-.227.45 0 .15.076.3.152.375.302.15.454.225.681.375zm-2.423.6h-2.801c0 1.05.454 1.5 1.136 1.5.378 0 .832-.15 1.287-.375.151.15.227.3.227.45-.53.3-1.06.525-1.666.525-.303 0-.606-.075-.833-.15-.227-.15-.378-.3-.53-.45-.151-.225-.227-.45-.303-.75-.075-.3-.075-.6-.075-.9 0-.375.075-.675.151-.9.076-.3.227-.525.379-.75.151-.225.378-.375.605-.45.227-.15.455-.15.758-.15.302 0 .53.075.757.15.227.075.378.225.53.375.151.15.227.375.303.6.075.225.151.525.151.75v.3c-.076.075-.076.15-.076.225zm-.681-.6c0-.45-.076-.75-.227-.975-.152-.225-.455-.375-.757-.375-.379 0-.606.15-.833.375-.227.3-.303.6-.303 1.125h2.195v-.15h-.075zm-4.77 2.1c-.379.45-.833.675-1.363.675s-.909-.225-1.212-.6c-.227-.375-.378-.975-.378-1.725 0-.375.076-.675.151-.975.076-.3.227-.525.379-.75.151-.225.303-.375.53-.45.227-.075.379-.15.606-.15.378 0 .757.15 1.135.375V21l.076-.075h.227c.152 0 .227 0 .303.075.076.075.076.15.076.375v4.95c0 .45.075.825.227.975-.076.15-.152.3-.303.375a.984.984 0 0 1-.454-.6zm-.076-3a1.664 1.664 0 0 0-1.06-.375c-.303 0-.53.15-.757.45-.227.3-.303.75-.303 1.35 0 .6.076 1.05.303 1.275.151.3.379.45.681.45.227 0 .379-.075.606-.15.227-.15.379-.3.53-.525v-2.475zM154.896 7.183c-.625.28-3.748.726-4.316.838-.568.168-1.646.28-1.646.28s.056 5.197.284 5.867c.227.727.567 2.46 2.044 2.403 1.476-.056 2.782-.838 3.066-.503.284.335.34.95-.171 1.285-.511.336-1.987.727-2.611.727-.625 0-2.499-.503-3.123-1.788-.625-1.286-.625-5.31-.568-6.091.057-.783-.057-2.347-.057-2.347s-1.079.167-1.476-.28c-.454-.447-.625-1.285-.284-1.62.341-.336.852-.056 1.363 0 .511.055.794 0 .794 0l-.17-3.745s-.454-.614-.227-1.117.568-.615.909-.615c.34 0 .738.28.738.95 0 .615-.057 4.694-.057 4.694h4.429c1.022 0 1.476-.056 1.646.28.057.279.057.503-.567.782zm-8.801 8.494c-.341.727-2.442 3.074-3.123 3.409-.738.335-1.76.223-2.442-.168-.624-.335-2.044-2.347-2.157-3.632-.057-1.285.567-4.75.624-4.974.057-.223-.341-1.62-.17-2.403.227-.782.454-.95.852-.782.454.168.34.615.34.615s.795-2.794 2.044-3.744c1.306-1.006 1.59-.727 2.044-.56.511.168 1.477 1.342 1.363 2.571-.17 1.23-.057 1.845-.738 2.795-.625.95-2.044 2.347-3.009 2.626-.909.28-1.704.223-1.704.223s-.738 3.354-.284 4.192c.455.838 1.193 2.067 2.158 1.732.908-.335 3.009-2.57 3.463-2.85.625-.335 1.079.28.739.95zm-2.158-8.773c.227-1.062.284-1.565-.284-1.51-.568.057-1.476 1.398-1.874 1.9-.34.504-.795 2.124-.795 2.124s2.726-1.453 2.953-2.514zm-8.403 10.114c-.909.56-1.42 1.062-2.158.615-.738-.447-1.136-1.23-1.42-3.241-.283-2.068-.738-5.31-1.022-5.7-.283-.336-1.419 1.788-2.157 3.185s-2.215 3.688-2.782 4.75c-.568 1.062-.852 1.565-1.42 1.565s-1.306-.783-1.136-2.627c.171-1.844.455-5.476.341-6.314-.057-.839-.057-2.18 0-2.683.057-.503.057-.726.568-.726.511 0 1.022.782.908 1.844-.056 1.062-.17 3.241-.227 4.191-.056.95 0 2.962 0 2.962s2.158-3.409 2.783-4.694c.624-1.286 1.76-3.353 2.725-4.136.908-.782 1.59-.447 1.76.783.227 1.23.738 7.04.909 7.823.227.783.227 1.62.738 1.397.511-.223 1.646-1.061 1.987-1.676.341-.615.511-1.565 1.079-1.788.568-.224.908.503.738 1.117-.114.727-1.249 2.794-2.214 3.353zm-17.034 1.23c-.739 0-1.306-.56-1.136-1.565.17-1.006 1.192-1.565 1.703-1.341.511.223 1.079.838.909 1.788-.114.894-.738 1.118-1.476 1.118zm-6.587-.336c-.738-.503-1.76-2.29-1.93-4.135-.171-1.844.056-3.856.056-3.856s-2.328 4.527-3.179 6.036c-.852 1.508-1.704 2.29-2.271 2.123-.568-.168-.852-1.285-.909-2.85-.057-1.565.17-6.315 0-7.041-.17-.727-.568-1.565-1.192-.28-.625 1.286-3.861 7.321-4.259 8.383-.454 1.061-.738 1.564-1.306 1.564-.567 0-.851-.558-.851-2.011 0-1.397.227-3.968.34-5.253.17-1.286.227-3.241 0-3.744-.227-.503-.454-1.062-.17-1.62.284-.56.454-.616.908-.504.511.168.795.838.738 1.788-.056.95-.34 4.527-.34 5.197 0 .615-.227 2.795-.227 2.795s2.498-4.75 3.634-6.818c1.135-2.068 1.76-2.85 2.555-2.682.795.167 1.362 1.34 1.476 2.794.17 1.397 0 7.88 0 7.88s1.363-1.845 2.158-3.466c.795-1.62 2.782-5.308 3.123-5.98.34-.614 1.078-.334 1.305-.055.228.28 0 .727-.17 1.23-.17.502-.227 4.358-.057 5.811.171 1.51.341 2.85 1.193 3.074.851.223 1.703-1.286 2.271-1.677.568-.447 1.022-.335 1.022.224s-.738 1.9-1.42 2.626c-.738.56-1.816.95-2.498.447zm-24.131 1.062c-2.896-.112-2.726-2.347-2.782-3.465-.057-1.117 1.362-5.755 1.703-6.985.34-1.23.51-1.844.852-2.459.34-.614 1.362-1.117 2.214-1.23.852-.055 2.328.95 3.066 2.46.738 1.564 1.079 4.414.511 6.035-.624 1.677-3.18 5.756-5.564 5.644zm3.747-11.12c-.624-1.51-1.93-1.398-1.93-1.398s0 .839-.284 1.118c-.284.28-1.08 1.118-1.704 2.57-.624 1.398-1.42 5.086-1.476 6.036-.057.95 1.476 1.509 2.612.782 1.136-.726 3.066-2.961 3.463-4.47.455-1.51-.056-3.13-.68-4.638zm-11.697.167c-.567.168-1.646.28-1.646.28s.057 5.197.284 5.867c.227.727.568 2.46 2.044 2.403 1.476-.056 2.782-.838 3.066-.503.284.335.34.95-.17 1.285-.511.336-1.988.727-2.612.727-.625 0-2.499-.503-3.123-1.788-.625-1.286-.625-5.31-.568-6.091.057-.783-.057-2.347-.057-2.347s-1.078.167-1.476-.28c-.454-.447-.625-1.285-.284-1.62.34-.336.852-.056 1.363 0 .51.055.795 0 .795 0l-.17-3.745s-.455-.614-.228-1.117.568-.615.909-.615c.34 0 .738.28.738.95 0 .615-.057 4.694-.057 4.694h4.429c1.022 0 1.476-.056 1.647.28.17.335.17.558-.511.838-.682.223-3.805.615-4.373.782zm-6.643 7.935s.852.615.738 1.118c-.17.503-.738 1.23-1.42 1.285-.737.056-.794-.447-1.078-1.006-.284-.558-.17-5.755-.17-5.755s-1.306 2.067-1.93 3.073c-.625 1.006-2.84 3.409-3.35 3.633-.512.223-1.42-1.006-1.704-1.397-.284-.448.227-4.527.51-6.371.285-1.844.796-3.577 1.193-4.75.455-1.23.909-1.788 1.76-2.459.852-.726 2.215 0 3.01.28.795.279 1.476.95 1.93.782.454-.168.795 0 .795 0s-.17 2.57-.227 3.967c-.057 1.398-.852 6.762-.852 7.377 0 .615.795.223.795.223zm-1.362-9.555s-.795-1.062-1.76-1.342c-1.023-.279-1.59-.167-2.215.447-.625.56-1.079 2.683-1.363 3.856-.284 1.118-.738 4.974-.795 5.533-.056.559 0 1.509.455 1.23.454-.28 3.406-4.248 3.974-5.31.568-1.061 1.363-2.18 1.59-2.906.227-.838.114-1.508.114-1.508zM59.619 19.086c-.738.335-1.76.223-2.442-.168-.624-.335-2.044-2.347-2.157-3.632-.057-1.285.567-4.75.624-4.974.057-.223-.34-1.62-.17-2.403.227-.782.454-.95.852-.782.454.168.34.615.34.615s.795-2.794 2.044-3.744c1.306-1.006 1.59-.727 2.044-.56.512.168 1.477 1.342 1.363 2.571-.17 1.23-.057 1.845-.738 2.795-.624.95-2.044 2.347-3.01 2.626-.908.28-1.703.223-1.703.223s-.738 3.354-.284 4.192c.455.838 1.193 2.067 2.158 1.732.909-.335 3.01-2.57 3.464-2.85.51-.28.908.28.567 1.006-.17.67-2.214 3.018-2.952 3.353zM60.64 6.904c.227-1.062.284-1.565-.284-1.51-.568.057-1.476 1.398-1.874 1.9-.34.504-.795 2.124-.795 2.124s2.726-1.453 2.953-2.514zm-10.107 3.744c1.987.726 3.464 1.23 3.407 2.18-.057 1.005-.909 2.067-2.158 2.793-1.192.727-6.132 2.012-7.097 2.18-1.022.223-1.42 0-1.76.279-.341.28-.795.224-1.08 0-.283-.223-.737-.782-.624-1.062.057-.28.057-5.867.057-5.867s-.852-.056-1.022-.447c-.17-.336.17-.839.454-1.062.284-.224.454-.336.454-.336s-.34-5.029-.51-5.532c-.17-.503-.455-1.006-.852-1.006-.454 0-1.704.336-2.158 0-.454-.335-.625-.838-.511-1.23.17-.334 0-.726.625-.726.624 0 5.167.447 7.154.839 1.987.447 5.848 1.9 5.735 2.905-.057 1.006-.228 1.51-1.363 2.18-1.136.726-6.132 3.073-6.132 3.073s5.394.112 7.381.839zm-6.189-3.186c1.079-.726 3.634-1.508 4.202-1.9.568-.447-.227-.95-1.476-1.34-1.306-.448-4.43-1.007-4.43-1.007l.171 5.141c0-.055.511-.167 1.533-.894zm-1.533 3.8v5.03s3.123-.168 3.975-.447c.851-.28 4.031-1.51 4.996-2.012.909-.503.511-1.062-.17-1.341-.625-.28-.511-.503-3.01-.727-2.441-.112-5.791-.503-5.791-.503z" fill="#fff"/></svg><svg fill="none" viewBox="0 0 160 160" id="icon-about1" xmlns="http://www.w3.org/2000/svg"><path fill-rule="evenodd" clip-rule="evenodd" d="M55.111 4a3 3 0 0 0-2.988 2.728l-.043.496c-.142 1.666-.406 4.748-1.289 8.09-.995 3.767-2.659 7.378-5.357 9.586-2.906 2.377-7.119 3.989-11.312 4.891-4.224.91-7.923.994-9.6.698A3 3 0 0 0 21 33.444v68.644c0 14.527 7.594 23.183 16.135 28.772 4.215 2.758 8.693 4.798 12.59 6.467.828.355 1.618.688 2.369 1.005l.002.001c2.917 1.231 5.244 2.213 6.916 3.217 7.763 4.657 14.271 9.053 18.548 14.73a2.982 2.982 0 0 0 1.165.969 2.991 2.991 0 0 0 2.55 0 2.983 2.983 0 0 0 1.165-.969c4.277-5.677 10.785-10.073 18.548-14.73 1.672-1.004 3.999-1.986 6.917-3.217.751-.317 1.541-.651 2.37-1.006 3.897-1.669 8.375-3.709 12.59-6.467 8.541-5.589 16.135-14.245 16.135-28.772V33.444a2.999 2.999 0 0 0-3.521-2.955c-1.678.296-5.377.212-9.601-.698-4.193-.902-8.406-2.514-11.312-4.891-2.698-2.208-4.362-5.82-5.357-9.586-.883-3.342-1.147-6.424-1.289-8.09l-.001-.005a81.785 81.785 0 0 0-.042-.491 3.001 3.001 0 0 0-2.988-2.729H55.111zm2.73 6c-.208 1.835-.57 4.274-1.249 6.846-1.118 4.231-3.213 9.305-7.359 12.697-3.939 3.223-9.19 5.111-13.849 6.114-2.984.642-5.933.965-8.384.984v65.447c0 11.917 6.017 18.906 13.42 23.751 3.757 2.458 7.836 4.332 11.667 5.973.705.301 1.413.6 2.115.895 2.965 1.249 5.824 2.453 7.897 3.698 6.618 3.97 13.023 8.132 17.901 13.445 4.878-5.313 11.283-9.475 17.901-13.445 2.073-1.245 4.932-2.449 7.897-3.698.702-.295 1.41-.594 2.115-.895 3.831-1.641 7.91-3.515 11.667-5.973 7.403-4.845 13.42-11.834 13.42-23.751V36.641c-2.451-.02-5.4-.342-8.384-.984-4.66-1.003-9.91-2.891-13.849-6.114-4.146-3.392-6.241-8.466-7.359-12.697-.68-2.572-1.041-5.011-1.249-6.847H57.841z" fill="#77A4C5"/><path fill-rule="evenodd" clip-rule="evenodd" d="M80 57C68.402 57 59 66.4 59 78c0 11.597 9.402 21 21 21s21-9.403 21-21c0-.792-.044-1.572-.128-2.338a3 3 0 1 1 5.963-.659c.109.985.165 1.985.165 2.996 0 14.912-12.088 27-27 27s-27-12.088-27-27c0-14.911 12.088-27 27-27 5.546 0 10.71 1.676 15.002 4.549a3 3 0 0 1-3.337 4.986A20.888 20.888 0 0 0 80 56.999z" fill="#4ECD00"/><path fill-rule="evenodd" clip-rule="evenodd" d="M103.121 61.878a3 3 0 0 1 0 4.243l-21 21a3 3 0 0 1-4.242 0l-11-11a3 3 0 0 1 4.242-4.243L80 80.757l18.879-18.88a3 3 0 0 1 4.242 0z" fill="#4ECD00"/></svg><svg fill="none" viewBox="0 0 160 160" id="icon-about2" xmlns="http://www.w3.org/2000/svg"><path d="M51 76a3 3 0 0 0 0 6c7.554 0 14.378 3.097 19.282 8.1a3 3 0 0 0 4.285-4.2C68.58 79.792 60.23 76 51 76z" fill="#4ECD00"/><path fill-rule="evenodd" clip-rule="evenodd" d="M39 47a3 3 0 0 0-3 3v10a3 3 0 0 0 3 3h3v3.943c-8.684 1.85-16.398 6.321-22.272 12.542l-6.607-6.607A3 3 0 1 0 8.88 77.12l74 74a3.001 3.001 0 0 0 4.242-4.243l-6.607-6.607C88.814 132.434 94 121.322 94 108.999c0-20.661-14.572-37.92-34-42.056v-3.944h3a3 3 0 0 0 3-3V50a3 3 0 0 0-3-3H39zm15 16h-6v3.102a43.632 43.632 0 0 1 6 0V63zm-12-6v-4h18v4H42zm3.25 48.006L23.973 83.73C30.728 76.507 40.337 72 51 72c20.434 0 37 16.565 37 36.999 0 10.663-4.508 20.272-11.73 27.027l-21.277-21.277a6.99 6.99 0 0 0 2.979-6.383L77.49 97.097a3 3 0 0 0-3-5.196L54.92 103.2a6.966 6.966 0 0 0-3.92-1.201 6.993 6.993 0 0 0-5.75 3.007z" fill="#4ECD00"/><path d="M15.997 96.974a3 3 0 0 0-5.674-1.95A42.945 42.945 0 0 0 8 109c0 23.748 19.252 43 43 43 4.887 0 9.59-.816 13.975-2.322a3 3 0 0 0-1.95-5.675A36.938 36.938 0 0 1 51 145.999c-20.434 0-37-16.565-37-37 0-4.215.704-8.259 1.997-12.025z" fill="#4ECD00"/><path d="M128 64a4 4 0 1 0 0-8 4 4 0 0 0 0 8z" fill="#77A4C5"/><path fill-rule="evenodd" clip-rule="evenodd" d="M136.076 8a9.005 9.005 0 0 0-9.757-4.383L106 8.03v-.03H65c-6.627 0-12 5.373-12 12v21a3 3 0 0 0 6 0V30.395A11.945 11.945 0 0 0 65 32h74a3 3 0 0 1 3 3v12h-15c-7.18 0-13 5.82-13 13 0 7.179 5.82 13 13 13h15v12a3 3 0 0 1-3 3H97a3 3 0 0 0 0 6h42a9 9 0 0 0 9-9V73a7 7 0 0 0 7-7V54a7 7 0 0 0-7-7V17a9 9 0 0 0-9-9h-2.924zm-4.914 3.78a3 3 0 0 0-3.57-2.3L65.636 22.932a3 3 0 0 1-1.272-5.863L78.496 14H65a6 6 0 0 0 0 12h74c1.052 0 2.062.18 3 .511V17a3 3 0 0 0-3-3h-1.223l1.156 5.368a3 3 0 0 1-5.866 1.263l-1.905-8.85zM127 53a7 7 0 1 0 0 14h21a1 1 0 0 0 1-1V54a1 1 0 0 0-1-1h-21z" fill="#77A4C5"/></svg><svg fill="none" viewBox="0 0 160 160" id="icon-about3" xmlns="http://www.w3.org/2000/svg"><path fill-rule="evenodd" clip-rule="evenodd" d="M50.056 4.815a3 3 0 0 0-4.112 0l-17 16A3 3 0 0 0 31 25.999h7v13a3 3 0 0 0 3 3h14a3 3 0 0 0 3-3V26h7a3 3 0 0 0 2.056-5.184l-17-16zM41 19.999h-2.435L48 11.12l9.435 8.88H55a3 3 0 0 0-3 3v13h-8V23a3 3 0 0 0-3-3zM50.056 88.184a3 3 0 0 1-4.112 0l-17-16A3 3 0 0 1 31 66.999h7V54a3 3 0 0 1 3-3h14a3 3 0 0 1 3 3v13h7a3 3 0 0 1 2.056 5.185l-17 16zM41 72.999h-2.435L48 81.88 57.435 73H55a3 3 0 0 1-3-3V57h-8v13a3 3 0 0 1-3 3zM90.185 49.055a3 3 0 0 0 0-4.112l-16-17A3 3 0 0 0 69 30v34a3 3 0 0 0 5.185 2.056l16-17zM75 56.435V37.564l8.88 9.435L75 56.434zM5.815 44.943a3 3 0 0 0 0 4.112l16 17A3 3 0 0 0 27 64V30a3 3 0 0 0-5.185-2.056l-16 17zM21 37.564v18.87L12.12 47 21 37.564z" fill="#4ECD00"/><path d="M126.5 91a4.49 4.49 0 0 0-3.5 1.67 4.5 4.5 0 1 0 0 5.657 4.5 4.5 0 1 0 3.5-7.329zM74 109.999a3 3 0 0 1 3-3h6a3 3 0 1 1 0 6h-6a3 3 0 0 1-3-3zM77 115.999a3 3 0 1 0 0 6h6a3 3 0 1 0 0-6h-6zM89 118.999a3 3 0 0 1 3-3h2a3 3 0 1 1 0 6h-2a3 3 0 0 1-3-3zM99 118.999a3 3 0 0 1 3-3h2a3 3 0 1 1 0 6h-2a3 3 0 0 1-3-3zM89 109.999a3 3 0 0 1 3-3h6a3 3 0 1 1 0 6h-6a3 3 0 0 1-3-3zM104 109.999a3 3 0 0 1 3-3h6a3 3 0 1 1 0 6h-6a3 3 0 0 1-3-3zM119 109.999a3 3 0 0 1 3-3h6a3 3 0 1 1 0 6h-6a3 3 0 0 1-3-3z" fill="#77A4C5"/><path fill-rule="evenodd" clip-rule="evenodd" d="M80 69a7 7 0 0 1 7-7h61a7 7 0 0 1 7 7v37.999a7 7 0 0 1-7 7h-8v13a7 7 0 0 1-7 7H72c-.34 0-.673-.024-1-.071v2.871c0 .068-.001.134-.004.2H71v9.8c0 1.981-1.164 3.433-2.277 4.345-1.135.929-2.595 1.633-4.134 2.167-3.107 1.077-7.204 1.688-11.589 1.688-4.385 0-8.482-.611-11.59-1.688-1.228-.426-2.407-.961-3.41-1.633-1.003.672-2.181 1.207-3.41 1.633-3.108 1.077-7.205 1.688-11.59 1.688s-8.482-.611-11.59-1.688c-1.538-.534-2.998-1.238-4.133-2.167C6.164 150.232 5 148.78 5 146.799v-9.8h.004a4.979 4.979 0 0 1-.004-.2v-9.8h.004a4.979 4.979 0 0 1-.004-.2v-9.8h.024a5.15 5.15 0 0 1-.024-.5c0-1.952 1.089-3.432 2.214-4.407 1.132-.982 2.597-1.73 4.147-2.298 3.123-1.146 7.239-1.795 11.639-1.795 4.4 0 8.516.649 11.64 1.795 1.55.568 3.014 1.316 4.146 2.298 1.125.975 2.214 2.455 2.214 4.407 0 .171-.008.337-.024.5H41v2.931c.12-.047.24-.092.36-.136 3.124-1.146 7.24-1.795 11.64-1.795s8.516.649 11.64 1.795c.12.044.24.089.36.136V89a7 7 0 0 1 7-7h8V69zm-9 57.999v-38a1 1 0 0 1 1-1h61a1 1 0 0 1 1 1v38a1 1 0 0 1-1 1H72a1 1 0 0 1-1-1zm77-19h-8v-15.5h9V107a1 1 0 0 1-1 1zm1-21.5h-9.46A7.002 7.002 0 0 0 133 82H86v-3.75h63v8.25zM86 72.25h63V69a1 1 0 0 0-1-1H87a1 1 0 0 0-1 1v3.25zm-75.069 44.592l-.009.015.003-.004a.08.08 0 0 0 .006-.011zm2.495-1.414c-1.023.375-1.713.758-2.126 1.072.413.314 1.103.697 2.126 1.073 2.306.845 5.69 1.427 9.574 1.427 3.884 0 7.268-.582 9.574-1.427 1.023-.376 1.713-.759 2.126-1.073-.413-.314-1.103-.697-2.126-1.072-2.306-.846-5.69-1.428-9.574-1.428-3.884 0-7.268.582-9.574 1.428zm21.652 1.429l-.01-.015c.008.01.01.015.01.015zm-.01-.699l.01-.014s-.002.005-.01.014zm-24.137 0c-.007-.009-.009-.014-.009-.014l.01.014zM11 146.434v-3.271c.136.051.273.1.41.148 3.108 1.077 7.205 1.688 11.59 1.688s8.482-.611 11.59-1.688c.137-.048.274-.097.41-.148v3.271l-.08.069c-.384.315-1.12.731-2.296 1.139-2.322.805-5.725 1.357-9.624 1.357-3.9 0-7.302-.552-9.624-1.357-1.175-.408-1.912-.824-2.295-1.139a1.721 1.721 0 0 1-.081-.069zm30 0v-3.271c.136.051.273.1.41.148 3.108 1.077 7.205 1.688 11.59 1.688s8.482-.611 11.59-1.688c.137-.048.274-.097.41-.148v3.271l-.08.069c-.384.315-1.12.731-2.296 1.139-2.322.805-5.725 1.357-9.624 1.357-3.9 0-7.302-.552-9.624-1.357-1.175-.408-1.912-.824-2.295-1.139a1.721 1.721 0 0 1-.081-.069zm.08-9.931a1.721 1.721 0 0 1-.08-.069v-3.365c.12.046.24.092.36.136 3.124 1.145 7.24 1.794 11.64 1.794s8.516-.649 11.64-1.794c.12-.044.24-.09.36-.136v3.365a.61.61 0 0 1-.03.027l-.05.042c-.384.315-1.12.731-2.296 1.139-2.322.805-5.725 1.357-9.624 1.357-3.9 0-7.302-.552-9.624-1.357-1.175-.408-1.912-.824-2.295-1.139zM11 136.434v-3.271c.136.051.273.1.41.148 3.108 1.077 7.205 1.688 11.59 1.688s8.482-.611 11.59-1.688c.137-.048.274-.097.41-.148v3.271l-.08.069c-.384.315-1.12.731-2.296 1.139-2.322.805-5.725 1.357-9.624 1.357-3.9 0-7.302-.552-9.624-1.357-1.175-.408-1.912-.824-2.295-1.139a1.721 1.721 0 0 1-.081-.069zm24-13.365c-.12.046-.24.092-.36.136-3.124 1.145-7.24 1.794-11.64 1.794s-8.516-.649-11.64-1.794c-.12-.044-.24-.09-.36-.136v3.365l.08.069c.384.315 1.12.731 2.296 1.139 2.322.805 5.725 1.357 9.624 1.357 3.9 0 7.302-.552 9.624-1.357 1.175-.408 1.912-.824 2.295-1.139.031-.025.058-.048.081-.069v-3.365zm-24.111 3.254zm24.222 10a.154.154 0 0 0 .012-.016l-.004.005a.06.06 0 0 0-.008.011zm-24.23-.011l.008.011a.108.108 0 0 0-.012-.016l.003.005zm32.545-10.885c-1.023.375-1.713.758-2.126 1.072.413.314 1.103.697 2.126 1.073 2.306.845 5.69 1.427 9.574 1.427 3.884 0 7.268-.582 9.574-1.427 1.023-.376 1.713-.759 2.126-1.073-.413-.314-1.103-.697-2.126-1.072-2.306-.846-5.69-1.428-9.574-1.428-3.884 0-7.268.582-9.574 1.428zm21.697 10.88l-.012.016.012-.016zm0 10l-.012.016.012-.016zm-30.012.016a.154.154 0 0 0 .012-.016l-.004.005a.066.066 0 0 0-.008.011zm-24.231-.012z" fill="#77A4C5"/></svg><svg fill="none" viewBox="0 0 160 160" id="icon-about4" xmlns="http://www.w3.org/2000/svg"><path d="M64 22a3 3 0 0 1 3-3h9a3 3 0 0 1 0 6h-6v3h15a3 3 0 1 1 0 6H67a3 3 0 0 1-3-3v-9z" fill="#77A4C5"/><path fill-rule="evenodd" clip-rule="evenodd" d="M12.19 70.376c.808-6.526 6.755-11.16 13.28-10.35 6.526.808 11.16 6.755 10.35 13.28-.809 6.526-6.755 11.16-13.28 10.35-6.526-.809-11.16-6.755-10.35-13.28zm12.542-4.396a5.906 5.906 0 1 0-1.454 11.722 5.906 5.906 0 0 0 1.454-11.722zM121.941 70.376c.81-6.526 6.756-11.16 13.281-10.35 6.526.808 11.16 6.755 10.351 13.28-.809 6.526-6.756 11.16-13.281 10.35-6.526-.809-11.16-6.755-10.351-13.28zm12.543-4.396A5.906 5.906 0 1 0 133.03 77.7a5.906 5.906 0 0 0 1.454-11.721z" fill="#77A4C5"/><path fill-rule="evenodd" clip-rule="evenodd" d="M40.027 56.7c4.356 4.615 6.696 11.065 5.854 17.854-1.498 12.082-12.507 20.662-24.589 19.163C9.21 92.22.63 81.21 2.128 69.128 3.611 57.175 14.403 48.65 26.333 49.92l8.006-11.529-13.27.155a5 5 0 0 1-4.872-3.645l-.475-1.69a5 5 0 0 1 4.034-6.292l.207-.033-.945-8.557a3 3 0 0 1 2.65-3.311l27-3a3.46 3.46 0 0 1 .046-.005l.278-.273a6 6 0 0 1 4.26-1.716l23.992.233a8 8 0 0 1 5.103 1.904l15.678 13.324 22.081.214a7.004 7.004 0 0 1 2.909.664l12.994 6.104a4 4 0 0 1 2.082 4.922l-1.035 3.006a4 4 0 0 1-3.573 2.693l-16.573.868 5.852 8.778a21.946 21.946 0 0 1 13.708-2.77c12.082 1.499 20.662 12.508 19.164 24.59-1.499 12.082-12.508 20.662-24.59 19.163-12.082-1.498-20.662-12.507-19.163-24.589a22.014 22.014 0 0 1 1.914-6.653l-11.498-6.9a29.68 29.68 0 0 0-1.105 5.63c-.259 2.623-2.544 4.888-5.457 4.688l-35.397-2.427a5 5 0 0 1-3.228-1.487l-2.46-2.509c-1.128-1.15-1.529-2.636-1.52-3.896.008-1.041-.144-3.53-1.362-7.759L40.028 56.7zm80.437-24.906l11.369 5.34-.011.033-15.8.827a12.167 12.167 0 0 0-1.23.008c-.842.046-1.994.186-3.348.55-2.727.73-6.219 2.353-9.595 5.826-4.682 4.817-6.095 11.723-6.544 15.471l-34.178-2.343-1.996-2.036c-.004-1.79-.303-4.986-1.756-9.858-.742-2.489-2.357-4.515-4.09-6.1-1.746-1.598-3.78-2.902-5.648-3.917a45.411 45.411 0 0 0-7.055-3.067l-.075-.025-.055-.018-.039-.012-.012-.004-.004-.001h-.002s-.001-.001-.85 2.716l.849-2.717-.454-.142-17.225.201 16.268-2.565 14.21-13.937 23.993.232a2 2 0 0 1 1.275.476l17.333 14.732 24.254.235c.144.001.286.034.416.095zm-75.693 9.072a38.752 38.752 0 0 0-3.644-1.73l-8.592 12.372c.92.386 1.806.83 2.653 1.33l12.96-9.808c-1.033-.796-2.196-1.522-3.377-2.164zm72.294 16.574c.303-.351.617-.692.941-1.023l-7.432-11.148c-1.36.676-2.884 1.708-4.423 3.291a12.95 12.95 0 0 0-1.288 1.558l12.202 7.322zM25.896 25.95l10.256-1.617 5.62-5.512-16.461 1.829.585 5.3zm.083 29.969c-8.793-1.09-16.806 5.154-17.896 13.948-1.09 8.793 5.154 16.805 13.947 17.896 8.794 1.09 16.806-5.154 17.897-13.948 1.09-8.793-5.154-16.806-13.948-17.896zm109.753 0c-8.794-1.09-16.806 5.154-17.897 13.948-1.09 8.793 5.154 16.805 13.948 17.896 8.793 1.09 16.806-5.154 17.896-13.948 1.091-8.793-5.154-16.806-13.947-17.896z" fill="#77A4C5"/><circle cx="66" cy="112.999" r="9" stroke="#4ECD00" stroke-width="6"/><circle cx="66" cy="112.999" r="3" fill="#4ECD00"/><circle cx="108" cy="112.999" r="9" stroke="#4ECD00" stroke-width="6"/><circle cx="108" cy="112.999" r="3" fill="#4ECD00"/><circle cx="87" cy="128.999" r="3" fill="#4ECD00"/><path fill-rule="evenodd" clip-rule="evenodd" d="M90 82a3 3 0 0 0-6 0v6h-3a3 3 0 0 0-3 3v4h-.634c-2.223-2.253-6.558-5-13.366-5-8.383 0-13.419 4.705-14.898 10.223-2.596 9.686-8.359 30.594-9.481 34.434-.8 2.736-1.3 6.514-.48 10.056.855 3.701 3.217 7.259 8.015 8.665 3.671 1.076 7.357.93 10.784-.633 2.949-1.344 5.516-3.648 7.68-6.746H108.101c2.164 3.098 4.731 5.402 7.68 6.746 3.427 1.563 7.112 1.709 10.784.633 4.797-1.406 7.16-4.964 8.016-8.665.818-3.542.319-7.32-.481-10.056-1.122-3.84-6.885-24.748-9.481-34.434-1.479-5.518-6.515-10.224-14.898-10.224-6.808 0-11.143 2.748-13.366 5H96v-4a3 3 0 0 0-3-3h-3v-6zm0 13v-1h-6v1h6zm-15.523 5.999h24.767l.899-1.23c.669-.914 3.54-3.77 9.578-3.77 5.781 0 8.355 2.99 9.102 5.777 2.597 9.69 8.375 30.655 9.518 34.565.617 2.108.909 4.792.394 7.021-.478 2.068-1.574 3.589-3.858 4.258-2.434.714-4.623.571-6.607-.334-2.026-.924-4.091-2.759-5.993-5.857l-.878-1.43H62.322l-.879 1.43c-1.901 3.098-3.966 4.933-5.992 5.857-1.984.905-4.173 1.048-6.607.334-2.285-.669-3.38-2.19-3.858-4.258-.515-2.229-.223-4.913.393-7.021 1.144-3.91 6.922-24.875 9.519-34.565.747-2.787 3.32-5.777 9.102-5.777 6.038 0 8.91 2.856 9.578 3.77l.899 1.23z" fill="#77A4C5"/><rect x="81" y="106.999" width="12" height="6" rx="3" fill="#4ECD00"/><rect x="76" y="130.999" width="9" height="6" rx="3" fill="#4ECD00"/><rect x="76" y="120.999" width="9" height="6" rx="3" fill="#4ECD00"/><rect x="89" y="130.999" width="9" height="6" rx="3" fill="#4ECD00"/><rect x="89" y="120.999" width="9" height="6" rx="3" fill="#4ECD00"/></svg><svg fill="none" viewBox="0 0 24 24" id="icon-bullet" xmlns="http://www.w3.org/2000/svg"><path fill-rule="evenodd" clip-rule="evenodd" d="M12 3a9 9 0 1 0 8.945 7.998 1 1 0 0 1 1.988-.22c.044.402.067.81.067 1.222 0 6.075-4.925 11-11 11S1 18.075 1 12 5.925 1 12 1c2.26 0 4.363.682 6.112 1.853a1 1 0 1 1-1.113 1.662A8.953 8.953 0 0 0 12 3z" fill="#77A4C5"/><path fill-rule="evenodd" clip-rule="evenodd" d="M22.707 4.293a1 1 0 0 1 0 1.414l-10 10a1 1 0 0 1-1.414 0l-5-5a1 1 0 0 1 1.414-1.414L12 13.586l9.293-9.293a1 1 0 0 1 1.414 0z" fill="#4ECD00"/></svg><svg fill="none" viewBox="0 0 100 100" id="icon-car-settings-4" xmlns="http://www.w3.org/2000/svg"><path d="M51.094 29.878L46.5 28.5 46 31l5.077.846a1 1 0 0 1 .83 1.085l-.045.459a1 1 0 0 1-1.118.893l-5.248-.65.92 1.835a2 2 0 0 1-.653 2.543l-13.588 9.361a2 2 0 0 1-1.38.338l-1.034-.128a2 2 0 0 1-1.331-.756l-1.32-1.693-2.665 6.906a1 1 0 0 1-1.504.461l-.816-.566a1 1 0 0 1-.374-1.152l2.749-7.858-2.35-.526-1.838 7.263a1 1 0 0 1-1.204.727l-.724-.175a1 1 0 0 1-.755-1.113L18.5 43h-1l-4.24 3.452a1.81 1.81 0 0 1-2.474-2.628l1.903-2.07 1.077-8.684a3 3 0 0 1 1.133-1.997l8.153-6.354a5 5 0 0 1 3.237-1.054l9.803.321 8.336-6.496a4 4 0 0 1 2.385-.845l5.384-.1a1 1 0 0 1 .96.667l.25.706a1 1 0 0 1-.494 1.227l-5.992 3.004-.26 2.088 5.278 2.95a1 1 0 0 1 .509.953l-.07.861a1 1 0 0 1-1.284.877z" fill="#77A4C5"/><path fill-rule="evenodd" clip-rule="evenodd" d="M79.357 34.121c-.894 7.208-7.461 12.326-14.668 11.432-7.207-.894-12.325-7.46-11.432-14.668.894-7.207 7.461-12.325 14.668-11.431 7.207.893 12.325 7.46 11.432 14.667zm-6.947-.86a6.15 6.15 0 1 1-12.206-1.515A6.15 6.15 0 0 1 72.41 33.26z" fill="#77A4C5"/><path d="M95.398 85H4.248c-.867 0-1.323-1.026-.744-1.67l2.711-3.008a4 4 0 0 1 3.747-1.246l8.823 1.742 6.417-3.54a12 12 0 0 1 8.058-1.279L47 78.636l17.701-27.61a6 6 0 0 1 3.638-2.593l8.161-1.979 2.758-4.569c.785-1.3 2.675-1.286 3.44.026l1.612 2.764a3 3 0 0 1 .293.687L86.5 52l1.94 1.41a5 5 0 0 1 1.889 2.758l7.002 26.318A2 2 0 0 1 95.398 85z" fill="#77A4C5"/><path fill-rule="evenodd" clip-rule="evenodd" d="M13.05 77.31c7.207.894 13.774-4.224 14.668-11.431.893-7.208-4.225-13.775-11.432-14.668-7.207-.894-13.774 4.224-14.668 11.431C.725 69.85 5.843 76.416 13.05 77.31zm.861-6.947a6.15 6.15 0 1 0 1.513-12.206 6.15 6.15 0 0 0-1.513 12.206z" fill="#77A4C5"/></svg><svg fill="none" viewBox="0 0 100 100" id="icon-car-settings-5" xmlns="http://www.w3.org/2000/svg"><path d="M21.35 6.983a2 2 0 0 1 2.244-1.723l7.932 1.04a2 2 0 0 1 1.723 2.243l-2.6 19.83a2 2 0 0 1-2.243 1.723l-7.932-1.04a2 2 0 0 1-1.723-2.243l2.6-19.83z" fill="#77A4C5"/><path fill-rule="evenodd" clip-rule="evenodd" d="M33.5 20l.5-4h34l-.5 4H56v14h4c5.523 0 10 4.477 10 10v11c0 5.523-4.477 10-10 10h-4v15h12v4H34v-4h12V65h-4c-5.523 0-10-4.477-10-10V44c0-5.523 4.477-10 10-10h4V20H33.5zM60 40H42a4 4 0 0 0-4 4v11a4 4 0 0 0 4 4h18a4 4 0 0 0 4-4V44a4 4 0 0 0-4-4z" fill="#77A4C5"/><path d="M20 72a2 2 0 0 1 2-2h8a2 2 0 0 1 2 2v20a2 2 0 0 1-2 2h-8a2 2 0 0 1-2-2V72zM72 70a2 2 0 0 0-2 2v20a2 2 0 0 0 2 2h8a2 2 0 0 0 2-2V72a2 2 0 0 0-2-2h-8zM73.103 5.26a2 2 0 0 0-2.243 1.723l-2.6 19.83a2 2 0 0 0 1.723 2.243l7.932 1.04a2 2 0 0 0 2.243-1.723l2.6-19.83A2 2 0 0 0 81.035 6.3l-7.932-1.04z" fill="#77A4C5"/></svg><svg fill="none" viewBox="0 0 100 100" id="icon-car-settings-6" xmlns="http://www.w3.org/2000/svg"><path d="M48 18a3 3 0 0 1 6 0v10a3 3 0 0 1-6 0V18z" fill="#77A4C5"/><path fill-rule="evenodd" clip-rule="evenodd" d="M51 65c8.284 0 15-6.716 15-15 0-8.285-6.716-15-15-15-8.284 0-15 6.715-15 15 0 8.284 6.716 15 15 15zm0-6a9 9 0 1 0 0-18 9 9 0 0 0 0 18z" fill="#77A4C5"/><path d="M51 70a3 3 0 0 0-3 3v10a3 3 0 0 0 6 0V73a3 3 0 0 0-3-3zM25.898 25.398a3 3 0 0 0 0 4.242l7.07 7.071a3 3 0 1 0 4.243-4.242l-7.07-7.072a3 3 0 0 0-4.243 0zM64.788 64.288a3 3 0 0 0 0 4.243l7.072 7.071a3 3 0 0 0 4.242-4.243l-7.07-7.07a3 3 0 0 0-4.243 0zM71.86 25.398a3 3 0 1 1 4.242 4.242l-7.07 7.071a3 3 0 0 1-4.243-4.242l7.07-7.072zM32.969 64.288a3 3 0 0 1 4.242 4.243l-7.07 7.071a3 3 0 1 1-4.243-4.243l7.07-7.07zM83.5 47.278a3 3 0 0 1 0 6h-10a3 3 0 0 1 0-6h10zM31.5 50.721a3 3 0 0 0-3-3h-10a3 3 0 1 0 0 6h10a3 3 0 0 0 3-3z" fill="#77A4C5"/></svg><svg fill="none" viewBox="0 0 100 100" id="icon-car-settings-7" xmlns="http://www.w3.org/2000/svg"><path fill-rule="evenodd" clip-rule="evenodd" d="M43.846 19.584L24.024 34H16C9.343 34 4 39.343 4 46v8c0 6.697 5.571 12 12 12h8.024l19.822 14.416A8.282 8.282 0 0 0 57 73.718V26.282a8.282 8.282 0 0 0-13.154-6.698zm3.53 4.852A2.282 2.282 0 0 1 51 26.282v47.436a2.282 2.282 0 0 1-3.625 1.845l-20.61-14.99A3 3 0 0 0 25 60h-9c-3.196 0-6-2.697-6-6v-8c0-3.343 2.657-6 6-6h9a3 3 0 0 0 1.765-.574l20.61-14.99z" fill="#77A4C5"/><path d="M77.952 21.375a3 3 0 1 0-2.904 5.25C83.374 31.23 89 40.095 89 50.269c0 10.175-5.626 19.04-13.952 23.644a3 3 0 0 0 2.904 5.25C88.111 73.546 95 62.714 95 50.27c0-12.444-6.89-23.275-17.048-28.894z" fill="#77A4C5"/><path d="M66.808 29.797a2.5 2.5 0 0 1 3.395-.989C77.523 32.826 82.5 40.58 82.5 49.5S77.523 66.173 70.203 70.19a2.5 2.5 0 1 1-2.406-4.383c5.797-3.182 9.703-9.3 9.703-16.308 0-7.01-3.906-13.126-9.703-16.309a2.5 2.5 0 0 1-.989-3.394z" fill="#77A4C5"/><path d="M63.093 38.325a2 2 0 1 0-2.186 3.35C63.262 43.212 65 46.294 65 50c0 3.704-1.738 6.787-4.093 8.325a2 2 0 1 0 2.186 3.35C66.7 59.32 69 54.904 69 50c0-4.906-2.3-9.32-5.907-11.675z" fill="#77A4C5"/></svg><svg fill="none" viewBox="0 0 100 100" id="icon-car-settings-8" xmlns="http://www.w3.org/2000/svg"><path d="M29.04 25h9.98v-2.54h-6.221v-.136l1.836-1.729c1.224-1.12 2.077-1.982 2.558-2.587.489-.606.847-1.195 1.075-1.768a4.9 4.9 0 0 0 .351-1.855c0-.756-.189-1.426-.566-2.012-.378-.586-.908-1.042-1.592-1.367-.684-.326-1.471-.489-2.363-.489a7.58 7.58 0 0 0-1.836.205 6.27 6.27 0 0 0-1.514.567c-.462.247-1.045.67-1.748 1.27l1.64 1.943c.567-.469 1.11-.83 1.632-1.084a3.636 3.636 0 0 1 1.61-.381c.528 0 .948.14 1.26.42.32.28.48.706.48 1.28 0 .383-.072.754-.216 1.112-.143.358-.377.75-.703 1.172-.325.417-1.019 1.169-2.08 2.256L29.039 22.9V25zM42.428 27.578c.807-1.803 1.38-3.363 1.719-4.678L44 22.676h-2.734a56.83 56.83 0 0 1-.987 4.902h2.149z" fill="#77A4C5"/><path fill-rule="evenodd" clip-rule="evenodd" d="M56.568 22.04H54.85V25H51.9v-2.96h-6.093v-2.099l6.26-9.219h2.783v8.975h1.718v2.344zM51.9 19.698v-2.422c0-.403.017-.99.05-1.758.032-.768.058-1.214.077-1.338h-.078c-.24.534-.53 1.055-.869 1.563l-2.617 3.955H51.9z" fill="#77A4C5"/><path d="M69.772 16.982h-5.665v2.52h2.706v2.978a9.793 9.793 0 0 1-1.924.195c-1.211 0-2.136-.406-2.774-1.22-.631-.82-.947-2.005-.947-3.555 0-1.484.394-2.666 1.182-3.545.787-.879 1.836-1.318 3.144-1.318 1.126 0 2.21.26 3.252.781l1.006-2.422a10.61 10.61 0 0 0-4.238-.879c-2.338 0-4.167.645-5.489 1.934-1.315 1.289-1.972 3.086-1.972 5.39 0 2.37.566 4.19 1.699 5.46 1.14 1.263 2.786 1.894 4.941 1.894.847 0 1.674-.062 2.48-.186a15.57 15.57 0 0 0 2.599-.625v-7.402zM84.879 25H81.86v-6.162h-5.654V25H73.18V10.722h3.027v5.596h5.654v-5.596h3.018V25zM87.232 25h8.624v-2.276h-5.098l4.922-6.709v-1.933h-8.145v2.275h4.756l-5.059 6.885V25zM4 26a3 3 0 0 1 3-3h10a3 3 0 0 1 3 3v58a3 3 0 0 1-3 3H7a3 3 0 0 1-3-3V26zM29 41a3 3 0 0 1 3-3h10a3 3 0 0 1 3 3v43a3 3 0 0 1-3 3H32a3 3 0 0 1-3-3V41zM57 53a3 3 0 0 0-3 3v28a3 3 0 0 0 3 3h10a3 3 0 0 0 3-3V56a3 3 0 0 0-3-3H57zM79 69a3 3 0 0 1 3-3h10a3 3 0 0 1 3 3v15a3 3 0 0 1-3 3H82a3 3 0 0 1-3-3V69z" fill="#77A4C5"/></svg><svg fill="none" viewBox="0 0 100 100" id="icon-car-settings-9" xmlns="http://www.w3.org/2000/svg"><path d="M13 33a3 3 0 0 0-3 3v28a3 3 0 0 0 3 3h10a3 3 0 0 0 3-3V36a3 3 0 0 0-3-3H13zM29 36a3 3 0 0 1 3-3h10a3 3 0 0 1 3 3v28a3 3 0 0 1-3 3H32a3 3 0 0 1-3-3V36zM51 33a3 3 0 0 0-3 3v28a3 3 0 0 0 3 3h10a3 3 0 0 0 3-3V36a3 3 0 0 0-3-3H51zM67 36a3 3 0 0 1 3-3h10a3 3 0 0 1 3 3v28a3 3 0 0 1-3 3H70a3 3 0 0 1-3-3V36z" fill="#77A4C5"/><path fill-rule="evenodd" clip-rule="evenodd" d="M13 26C7.477 26 3 30.477 3 36v28c0 5.523 4.477 10 10 10h67c5.523 0 10-4.477 10-10v-4h4a3 3 0 0 0 3-3V43a3 3 0 0 0-3-3h-4v-4c0-5.523-4.477-10-10-10H13zM7 36a6 6 0 0 1 6-6h67a6 6 0 0 1 6 6v28a6 6 0 0 1-6 6H13a6 6 0 0 1-6-6V36z" fill="#77A4C5"/></svg><svg fill="none" viewBox="0 0 32 32" id="icon-close" xmlns="http://www.w3.org/2000/svg"><path d="M7 15a1 1 0 1 0 0 2h18a1 1 0 1 0 0-2H7z" fill="#4ECD00"/><path fill-rule="evenodd" clip-rule="evenodd" d="M5 0a5 5 0 0 0-5 5v22a5 5 0 0 0 5 5h22a5 5 0 0 0 5-5V5a5 5 0 0 0-5-5H5zM2 5a3 3 0 0 1 3-3h22a3 3 0 0 1 3 3v22a3 3 0 0 1-3 3H5a3 3 0 0 1-3-3V5z" fill="#4ECD00"/></svg><svg fill="none" viewBox="0 0 32 32" id="icon-open" xmlns="http://www.w3.org/2000/svg"><path d="M15 7a1 1 0 1 1 2 0v8h8a1 1 0 1 1 0 2h-8v8a1 1 0 1 1-2 0v-8H7a1 1 0 1 1 0-2h8V7z" fill="#3FA1E9"/><path fill-rule="evenodd" clip-rule="evenodd" d="M0 5a5 5 0 0 1 5-5h22a5 5 0 0 1 5 5v22a5 5 0 0 1-5 5H5a5 5 0 0 1-5-5V5zm5-3a3 3 0 0 0-3 3v22a3 3 0 0 0 3 3h22a3 3 0 0 0 3-3V5a3 3 0 0 0-3-3H5z" fill="#3FA1E9"/></svg><svg fill="none" viewBox="0 0 26 25" id="star-ico" xmlns="http://www.w3.org/2000/svg"><path fill-rule="evenodd" clip-rule="evenodd" d="M13 0l4.285 7.8L26 9.48l-6.067 6.501 1.1 8.837L13 21.036l-8.035 3.782 1.102-8.837L0 9.48 8.715 7.8 13 0z" fill="#EEC32F"/></svg><svg fill="none" viewBox="0 0 1600 98" id="top-bg" xmlns="http://www.w3.org/2000/svg"><path d="M0 80l103-33 165 25 197-49 484 63 297-86 137 56.25L1489 38l111 37v23H0V80z" fill="#fff"/></svg></svg>